<svg width="921" height="925" viewBox="0 0 921 925" fill="none" xmlns="http://www.w3.org/2000/svg">
<path fill-rule="evenodd" clip-rule="evenodd" d="M920.047 502L521.297 590.644L514.797 561.356L920.047 471V502Z" fill="#1B3025"/>
<path fill-rule="evenodd" clip-rule="evenodd" d="M552.047 924L391.648 374.203L420.447 365.797L583.547 924H552.047Z" fill="#1B3025"/>
<path fill-rule="evenodd" clip-rule="evenodd" d="M395.09 381.505L545.09 0.505127H577.047L423.004 392.495L395.09 381.505Z" fill="#1B3025"/>
<path fill-rule="evenodd" clip-rule="evenodd" d="M424.997 383.76C425.682 392.016 419.544 399.264 411.288 399.949L0.046875 434V404L408.809 370.051C417.065 369.367 424.312 375.505 424.997 383.76Z" fill="#1B3025"/>
<path d="M458.165 507.598C503.123 502.139 543.993 534.159 549.451 579.116C554.91 624.073 522.891 664.943 477.933 670.402C432.976 675.861 392.106 643.841 386.647 598.884C381.188 553.927 413.208 513.057 458.165 507.598Z" fill="#1B3025"/>
<path d="M446.047 523.833L448.949 518.581L454.201 521.484L451.298 526.735L446.047 523.833Z" fill="#747D5D"/>
<path d="M434.441 544.838L437.344 539.587L442.595 542.489L439.693 547.74L434.441 544.838Z" fill="#747D5D"/>
<path d="M422.832 565.843L425.734 560.592L430.986 563.494L428.083 568.745L422.832 565.843Z" fill="#747D5D"/>
<path d="M411.227 586.848L414.129 581.597L419.38 584.499L416.478 589.751L411.227 586.848Z" fill="#747D5D"/>
<path d="M428.633 555.341L431.535 550.09L436.786 552.992L433.884 558.243L428.633 555.341Z" fill="#747D5D"/>
<path d="M440.246 534.335L443.148 529.083L448.4 531.986L445.497 537.237L440.246 534.335Z" fill="#747D5D"/>
<path d="M430.984 563.494L433.887 558.243L439.138 561.145L436.236 566.397L430.984 563.494Z" fill="#747D5D"/>
<path d="M417.023 576.346L419.926 571.095L425.177 573.997L422.275 579.249L417.023 576.346Z" fill="#747D5D"/>
<path d="M405.418 597.351L408.32 592.1L413.572 595.002L410.669 600.254L405.418 597.351Z" fill="#747D5D"/>
<path d="M399.609 607.854L402.512 602.603L407.763 605.505L404.861 610.757L399.609 607.854Z" fill="#747D5D"/>
<path d="M420.617 619.464L423.519 614.212L428.771 617.114L425.869 622.366L420.617 619.464Z" fill="#747D5D"/>
<path d="M441.621 631.073L444.523 625.821L449.775 628.724L446.872 633.975L441.621 631.073Z" fill="#747D5D"/>
<path d="M410.113 613.659L413.016 608.408L418.267 611.31L415.365 616.561L410.113 613.659Z" fill="#747D5D"/>
<path d="M431.117 625.268L434.019 620.017L439.271 622.919L436.369 628.17L431.117 625.268Z" fill="#747D5D"/>
<path d="M452.125 636.877L455.027 631.626L460.279 634.528L457.376 639.779L452.125 636.877Z" fill="#747D5D"/>
<path d="M462.629 642.682L465.531 637.431L470.783 640.333L467.88 645.584L462.629 642.682Z" fill="#747D5D"/>
<path d="M473.129 648.487L476.031 643.235L481.283 646.138L478.38 651.389L473.129 648.487Z" fill="#747D5D"/>
<path d="M483.633 654.291L486.535 649.04L491.786 651.942L488.884 657.193L483.633 654.291Z" fill="#747D5D"/>
<path d="M442.59 542.489L445.492 537.238L450.743 540.14L447.841 545.392L442.59 542.489Z" fill="#747D5D"/>
<path d="M419.375 584.5L422.277 579.248L427.529 582.15L424.626 587.402L419.375 584.5Z" fill="#747D5D"/>
<path d="M407.77 605.505L410.672 600.253L415.923 603.156L413.021 608.407L407.77 605.505Z" fill="#747D5D"/>
<path d="M428.773 617.114L431.676 611.863L436.927 614.765L434.025 620.016L428.773 617.114Z" fill="#747D5D"/>
<path d="M449.781 628.723L452.684 623.472L457.935 626.374L455.033 631.625L449.781 628.723Z" fill="#747D5D"/>
<path d="M418.273 611.309L421.176 606.058L426.427 608.96L423.525 614.212L418.273 611.309Z" fill="#747D5D"/>
<path d="M439.277 622.918L442.18 617.667L447.431 620.569L444.529 625.821L439.277 622.918Z" fill="#747D5D"/>
<path d="M460.285 634.528L463.187 629.276L468.439 632.179L465.537 637.43L460.285 634.528Z" fill="#747D5D"/>
<path d="M470.777 640.333L473.68 635.082L478.931 637.984L476.029 643.235L470.777 640.333Z" fill="#747D5D"/>
<path d="M467.055 535.442L469.957 530.191L475.208 533.093L472.306 538.344L467.055 535.442Z" fill="#747D5D"/>
<path d="M488.059 547.051L490.961 541.8L496.212 544.702L493.31 549.953L488.059 547.051Z" fill="#747D5D"/>
<path d="M509.062 558.66L511.965 553.409L517.216 556.311L514.314 561.563L509.062 558.66Z" fill="#747D5D"/>
<path d="M456.551 529.637L459.453 524.386L464.704 527.288L461.802 532.54L456.551 529.637Z" fill="#747D5D"/>
<path d="M477.555 541.247L480.457 535.995L485.708 538.898L482.806 544.149L477.555 541.247Z" fill="#747D5D"/>
<path d="M436.793 552.991L439.695 547.74L444.947 550.642L442.044 555.894L436.793 552.991Z" fill="#747D5D"/>
<path d="M498.562 552.856L501.465 547.604L506.716 550.507L503.814 555.758L498.562 552.856Z" fill="#747D5D"/>
<path d="M519.566 564.465L522.469 559.213L527.72 562.116L524.818 567.367L519.566 564.465Z" fill="#747D5D"/>
<path d="M530.07 570.269L532.973 565.018L538.224 567.92L535.322 573.172L530.07 570.269Z" fill="#747D5D"/>
<path d="M518.461 591.275L521.363 586.023L526.615 588.925L523.712 594.177L518.461 591.275Z" fill="#747D5D"/>
<path d="M506.855 612.28L509.758 607.028L515.009 609.931L512.107 615.182L506.855 612.28Z" fill="#747D5D"/>
<path d="M495.238 633.286L498.141 628.035L503.392 630.937L500.49 636.188L495.238 633.286Z" fill="#747D5D"/>
<path d="M524.262 580.773L527.164 575.521L532.415 578.424L529.513 583.675L524.262 580.773Z" fill="#747D5D"/>
<path d="M512.656 601.778L515.559 596.526L520.81 599.429L517.908 604.68L512.656 601.778Z" fill="#747D5D"/>
<path d="M501.047 622.783L503.949 617.532L509.201 620.434L506.298 625.685L501.047 622.783Z" fill="#747D5D"/>
<path d="M489.441 643.788L492.344 638.537L497.595 641.439L494.693 646.69L489.441 643.788Z" fill="#747D5D"/>
<path d="M448.398 531.986L451.301 526.735L456.552 529.637L453.65 534.888L448.398 531.986Z" fill="#747D5D"/>
<path d="M425.176 573.998L428.078 568.746L433.329 571.649L430.427 576.9L425.176 573.998Z" fill="#747D5D"/>
<path d="M413.57 595.003L416.473 589.751L421.724 592.654L418.822 597.905L413.57 595.003Z" fill="#747D5D"/>
<path d="M469.406 543.595L472.309 538.344L477.56 541.246L474.658 546.498L469.406 543.595Z" fill="#747D5D"/>
<path d="M490.41 555.204L493.312 549.953L498.564 552.855L495.662 558.107L490.41 555.204Z" fill="#747D5D"/>
<path d="M511.414 566.814L514.316 561.562L519.568 564.465L516.665 569.716L511.414 566.814Z" fill="#747D5D"/>
<path d="M458.902 537.791L461.805 532.539L467.056 535.442L464.154 540.693L458.902 537.791Z" fill="#747D5D"/>
<path d="M479.906 549.4L482.809 544.148L488.06 547.051L485.158 552.302L479.906 549.4Z" fill="#747D5D"/>
<path d="M500.914 561.009L503.816 555.758L509.068 558.66L506.165 563.911L500.914 561.009Z" fill="#747D5D"/>
<path d="M521.918 572.618L524.82 567.367L530.072 570.269L527.169 575.52L521.918 572.618Z" fill="#747D5D"/>
<path d="M510.312 593.623L513.215 588.372L518.466 591.274L515.564 596.526L510.312 593.623Z" fill="#747D5D"/>
<path d="M498.695 614.63L501.598 609.378L506.849 612.28L503.947 617.532L498.695 614.63Z" fill="#747D5D"/>
<path d="M487.09 635.635L489.992 630.383L495.243 633.286L492.341 638.537L487.09 635.635Z" fill="#747D5D"/>
<path d="M516.109 583.121L519.012 577.87L524.263 580.772L521.361 586.024L516.109 583.121Z" fill="#747D5D"/>
<path d="M504.504 604.127L507.406 598.875L512.658 601.778L509.755 607.029L504.504 604.127Z" fill="#747D5D"/>
<path d="M492.895 625.132L495.797 619.88L501.048 622.783L498.146 628.034L492.895 625.132Z" fill="#747D5D"/>
<path d="M481.281 646.138L484.184 640.886L489.435 643.789L486.533 649.04L481.281 646.138Z" fill="#747D5D"/>
<path fill-rule="evenodd" clip-rule="evenodd" d="M467.87 580.374C472.106 579.118 474.521 574.666 473.265 570.43C472.008 566.194 467.556 563.779 463.32 565.035C459.084 566.292 456.669 570.744 457.925 574.98C459.182 579.216 463.634 581.631 467.87 580.374ZM468.439 582.292C473.734 580.721 476.753 575.156 475.182 569.861C473.612 564.566 468.046 561.547 462.751 563.118C457.456 564.688 454.437 570.254 456.008 575.549C457.578 580.843 463.144 583.862 468.439 582.292Z" fill="#747D5D"/>
<path d="M465.953 580.943L469.788 579.806L479.457 612.402L475.622 613.539L465.953 580.943Z" fill="#747D5D"/>
<path d="M465.105 606.228L472.775 603.953L473.913 607.788L466.243 610.063L465.105 606.228Z" fill="#747D5D"/>
<path d="M462.262 596.64L469.931 594.365L471.069 598.2L463.399 600.475L462.262 596.64Z" fill="#747D5D"/>
<path d="M432.414 80.6372H450.717L446.41 94.3645H436.721L432.414 80.6372Z" fill="#C8A255"/>
<path d="M432.414 94.3644H450.717L446.41 108.092H436.721L432.414 94.3644Z" fill="#C8A255"/>
<path d="M432.414 108.092H450.717L446.41 121.819H436.721L432.414 108.092Z" fill="#C8A255"/>
<path d="M432.414 121.819H450.717L446.41 135.546H436.721L432.414 121.819Z" fill="#C8A255"/>
<path d="M432.414 135.546H450.717L446.41 149.273H436.721L432.414 135.546Z" fill="#C8A255"/>
<path d="M441.73 71.505C445.376 71.505 448.308 66.3716 448.308 48.6413C448.308 30.911 441.73 16.5767 441.73 16.5767C441.73 16.5767 435.152 30.9504 435.152 48.6413C435.152 66.3716 438.124 71.505 441.73 71.505Z" fill="#747D5D"/>
<path d="M441.737 71.0722C444.907 72.8492 449.98 69.8481 458.737 54.4081C467.495 38.9682 468.882 23.2913 468.882 23.2913C468.882 23.2913 456.082 32.571 447.325 48.011C438.567 63.4115 438.607 69.2953 441.737 71.0722Z" fill="#747D5D"/>
<path d="M441.734 71.0722C438.564 72.8492 433.492 69.8481 424.734 54.4081C415.977 38.9682 414.59 23.2913 414.59 23.2913C414.59 23.2913 427.389 32.571 436.147 48.011C444.944 63.4115 444.904 69.2953 441.734 71.0722Z" fill="#747D5D"/>
<path d="M440.224 73.1624C441.968 76.361 447.872 76.4794 463.525 68.0289C479.138 59.5784 488.688 46.9816 488.688 46.9816C488.688 46.9816 472.877 48.0872 457.264 56.5378C441.651 64.9883 438.52 70.0033 440.224 73.1624Z" fill="#747D5D"/>
<path d="M443.249 73.1624C441.505 76.361 435.601 76.4794 419.948 68.0289C404.335 59.5784 394.785 46.9816 394.785 46.9816C394.785 46.9816 410.596 48.0872 426.209 56.5378C441.822 64.9883 444.992 70.0033 443.249 73.1624Z" fill="#747D5D"/>
<path d="M435.152 75.4937C435.152 79.1266 440.304 82.0488 458.096 82.0488C475.889 82.0488 490.273 75.4937 490.273 75.4937C490.273 75.4937 475.849 68.9386 458.096 68.9386C440.304 68.9781 435.152 71.9002 435.152 75.4937Z" fill="#747D5D"/>
<path d="M448.316 75.4937C448.316 79.1266 443.165 82.0488 425.372 82.0488C407.619 82.0488 393.195 75.4937 393.195 75.4937C393.195 75.4937 407.619 68.9386 425.372 68.9386C443.165 68.9781 448.316 71.9002 448.316 75.4937Z" fill="#747D5D"/>
<path fill-rule="evenodd" clip-rule="evenodd" d="M340.992 259.545C340.415 258.35 339.958 257.405 339.699 256.758L336.661 257.973C337.005 258.834 337.549 259.961 338.204 261.321C340.233 265.527 343.336 271.964 344.946 279.643C344.955 279.684 344.965 279.725 344.977 279.765C346.917 286.438 347.476 291.665 348.165 298.113C348.396 300.276 348.641 302.576 348.959 305.114C350.751 319.447 350.69 327.943 350.572 344.108C350.538 348.776 350.5 345.993 350.5 352.265H353.772C353.772 346.067 353.81 348.889 353.844 344.236C353.901 336.444 353.946 330.38 353.775 324.569C354.033 321.217 355.442 316.536 357.338 311.667C358.01 309.941 358.736 308.211 359.478 306.534C366.681 306.361 375.367 304.445 380.644 300.223C380.719 300.164 380.793 300.105 380.866 300.046C383.289 298.109 385.22 296.565 386.624 294.66C388.127 292.621 388.968 290.272 389.508 286.794L386.274 286.292C385.781 289.467 385.071 291.252 383.99 292.718C382.853 294.26 381.241 295.555 378.6 297.668C374.466 300.975 367.455 302.803 361.01 303.195C361.866 301.391 362.713 299.707 363.497 298.226C368.129 289.477 370.95 284.863 372.734 282.06C373.042 281.576 373.326 281.138 373.586 280.734C374.786 278.878 375.515 277.75 376.008 276.272L372.903 275.238C372.551 276.293 372.09 277.01 370.918 278.83C370.644 279.255 370.332 279.74 369.974 280.303C368.14 283.184 365.276 287.873 360.605 296.695C358.616 300.452 356.239 305.473 354.289 310.48C353.891 311.502 353.508 312.531 353.148 313.554C352.911 310.791 352.603 307.888 352.206 304.708C351.905 302.301 351.667 300.074 351.44 297.948C350.745 291.432 350.15 285.857 348.136 278.911C346.422 270.783 342.986 263.672 340.992 259.545Z" fill="#C8A255"/>
<path d="M377.852 240.375C377.852 251.218 369.062 260.008 358.219 260.008C347.376 260.008 338.586 251.218 338.586 240.375C338.586 229.532 347.376 220.742 358.219 220.742C369.062 220.742 377.852 229.532 377.852 240.375Z" fill="#CD6125"/>
<path d="M353.858 237.103C353.858 249.753 343.603 260.009 330.952 260.009C318.302 260.009 308.047 249.753 308.047 237.103C308.047 224.453 318.302 214.198 330.952 214.198C343.603 214.198 353.858 224.453 353.858 237.103Z" fill="#CD6125"/>
<path d="M329.863 240.375H360.404V260.009H329.863V240.375Z" fill="#CD6125"/>
<path d="M392.693 282.981C392.693 291.803 385.542 298.954 376.72 298.954C367.898 298.954 360.746 291.803 360.746 282.981C360.746 274.159 367.898 267.007 376.72 267.007C385.542 267.007 392.693 274.159 392.693 282.981Z" fill="#CD6125"/>
<path d="M417.117 278.282C417.117 289.699 407.862 298.954 396.445 298.954C385.028 298.954 375.773 289.699 375.773 278.282C375.773 266.865 385.028 257.61 396.445 257.61C407.862 257.61 417.117 266.865 417.117 278.282Z" fill="#CD6125"/>
<path d="M375.773 282.04H396.445V298.954H375.773V282.04Z" fill="#CD6125"/>
<path d="M36.6094 108.092H41.1851V144.698H36.6094V108.092Z" fill="#683911"/>
<path d="M63.6758 83.3118L65.9922 85.6282L41.2121 110.408L38.8957 108.092L63.6758 83.3118Z" fill="#683911"/>
<path d="M13.9766 83.1754L11.6887 85.4633L36.6051 110.38L38.893 108.092L13.9766 83.1754Z" fill="#683911"/>
<path d="M64.061 63.4783C64.061 76.7456 53.3057 87.5009 40.0383 87.5009C26.7709 87.5009 16.0156 76.7456 16.0156 63.4783C16.0156 50.2109 26.7709 39.4556 40.0383 39.4556C53.3057 39.4556 64.061 50.2109 64.061 63.4783Z" fill="#CD6125"/>
<path d="M80.0732 85.2131C80.0732 94.058 72.903 101.228 64.0581 101.228C55.2132 101.228 48.043 94.058 48.043 85.2131C48.043 76.3682 55.2132 69.198 64.0581 69.198C72.903 69.198 80.0732 76.3682 80.0732 85.2131Z" fill="#CD6125"/>
<path d="M32.0302 85.2131C32.0302 94.058 24.86 101.228 16.0151 101.228C7.17021 101.228 0 94.058 0 85.2131C0 76.3682 7.17021 69.198 16.0151 69.198C24.86 69.198 32.0302 76.3682 32.0302 85.2131Z" fill="#CD6125"/>
<path d="M117.532 121.819C117.532 125.61 114.459 128.683 110.668 128.683C106.878 128.683 103.805 125.61 103.805 121.819C103.805 118.028 106.878 114.955 110.668 114.955C114.459 114.955 117.532 118.028 117.532 121.819Z" fill="#CD6125"/>
<path d="M117.532 140.122C117.532 143.913 114.459 146.986 110.668 146.986C106.878 146.986 103.805 143.913 103.805 140.122C103.805 136.331 106.878 133.258 110.668 133.258C114.459 133.258 117.532 136.331 117.532 140.122Z" fill="#CD6125"/>
<path d="M119.816 137.834C116.025 137.834 112.952 134.761 112.952 130.971C112.952 127.18 116.025 124.107 119.816 124.107C123.607 124.107 126.68 127.18 126.68 130.971C126.68 134.761 123.607 137.834 119.816 137.834Z" fill="#CD6125"/>
<path d="M101.515 137.834C97.7246 137.834 94.6517 134.761 94.6517 130.971C94.6517 127.18 97.7246 124.107 101.515 124.107C105.306 124.107 108.379 127.18 108.379 130.971C108.379 134.761 105.306 137.834 101.515 137.834Z" fill="#CD6125"/>
<path d="M115.245 130.971C115.245 133.498 113.197 135.546 110.669 135.546C108.142 135.546 106.094 133.498 106.094 130.971C106.094 128.443 108.142 126.395 110.669 126.395C113.197 126.395 115.245 128.443 115.245 130.971Z" fill="#FFDC96"/>
<path fill-rule="evenodd" clip-rule="evenodd" d="M158.569 66.9099C158.569 82.3885 171.116 94.9364 186.595 94.9364C202.074 94.9364 214.621 82.3885 214.621 66.9099H218.053C218.053 84.2838 203.969 98.3682 186.595 98.3682C169.221 98.3682 155.137 84.2838 155.137 66.9099H158.569Z" fill="#C8A255"/>
<path fill-rule="evenodd" clip-rule="evenodd" d="M140.264 66.9099C140.264 76.0972 149.437 84.082 161.483 84.082C173.529 84.082 182.703 76.0972 182.703 66.9099H186.135C186.135 78.5857 174.771 87.5138 161.483 87.5138C148.196 87.5138 136.832 78.5857 136.832 66.9099H140.264Z" fill="#C8A255"/>
<path fill-rule="evenodd" clip-rule="evenodd" d="M190.596 66.9099C190.596 76.0972 199.769 84.082 211.815 84.082C223.861 84.082 233.035 76.0972 233.035 66.9099H236.467C236.467 78.5857 225.103 87.5138 211.815 87.5138C198.528 87.5138 187.164 78.5857 187.164 66.9099H190.596Z" fill="#C8A255"/>
<path d="M154.565 46.3191C154.565 57.6912 145.346 66.91 133.974 66.91C122.602 66.91 113.383 57.6912 113.383 46.3191C113.383 34.9471 122.602 25.7283 133.974 25.7283C145.346 25.7283 154.565 34.9471 154.565 46.3191Z" fill="#747D5D"/>
<path fill-rule="evenodd" clip-rule="evenodd" d="M133.974 64.6221C144.082 64.6221 152.277 56.4276 152.277 46.3191C152.277 36.2107 144.082 28.0161 133.974 28.0161C123.865 28.0161 115.671 36.2107 115.671 46.3191C115.671 56.4276 123.865 64.6221 133.974 64.6221ZM133.974 66.91C145.346 66.91 154.565 57.6912 154.565 46.3191C154.565 34.9471 145.346 25.7283 133.974 25.7283C122.602 25.7283 113.383 34.9471 113.383 46.3191C113.383 57.6912 122.602 66.91 133.974 66.91Z" fill="#747D5D"/>
<path d="M232.35 37.1676C232.35 52.3303 220.059 64.6221 204.896 64.6221C189.733 64.6221 177.441 52.3303 177.441 37.1676C177.441 22.0049 189.733 9.71313 204.896 9.71313C220.059 9.71313 232.35 22.0049 232.35 37.1676Z" fill="#747D5D"/>
<path fill-rule="evenodd" clip-rule="evenodd" d="M204.896 62.3343C218.795 62.3343 230.063 51.0668 230.063 37.1676C230.063 23.2685 218.795 12.001 204.896 12.001C190.997 12.001 179.729 23.2685 179.729 37.1676C179.729 51.0668 190.997 62.3343 204.896 62.3343ZM204.896 64.6221C220.059 64.6221 232.35 52.3303 232.35 37.1676C232.35 22.0049 220.059 9.71313 204.896 9.71313C189.733 9.71313 177.441 22.0049 177.441 37.1676C177.441 52.3303 189.733 64.6221 204.896 64.6221Z" fill="#747D5D"/>
<path d="M257.516 45.1752C257.516 57.179 247.785 66.9101 235.782 66.9101C223.778 66.9101 214.047 57.179 214.047 45.1752C214.047 33.1714 223.778 23.4404 235.782 23.4404C247.785 23.4404 257.516 33.1714 257.516 45.1752Z" fill="#747D5D"/>
<path fill-rule="evenodd" clip-rule="evenodd" d="M235.782 64.6222C246.522 64.6222 255.229 55.9155 255.229 45.1752C255.229 34.435 246.522 25.7283 235.782 25.7283C225.041 25.7283 216.335 34.435 216.335 45.1752C216.335 55.9155 225.041 64.6222 235.782 64.6222ZM235.782 66.9101C247.785 66.9101 257.516 57.179 257.516 45.1752C257.516 33.1714 247.785 23.4404 235.782 23.4404C223.778 23.4404 214.047 33.1714 214.047 45.1752C214.047 57.179 223.778 66.9101 235.782 66.9101Z" fill="#747D5D"/>
<path d="M195.745 36.0238C195.745 53.0818 181.917 66.9101 164.859 66.9101C147.801 66.9101 133.973 53.0818 133.973 36.0238C133.973 18.9657 147.801 5.13745 164.859 5.13745C181.917 5.13745 195.745 18.9657 195.745 36.0238Z" fill="#747D5D"/>
<path fill-rule="evenodd" clip-rule="evenodd" d="M164.859 64.6222C180.653 64.6222 193.457 51.8182 193.457 36.0238C193.457 20.2293 180.653 7.42533 164.859 7.42533C149.064 7.42533 136.261 20.2293 136.261 36.0238C136.261 51.8182 149.064 64.6222 164.859 64.6222ZM164.859 66.9101C181.917 66.9101 195.745 53.0818 195.745 36.0238C195.745 18.9657 181.917 5.13745 164.859 5.13745C147.801 5.13745 133.973 18.9657 133.973 36.0238C133.973 53.0818 147.801 66.9101 164.859 66.9101Z" fill="#747D5D"/>
<path d="M133.973 41.7434H236.927V66.91H133.973V41.7434Z" fill="#747D5D"/>
<path d="M184.305 96.6523H188.88V137.834H184.305V96.6523Z" fill="#C8A255"/>
<path d="M199.078 181.304H290.593V272.819H199.078V181.304Z" fill="#1B3025"/>
<path d="M16.0469 245.364H107.562V309.425H16.0469V245.364Z" fill="#1B3025"/>
<path d="M45.7891 309.425H75.5314V259.092H45.7891V309.425Z" fill="#C8A255"/>
<path d="M107.562 181.304H199.077V245.364H107.562V181.304Z" fill="#747D5D"/>
<path d="M107.562 245.364H199.077V309.425H107.562V245.364Z" fill="#C8A255"/>
<path d="M199.078 272.819H290.593V309.425H199.078V272.819Z" fill="#747D5D"/>
<path d="M116.719 245.364L116.719 254.516L107.567 254.516L107.567 245.364L116.719 245.364Z" fill="#CD6125"/>
<path d="M116.719 263.667L116.719 272.819L107.567 272.819L107.567 263.667L116.719 263.667Z" fill="#CD6125"/>
<path d="M116.719 281.97L116.719 291.122L107.567 291.122L107.567 281.97L116.719 281.97Z" fill="#CD6125"/>
<path d="M116.719 300.273L116.719 309.425L107.567 309.425L107.567 300.273L116.719 300.273Z" fill="#CD6125"/>
<path d="M125.867 254.516L125.867 263.667L116.716 263.667L116.716 254.516L125.867 254.516Z" fill="#CD6125"/>
<path d="M125.867 272.819L125.867 281.97L116.716 281.97L116.716 272.819L125.867 272.819Z" fill="#CD6125"/>
<path d="M125.867 291.122L125.867 300.273L116.716 300.273L116.716 291.122L125.867 291.122Z" fill="#CD6125"/>
<path d="M144.176 254.516L144.176 263.667L135.024 263.667L135.024 254.516L144.176 254.516Z" fill="#CD6125"/>
<path d="M144.176 272.819L144.176 281.97L135.024 281.97L135.024 272.819L144.176 272.819Z" fill="#CD6125"/>
<path d="M144.176 291.122L144.176 300.273L135.024 300.273L135.024 291.122L144.176 291.122Z" fill="#CD6125"/>
<path d="M162.477 254.516L162.477 263.667L153.325 263.667L153.325 254.516L162.477 254.516Z" fill="#CD6125"/>
<path d="M162.477 272.819L162.477 281.97L153.325 281.97L153.325 272.819L162.477 272.819Z" fill="#CD6125"/>
<path d="M162.477 291.122L162.477 300.273L153.325 300.273L153.325 291.122L162.477 291.122Z" fill="#CD6125"/>
<path d="M180.777 254.516L180.777 263.667L171.626 263.667L171.626 254.516L180.777 254.516Z" fill="#CD6125"/>
<path d="M180.777 272.819L180.777 281.97L171.626 281.97L171.626 272.819L180.777 272.819Z" fill="#CD6125"/>
<path d="M180.777 291.122L180.777 300.273L171.626 300.273L171.626 291.122L180.777 291.122Z" fill="#CD6125"/>
<path d="M135.02 245.364L135.02 254.516L125.868 254.516L125.868 245.364L135.02 245.364Z" fill="#CD6125"/>
<path d="M135.02 263.667L135.02 272.819L125.868 272.819L125.868 263.667L135.02 263.667Z" fill="#CD6125"/>
<path d="M135.02 281.97L135.02 291.122L125.868 291.122L125.868 281.97L135.02 281.97Z" fill="#CD6125"/>
<path d="M135.02 300.273L135.02 309.425L125.868 309.425L125.868 300.273L135.02 300.273Z" fill="#CD6125"/>
<path d="M153.324 245.364L153.324 254.516L144.173 254.516L144.173 245.364L153.324 245.364Z" fill="#CD6125"/>
<path d="M153.324 263.667L153.324 272.819L144.173 272.819L144.173 263.667L153.324 263.667Z" fill="#CD6125"/>
<path d="M153.324 281.97L153.324 291.122L144.173 291.122L144.173 281.97L153.324 281.97Z" fill="#CD6125"/>
<path d="M153.324 300.273L153.324 309.425L144.173 309.425L144.173 300.273L153.324 300.273Z" fill="#CD6125"/>
<path d="M171.629 245.364L171.629 254.516L162.477 254.516L162.477 245.364L171.629 245.364Z" fill="#CD6125"/>
<path d="M171.629 263.667L171.629 272.819L162.477 272.819L162.477 263.667L171.629 263.667Z" fill="#CD6125"/>
<path d="M171.629 281.97L171.629 291.122L162.477 291.122L162.477 281.97L171.629 281.97Z" fill="#CD6125"/>
<path d="M171.629 300.273L171.629 309.425L162.477 309.425L162.477 300.273L171.629 300.273Z" fill="#CD6125"/>
<path d="M189.93 245.364L189.93 254.516L180.778 254.516L180.778 245.364L189.93 245.364Z" fill="#CD6125"/>
<path d="M189.93 263.667L189.93 272.819L180.778 272.819L180.778 263.667L189.93 263.667Z" fill="#CD6125"/>
<path d="M189.93 281.97L189.93 291.122L180.778 291.122L180.778 281.97L189.93 281.97Z" fill="#CD6125"/>
<path d="M189.93 300.273L189.93 309.425L180.778 309.425L180.778 300.273L189.93 300.273Z" fill="#CD6125"/>
<path d="M199.082 254.516L199.082 263.667L189.931 263.667L189.931 254.516L199.082 254.516Z" fill="#CD6125"/>
<path d="M199.082 272.819L199.082 281.97L189.931 281.97L189.931 272.819L199.082 272.819Z" fill="#CD6125"/>
<path d="M199.082 291.122L199.082 300.273L189.931 300.273L189.931 291.122L199.082 291.122Z" fill="#CD6125"/>
<path d="M270.001 272.819C270.001 286.718 258.734 297.986 244.835 297.986C230.935 297.986 219.668 286.718 219.668 272.819C219.668 258.92 230.935 247.652 244.835 247.652C258.734 247.652 270.001 258.92 270.001 272.819Z" fill="#FFDC96"/>
<path d="M237.973 229.349H251.7V265.955H237.973V229.349Z" fill="#FFDC96"/>
<path d="M256.277 224.773L256.277 231.637L233.399 231.637L233.399 224.773L256.277 224.773Z" fill="#FFDC96"/>
<path d="M244.835 297.985C258.734 297.985 270.001 286.718 270.001 272.819H219.668C219.668 286.718 230.935 297.985 244.835 297.985Z" fill="#CD6125"/>
<path d="M237.973 285.402C237.973 287.297 236.437 288.834 234.541 288.834C232.646 288.834 231.109 287.297 231.109 285.402C231.109 283.507 232.646 281.97 234.541 281.97C236.437 281.97 237.973 283.507 237.973 285.402Z" fill="#683911"/>
<path d="M247.125 278.539C247.125 280.434 245.589 281.97 243.694 281.97C241.798 281.97 240.262 280.434 240.262 278.539C240.262 276.643 241.798 275.107 243.694 275.107C245.589 275.107 247.125 276.643 247.125 278.539Z" fill="#683911"/>
<path d="M248.95 262.751C248.95 264.773 247.311 266.411 245.289 266.411C243.268 266.411 241.629 264.773 241.629 262.751C241.629 260.729 245.289 255.66 245.289 255.66C245.289 255.66 248.95 260.729 248.95 262.751Z" fill="#CD6125"/>
<path d="M251.7 289.978C251.7 291.873 250.163 293.41 248.268 293.41C246.372 293.41 244.836 291.873 244.836 289.978C244.836 288.083 246.372 286.546 248.268 286.546C250.163 286.546 251.7 288.083 251.7 289.978Z" fill="#683911"/>
<path d="M260.852 283.114C260.852 285.01 259.315 286.546 257.42 286.546C255.525 286.546 253.988 285.01 253.988 283.114C253.988 281.219 255.525 279.683 257.42 279.683C259.315 279.683 260.852 281.219 260.852 283.114Z" fill="#683911"/>
<path d="M66.3789 281.97H73.2425V284.258H66.3789V281.97Z" fill="#747D5D"/>
<path d="M73.2422 281.97L73.2422 288.834L70.9543 288.834L70.9543 281.97L73.2422 281.97Z" fill="#747D5D"/>
<path d="M16.0469 181.304H107.562V245.364H16.0469V181.304Z" fill="#747D5D"/>
<path d="M242.547 199.607H247.123V224.774H242.547V199.607Z" fill="#747D5D"/>
<path d="M215.094 199.607H219.669V240.789H215.094V199.607Z" fill="#747D5D"/>
<path d="M247.125 199.607L247.125 204.183L219.671 204.183L219.671 199.607L247.125 199.607Z" fill="#747D5D"/>
<path d="M219.668 240.789L219.668 245.364L199.077 245.364L199.077 240.789L219.668 240.789Z" fill="#747D5D"/>
<path d="M62.3592 198.781C61.2431 202.699 61.6207 209.789 61.8098 213.334L61.815 213.335C65.362 213.524 72.4483 213.902 76.3633 212.785C80.2801 211.668 81.3976 207.751 78.5968 204.95C75.796 202.149 71.8784 203.266 71.8784 203.266C71.8784 203.266 72.9958 199.349 70.1943 196.547C67.3928 193.746 63.4753 194.863 62.3592 198.781Z" fill="#1B3025"/>
<path d="M61.8041 213.329C61.5203 208.011 66.8371 203.259 69.3556 205.778C71.8717 208.294 67.1218 213.612 61.8041 213.329Z" fill="#C8A255"/>
<path d="M61.2658 227.886C62.3819 223.968 62.0043 216.878 61.8152 213.332L61.81 213.332C58.263 213.143 51.1767 212.765 47.2617 213.882C43.3449 214.999 42.2274 218.916 45.0282 221.717C47.829 224.518 51.7466 223.401 51.7466 223.401C51.7466 223.401 50.6292 227.318 53.4307 230.119C56.2322 232.921 60.1497 231.804 61.2658 227.886Z" fill="#1B3025"/>
<path d="M61.8139 213.331C62.0977 218.649 56.7787 223.399 54.2624 220.883C51.7463 218.366 56.4962 213.048 61.8139 213.331Z" fill="#C8A255"/>
<path d="M76.3651 213.88C72.4469 212.764 65.357 213.141 61.8117 213.331L61.8114 213.336C61.6222 216.883 61.2442 223.969 62.3611 227.884C63.4785 231.801 67.3954 232.918 70.1962 230.118C72.997 227.317 71.8803 223.399 71.8803 223.399C71.8803 223.399 75.7971 224.517 78.5986 221.715C81.4001 218.914 80.2834 214.996 76.3651 213.88Z" fill="#1B3025"/>
<path d="M61.8118 213.337C67.13 213.053 71.8814 218.37 69.3633 220.888C66.8451 223.407 61.5284 218.655 61.8118 213.337Z" fill="#C8A255"/>
<path d="M47.2599 212.787C51.1781 213.903 58.268 213.525 61.8133 213.336L61.8136 213.331C62.0028 209.784 62.3808 202.698 61.2639 198.783C60.1465 194.866 56.2296 193.748 53.4288 196.549C50.628 199.35 51.7447 203.267 51.7447 203.267C51.7447 203.267 47.8279 202.15 45.0264 204.952C42.2249 207.753 43.3416 211.671 47.2599 212.787Z" fill="#1B3025"/>
<path d="M61.8125 213.331C56.4943 213.614 51.7448 208.295 54.261 205.779C56.7771 203.263 62.0959 208.013 61.8125 213.331Z" fill="#C8A255"/>
<path d="M107.562 181.304H109.85V245.364H107.562V181.304Z" fill="#C8A255"/>
<path d="M114.426 181.304H116.714V245.364H114.426V181.304Z" fill="#C8A255"/>
<path d="M121.289 181.304H123.577V245.364H121.289V181.304Z" fill="#C8A255"/>
<path d="M128.156 181.304H130.444V245.364H128.156V181.304Z" fill="#C8A255"/>
<path d="M135.016 181.304H137.303V245.364H135.016V181.304Z" fill="#C8A255"/>
<path d="M141.883 181.304H144.171V245.364H141.883V181.304Z" fill="#C8A255"/>
<path d="M148.742 181.304H151.03V245.364H148.742V181.304Z" fill="#C8A255"/>
<path d="M155.609 181.304H157.897V245.364H155.609V181.304Z" fill="#C8A255"/>
<path d="M162.473 181.304H164.761V245.364H162.473V181.304Z" fill="#C8A255"/>
<path d="M169.336 181.304H171.624V245.364H169.336V181.304Z" fill="#C8A255"/>
<path d="M176.199 181.304H178.487V245.364H176.199V181.304Z" fill="#C8A255"/>
<path d="M183.066 181.304H185.354V245.364H183.066V181.304Z" fill="#C8A255"/>
<path d="M189.926 181.304H192.214V245.364H189.926V181.304Z" fill="#C8A255"/>
<path d="M196.793 181.304H199.081V245.364H196.793V181.304Z" fill="#C8A255"/>
<path d="M252.801 105.38H261.952V114.531H252.801V105.38Z" fill="#1B3025"/>
<path d="M252.801 123.683H261.952V132.834H252.801V123.683Z" fill="#1B3025"/>
<path d="M243.648 114.531H252.8V123.683H243.648V114.531Z" fill="#1B3025"/>
<path d="M335.164 114.531H344.316V123.683H335.164V114.531Z" fill="#1B3025"/>
<path d="M289.406 105.38H298.558V114.531H289.406V105.38Z" fill="#1B3025"/>
<path d="M289.406 123.683H298.558V132.834H289.406V123.683Z" fill="#1B3025"/>
<path d="M280.258 114.531H289.409V123.683H280.258V114.531Z" fill="#1B3025"/>
<path d="M326.012 105.38H335.163V114.531H326.012V105.38Z" fill="#1B3025"/>
<path d="M326.012 123.683H335.163V132.834H326.012V123.683Z" fill="#1B3025"/>
<path d="M316.859 114.531H326.011V123.683H316.859V114.531Z" fill="#1B3025"/>
<path d="M271.105 105.38H280.257V114.531H271.105V105.38Z" fill="#1B3025"/>
<path d="M271.105 123.683H280.257V132.834H271.105V123.683Z" fill="#1B3025"/>
<path d="M261.949 114.531H271.101V123.683H261.949V114.531Z" fill="#1B3025"/>
<path d="M307.711 105.38H316.862V114.531H307.711V105.38Z" fill="#1B3025"/>
<path d="M307.711 123.683H316.862V132.834H307.711V123.683Z" fill="#1B3025"/>
<path d="M298.559 114.531H307.71V123.683H298.559V114.531Z" fill="#1B3025"/>
<path d="M243.648 105.38H252.8V114.531H243.648V105.38Z" fill="#747D5D"/>
<path d="M243.648 123.683H252.8V132.834H243.648V123.683Z" fill="#747D5D"/>
<path d="M280.258 105.38H289.409V114.531H280.258V105.38Z" fill="#747D5D"/>
<path d="M280.258 123.683H289.409V132.834H280.258V123.683Z" fill="#747D5D"/>
<path d="M271.105 114.531H280.257V123.683H271.105V114.531Z" fill="#747D5D"/>
<path d="M316.859 105.38H326.011V114.531H316.859V105.38Z" fill="#747D5D"/>
<path d="M316.859 123.683H326.011V132.834H316.859V123.683Z" fill="#747D5D"/>
<path d="M307.711 114.531H316.862V123.683H307.711V114.531Z" fill="#747D5D"/>
<path d="M261.949 105.38H271.101V114.531H261.949V105.38Z" fill="#747D5D"/>
<path d="M261.949 123.683H271.101V132.834H261.949V123.683Z" fill="#747D5D"/>
<path d="M252.801 114.531H261.952V123.683H252.801V114.531Z" fill="#747D5D"/>
<path d="M298.559 105.38H307.71V114.531H298.559V105.38Z" fill="#747D5D"/>
<path d="M298.559 123.683H307.71V132.834H298.559V123.683Z" fill="#747D5D"/>
<path d="M289.406 114.531H298.558V123.683H289.406V114.531Z" fill="#747D5D"/>
<path d="M335.164 105.38H344.316V114.531H335.164V105.38Z" fill="#747D5D"/>
<path d="M335.164 123.683H344.316V132.834H335.164V123.683Z" fill="#747D5D"/>
<path d="M326.012 114.531H335.163V123.683H326.012V114.531Z" fill="#747D5D"/>
<path d="M273.398 91.6523H305.429L299.709 105.38H279.118L273.398 91.6523Z" fill="#CD6125"/>
<path d="M287.125 84.7888H291.701V93.9403H287.125V84.7888Z" fill="#CD6125"/>
<path d="M291.701 84.7889C291.701 86.0524 290.676 87.0767 289.413 87.0767C288.149 87.0767 287.125 86.0524 287.125 84.7889C287.125 83.5253 288.149 82.501 289.413 82.501C290.676 82.501 291.701 83.5253 291.701 84.7889Z" fill="#CD6125"/>
<path d="M380.926 105.38H387.789V125.971H380.926V105.38Z" fill="#313131"/>
<path d="M380.926 125.97H387.789V185.455H380.926V125.97Z" fill="#1B3025"/>
<path d="M380.926 125.97H387.789V130.546H380.926V125.97Z" fill="#FFDC96"/>
<path d="M360.332 105.38H367.196V125.971H360.332V105.38Z" fill="#313131"/>
<path d="M360.332 125.97H367.196V185.455H360.332V125.97Z" fill="#C8A255"/>
<path d="M360.332 125.97H367.196V130.546H360.332V125.97Z" fill="#FFDC96"/>
<path d="M503.266 409.06H521.569L517.262 422.788H507.572L503.266 409.06Z" fill="#C8A255"/>
<path d="M503.266 422.788H521.569L517.262 436.515H507.572L503.266 422.788Z" fill="#C8A255"/>
<path d="M503.266 436.515H521.569L517.262 450.242H507.572L503.266 436.515Z" fill="#C8A255"/>
<path d="M503.266 450.242H521.569L517.262 463.97H507.572L503.266 450.242Z" fill="#C8A255"/>
<path d="M503.266 463.969H521.569L517.262 477.697H507.572L503.266 463.969Z" fill="#C8A255"/>
<path d="M512.582 399.928C516.228 399.928 519.16 394.795 519.16 377.065C519.16 359.334 512.582 345 512.582 345C512.582 345 506.004 359.374 506.004 377.065C506.004 394.795 508.976 399.928 512.582 399.928Z" fill="#747D5D"/>
<path d="M512.589 399.495C515.759 401.272 520.831 398.271 529.589 382.831C538.346 367.391 539.733 351.714 539.733 351.714C539.733 351.714 526.934 360.994 518.176 376.434C509.419 391.835 509.458 397.718 512.589 399.495Z" fill="#747D5D"/>
<path d="M512.586 399.495C509.416 401.272 504.343 398.271 495.586 382.831C486.828 367.391 485.441 351.714 485.441 351.714C485.441 351.714 498.241 360.994 506.998 376.434C515.796 391.835 515.756 397.718 512.586 399.495Z" fill="#747D5D"/>
<path d="M511.076 401.586C512.819 404.784 518.724 404.903 534.376 396.452C549.989 388.002 559.539 375.405 559.539 375.405C559.539 375.405 543.728 376.51 528.115 384.961C512.502 393.412 509.372 398.427 511.076 401.586Z" fill="#747D5D"/>
<path d="M514.1 401.586C512.357 404.784 506.452 404.903 490.8 396.452C475.187 388.002 465.637 375.405 465.637 375.405C465.637 375.405 481.448 376.51 497.061 384.961C512.674 393.412 515.844 398.427 514.1 401.586Z" fill="#747D5D"/>
<path d="M506.004 403.917C506.004 407.55 511.155 410.472 528.948 410.472C546.74 410.472 561.125 403.917 561.125 403.917C561.125 403.917 546.701 397.362 528.948 397.362C511.155 397.401 506.004 400.324 506.004 403.917Z" fill="#747D5D"/>
<path d="M519.168 403.917C519.168 407.55 514.016 410.472 496.224 410.472C478.471 410.472 464.047 403.917 464.047 403.917C464.047 403.917 478.471 397.362 496.224 397.362C514.016 397.401 519.168 400.324 519.168 403.917Z" fill="#747D5D"/>
<path d="M555.986 291.037C555.986 300.514 548.304 308.196 538.827 308.196C529.35 308.196 521.668 300.514 521.668 291.037C521.668 281.561 529.35 273.878 538.827 273.878C548.304 273.878 555.986 281.561 555.986 291.037Z" fill="#683911"/>
<path d="M664.365 131.727C664.365 139.308 658.219 145.454 650.637 145.454C643.056 145.454 636.91 139.308 636.91 131.727C636.91 124.146 643.056 118 650.637 118C658.219 118 664.365 124.146 664.365 131.727Z" fill="#C8A255"/>
<path d="M691.819 154.606C691.819 159.66 687.721 163.757 682.667 163.757C677.613 163.757 673.516 159.66 673.516 154.606C673.516 149.552 677.613 145.454 682.667 145.454C687.721 145.454 691.819 149.552 691.819 154.606Z" fill="#C8A255"/>
<path d="M604.036 58C602.251 65.4356 596.349 71.2468 588.867 72.8941C596.349 74.5185 602.251 80.3525 604.036 87.7653C605.82 80.3068 611.769 74.4727 619.296 72.8712C611.769 71.2468 605.82 65.4585 604.036 58Z" fill="#1B3025"/>
<path d="M680.387 75.6362H684.962V112.242H680.387V75.6362Z" fill="#1B3025"/>
<path d="M707.453 50.8562L709.77 53.1727L684.989 77.9528L682.673 75.6363L707.453 50.8562Z" fill="#1B3025"/>
<path d="M657.754 50.7198L655.466 53.0077L680.382 77.9241L682.67 75.6362L657.754 50.7198Z" fill="#1B3025"/>
<path d="M707.838 31.0227C707.838 44.2901 697.083 55.0454 683.816 55.0454C670.548 55.0454 659.793 44.2901 659.793 31.0227C659.793 17.7553 670.548 7 683.816 7C697.083 7 707.838 17.7553 707.838 31.0227Z" fill="#CD6125"/>
<path d="M723.851 52.7576C723.851 61.6025 716.68 68.7727 707.835 68.7727C698.991 68.7727 691.82 61.6025 691.82 52.7576C691.82 43.9126 698.991 36.7424 707.835 36.7424C716.68 36.7424 723.851 43.9126 723.851 52.7576Z" fill="#CD6125"/>
<path d="M675.808 52.7576C675.808 61.6025 668.637 68.7727 659.792 68.7727C650.948 68.7727 643.777 61.6025 643.777 52.7576C643.777 43.9126 650.948 36.7424 659.792 36.7424C668.637 36.7424 675.808 43.9126 675.808 52.7576Z" fill="#CD6125"/>
<path d="M581.656 220.636H586.232V257.242H581.656V220.636Z" fill="#1B3025"/>
<path d="M608.723 195.856L611.039 198.173L586.259 222.953L583.943 220.636L608.723 195.856Z" fill="#1B3025"/>
<path d="M559.023 195.72L556.736 198.008L581.652 222.924L583.94 220.636L559.023 195.72Z" fill="#1B3025"/>
<path d="M609.108 176.023C609.108 189.29 598.353 200.045 585.085 200.045C571.818 200.045 561.062 189.29 561.062 176.023C561.062 162.755 571.818 152 585.085 152C598.353 152 609.108 162.755 609.108 176.023Z" fill="#C8A255"/>
<path d="M625.12 197.758C625.12 206.602 617.95 213.773 609.105 213.773C600.26 213.773 593.09 206.602 593.09 197.758C593.09 188.913 600.26 181.742 609.105 181.742C617.95 181.742 625.12 188.913 625.12 197.758Z" fill="#C8A255"/>
<path d="M577.077 197.758C577.077 206.602 569.907 213.773 561.062 213.773C552.217 213.773 545.047 206.602 545.047 197.758C545.047 188.913 552.217 181.742 561.062 181.742C569.907 181.742 577.077 188.913 577.077 197.758Z" fill="#C8A255"/>
<path fill-rule="evenodd" clip-rule="evenodd" d="M841.865 50.9956C841.281 49.8409 840.82 48.9298 840.56 48.3092L837.487 49.5958C837.841 50.4405 838.397 51.5422 839.067 52.8695C840.87 56.4403 843.496 61.6432 845.22 67.8625C841.348 66.638 835.123 64.3944 831.535 62.3591C828.533 60.6563 825.51 58.2518 823.123 55.7042C820.697 53.1148 819.102 50.5636 818.672 48.597L815.418 49.308C816.04 52.1535 818.124 55.241 820.692 57.9816C823.299 60.7641 826.585 63.3811 829.891 65.2564C834.461 67.8486 842.666 70.6316 846.204 71.6382C847.964 77.6956 848.51 82.579 849.179 88.5541C849.414 90.6569 849.664 92.8949 849.988 95.3669C850.785 101.455 851.276 107.495 851.577 113.88C851.571 113.956 851.564 114.033 851.559 114.109L851.588 114.111C851.734 117.257 851.834 120.487 851.902 123.848C850.308 120.037 848.444 116.057 846.741 113.347C841.078 104.331 836.25 100.596 830.244 95.9499C829.37 95.2734 828.47 94.5775 827.539 93.8432L825.476 96.4582C826.431 97.2115 827.344 97.9184 828.223 98.5991C834.178 103.21 838.582 106.619 843.921 115.118C846.902 119.865 850.568 129.127 852.021 133.554C852.05 138.52 852.043 143.811 852.036 149.546C852.033 152.26 852.029 155.074 852.029 158L855.36 158C855.36 155.07 855.364 152.249 855.367 149.524C855.385 135.733 855.4 124.41 854.915 113.961C855.237 110.751 856.634 106.352 858.503 101.767C859.183 100.099 859.917 98.4262 860.669 96.804C867.987 96.6393 876.822 94.7809 882.191 90.6779C882.268 90.619 882.344 90.5605 882.42 90.5024C884.881 88.623 886.848 87.1204 888.28 85.2643C889.821 83.2687 890.682 80.9662 891.234 77.5703L887.947 77.0356C887.448 80.1047 886.732 81.8194 885.644 83.2291C884.492 84.7209 882.857 85.9765 880.168 88.0313C875.971 91.2387 868.856 93.0169 862.304 93.4042C863.15 91.7054 863.987 90.1183 864.763 88.7185C869.473 80.2195 872.341 75.739 874.155 73.0167C874.466 72.5491 874.754 72.1247 875.019 71.7331C876.239 69.9295 876.99 68.8203 877.496 67.3694L874.351 66.2719C873.998 67.2826 873.538 67.9661 872.346 69.7338C872.068 70.1472 871.749 70.6199 871.383 71.1698C869.516 73.9713 866.601 78.5295 861.849 87.1038C859.824 90.7574 857.404 95.64 855.418 100.51C855.004 101.528 854.604 102.553 854.23 103.572C853.976 100.678 853.667 97.8114 853.29 94.9344C852.985 92.6012 852.744 90.441 852.513 88.3764C851.806 82.0434 851.199 76.6112 849.148 69.8509C847.4 61.9357 843.891 55.0003 841.865 50.9956Z" fill="#CD6125"/>
<path d="M828.446 34.6191C828.446 43.771 820.679 51.1901 811.098 51.1901C801.517 51.1901 793.75 43.771 793.75 34.6191C793.75 25.4671 801.517 18.048 811.098 18.048C820.679 18.048 828.446 25.4671 828.446 34.6191Z" fill="#747D5D"/>
<path d="M882.412 31.8592C882.412 42.5365 873.351 51.1921 862.173 51.1921C850.995 51.1921 841.934 42.5365 841.934 31.8592C841.934 21.1819 850.995 12.5262 862.173 12.5262C873.351 12.5262 882.412 21.1819 882.412 31.8592Z" fill="#747D5D"/>
<path d="M857.359 29.0948C857.359 41.2974 847.003 51.1896 834.228 51.1896C821.454 51.1896 811.098 41.2974 811.098 29.0948C811.098 16.8922 821.454 7 834.228 7C847.003 7 857.359 16.8922 857.359 29.0948Z" fill="#747D5D"/>
<path d="M811.098 32.7766H863.141V51.1889H811.098V32.7766Z" fill="#747D5D"/>
<path d="M894.474 73.8377C894.474 82.4097 887.199 89.3588 878.225 89.3588C869.251 89.3588 861.977 82.4097 861.977 73.8377C861.977 65.2656 869.251 58.3165 878.225 58.3165C887.199 58.3165 894.474 65.2656 894.474 73.8377Z" fill="#747D5D"/>
<path d="M919.321 69.2712C919.321 80.3645 909.907 89.3574 898.293 89.3574C886.68 89.3574 877.266 80.3645 877.266 69.2712C877.266 58.1779 886.68 49.1851 898.293 49.1851C909.907 49.1851 919.321 58.1779 919.321 69.2712Z" fill="#747D5D"/>
<path d="M877.266 72.9269H898.293V89.361H877.266V72.9269Z" fill="#747D5D"/>
<path d="M808.452 88.6679C808.452 96.8114 815.363 103.413 823.888 103.413C832.413 103.413 839.324 96.8114 839.324 88.6679C839.324 80.5244 832.413 73.9229 823.888 73.9229C815.363 73.9229 808.452 80.5244 808.452 88.6679Z" fill="#747D5D"/>
<path d="M783.028 84.3287C783.028 94.8673 791.972 103.411 803.004 103.411C814.037 103.411 822.98 94.8673 822.98 84.3287C822.98 73.7901 814.037 65.2468 803.004 65.2468C791.972 65.2468 783.028 73.7901 783.028 84.3287Z" fill="#747D5D"/>
<path d="M822.98 87.8026H803.004V103.415H822.98V87.8026Z" fill="#747D5D"/>
<path d="M841.65 197.272C840.649 196.08 840.047 194.542 840.047 192.864C840.047 189.073 843.12 186 846.91 186C850.701 186 853.774 189.073 853.774 192.864C853.774 189.073 856.847 186 860.638 186C864.428 186 867.501 189.073 867.501 192.864C867.501 194.542 866.899 196.08 865.898 197.272L853.774 211.167L841.65 197.272Z" fill="#C8A255"/>
<path d="M604.879 286.878H668.939V369.242H604.879V286.878Z" fill="#1B3025"/>
<path d="M696.398 241.121H904.595V369.242H696.398V241.121Z" fill="#1B3025"/>
<path d="M719.273 286.878H819.94V369.242H719.273V286.878Z" fill="#FFDC96"/>
<path d="M668.941 177.06H696.396V369.242H668.941V177.06Z" fill="#747D5D"/>
<path d="M749.016 177.06H762.743V245.697H749.016V177.06Z" fill="#1B3025"/>
<path d="M776.473 177.06H790.2V245.697H776.473V177.06Z" fill="#1B3025"/>
<path d="M825.895 298.318L825.895 300.85L716.989 300.85L716.989 298.318L825.895 298.318Z" fill="#1B3025"/>
<path d="M824.52 302.893L824.52 305.181L716.989 305.181L716.989 302.893L824.52 302.893Z" fill="#1B3025"/>
<path d="M824.52 307.469L824.52 309.757L716.989 309.757L716.989 307.469L824.52 307.469Z" fill="#1B3025"/>
<path d="M824.52 314.333L824.52 312.045L716.989 312.045L716.989 314.333L824.52 314.333Z" fill="#1B3025"/>
<path d="M771.898 355.514H808.504V369.242H771.898V355.514Z" fill="#1B3025"/>
<path d="M719.273 254.848H737.576V273.151H719.273V254.848Z" fill="#683911"/>
<path d="M746.73 254.848H765.033V273.151H746.73V254.848Z" fill="#683911"/>
<path d="M774.184 254.848H792.487V273.151H774.184V254.848Z" fill="#683911"/>
<path d="M801.637 254.848H819.94V273.151H801.637V254.848Z" fill="#683911"/>
<path d="M838.242 257.136H842.818V296.03H838.242V257.136Z" fill="#CD6125"/>
<path d="M838.242 314.333H842.818V353.227H838.242V314.333Z" fill="#CD6125"/>
<path d="M847.395 257.136H851.97V296.03H847.395V257.136Z" fill="#CD6125"/>
<path d="M847.395 314.333H851.97V353.227H847.395V314.333Z" fill="#CD6125"/>
<path d="M856.547 257.136H861.123V296.03H856.547V257.136Z" fill="#CD6125"/>
<path d="M856.547 314.333H861.123V353.227H856.547V314.333Z" fill="#CD6125"/>
<path d="M865.695 257.136H870.271V296.03H865.695V257.136Z" fill="#CD6125"/>
<path d="M865.695 314.333H870.271V353.227H865.695V314.333Z" fill="#CD6125"/>
<path d="M874.852 257.136H879.427V296.03H874.852V257.136Z" fill="#CD6125"/>
<path d="M874.852 314.333H879.427V353.227H874.852V314.333Z" fill="#CD6125"/>
<path d="M884.004 257.136H888.58V296.03H884.004V257.136Z" fill="#CD6125"/>
<path d="M884.004 314.333H888.58V353.227H884.004V314.333Z" fill="#CD6125"/>
<path d="M749.016 167.909H762.743V177.06H749.016V167.909Z" fill="#FFDC96"/>
<path d="M776.473 167.909H790.2V177.06H776.473V167.909Z" fill="#FFDC96"/>
<path d="M749.016 140.454H762.743V167.909H749.016V140.454Z" fill="#313131"/>
<path d="M776.473 140.454H790.2V167.909H776.473V140.454Z" fill="#313131"/>
<path d="M668.941 177.06H678.093V186.212H668.941V177.06Z" fill="#CD6125"/>
<path d="M668.941 195.363H678.093V204.515H668.941V195.363Z" fill="#CD6125"/>
<path d="M668.941 213.666H678.093V222.818H668.941V213.666Z" fill="#CD6125"/>
<path d="M668.941 231.969H678.093V241.121H668.941V231.969Z" fill="#CD6125"/>
<path d="M668.941 250.272H678.093V259.424H668.941V250.272Z" fill="#CD6125"/>
<path d="M668.941 268.575H678.093V277.727H668.941V268.575Z" fill="#CD6125"/>
<path d="M668.941 305.181H678.093V314.333H668.941V305.181Z" fill="#CD6125"/>
<path d="M668.941 341.787H678.093V350.939H668.941V341.787Z" fill="#CD6125"/>
<path d="M668.941 286.878H678.093V296.03H668.941V286.878Z" fill="#CD6125"/>
<path d="M668.941 323.484H678.093V332.636H668.941V323.484Z" fill="#CD6125"/>
<path d="M668.941 360.09H678.093V369.242H668.941V360.09Z" fill="#CD6125"/>
<path d="M687.246 177.06H696.398V186.212H687.246V177.06Z" fill="#CD6125"/>
<path d="M687.246 195.363H696.398V204.515H687.246V195.363Z" fill="#CD6125"/>
<path d="M687.246 213.666H696.398V222.818H687.246V213.666Z" fill="#CD6125"/>
<path d="M687.246 231.969H696.398V241.121H687.246V231.969Z" fill="#CD6125"/>
<path d="M687.246 250.272H696.398V259.424H687.246V250.272Z" fill="#CD6125"/>
<path d="M687.246 268.575H696.398V277.727H687.246V268.575Z" fill="#CD6125"/>
<path d="M687.246 305.181H696.398V314.333H687.246V305.181Z" fill="#CD6125"/>
<path d="M687.246 341.787H696.398V350.939H687.246V341.787Z" fill="#CD6125"/>
<path d="M687.246 286.878H696.398V296.03H687.246V286.878Z" fill="#CD6125"/>
<path d="M687.246 323.484H696.398V332.636H687.246V323.484Z" fill="#CD6125"/>
<path d="M687.246 360.09H696.398V369.242H687.246V360.09Z" fill="#CD6125"/>
<path d="M678.094 186.212H687.245V195.363H678.094V186.212Z" fill="#CD6125"/>
<path d="M678.094 204.515H687.245V213.666H678.094V204.515Z" fill="#CD6125"/>
<path d="M678.094 222.818H687.245V231.969H678.094V222.818Z" fill="#CD6125"/>
<path d="M678.094 241.121H687.245V250.272H678.094V241.121Z" fill="#CD6125"/>
<path d="M678.094 259.424H687.245V268.575H678.094V259.424Z" fill="#CD6125"/>
<path d="M678.094 296.03H687.245V305.181H678.094V296.03Z" fill="#CD6125"/>
<path d="M678.094 332.636H687.245V341.787H678.094V332.636Z" fill="#CD6125"/>
<path d="M678.094 277.727H687.245V286.878H678.094V277.727Z" fill="#CD6125"/>
<path d="M678.094 314.333H687.245V323.484H678.094V314.333Z" fill="#CD6125"/>
<path d="M678.094 350.939H687.245V360.09H678.094V350.939Z" fill="#CD6125"/>
<path d="M623.184 325.772H650.638V369.242H623.184V325.772Z" fill="#747D5D"/>
<path d="M744.441 350.939H746.729V362.378H744.441V350.939Z" fill="#CD6125"/>
<path d="M739.867 362.378L751.307 362.378V369.242H739.867L739.867 362.378Z" fill="#747D5D"/>
<path d="M776.309 333.057L776.331 333.04L767.862 328.992L767.22 328.821L761.601 336.184L785.559 346.348C785.554 345.58 785.568 345.193 785.578 344.038C784.602 339.497 780.698 335.155 776.309 333.057Z" fill="#1B3025"/>
<path d="M785.572 344.066C784.757 339.732 780.873 335.074 776.569 333.017L776.59 333L767.375 328.06L766.211 330.383L765.027 335.018L785.572 344.066Z" fill="#CD6125"/>
<path d="M763.307 336.036C764.596 335.207 765.477 334.128 766.174 332.635C766.812 331.268 767.472 329.474 767.318 328.06C761.598 325.772 755.425 329.263 752.75 334.338C744.71 334.383 736.908 338.004 731.824 344.122L736.758 351.726C744.351 353.164 754.131 353.309 758.166 344.075C758.817 342.589 758.97 341.038 759.31 339.499C759.354 339.032 761.299 338.404 761.512 337.948C761.825 337.276 762.296 336.735 762.854 336.32C762.854 336.32 762.854 336.32 762.859 336.309C763.001 336.224 763.148 336.127 763.307 336.036Z" fill="#683911"/>
<path d="M753.54 349.83C751.219 346.181 751.712 341.354 753.645 337.254C755.001 334.378 757.093 331.504 759.373 330.339C761.653 329.174 765.066 329.141 766.189 330.273C766.177 331.406 765.529 333.766 765.015 334.857C763.87 336.011 762.739 336.023 761.584 338.32C760.43 340.618 760.421 341.761 759.267 344.059C758.113 346.356 755.82 348.665 753.54 349.83Z" fill="#747D5D"/>
<path d="M759.317 330.382L764.99 334.923C764.99 334.923 765.633 333.641 766.151 332.615C767.316 330.305 766.18 329.166 766.18 329.166C765.053 328.029 761.969 328.791 759.317 330.382Z" fill="white"/>
<path d="M763.466 332.154C763.861 332.343 764.335 332.169 764.525 331.765C764.715 331.361 764.549 330.88 764.153 330.691C763.758 330.502 763.284 330.676 763.094 331.08C762.904 331.484 763.071 331.965 763.466 332.154Z" fill="#313131"/>
<path d="M731.857 344.075L719.273 369.242L735.289 369.242L737.576 351.625L731.857 344.075Z" fill="#683911"/>
<path d="M650.638 325.772C650.638 333.353 644.492 339.499 636.911 339.499C629.329 339.499 623.184 333.353 623.184 325.772C623.184 318.191 629.329 312.045 636.911 312.045C644.492 312.045 650.638 318.191 650.638 325.772Z" fill="#747D5D"/>
<path d="M760.465 355.514L760.465 348.651L781.056 348.651L781.056 355.514L760.465 355.514Z" fill="#313131"/>
<path d="M781.055 355.514L781.055 348.651L819.949 348.651L819.949 355.514L781.055 355.514Z" fill="#683911"/>
<path d="M781.055 355.514L781.055 348.651L785.63 348.651L785.63 355.514L781.055 355.514Z" fill="#747D5D"/>
<path d="M578.934 480.097C577.767 484.193 578.162 491.604 578.359 495.309L578.365 495.31C582.072 495.507 589.479 495.902 593.572 494.735C597.666 493.567 598.834 489.473 595.906 486.545C592.979 483.618 588.884 484.785 588.884 484.785C588.884 484.785 590.052 480.691 587.123 477.762C584.195 474.834 580.1 476.001 578.934 480.097Z" fill="#1B3025"/>
<path d="M578.357 495.306C578.061 489.747 583.618 484.78 586.251 487.413C588.881 490.043 583.916 495.602 578.357 495.306Z" fill="#C8A255"/>
<path d="M577.781 510.519C578.948 506.423 578.553 499.012 578.356 495.307L578.35 495.306C574.643 495.108 567.235 494.713 563.143 495.881C559.049 497.049 557.881 501.143 560.809 504.071C563.736 506.998 567.831 505.831 567.831 505.831C567.831 505.831 566.663 509.925 569.591 512.853C572.52 515.782 576.615 514.614 577.781 510.519Z" fill="#1B3025"/>
<path d="M578.358 495.305C578.655 500.864 573.095 505.828 570.465 503.198C567.835 500.568 572.8 495.009 578.358 495.305Z" fill="#C8A255"/>
<path d="M593.565 495.88C589.47 494.714 582.059 495.108 578.353 495.306L578.353 495.312C578.155 499.019 577.76 506.426 578.927 510.518C580.095 514.613 584.19 515.781 587.117 512.853C590.045 509.925 588.878 505.831 588.878 505.831C588.878 505.831 592.972 506.999 595.9 504.07C598.828 501.142 597.661 497.047 593.565 495.88Z" fill="#1B3025"/>
<path d="M578.352 495.309C583.911 495.012 588.878 500.57 586.246 503.202C583.613 505.835 578.056 500.868 578.352 495.309Z" fill="#C8A255"/>
<path d="M563.149 494.736C567.245 495.902 574.656 495.507 578.362 495.31L578.362 495.304C578.56 491.597 578.955 484.19 577.787 480.098C576.619 476.003 572.525 474.835 569.598 477.763C566.67 480.691 567.837 484.785 567.837 484.785C567.837 484.785 563.743 483.617 560.815 486.546C557.886 489.474 559.054 493.569 563.149 494.736Z" fill="#1B3025"/>
<path d="M578.37 495.307C572.811 495.604 567.846 490.044 570.476 487.414C573.106 484.784 578.666 489.749 578.37 495.307Z" fill="#C8A255"/>
<path d="M594.458 382.554C592.673 389.989 586.77 395.801 579.289 397.448C586.77 399.072 592.673 404.906 594.458 412.319C596.242 404.86 602.191 399.026 609.718 397.425C602.191 395.801 596.242 390.012 594.458 382.554Z" fill="#1B3025"/>
<path d="M884.711 411.439C884.711 417.757 879.589 422.879 873.271 422.879C866.954 422.879 861.832 417.757 861.832 411.439C861.832 405.122 866.954 400 873.271 400C879.589 400 884.711 405.122 884.711 411.439Z" fill="#747D5D"/>
<path d="M763.178 448.463C763.178 453.934 758.743 458.368 753.273 458.368C747.802 458.368 743.367 453.934 743.367 448.463C743.367 442.992 747.802 438.557 753.273 438.557C758.743 438.557 763.178 442.992 763.178 448.463Z" fill="#C8A255"/>
<path d="M827.561 447.226C827.561 453.38 822.572 458.369 816.417 458.369C810.263 458.369 805.273 453.38 805.273 447.226C805.273 441.071 810.263 436.082 816.417 436.082C822.572 436.082 827.561 441.071 827.561 447.226Z" fill="#C8A255"/>
<path d="M767.737 414.568H772.313L764.414 431.13L771.843 442.522H800.321V450.941H770.604L758.223 431.13L767.737 414.568Z" fill="#1B3025"/>
<path d="M820.138 428.652L825.091 434.43L800.328 450.939L792.898 443.296V428.652H820.138Z" fill="#1B3025"/>
<path d="M792.898 423.698H820.138V428.65H792.898V423.698Z" fill="#CD6125"/>
<path d="M774.605 414.569C774.605 417.096 772.556 419.145 770.029 419.145C767.502 419.145 765.453 417.096 765.453 414.569C765.453 412.042 767.502 409.993 770.029 409.993C772.556 409.993 774.605 412.042 774.605 414.569Z" fill="#1B3025"/>
<path d="M650.284 470.766C650.284 476.237 645.849 480.671 640.378 480.671C634.907 480.671 630.473 476.237 630.473 470.766C630.473 465.295 634.907 460.86 640.378 460.86C645.849 460.86 650.284 465.295 650.284 470.766Z" fill="#C8A255"/>
<path d="M714.666 469.529C714.666 475.683 709.677 480.672 703.523 480.672C697.368 480.672 692.379 475.683 692.379 469.529C692.379 463.374 697.368 458.385 703.523 458.385C709.677 458.385 714.666 463.374 714.666 469.529Z" fill="#C8A255"/>
<path d="M654.843 436.871H659.418L651.519 453.433L658.948 464.825H687.426V473.244H657.71L645.328 453.433L654.843 436.871Z" fill="#CD6125"/>
<path d="M707.244 450.955L712.197 456.733L687.433 473.242L680.004 465.599V450.955H707.244Z" fill="#CD6125"/>
<path d="M680.004 446.001H707.244V450.953H680.004V446.001Z" fill="#747D5D"/>
<path d="M661.71 436.872C661.71 439.399 659.661 441.448 657.134 441.448C654.607 441.448 652.559 439.399 652.559 436.872C652.559 434.345 654.607 432.296 657.134 432.296C659.661 432.296 661.71 434.345 661.71 436.872Z" fill="#CD6125"/>
<path d="M775.969 650.569H860.62V732.932H775.969V650.569Z" fill="#747D5D"/>
<path d="M691.316 776.402H709.619V899.947H691.316V776.402Z" fill="#1B3025"/>
<path d="M691.316 732.932H860.619V776.402H691.316V732.932Z" fill="#1B3025"/>
<path d="M691.316 707.766H775.968V710.053H691.316V707.766Z" fill="#CD6125"/>
<path d="M718.77 710.054H721.057V732.932H718.77V710.054Z" fill="#CD6125"/>
<path d="M691.316 710.054H693.604V732.932H691.316V710.054Z" fill="#CD6125"/>
<path d="M709.617 710.054H711.905V732.932H709.617V710.054Z" fill="#CD6125"/>
<path d="M700.465 710.054H702.753V732.932H700.465V710.054Z" fill="#CD6125"/>
<path d="M737.07 710.054H739.358V732.932H737.07V710.054Z" fill="#CD6125"/>
<path d="M727.918 710.054H730.206V732.932H727.918V710.054Z" fill="#CD6125"/>
<path d="M746.227 710.054H748.514V732.932H746.227V710.054Z" fill="#CD6125"/>
<path d="M755.375 710.054H757.663V732.932H755.375V710.054Z" fill="#CD6125"/>
<path d="M764.527 710.054H766.815V732.932H764.527V710.054Z" fill="#CD6125"/>
<path d="M773.676 710.054H775.964V732.932H773.676V710.054Z" fill="#CD6125"/>
<path d="M771.391 810.72H920.102V899.947H771.391V810.72Z" fill="#1B3025"/>
<path d="M821.723 666.584H851.465V696.326H821.723V666.584Z" fill="#FFDC96"/>
<path d="M785.117 682.599H812.572V732.932H785.117V682.599Z" fill="#C8A255"/>
<path d="M787.402 835.887H842.311V879.356H787.402V835.887Z" fill="#747D5D"/>
<path d="M849.18 835.887H904.089V879.356H849.18V835.887Z" fill="#747D5D"/>
<path d="M787.402 872.493H842.311V881.644H787.402V872.493Z" fill="#C8A255"/>
<path d="M849.18 872.493H904.089V881.644H849.18V872.493Z" fill="#C8A255"/>
<path d="M881.012 752.721C881.012 751.044 882.371 749.685 884.048 749.685H908.338C910.015 749.685 911.374 751.044 911.374 752.721C911.374 754.398 910.015 755.758 908.338 755.758H884.048C882.371 755.758 881.012 754.398 881.012 752.721Z" fill="#683911"/>
<path d="M881.012 760.308C881.012 757.272 882.392 755.754 883.772 755.754L908.614 755.754C909.994 755.754 911.374 757.593 911.374 760.308C911.374 763.344 905.854 777.008 905.854 777.008H886.532C886.532 777.008 881.012 763.344 881.012 760.308Z" fill="#1B3025"/>
<path d="M896.655 721.398C895.704 724.74 896.026 730.787 896.187 733.811L896.191 733.811C899.217 733.972 905.261 734.295 908.6 733.342C911.941 732.389 912.894 729.048 910.505 726.659C908.116 724.27 904.775 725.223 904.775 725.223C904.775 725.223 905.728 721.882 903.338 719.493C900.949 717.103 897.607 718.056 896.655 721.398Z" fill="#CD6125"/>
<path d="M896.188 733.811C895.945 729.275 900.48 725.222 902.628 727.37C904.774 729.516 900.723 734.053 896.188 733.811Z" fill="#FFDC96"/>
<path d="M895.72 746.224C896.671 742.882 896.349 736.834 896.188 733.811L896.184 733.81C893.158 733.649 887.114 733.327 883.775 734.279C880.434 735.232 879.481 738.573 881.87 740.962C884.259 743.351 887.6 742.398 887.6 742.398C887.6 742.398 886.647 745.739 889.037 748.129C891.426 750.518 894.768 749.566 895.72 746.224Z" fill="#CD6125"/>
<path d="M896.188 733.81C896.43 738.346 891.893 742.397 889.747 740.251C887.601 738.105 891.653 733.568 896.188 733.81Z" fill="#FFDC96"/>
<path d="M908.604 734.278C905.262 733.326 899.215 733.648 896.191 733.81L896.191 733.814C896.03 736.839 895.707 742.884 896.66 746.223C897.613 749.564 900.954 750.517 903.343 748.128C905.732 745.739 904.779 742.397 904.779 742.397C904.779 742.397 908.12 743.351 910.509 740.961C912.899 738.572 911.946 735.23 908.604 734.278Z" fill="#CD6125"/>
<path d="M896.189 733.81C900.725 733.568 904.777 738.103 902.63 740.25C900.482 742.398 895.947 738.345 896.189 733.81Z" fill="#FFDC96"/>
<path d="M883.778 733.343C887.12 734.295 893.168 733.973 896.191 733.811L896.192 733.807C896.353 730.782 896.675 724.738 895.723 721.398C894.77 718.058 891.429 717.104 889.04 719.493C886.651 721.882 887.604 725.224 887.604 725.224C887.604 725.224 884.263 724.271 881.873 726.66C879.484 729.049 880.436 732.391 883.778 733.343Z" fill="#CD6125"/>
<path d="M896.194 733.811C891.658 734.053 887.607 729.516 889.753 727.37C891.899 725.224 896.435 729.276 896.194 733.811Z" fill="#FFDC96"/>
<path d="M695.391 669.707H699.428V708.061H695.391V669.707Z" fill="#C8A255"/>
<path fill-rule="evenodd" clip-rule="evenodd" d="M669.204 654.672C669.204 663.378 677.204 670.73 687.458 670.73C697.712 670.73 705.712 663.378 705.712 654.672H708.74C708.74 665.375 699.039 673.758 687.458 673.758C675.877 673.758 666.176 665.375 666.176 654.672H669.204Z" fill="#C8A255"/>
<path fill-rule="evenodd" clip-rule="evenodd" d="M690.887 654.807C690.887 663.513 698.887 670.865 709.141 670.865C719.395 670.865 727.395 663.513 727.395 654.807H730.423C730.423 665.51 720.722 673.893 709.141 673.893C697.56 673.893 687.859 665.51 687.859 654.807H690.887Z" fill="#C8A255"/>
<path d="M686.833 631.279C686.833 644.199 676.359 654.672 663.44 654.672C650.52 654.672 640.047 644.199 640.047 631.279C640.047 618.36 650.52 607.886 663.44 607.886C676.359 607.886 686.833 618.36 686.833 631.279Z" fill="#CD6125"/>
<path d="M752.762 631.279C752.762 644.199 742.289 654.672 729.369 654.672C716.45 654.672 705.977 644.199 705.977 631.279C705.977 618.36 716.45 607.886 729.369 607.886C742.289 607.886 752.762 618.36 752.762 631.279Z" fill="#CD6125"/>
<path d="M727.235 623.836C727.235 640.866 713.429 654.672 696.399 654.672C679.368 654.672 665.562 640.866 665.562 623.836C665.562 606.806 679.368 593 696.399 593C713.429 593 727.235 606.806 727.235 623.836Z" fill="#CD6125"/>
<path d="M661.312 624.899H731.491V654.672H661.312V624.899Z" fill="#CD6125"/>
<path d="M835.453 613.963H840.029V650.569H835.453V613.963Z" fill="#1B3025"/>
<path d="M862.52 589.183L864.836 591.499L840.056 616.279L837.739 613.963L862.52 589.183Z" fill="#1B3025"/>
<path d="M812.82 589.047L810.532 591.334L835.449 616.251L837.737 613.963L812.82 589.047Z" fill="#1B3025"/>
<path d="M862.905 569.349C862.905 582.617 852.149 593.372 838.882 593.372C825.615 593.372 814.859 582.617 814.859 569.349C814.859 556.082 825.615 545.327 838.882 545.327C852.149 545.327 862.905 556.082 862.905 569.349Z" fill="#747D5D"/>
<path d="M878.917 591.084C878.917 599.929 871.747 607.099 862.902 607.099C854.057 607.099 846.887 599.929 846.887 591.084C846.887 582.239 854.057 575.069 862.902 575.069C871.747 575.069 878.917 582.239 878.917 591.084Z" fill="#747D5D"/>
<path d="M830.874 591.084C830.874 599.929 823.704 607.099 814.859 607.099C806.014 607.099 798.844 599.929 798.844 591.084C798.844 582.239 806.014 575.069 814.859 575.069C823.704 575.069 830.874 582.239 830.874 591.084Z" fill="#747D5D"/>
<path d="M743.934 844.614H750.797V865.205H743.934V844.614Z" fill="#313131"/>
<path d="M743.934 865.205H750.797V924.69H743.934V865.205Z" fill="#C8A255"/>
<path d="M743.934 865.205H750.797V869.781H743.934V865.205Z" fill="#FFDC96"/>
<path d="M738.395 845.09L745.024 846.866L739.695 866.756L733.065 864.979L738.395 845.09Z" fill="#313131"/>
<path d="M733.066 864.979L739.696 866.756L724.3 924.213L717.671 922.437L733.066 864.979Z" fill="#747D5D"/>
<path d="M733.066 864.979L739.696 866.756L738.512 871.175L731.882 869.399L733.066 864.979Z" fill="#FFDC96"/>
<path d="M700.464 813.008C700.464 815.535 698.415 817.584 695.888 817.584C693.361 817.584 691.312 815.535 691.312 813.008C691.312 810.481 693.361 808.432 695.888 808.432C698.415 808.432 700.464 810.481 700.464 813.008Z" fill="#C8A255"/>
<path d="M773.675 813.008C773.675 815.535 771.626 817.584 769.099 817.584C766.572 817.584 764.523 815.535 764.523 813.008C764.523 810.481 766.572 808.432 769.099 808.432C771.626 808.432 773.675 810.481 773.675 813.008Z" fill="#C8A255"/>
<path d="M846.886 813.008C846.886 815.535 844.837 817.584 842.31 817.584C839.783 817.584 837.734 815.535 837.734 813.008C837.734 810.481 839.783 808.432 842.31 808.432C844.837 808.432 846.886 810.481 846.886 813.008Z" fill="#C8A255"/>
<path d="M737.073 813.008C737.073 815.535 735.025 817.584 732.498 817.584C729.971 817.584 727.922 815.535 727.922 813.008C727.922 810.481 729.971 808.432 732.498 808.432C735.025 808.432 737.073 810.481 737.073 813.008Z" fill="#C8A255"/>
<path d="M810.284 813.008C810.284 815.535 808.236 817.584 805.709 817.584C803.181 817.584 801.133 815.535 801.133 813.008C801.133 810.481 803.181 808.432 805.709 808.432C808.236 808.432 810.284 810.481 810.284 813.008Z" fill="#C8A255"/>
<path d="M883.495 813.008C883.495 815.535 881.447 817.584 878.919 817.584C876.392 817.584 874.344 815.535 874.344 813.008C874.344 810.481 876.392 808.432 878.919 808.432C881.447 808.432 883.495 810.481 883.495 813.008Z" fill="#C8A255"/>
<path d="M718.769 813.008C718.769 815.535 716.72 817.584 714.193 817.584C711.666 817.584 709.617 815.535 709.617 813.008C709.617 810.481 711.666 808.432 714.193 808.432C716.72 808.432 718.769 810.481 718.769 813.008Z" fill="#C8A255"/>
<path d="M791.98 813.008C791.98 815.535 789.931 817.584 787.404 817.584C784.877 817.584 782.828 815.535 782.828 813.008C782.828 810.481 784.877 808.432 787.404 808.432C789.931 808.432 791.98 810.481 791.98 813.008Z" fill="#C8A255"/>
<path d="M865.194 813.008C865.194 815.535 863.146 817.584 860.619 817.584C858.092 817.584 856.043 815.535 856.043 813.008C856.043 810.481 858.092 808.432 860.619 808.432C863.146 808.432 865.194 810.481 865.194 813.008Z" fill="#C8A255"/>
<path d="M755.374 813.008C755.374 815.535 753.326 817.584 750.798 817.584C748.271 817.584 746.223 815.535 746.223 813.008C746.223 810.481 748.271 808.432 750.798 808.432C753.326 808.432 755.374 810.481 755.374 813.008Z" fill="#C8A255"/>
<path d="M828.585 813.008C828.585 815.535 826.536 817.584 824.009 817.584C821.482 817.584 819.434 815.535 819.434 813.008C819.434 810.481 821.482 808.432 824.009 808.432C826.536 808.432 828.585 810.481 828.585 813.008Z" fill="#C8A255"/>
<path d="M901.796 813.008C901.796 815.535 899.747 817.584 897.22 817.584C894.693 817.584 892.645 815.535 892.645 813.008C892.645 810.481 894.693 808.432 897.22 808.432C899.747 808.432 901.796 810.481 901.796 813.008Z" fill="#C8A255"/>
<path d="M920.101 813.008C920.101 815.535 918.052 817.584 915.525 817.584C912.998 817.584 910.949 815.535 910.949 813.008C910.949 810.481 912.998 808.432 915.525 808.432C918.052 808.432 920.101 810.481 920.101 813.008Z" fill="#C8A255"/>
<path d="M709.616 813.008C709.616 815.535 707.568 817.584 705.041 817.584C702.513 817.584 700.465 815.535 700.465 813.008C700.465 810.481 702.513 808.432 705.041 808.432C707.568 808.432 709.616 810.481 709.616 813.008Z" fill="#CD6125"/>
<path d="M782.827 813.008C782.827 815.535 780.779 817.584 778.252 817.584C775.724 817.584 773.676 815.535 773.676 813.008C773.676 810.481 775.724 808.432 778.252 808.432C780.779 808.432 782.827 810.481 782.827 813.008Z" fill="#CD6125"/>
<path d="M856.042 813.008C856.042 815.535 853.993 817.584 851.466 817.584C848.939 817.584 846.891 815.535 846.891 813.008C846.891 810.481 848.939 808.432 851.466 808.432C853.993 808.432 856.042 810.481 856.042 813.008Z" fill="#CD6125"/>
<path d="M746.222 813.008C746.222 815.535 744.173 817.584 741.646 817.584C739.119 817.584 737.07 815.535 737.07 813.008C737.07 810.481 739.119 808.432 741.646 808.432C744.173 808.432 746.222 810.481 746.222 813.008Z" fill="#CD6125"/>
<path d="M819.433 813.008C819.433 815.535 817.384 817.584 814.857 817.584C812.33 817.584 810.281 815.535 810.281 813.008C810.281 810.481 812.33 808.432 814.857 808.432C817.384 808.432 819.433 810.481 819.433 813.008Z" fill="#CD6125"/>
<path d="M892.644 813.008C892.644 815.535 890.595 817.584 888.068 817.584C885.541 817.584 883.492 815.535 883.492 813.008C883.492 810.481 885.541 808.432 888.068 808.432C890.595 808.432 892.644 810.481 892.644 813.008Z" fill="#CD6125"/>
<path d="M727.921 813.008C727.921 815.535 725.872 817.584 723.345 817.584C720.818 817.584 718.77 815.535 718.77 813.008C718.77 810.481 720.818 808.432 723.345 808.432C725.872 808.432 727.921 810.481 727.921 813.008Z" fill="#CD6125"/>
<path d="M801.132 813.008C801.132 815.535 799.083 817.584 796.556 817.584C794.029 817.584 791.98 815.535 791.98 813.008C791.98 810.481 794.029 808.432 796.556 808.432C799.083 808.432 801.132 810.481 801.132 813.008Z" fill="#CD6125"/>
<path d="M874.343 813.008C874.343 815.535 872.294 817.584 869.767 817.584C867.24 817.584 865.191 815.535 865.191 813.008C865.191 810.481 867.24 808.432 869.767 808.432C872.294 808.432 874.343 810.481 874.343 813.008Z" fill="#CD6125"/>
<path d="M764.526 813.008C764.526 815.535 762.478 817.584 759.951 817.584C757.424 817.584 755.375 815.535 755.375 813.008C755.375 810.481 757.424 808.432 759.951 808.432C762.478 808.432 764.526 810.481 764.526 813.008Z" fill="#CD6125"/>
<path d="M837.737 813.008C837.737 815.535 835.689 817.584 833.162 817.584C830.635 817.584 828.586 815.535 828.586 813.008C828.586 810.481 830.635 808.432 833.162 808.432C835.689 808.432 837.737 810.481 837.737 813.008Z" fill="#CD6125"/>
<path d="M910.948 813.008C910.948 815.535 908.9 817.584 906.373 817.584C903.846 817.584 901.797 815.535 901.797 813.008C901.797 810.481 903.846 808.432 906.373 808.432C908.9 808.432 910.948 810.481 910.948 813.008Z" fill="#CD6125"/>
<path d="M691.312 776.402H700.464V813.008H691.312V776.402Z" fill="#C8A255"/>
<path d="M727.922 776.402H737.073V813.008H727.922V776.402Z" fill="#C8A255"/>
<path d="M764.523 776.402H773.675V813.008H764.523V776.402Z" fill="#C8A255"/>
<path d="M801.133 776.402H810.284V813.008H801.133V776.402Z" fill="#C8A255"/>
<path d="M837.734 776.402H846.886V813.008H837.734V776.402Z" fill="#C8A255"/>
<path d="M874.344 776.402H883.495V813.008H874.344V776.402Z" fill="#C8A255"/>
<path d="M709.617 776.402H718.769V813.008H709.617V776.402Z" fill="#C8A255"/>
<path d="M746.223 776.402H755.374V813.008H746.223V776.402Z" fill="#C8A255"/>
<path d="M782.828 776.402H791.98V813.008H782.828V776.402Z" fill="#C8A255"/>
<path d="M819.434 776.402H828.585V813.008H819.434V776.402Z" fill="#C8A255"/>
<path d="M856.043 776.402H865.194V813.008H856.043V776.402Z" fill="#C8A255"/>
<path d="M892.645 776.402H901.796V813.008H892.645V776.402Z" fill="#C8A255"/>
<path d="M910.949 776.402H920.101V813.008H910.949V776.402Z" fill="#C8A255"/>
<path d="M700.465 776.402H709.616V813.008H700.465V776.402Z" fill="#CD6125"/>
<path d="M737.07 776.402H746.222V813.008H737.07V776.402Z" fill="#CD6125"/>
<path d="M773.676 776.402H782.827V813.008H773.676V776.402Z" fill="#CD6125"/>
<path d="M810.281 776.402H819.433V813.008H810.281V776.402Z" fill="#CD6125"/>
<path d="M846.891 776.402H856.042V813.008H846.891V776.402Z" fill="#CD6125"/>
<path d="M883.492 776.402H892.644V813.008H883.492V776.402Z" fill="#CD6125"/>
<path d="M718.77 776.402H727.921V813.008H718.77V776.402Z" fill="#CD6125"/>
<path d="M755.375 776.402H764.526V813.008H755.375V776.402Z" fill="#CD6125"/>
<path d="M791.98 776.402H801.132V813.008H791.98V776.402Z" fill="#CD6125"/>
<path d="M828.586 776.402H837.737V813.008H828.586V776.402Z" fill="#CD6125"/>
<path d="M865.191 776.402H874.343V813.008H865.191V776.402Z" fill="#CD6125"/>
<path d="M901.797 776.402H910.948V813.008H901.797V776.402Z" fill="#CD6125"/>
<path d="M835.449 666.584H837.737V696.326H835.449V666.584Z" fill="#747D5D"/>
<path d="M851.465 680.311L851.465 682.599L821.722 682.599L821.722 680.311L851.465 680.311Z" fill="#747D5D"/>
<path d="M673.008 838.932L673.008 822.917L581.493 822.917L581.493 838.932L673.008 838.932Z" fill="#683911"/>
<path d="M597.512 854.947L597.512 834.356L590.648 834.356L590.648 854.947L597.512 854.947Z" fill="#683911"/>
<path d="M661.574 854.947L661.574 834.356L654.711 834.356L654.711 854.947L661.574 854.947Z" fill="#683911"/>
<path d="M586.423 774.824C586.423 782.378 581.223 788.503 574.809 788.503C568.395 788.503 563.195 782.378 563.195 774.824C563.195 767.269 568.395 761.145 574.809 761.145C581.223 761.145 586.423 767.269 586.423 774.824Z" fill="#1B3025"/>
<path fill-rule="evenodd" clip-rule="evenodd" d="M596.37 764.576V823.793L575.93 788.022L577.916 786.887L594.082 815.178V764.576H596.37Z" fill="#747D5D"/>
<path d="M613.523 774.872H620.387V795.462H613.523V774.872Z" fill="#313131"/>
<path d="M613.523 795.462H620.387V854.947H613.523V795.462Z" fill="#747D5D"/>
<path d="M613.523 795.462H620.387V800.038H613.523V795.462Z" fill="#FFDC96"/>
<path d="M631.828 774.872H638.692V795.462H631.828V774.872Z" fill="#313131"/>
<path d="M631.828 795.462H638.692V854.947H631.828V795.462Z" fill="#C8A255"/>
<path d="M631.828 795.462H638.692V800.038H631.828V795.462Z" fill="#FFDC96"/>
<path d="M607.009 751.945C607.009 759.499 601.809 765.624 595.395 765.624C588.981 765.624 583.781 759.499 583.781 751.945C583.781 744.39 588.981 738.266 595.395 738.266C601.809 738.266 607.009 744.39 607.009 751.945Z" fill="#1B3025"/>
<path d="M597.648 690.21C597.648 699.534 605.206 707.092 614.529 707.092C623.852 707.092 631.41 699.534 631.41 690.21C631.41 680.887 623.852 673.329 614.529 673.329C605.206 673.329 597.648 680.887 597.648 690.21Z" fill="#747D5D"/>
<path fill-rule="evenodd" clip-rule="evenodd" d="M614.529 704.804C606.469 704.804 599.936 698.27 599.936 690.21C599.936 682.151 606.469 675.617 614.529 675.617C622.589 675.617 629.122 682.151 629.122 690.21C629.122 698.27 622.589 704.804 614.529 704.804ZM614.529 707.092C605.206 707.092 597.648 699.534 597.648 690.21C597.648 680.887 605.206 673.329 614.529 673.329C623.852 673.329 631.41 680.887 631.41 690.21C631.41 699.534 623.852 707.092 614.529 707.092Z" fill="#747D5D"/>
<path d="M549.047 691.901C549.047 700.292 555.85 707.094 564.24 707.094C572.631 707.094 579.434 700.292 579.434 691.901C579.434 683.51 572.631 676.708 564.24 676.708C555.85 676.708 549.047 683.51 549.047 691.901Z" fill="#747D5D"/>
<path fill-rule="evenodd" clip-rule="evenodd" d="M564.24 704.806C557.113 704.806 551.335 699.028 551.335 691.901C551.335 684.773 557.113 678.996 564.24 678.996C571.368 678.996 577.146 684.773 577.146 691.901C577.146 699.028 571.368 704.806 564.24 704.806ZM564.24 707.094C555.85 707.094 549.047 700.292 549.047 691.901C549.047 683.51 555.85 676.708 564.24 676.708C572.631 676.708 579.434 683.51 579.434 691.901C579.434 700.292 572.631 707.094 564.24 707.094Z" fill="#747D5D"/>
<path d="M567.633 684.232C567.633 697.063 578.035 707.464 590.865 707.464C603.696 707.464 614.098 697.063 614.098 684.232C614.098 671.401 603.696 661 590.865 661C578.035 661 567.633 671.401 567.633 684.232Z" fill="#747D5D"/>
<path fill-rule="evenodd" clip-rule="evenodd" d="M590.865 705.177C579.298 705.177 569.921 695.799 569.921 684.232C569.921 672.665 579.298 663.288 590.865 663.288C602.433 663.288 611.81 672.665 611.81 684.232C611.81 695.799 602.433 705.177 590.865 705.177ZM590.865 707.464C578.035 707.464 567.633 697.063 567.633 684.232C567.633 671.401 578.035 661 590.865 661C603.696 661 614.098 671.401 614.098 684.232C614.098 697.063 603.696 707.464 590.865 707.464Z" fill="#747D5D"/>
<path d="M614.672 690.738H564.49V707.465H614.672V690.738Z" fill="#747D5D"/>
<path fill-rule="evenodd" clip-rule="evenodd" d="M321.531 497.731C322.246 496.252 322.813 495.078 323.137 494.268L326.323 495.543C325.909 496.577 325.251 497.942 324.455 499.594C322.226 504.216 318.911 511.09 316.823 519.282C321.444 517.778 329.357 514.829 333.861 512.155C337.5 509.994 341.164 506.943 344.06 503.707C346.993 500.431 348.973 497.15 349.514 494.555L352.874 495.256C352.149 498.727 349.699 502.553 346.618 505.996C343.501 509.478 339.569 512.757 335.613 515.106C330.066 518.4 320.024 521.949 315.868 523.173C313.693 530.943 313.026 537.189 312.213 544.799C311.93 547.444 311.63 550.255 311.243 553.352C309.029 571.05 309.122 584.643 309.267 606.097C309.308 612.096 309.353 618.71 309.353 626.2L305.921 626.2C305.921 618.787 305.877 612.217 305.836 606.239C305.759 595.083 305.697 585.986 305.968 577.31L305.926 577.313C305.63 573.155 303.88 567.334 301.534 561.309C300.687 559.134 299.771 556.953 298.833 554.843C290.006 554.661 279.338 552.323 272.9 547.173C272.815 547.105 272.73 547.037 272.646 546.97C269.663 544.584 267.325 542.714 265.628 540.412C263.824 537.966 262.806 535.138 262.148 530.905L265.54 530.378C266.148 534.294 267.029 536.53 268.39 538.376C269.81 540.302 271.819 541.913 275.043 544.493C280.275 548.678 289.178 550.934 297.235 551.351C296.114 548.973 295.001 546.753 293.976 544.816C288.3 534.094 284.841 528.437 282.651 524.996C282.27 524.397 281.92 523.856 281.6 523.36C280.132 521.089 279.263 519.744 278.672 517.971L281.928 516.886C282.371 518.215 282.96 519.129 284.398 521.363C284.732 521.882 285.112 522.471 285.546 523.153C287.788 526.675 291.292 532.412 297.009 543.21C299.441 547.804 302.348 553.943 304.732 560.064C305.399 561.778 306.031 563.505 306.602 565.205C306.902 561.238 307.303 557.197 307.838 552.926C308.208 549.966 308.499 547.233 308.778 544.625C309.629 536.649 310.354 529.85 312.816 521.363C314.905 511.447 319.084 502.797 321.531 497.731Z" fill="#CD6125"/>
<path d="M341.639 476.344C341.639 487.716 350.857 496.935 362.229 496.935C373.601 496.935 382.82 487.716 382.82 476.344C382.82 464.972 373.601 455.753 362.229 455.753C350.857 455.753 341.639 464.972 341.639 476.344Z" fill="#747D5D"/>
<path d="M277.576 472.912C277.576 486.179 288.331 496.935 301.598 496.935C314.866 496.935 325.621 486.179 325.621 472.912C325.621 459.645 314.866 448.889 301.598 448.889C288.331 448.889 277.576 459.645 277.576 472.912Z" fill="#747D5D"/>
<path d="M307.318 467.192C307.318 482.355 319.609 494.647 334.772 494.647C349.935 494.647 362.227 482.355 362.227 467.192C362.227 452.03 349.935 439.738 334.772 439.738C319.609 439.738 307.318 452.03 307.318 467.192Z" fill="#747D5D"/>
<path d="M362.227 474.056H300.454V496.935H362.227V474.056Z" fill="#747D5D"/>
<path d="M259.274 525.533C259.274 536.273 267.981 544.98 278.721 544.98C289.461 544.98 298.168 536.273 298.168 525.533C298.168 514.793 289.461 506.086 278.721 506.086C267.981 506.086 259.274 514.793 259.274 525.533Z" fill="#747D5D"/>
<path d="M229.529 520.957C229.529 534.225 240.284 544.98 253.552 544.98C266.819 544.98 277.574 534.225 277.574 520.957C277.574 507.69 266.819 496.935 253.552 496.935C240.284 496.935 229.529 507.69 229.529 520.957Z" fill="#747D5D"/>
<path d="M278.703 524.389H253.384V545.105H278.703V524.389Z" fill="#747D5D"/>
<path d="M436.266 855.061H454.569L450.262 868.788H440.572L436.266 855.061Z" fill="#C8A255"/>
<path d="M436.266 868.788H454.569L450.262 882.515H440.572L436.266 868.788Z" fill="#C8A255"/>
<path d="M436.266 882.515H454.569L450.262 896.242H440.572L436.266 882.515Z" fill="#C8A255"/>
<path d="M436.266 896.242H454.569L450.262 909.969H440.572L436.266 896.242Z" fill="#C8A255"/>
<path d="M436.266 909.969H454.569L450.262 923.697H440.572L436.266 909.969Z" fill="#C8A255"/>
<path d="M445.582 845.928C449.228 845.928 452.16 840.795 452.16 823.065C452.16 805.334 445.582 791 445.582 791C445.582 791 439.004 805.374 439.004 823.065C439.004 840.795 441.976 845.928 445.582 845.928Z" fill="#1B3025"/>
<path d="M445.589 845.496C448.759 847.273 453.831 844.271 462.589 828.831C471.346 813.392 472.733 797.715 472.733 797.715C472.733 797.715 459.934 806.994 451.176 822.434C442.419 837.835 442.458 843.719 445.589 845.496Z" fill="#1B3025"/>
<path d="M445.586 845.496C442.416 847.273 437.343 844.271 428.586 828.831C419.828 813.392 418.441 797.715 418.441 797.715C418.441 797.715 431.241 806.994 439.998 822.434C448.796 837.835 448.756 843.719 445.586 845.496Z" fill="#1B3025"/>
<path d="M444.076 847.586C445.819 850.784 451.724 850.903 467.376 842.452C482.989 834.002 492.539 821.405 492.539 821.405C492.539 821.405 476.728 822.511 461.115 830.961C445.502 839.412 442.372 844.427 444.076 847.586Z" fill="#1B3025"/>
<path d="M447.1 847.586C445.357 850.784 439.452 850.903 423.8 842.452C408.187 834.002 398.637 821.405 398.637 821.405C398.637 821.405 414.448 822.511 430.061 830.961C445.674 839.412 448.844 844.427 447.1 847.586Z" fill="#1B3025"/>
<path d="M439.004 849.917C439.004 853.55 444.155 856.472 461.948 856.472C479.74 856.472 494.125 849.917 494.125 849.917C494.125 849.917 479.701 843.362 461.948 843.362C444.155 843.401 439.004 846.324 439.004 849.917Z" fill="#1B3025"/>
<path d="M452.168 849.917C452.168 853.55 447.016 856.472 429.224 856.472C411.471 856.472 397.047 849.917 397.047 849.917C397.047 849.917 411.471 843.362 429.224 843.362C447.016 843.401 452.168 846.324 452.168 849.917Z" fill="#1B3025"/>
<path d="M192.669 448.738C190.884 456.173 184.981 461.985 177.5 463.632C184.981 465.256 190.884 471.09 192.669 478.503C194.453 471.045 200.402 465.21 207.929 463.609C200.402 461.985 194.453 456.196 192.669 448.738Z" fill="#FFDC96"/>
<path d="M348.079 630.323C350.76 633.004 350.76 637.35 348.079 640.03C345.399 642.71 341.053 642.71 338.373 640.03C335.692 637.35 335.692 633.004 338.373 630.323C341.053 627.643 345.399 627.643 348.079 630.323Z" fill="#1B3025"/>
<path d="M361.021 643.265C363.701 645.946 363.701 650.291 361.021 652.972C358.34 655.652 353.995 655.652 351.314 652.972C348.634 650.291 348.634 645.946 351.314 643.265C353.995 640.585 358.34 640.585 361.021 643.265Z" fill="#1B3025"/>
<path d="M361.017 640.03C358.337 642.71 353.991 642.71 351.311 640.03C348.63 637.35 348.63 633.004 351.311 630.323C353.991 627.643 358.337 627.643 361.017 630.323C363.698 633.004 363.698 637.35 361.017 640.03Z" fill="#1B3025"/>
<path d="M348.076 652.972C345.396 655.653 341.05 655.653 338.369 652.972C335.689 650.292 335.689 645.946 338.369 643.266C341.05 640.585 345.396 640.585 348.076 643.266C350.756 645.946 350.756 650.292 348.076 652.972Z" fill="#1B3025"/>
<path d="M352.929 638.412C354.716 640.199 354.716 643.096 352.929 644.883C351.142 646.67 348.245 646.67 346.458 644.883C344.671 643.096 344.671 640.199 346.458 638.412C348.245 636.625 351.142 636.625 352.929 638.412Z" fill="#FFDC96"/>
<path d="M331.793 744.243H338.657V764.834H331.793V744.243Z" fill="#313131"/>
<path d="M331.793 764.833H338.657V824.318H331.793V764.833Z" fill="#C8A255"/>
<path d="M331.793 764.833H338.657V769.409H331.793V764.833Z" fill="#FFDC96"/>
<path d="M132.156 719.076L137.01 723.929L122.45 738.489L117.596 733.636L132.156 719.076Z" fill="#313131"/>
<path d="M117.598 733.636L122.451 738.489L80.3889 780.551L75.5356 775.698L117.598 733.636Z" fill="#1B3025"/>
<path d="M117.598 733.636L122.451 738.489L119.215 741.725L114.362 736.872L117.598 733.636Z" fill="#FFDC96"/>
<path d="M233.418 677.598L240.093 676L244.886 696.025L238.211 697.623L233.418 677.598Z" fill="#313131"/>
<path d="M238.207 697.623L244.882 696.026L258.73 753.876L252.055 755.474L238.207 697.623Z" fill="#CD6125"/>
<path d="M238.207 697.623L244.882 696.026L245.947 700.476L239.272 702.073L238.207 697.623Z" fill="#FFDC96"/>
<path d="M350.078 744.242H356.942V764.833H350.078V744.242Z" fill="#313131"/>
<path d="M350.078 764.833H356.942V824.318H350.078V764.833Z" fill="#C8A255"/>
<path d="M350.078 764.833H356.942V769.409H350.078V764.833Z" fill="#FFDC96"/>
<path d="M411.215 719.248C409.431 726.683 403.528 732.494 396.047 734.142C403.528 735.766 409.431 741.6 411.215 749.013C413 741.554 418.949 735.72 426.476 734.119C418.949 732.494 413 726.706 411.215 719.248Z" fill="#747D5D"/>
<path d="M0.046875 757.97H2.58043V793.439H0.046875V757.97Z" fill="#1B3025"/>
<path d="M0.046875 792.288H103.001V922.696H0.046875V792.288Z" fill="#1B3025"/>
<path d="M23.0469 847H80.0469V923H23.0469V847Z" fill="black"/>
<g clip-path="url(#clip0)">
<path d="M69.6172 891.546C69.6172 891.546 70.8038 895.087 71.3187 896.292C71.8337 897.498 72.6732 898.583 73.9904 899.964C75.4382 901.486 76.192 902.251 78.1398 903.934C80.0839 905.621 88.1886 912.431 90.6812 913.315C93.1738 914.199 92.5432 907.125 92.5432 907.125L92.3566 898.113L74.274 891.244L69.6172 891.546Z" fill="#FFDC96"/>
<path d="M91.0083 905.515C91.0083 905.515 86.4522 902.649 84.5492 900.697C82.6424 898.742 80.2543 895.615 77.7654 894.41C72.213 891.723 63.1643 891.309 63.1643 891.309C63.1643 891.309 61.612 888.958 60.3284 887.775C59.0448 886.592 54.1641 885.469 54.1641 885.469L54.2462 882.133L62.0859 877.682H90.7322L91.0083 905.515Z" fill="#CD6125"/>
<path d="M55.8442 889.624L55.8106 892.766H59.5047L63.1989 891.307C63.1989 891.307 62.4377 888.546 60.9376 887.206C58.8443 885.337 54.1464 885.463 54.1464 885.463C54.1464 885.463 54.0568 886.852 54.4225 887.84C54.7882 888.829 55.8442 889.624 55.8442 889.624Z" fill="#FFDC96"/>
<path d="M55.7486 881.284C55.883 881.527 55.9576 881.807 55.9576 882.106C55.9576 883.05 55.1476 883.812 54.2031 883.812L54.2442 882.136L55.7486 881.284Z" fill="#FFDC96"/>
<path d="M62.5683 883.418C63.5486 883.394 64.3344 883.016 64.3235 882.573C64.3126 882.13 63.5091 881.791 62.5288 881.815C61.5486 881.839 60.7627 882.218 60.7736 882.66C60.7845 883.103 61.588 883.443 62.5683 883.418Z" fill="black"/>
<path d="M68.9552 877.754C68.9552 876.06 67.582 874.691 65.8916 874.691C64.2013 874.691 62.8281 876.064 62.8281 877.754H68.9552Z" fill="#CD6125"/>
<path d="M74.9473 877.74C74.9473 876.046 73.5742 874.676 71.8838 874.676C70.1897 874.676 68.8203 876.049 68.8203 877.74H74.9473Z" fill="#CD6125"/>
<path d="M73.2339 877.74C73.2339 876.994 72.6292 876.389 71.8826 876.389C71.136 876.389 70.5312 876.994 70.5312 877.74H73.2339Z" fill="black"/>
<path d="M67.2456 877.74C67.2456 876.994 66.6409 876.389 65.8943 876.389C65.1477 876.389 64.543 876.994 64.543 877.74H67.2456Z" fill="black"/>
</g>
<path d="M50.3789 716.788H52.6668V757.97H50.3789V716.788Z" fill="#1B3025"/>
<path d="M54.957 755.682H57.4906V791.151H54.957V755.682Z" fill="#1B3025"/>
<path d="M45.8008 755.682H48.3343V791.151H45.8008V755.682Z" fill="#1B3025"/>
<path d="M64.1094 755.682H66.6429V791.151H64.1094V755.682Z" fill="#1B3025"/>
<path d="M73.2578 755.682H75.5457V785.424H73.2578V755.682Z" fill="#1B3025"/>
<path d="M91.5586 755.682H93.8465V785.424H91.5586V755.682Z" fill="#1B3025"/>
<path d="M82.4102 755.682H84.698V785.424H82.4102V755.682Z" fill="#1B3025"/>
<path d="M100.711 757.97H102.999V783.136H100.711V757.97Z" fill="#1B3025"/>
<path d="M9.19922 757.97H11.7328V793.439H9.19922V757.97Z" fill="#1B3025"/>
<path d="M18.3477 757.97H20.8812V793.439H18.3477V757.97Z" fill="#1B3025"/>
<path d="M27.5 757.97H29.7879V790H27.5V757.97Z" fill="#1B3025"/>
<path d="M103 755.682L103 757.97L0.0456313 757.97L0.0456314 755.682L103 755.682Z" fill="#1B3025"/>
<path d="M103 709.924L103 716.788L0.0456311 716.788L0.0456314 709.924L103 709.924Z" fill="#CD6125"/>
<path d="M36.6523 755.682H39.1859V791.151H36.6523V755.682Z" fill="#1B3025"/>
<path d="M103 833.47H377.545V922.697H103V833.47Z" fill="#747D5D"/>
<path d="M103 755.682H313.484V833.469H103V755.682Z" fill="#747D5D"/>
<path d="M137.32 691.621H235.699V755.682H137.32V691.621Z" fill="#1B3025"/>
<path d="M137.32 682.47H235.699V691.621H137.32V682.47Z" fill="#CD6125"/>
<path d="M377.547 824.318L377.547 833.469L119.017 833.469L119.017 824.318L377.547 824.318Z" fill="#1B3025"/>
<path d="M103 783.136L103 792.288L0.045631 792.288L0.0456314 783.136L103 783.136Z" fill="#CD6125"/>
<path d="M80.1227 846.053C80.1227 861.848 67.3187 874.651 51.5242 874.651C35.7297 874.651 22.9258 861.848 22.9258 846.053C22.9258 830.259 35.7297 817.455 51.5242 817.455C67.3187 817.455 80.1227 830.259 80.1227 846.053Z" fill="black"/>
<path d="M148.754 771.697H173.921V824.318H148.754V771.697Z" fill="#FFDC96"/>
<path d="M203.664 771.697H228.831V824.318H203.664V771.697Z" fill="#FFDC96"/>
<path d="M258.574 771.697H283.741V824.318H258.574V771.697Z" fill="#FFDC96"/>
<path d="M174.016 873.797C174.016 885.691 164.374 895.332 152.48 895.332C140.587 895.332 130.945 885.691 130.945 873.797C130.945 861.903 140.587 852.262 152.48 852.262C164.374 852.262 174.016 861.903 174.016 873.797Z" fill="#FFDC96"/>
<path d="M130.453 876.939H173.923V922.697H130.453V876.939Z" fill="black"/>
<path d="M151.043 847.197H153.331V922.697H151.043V847.197Z" fill="#747D5D"/>
<path d="M173.922 851.772L175.713 853.564L153.389 875.888L151.598 874.097L173.922 851.772Z" fill="#747D5D"/>
<path d="M130.453 851.772L128.662 853.564L150.796 875.698L152.587 873.906L130.453 851.772Z" fill="#747D5D"/>
<path d="M176.211 876.939L176.211 874.651L128.166 874.651L128.166 876.939L176.211 876.939Z" fill="#747D5D"/>
<path d="M235.789 873.797C235.789 885.691 226.147 895.332 214.254 895.332C202.36 895.332 192.719 885.691 192.719 873.797C192.719 861.903 202.36 852.262 214.254 852.262C226.147 852.262 235.789 861.903 235.789 873.797Z" fill="#FFDC96"/>
<path d="M192.227 876.939H235.696V922.697H192.227V876.939Z" fill="black"/>
<path d="M212.816 847.197H215.104V922.697H212.816V847.197Z" fill="#747D5D"/>
<path d="M235.695 851.772L237.487 853.564L215.163 875.888L213.371 874.097L235.695 851.772Z" fill="#747D5D"/>
<path d="M192.227 851.772L190.435 853.564L212.569 875.698L214.36 873.906L192.227 851.772Z" fill="#747D5D"/>
<path d="M237.984 876.939L237.984 874.651L189.939 874.651L189.939 876.939L237.984 876.939Z" fill="#747D5D"/>
<path d="M297.559 873.797C297.559 885.691 287.917 895.332 276.023 895.332C264.13 895.332 254.488 885.691 254.488 873.797C254.488 861.903 264.13 852.262 276.023 852.262C287.917 852.262 297.559 861.903 297.559 873.797Z" fill="#FFDC96"/>
<path d="M253.996 876.939H297.466V922.697H253.996V876.939Z" fill="black"/>
<path d="M274.586 847.197H276.874V922.697H274.586V847.197Z" fill="#747D5D"/>
<path d="M297.465 851.772L299.256 853.564L276.932 875.888L275.141 874.097L297.465 851.772Z" fill="#747D5D"/>
<path d="M253.996 851.772L252.205 853.564L274.339 875.698L276.13 873.906L253.996 851.772Z" fill="#747D5D"/>
<path d="M299.754 876.939L299.754 874.651L251.709 874.651L251.709 876.939L299.754 876.939Z" fill="#747D5D"/>
<path d="M359.336 873.797C359.336 885.691 349.694 895.332 337.801 895.332C325.907 895.332 316.266 885.691 316.266 873.797C316.266 861.903 325.907 852.262 337.801 852.262C349.694 852.262 359.336 861.903 359.336 873.797Z" fill="#FFDC96"/>
<path d="M315.773 876.939H359.243V922.697H315.773V876.939Z" fill="black"/>
<path d="M336.363 847.197H338.651V922.697H336.363V847.197Z" fill="#747D5D"/>
<path d="M359.242 851.772L361.034 853.564L338.71 875.888L336.918 874.097L359.242 851.772Z" fill="#747D5D"/>
<path d="M315.773 851.772L313.982 853.564L336.116 875.698L337.907 873.906L315.773 851.772Z" fill="#747D5D"/>
<path d="M361.531 876.939L361.531 874.651L313.486 874.651L313.486 876.939L361.531 876.939Z" fill="#747D5D"/>
<path d="M356.953 794.576H359.241V826.606H356.953V794.576Z" fill="#1B3025"/>
<path d="M347.801 794.576H350.089V826.606H347.801V794.576Z" fill="#1B3025"/>
<path d="M347.801 794.576H350.089V826.606H347.801V794.576Z" fill="#1B3025"/>
<path d="M338.652 794.576H340.94V826.606H338.652V794.576Z" fill="#1B3025"/>
<path d="M329.5 794.576H331.788V826.606H329.5V794.576Z" fill="#1B3025"/>
<path d="M320.352 794.576H322.639V826.606H320.352V794.576Z" fill="#1B3025"/>
<path d="M292.895 796.864H295.182V828.894H292.895V796.864Z" fill="#1B3025"/>
<path d="M265.441 796.864H267.729V828.894H265.441V796.864Z" fill="#1B3025"/>
<path d="M237.984 796.864H240.272V828.894H237.984V796.864Z" fill="#1B3025"/>
<path d="M210.531 794.576H212.819V826.606H210.531V794.576Z" fill="#1B3025"/>
<path d="M183.078 794.576H185.366V826.606H183.078V794.576Z" fill="#1B3025"/>
<path d="M155.621 794.576H157.909V826.606H155.621V794.576Z" fill="#1B3025"/>
<path d="M128.168 794.576H130.456V826.606H128.168V794.576Z" fill="#1B3025"/>
<path d="M311.195 794.576H313.483V826.606H311.195V794.576Z" fill="#1B3025"/>
<path d="M283.742 796.864H286.03V828.894H283.742V796.864Z" fill="#1B3025"/>
<path d="M256.289 796.864H258.577V828.894H256.289V796.864Z" fill="#1B3025"/>
<path d="M228.832 796.864H231.12V828.894H228.832V796.864Z" fill="#1B3025"/>
<path d="M201.379 794.576H203.667V826.606H201.379V794.576Z" fill="#1B3025"/>
<path d="M173.922 794.576H176.21V826.606H173.922V794.576Z" fill="#1B3025"/>
<path d="M146.469 794.576H148.757V826.606H146.469V794.576Z" fill="#1B3025"/>
<path d="M119.016 794.576H121.303V826.606H119.016V794.576Z" fill="#1B3025"/>
<path d="M366.105 794.576H368.393V826.606H366.105V794.576Z" fill="#1B3025"/>
<path d="M375.254 794.576H377.542V826.606H375.254V794.576Z" fill="#1B3025"/>
<path d="M302.043 794.576H304.331V831.182H302.043V794.576Z" fill="#1B3025"/>
<path d="M274.59 796.864H276.878V833.47H274.59V796.864Z" fill="#1B3025"/>
<path d="M247.137 796.864H249.425V833.47H247.137V796.864Z" fill="#1B3025"/>
<path d="M219.68 796.864H221.968V833.47H219.68V796.864Z" fill="#1B3025"/>
<path d="M192.227 794.576H194.514V831.182H192.227V794.576Z" fill="#1B3025"/>
<path d="M164.773 794.576H167.061V831.182H164.773V794.576Z" fill="#1B3025"/>
<path d="M137.32 794.576H139.608V831.182H137.32V794.576Z" fill="#1B3025"/>
<path d="M377.547 794.576L377.547 796.864L119.017 796.864L119.017 794.576L377.547 794.576Z" fill="#1B3025"/>
<path d="M51.524 687.046L103.001 709.924H0.046875L51.524 687.046Z" fill="#1B3025"/>
<path d="M80.1211 865.5H103V922.697H80.1211V865.5Z" fill="#1B3025"/>
<path d="M153.336 703.061H178.503V744.243H153.336V703.061Z" fill="#747D5D"/>
<path d="M194.516 703.061H219.682V744.243H194.516V703.061Z" fill="#747D5D"/>
<path d="M322.047 710.248C322.047 720.189 313.988 728.248 304.047 728.248C294.106 728.248 286.047 720.189 286.047 710.248C286.047 700.306 294.106 692.248 304.047 692.248C313.988 692.248 322.047 700.306 322.047 710.248Z" fill="#CD6125"/>
<path d="M288.617 731.329C288.617 729.652 289.977 728.293 291.653 728.293H315.943C317.62 728.293 318.98 729.652 318.98 731.329C318.98 733.006 317.62 734.365 315.943 734.365H291.653C289.977 734.365 288.617 733.006 288.617 731.329Z" fill="#683911"/>
<path d="M288.617 738.917C288.617 735.881 289.997 734.362 291.377 734.363L316.22 734.363C317.599 734.362 318.98 736.201 318.98 738.917C318.979 741.953 313.459 755.616 313.459 755.616H294.138C294.138 755.616 288.617 741.953 288.617 738.917Z" fill="#1B3025"/>
<path d="M89.9453 637.705L116.65 611L143.355 637.705H89.9453Z" fill="#683911"/>
<path d="M120.848 637.705L147.552 611L174.257 637.705H120.848Z" fill="#683911"/>
<path d="M151.738 637.705L178.443 611L205.148 637.705H151.738Z" fill="#683911"/>
<path d="M182.648 637.705L209.353 611L236.058 637.705H182.648Z" fill="#683911"/>
<path d="M59.0469 637.705L85.7516 611L112.456 637.705H59.0469Z" fill="#683911"/>
<path d="M31.0742 486.503L37.0183 483.071L47.3137 500.903L41.3697 504.335L31.0742 486.503Z" fill="#313131"/>
<path d="M41.3711 504.335L47.3152 500.903L77.0575 552.419L71.1135 555.85L41.3711 504.335Z" fill="#CD6125"/>
<path d="M41.3711 504.335L47.3152 500.903L49.603 504.866L43.659 508.298L41.3711 504.335Z" fill="#FFDC96"/>
<path d="M148.898 483.071L154.843 486.503L144.547 504.335L138.603 500.903L148.898 483.071Z" fill="#313131"/>
<path d="M138.605 500.903L144.55 504.335L114.807 555.85L108.863 552.419L138.605 500.903Z" fill="#683911"/>
<path d="M138.605 500.903L144.55 504.335L142.262 508.298L136.318 504.866L138.605 500.903Z" fill="#FFDC96"/>
<path d="M10.4844 563.147L10.4844 572.298L1.33288 572.298L1.33288 563.147L10.4844 563.147Z" fill="#CD6125"/>
<path d="M10.4844 544.844L10.4844 553.995L1.33288 553.995L1.33288 544.844L10.4844 544.844Z" fill="#CD6125"/>
<path d="M184.363 535.692L184.363 544.844L175.212 544.844L175.212 535.692L184.363 535.692Z" fill="#CD6125"/>
<path d="M83.6992 563.147L83.6992 572.298L74.5477 572.298L74.5477 563.147L83.6992 563.147Z" fill="#CD6125"/>
<path d="M47.0898 563.147L47.0898 572.298L37.9383 572.298L37.9383 563.147L47.0898 563.147Z" fill="#CD6125"/>
<path d="M120.305 563.147L120.305 572.298L111.153 572.298L111.153 563.147L120.305 563.147Z" fill="#CD6125"/>
<path d="M156.91 563.147L156.91 572.298L147.759 572.298L147.759 563.147L156.91 563.147Z" fill="#CD6125"/>
<path d="M28.7891 563.147L28.7891 572.298L19.6376 572.298L19.6376 563.147L28.7891 563.147Z" fill="#CD6125"/>
<path d="M102 563.147L102 572.298L92.8485 572.298L92.8485 563.147L102 563.147Z" fill="#CD6125"/>
<path d="M65.3945 563.147L65.3945 572.298L56.243 572.298L56.243 563.147L65.3945 563.147Z" fill="#CD6125"/>
<path d="M138.605 563.147L138.605 572.298L129.454 572.298L129.454 563.147L138.605 563.147Z" fill="#CD6125"/>
<path d="M175.211 563.147L175.211 572.298L166.059 572.298L166.059 563.147L175.211 563.147Z" fill="#CD6125"/>
<path d="M19.6367 563.147L19.6367 572.298L10.4852 572.298L10.4852 563.147L19.6367 563.147Z" fill="#683911"/>
<path d="M10.4844 553.995L10.4844 563.147L1.33288 563.147L1.33288 553.995L10.4844 553.995Z" fill="#683911"/>
<path d="M184.363 553.995L184.363 563.147L175.212 563.147L175.212 553.995L184.363 553.995Z" fill="#CD6125"/>
<path d="M10.4844 535.692L10.4844 544.844L1.33288 544.844L1.33288 535.692L10.4844 535.692Z" fill="#683911"/>
<path d="M184.363 544.844L184.363 553.995L175.212 553.995L175.212 544.844L184.363 544.844Z" fill="#683911"/>
<path d="M92.8516 563.147L92.8516 572.298L83.7001 572.298L83.7001 563.147L92.8516 563.147Z" fill="#683911"/>
<path d="M56.2422 563.147L56.2422 572.298L47.0907 572.298L47.0907 563.147L56.2422 563.147Z" fill="#683911"/>
<path d="M129.453 563.147L129.453 572.298L120.302 572.298L120.302 563.147L129.453 563.147Z" fill="#683911"/>
<path d="M166.062 563.147L166.062 572.298L156.911 572.298L156.911 563.147L166.062 563.147Z" fill="#683911"/>
<path d="M37.9414 563.147L37.9414 572.298L28.7899 572.298L28.7899 563.147L37.9414 563.147Z" fill="#683911"/>
<path d="M111.152 563.147L111.152 572.298L102.001 572.298L102.001 563.147L111.152 563.147Z" fill="#683911"/>
<path d="M74.543 563.147L74.543 572.298L65.3915 572.298L65.3915 563.147L74.543 563.147Z" fill="#683911"/>
<path d="M147.754 563.147L147.754 572.298L138.602 572.298L138.602 563.147L147.754 563.147Z" fill="#683911"/>
<path d="M184.363 563.147L184.363 572.298L175.212 572.298L175.212 563.147L184.363 563.147Z" fill="#683911"/>
<path d="M95.1396 467.056C95.1396 475.901 87.9694 483.071 79.1245 483.071C70.2796 483.071 63.1094 475.901 63.1094 467.056C63.1094 458.211 70.2796 451.041 79.1245 451.041C87.9694 451.041 95.1396 458.211 95.1396 467.056Z" fill="#CD6125"/>
<path d="M28.7874 544.844C28.7874 549.898 24.6901 553.995 19.6359 553.995C14.5816 553.995 10.4844 549.898 10.4844 544.844C10.4844 539.789 14.5816 535.692 19.6359 535.692C24.6901 535.692 28.7874 539.789 28.7874 544.844Z" fill="#C8A255"/>
<path d="M47.0921 544.844C47.0921 549.898 42.9948 553.995 37.9406 553.995C32.8863 553.995 28.7891 549.898 28.7891 544.844C28.7891 539.789 32.8863 535.692 37.9406 535.692C42.9948 535.692 47.0921 539.789 47.0921 544.844Z" fill="#C8A255"/>
<path d="M65.3928 544.844C65.3928 549.898 61.2956 553.995 56.2413 553.995C51.1871 553.995 47.0898 549.898 47.0898 544.844C47.0898 539.789 51.1871 535.692 56.2413 535.692C61.2956 535.692 65.3928 539.789 65.3928 544.844Z" fill="#C8A255"/>
<path d="M83.6975 544.844C83.6975 549.898 79.6003 553.995 74.546 553.995C69.4918 553.995 65.3945 549.898 65.3945 544.844C65.3945 539.789 69.4918 535.692 74.546 535.692C79.6003 535.692 83.6975 539.789 83.6975 544.844Z" fill="#C8A255"/>
<path d="M102.002 544.844C102.002 549.898 97.905 553.995 92.8507 553.995C87.7965 553.995 83.6992 549.898 83.6992 544.844C83.6992 539.789 87.7965 535.692 92.8507 535.692C97.905 535.692 102.002 539.789 102.002 544.844Z" fill="#C8A255"/>
<path d="M175.211 544.844L175.211 563.147L10.4839 563.147L10.4839 544.844L175.211 544.844Z" fill="#C8A255"/>
<path d="M120.303 544.844C120.303 549.898 116.206 553.995 111.151 553.995C106.097 553.995 102 549.898 102 544.844C102 539.789 106.097 535.692 111.151 535.692C116.206 535.692 120.303 539.789 120.303 544.844Z" fill="#C8A255"/>
<path d="M138.608 544.844C138.608 549.898 134.51 553.995 129.456 553.995C124.402 553.995 120.305 549.898 120.305 544.844C120.305 539.789 124.402 535.692 129.456 535.692C134.51 535.692 138.608 539.789 138.608 544.844Z" fill="#C8A255"/>
<path d="M156.908 544.844C156.908 549.898 152.811 553.995 147.757 553.995C142.703 553.995 138.605 549.898 138.605 544.844C138.605 539.789 142.703 535.692 147.757 535.692C152.811 535.692 156.908 539.789 156.908 544.844Z" fill="#C8A255"/>
<path d="M175.213 544.844C175.213 549.898 171.116 553.995 166.062 553.995C161.007 553.995 156.91 549.898 156.91 544.844C156.91 539.789 161.007 535.692 166.062 535.692C171.116 535.692 175.213 539.789 175.213 544.844Z" fill="#C8A255"/>
<path d="M61.0469 363C61.0469 371.837 53.8834 379 45.0469 379C36.2103 379 29.0469 371.837 29.0469 363C29.0469 354.163 36.2103 347 45.0469 347C53.8834 347 61.0469 354.163 61.0469 363Z" fill="#C8A255"/>
<path d="M96.0469 361.5C96.0469 366.194 92.2413 370 87.5469 370C82.8525 370 79.0469 366.194 79.0469 361.5C79.0469 356.806 82.8525 353 87.5469 353C92.2413 353 96.0469 356.806 96.0469 361.5Z" fill="#C8A255"/>
<defs>
<clipPath id="clip0">
<rect width="42.5272" height="50.7214" fill="white" transform="translate(50.0898 873.284)"/>
</clipPath>
</defs>
</svg>
