<svg width="922" height="925" viewBox="0 0 922 925" fill="none" xmlns="http://www.w3.org/2000/svg">
<path fill-rule="evenodd" clip-rule="evenodd" d="M921 502L522.25 590.644L515.75 561.356L921 471V502Z" fill="#1B3025"/>
<path fill-rule="evenodd" clip-rule="evenodd" d="M553 924L392.602 374.203L421.4 365.797L584.5 924H553Z" fill="#1B3025"/>
<path fill-rule="evenodd" clip-rule="evenodd" d="M396.043 381.505L546.043 0.505127H578L423.957 392.495L396.043 381.505Z" fill="#1B3025"/>
<path fill-rule="evenodd" clip-rule="evenodd" d="M425.95 383.76C426.635 392.016 420.497 399.264 412.241 399.949L1 434V404L409.762 370.051C418.018 369.367 425.265 375.505 425.95 383.76Z" fill="#1B3025"/>
<path d="M459.118 507.598C504.076 502.139 544.946 534.159 550.405 579.116C555.863 624.073 523.844 664.943 478.887 670.402C433.929 675.861 393.059 643.841 387.6 598.884C382.142 553.927 414.161 513.057 459.118 507.598Z" fill="#1B3025"/>
<path d="M447 523.833L449.902 518.581L455.154 521.484L452.251 526.735L447 523.833Z" fill="#747D5D"/>
<path d="M435.395 544.838L438.297 539.587L443.548 542.489L440.646 547.74L435.395 544.838Z" fill="#747D5D"/>
<path d="M423.785 565.843L426.687 560.592L431.939 563.494L429.037 568.745L423.785 565.843Z" fill="#747D5D"/>
<path d="M412.18 586.848L415.082 581.597L420.333 584.499L417.431 589.751L412.18 586.848Z" fill="#747D5D"/>
<path d="M429.586 555.341L432.488 550.09L437.74 552.992L434.837 558.243L429.586 555.341Z" fill="#747D5D"/>
<path d="M441.199 534.335L444.102 529.083L449.353 531.986L446.451 537.237L441.199 534.335Z" fill="#747D5D"/>
<path d="M431.938 563.494L434.84 558.243L440.091 561.145L437.189 566.397L431.938 563.494Z" fill="#747D5D"/>
<path d="M417.977 576.346L420.879 571.095L426.13 573.997L423.228 579.249L417.977 576.346Z" fill="#747D5D"/>
<path d="M406.371 597.351L409.273 592.1L414.525 595.002L411.622 600.254L406.371 597.351Z" fill="#747D5D"/>
<path d="M400.562 607.854L403.465 602.603L408.716 605.505L405.814 610.757L400.562 607.854Z" fill="#747D5D"/>
<path d="M421.57 619.464L424.473 614.212L429.724 617.114L426.822 622.366L421.57 619.464Z" fill="#747D5D"/>
<path d="M442.574 631.073L445.477 625.821L450.728 628.724L447.826 633.975L442.574 631.073Z" fill="#747D5D"/>
<path d="M411.066 613.659L413.969 608.408L419.22 611.31L416.318 616.561L411.066 613.659Z" fill="#747D5D"/>
<path d="M432.07 625.268L434.973 620.017L440.224 622.919L437.322 628.17L432.07 625.268Z" fill="#747D5D"/>
<path d="M453.078 636.877L455.98 631.626L461.232 634.528L458.329 639.779L453.078 636.877Z" fill="#747D5D"/>
<path d="M463.582 642.682L466.484 637.431L471.736 640.333L468.833 645.584L463.582 642.682Z" fill="#747D5D"/>
<path d="M474.082 648.487L476.984 643.235L482.236 646.138L479.333 651.389L474.082 648.487Z" fill="#747D5D"/>
<path d="M484.586 654.291L487.488 649.04L492.74 651.942L489.837 657.193L484.586 654.291Z" fill="#747D5D"/>
<path d="M443.543 542.489L446.445 537.238L451.697 540.14L448.794 545.392L443.543 542.489Z" fill="#747D5D"/>
<path d="M420.328 584.5L423.23 579.248L428.482 582.15L425.579 587.402L420.328 584.5Z" fill="#747D5D"/>
<path d="M408.723 605.505L411.625 600.253L416.876 603.156L413.974 608.407L408.723 605.505Z" fill="#747D5D"/>
<path d="M429.727 617.114L432.629 611.863L437.88 614.765L434.978 620.016L429.727 617.114Z" fill="#747D5D"/>
<path d="M450.734 628.723L453.637 623.472L458.888 626.374L455.986 631.625L450.734 628.723Z" fill="#747D5D"/>
<path d="M419.227 611.309L422.129 606.058L427.38 608.96L424.478 614.212L419.227 611.309Z" fill="#747D5D"/>
<path d="M440.23 622.918L443.133 617.667L448.384 620.569L445.482 625.821L440.23 622.918Z" fill="#747D5D"/>
<path d="M461.238 634.528L464.141 629.276L469.392 632.179L466.49 637.43L461.238 634.528Z" fill="#747D5D"/>
<path d="M471.73 640.333L474.633 635.082L479.884 637.984L476.982 643.235L471.73 640.333Z" fill="#747D5D"/>
<path d="M468.008 535.442L470.91 530.191L476.161 533.093L473.259 538.344L468.008 535.442Z" fill="#747D5D"/>
<path d="M489.012 547.051L491.914 541.8L497.165 544.702L494.263 549.953L489.012 547.051Z" fill="#747D5D"/>
<path d="M510.016 558.66L512.918 553.409L518.169 556.311L515.267 561.563L510.016 558.66Z" fill="#747D5D"/>
<path d="M457.504 529.637L460.406 524.386L465.658 527.288L462.755 532.54L457.504 529.637Z" fill="#747D5D"/>
<path d="M478.508 541.247L481.41 535.995L486.661 538.898L483.759 544.149L478.508 541.247Z" fill="#747D5D"/>
<path d="M437.746 552.991L440.648 547.74L445.9 550.642L442.997 555.894L437.746 552.991Z" fill="#747D5D"/>
<path d="M499.516 552.856L502.418 547.604L507.669 550.507L504.767 555.758L499.516 552.856Z" fill="#747D5D"/>
<path d="M520.52 564.465L523.422 559.213L528.673 562.116L525.771 567.367L520.52 564.465Z" fill="#747D5D"/>
<path d="M531.023 570.269L533.926 565.018L539.177 567.92L536.275 573.172L531.023 570.269Z" fill="#747D5D"/>
<path d="M519.414 591.275L522.316 586.023L527.568 588.925L524.665 594.177L519.414 591.275Z" fill="#747D5D"/>
<path d="M507.809 612.28L510.711 607.028L515.962 609.931L513.06 615.182L507.809 612.28Z" fill="#747D5D"/>
<path d="M496.191 633.286L499.094 628.035L504.345 630.937L501.443 636.188L496.191 633.286Z" fill="#747D5D"/>
<path d="M525.215 580.773L528.117 575.521L533.368 578.424L530.466 583.675L525.215 580.773Z" fill="#747D5D"/>
<path d="M513.609 601.778L516.512 596.526L521.763 599.429L518.861 604.68L513.609 601.778Z" fill="#747D5D"/>
<path d="M502 622.783L504.902 617.532L510.154 620.434L507.251 625.685L502 622.783Z" fill="#747D5D"/>
<path d="M490.395 643.788L493.297 638.537L498.548 641.439L495.646 646.69L490.395 643.788Z" fill="#747D5D"/>
<path d="M449.352 531.986L452.254 526.735L457.505 529.637L454.603 534.888L449.352 531.986Z" fill="#747D5D"/>
<path d="M426.129 573.998L429.031 568.746L434.283 571.649L431.38 576.9L426.129 573.998Z" fill="#747D5D"/>
<path d="M414.523 595.003L417.426 589.751L422.677 592.654L419.775 597.905L414.523 595.003Z" fill="#747D5D"/>
<path d="M470.359 543.595L473.262 538.344L478.513 541.246L475.611 546.498L470.359 543.595Z" fill="#747D5D"/>
<path d="M491.363 555.204L494.266 549.953L499.517 552.855L496.615 558.107L491.363 555.204Z" fill="#747D5D"/>
<path d="M512.367 566.814L515.269 561.562L520.521 564.465L517.619 569.716L512.367 566.814Z" fill="#747D5D"/>
<path d="M459.855 537.791L462.758 532.539L468.009 535.442L465.107 540.693L459.855 537.791Z" fill="#747D5D"/>
<path d="M480.859 549.4L483.762 544.148L489.013 547.051L486.111 552.302L480.859 549.4Z" fill="#747D5D"/>
<path d="M501.867 561.009L504.769 555.758L510.021 558.66L507.119 563.911L501.867 561.009Z" fill="#747D5D"/>
<path d="M522.871 572.618L525.773 567.367L531.025 570.269L528.122 575.52L522.871 572.618Z" fill="#747D5D"/>
<path d="M511.266 593.623L514.168 588.372L519.419 591.274L516.517 596.526L511.266 593.623Z" fill="#747D5D"/>
<path d="M499.648 614.63L502.551 609.378L507.802 612.28L504.9 617.532L499.648 614.63Z" fill="#747D5D"/>
<path d="M488.043 635.635L490.945 630.383L496.197 633.286L493.294 638.537L488.043 635.635Z" fill="#747D5D"/>
<path d="M517.062 583.121L519.965 577.87L525.216 580.772L522.314 586.024L517.062 583.121Z" fill="#747D5D"/>
<path d="M505.457 604.127L508.359 598.875L513.611 601.778L510.708 607.029L505.457 604.127Z" fill="#747D5D"/>
<path d="M493.848 625.132L496.75 619.88L502.001 622.783L499.099 628.034L493.848 625.132Z" fill="#747D5D"/>
<path d="M482.234 646.138L485.137 640.886L490.388 643.789L487.486 649.04L482.234 646.138Z" fill="#747D5D"/>
<path fill-rule="evenodd" clip-rule="evenodd" d="M468.823 580.374C473.059 579.118 475.474 574.666 474.218 570.43C472.961 566.194 468.509 563.779 464.273 565.035C460.037 566.292 457.622 570.744 458.878 574.98C460.135 579.216 464.587 581.631 468.823 580.374ZM469.392 582.292C474.687 580.721 477.706 575.156 476.135 569.861C474.565 564.566 468.999 561.547 463.704 563.118C458.409 564.688 455.39 570.254 456.961 575.549C458.532 580.843 464.097 583.862 469.392 582.292Z" fill="#747D5D"/>
<path d="M466.906 580.943L470.741 579.806L480.41 612.402L476.575 613.539L466.906 580.943Z" fill="#747D5D"/>
<path d="M466.059 606.228L473.728 603.953L474.866 607.788L467.196 610.063L466.059 606.228Z" fill="#747D5D"/>
<path d="M463.215 596.64L470.885 594.365L472.022 598.2L464.352 600.475L463.215 596.64Z" fill="#747D5D"/>
<path d="M433.367 80.6372H451.67L447.364 94.3645H437.674L433.367 80.6372Z" fill="#C8A255"/>
<path d="M433.367 94.3644H451.67L447.364 108.092H437.674L433.367 94.3644Z" fill="#C8A255"/>
<path d="M433.367 108.092H451.67L447.364 121.819H437.674L433.367 108.092Z" fill="#C8A255"/>
<path d="M433.367 121.819H451.67L447.364 135.546H437.674L433.367 121.819Z" fill="#C8A255"/>
<path d="M433.367 135.546H451.67L447.364 149.273H437.674L433.367 135.546Z" fill="#C8A255"/>
<path d="M442.684 71.505C446.329 71.505 449.262 66.3716 449.262 48.6413C449.262 30.911 442.684 16.5767 442.684 16.5767C442.684 16.5767 436.105 30.9504 436.105 48.6413C436.105 66.3716 439.077 71.505 442.684 71.505Z" fill="#747D5D"/>
<path d="M442.69 71.0722C445.861 72.8492 450.933 69.8481 459.69 54.4081C468.448 38.9682 469.835 23.2913 469.835 23.2913C469.835 23.2913 457.035 32.571 448.278 48.011C439.52 63.4115 439.56 69.2953 442.69 71.0722Z" fill="#747D5D"/>
<path d="M442.687 71.0722C439.517 72.8492 434.445 69.8481 425.687 54.4081C416.93 38.9682 415.543 23.2913 415.543 23.2913C415.543 23.2913 428.342 32.571 437.1 48.011C445.897 63.4115 445.858 69.2953 442.687 71.0722Z" fill="#747D5D"/>
<path d="M441.177 73.1624C442.921 76.361 448.825 76.4794 464.478 68.0289C480.091 59.5784 489.641 46.9816 489.641 46.9816C489.641 46.9816 473.83 48.0872 458.217 56.5378C442.604 64.9883 439.473 70.0033 441.177 73.1624Z" fill="#747D5D"/>
<path d="M444.202 73.1624C442.458 76.361 436.554 76.4794 420.901 68.0289C405.288 59.5784 395.738 46.9816 395.738 46.9816C395.738 46.9816 411.549 48.0872 427.162 56.5378C442.775 64.9883 445.945 70.0033 444.202 73.1624Z" fill="#747D5D"/>
<path d="M436.105 75.4937C436.105 79.1266 441.257 82.0488 459.049 82.0488C476.842 82.0488 491.226 75.4937 491.226 75.4937C491.226 75.4937 476.802 68.9386 459.049 68.9386C441.257 68.9781 436.105 71.9002 436.105 75.4937Z" fill="#747D5D"/>
<path d="M449.269 75.4937C449.269 79.1266 444.118 82.0488 426.325 82.0488C408.573 82.0488 394.148 75.4937 394.148 75.4937C394.148 75.4937 408.573 68.9386 426.325 68.9386C444.118 68.9781 449.269 71.9002 449.269 75.4937Z" fill="#747D5D"/>
<path fill-rule="evenodd" clip-rule="evenodd" d="M341.945 259.545C341.368 258.35 340.911 257.405 340.652 256.758L337.614 257.973C337.958 258.834 338.502 259.961 339.158 261.321C341.186 265.527 344.289 271.964 345.899 279.643C345.908 279.684 345.918 279.725 345.93 279.765C347.87 286.438 348.429 291.665 349.118 298.113C349.349 300.276 349.594 302.576 349.912 305.114C351.705 319.447 351.643 327.943 351.525 344.108C351.491 348.776 351.453 345.993 351.453 352.265H354.725C354.725 346.067 354.763 348.889 354.797 344.236C354.854 336.444 354.899 330.38 354.728 324.569C354.987 321.217 356.395 316.536 358.291 311.667C358.963 309.941 359.689 308.211 360.431 306.534C367.634 306.361 376.32 304.445 381.598 300.223C381.672 300.164 381.746 300.105 381.819 300.046C384.242 298.109 386.173 296.565 387.577 294.66C389.08 292.621 389.921 290.272 390.461 286.794L387.228 286.292C386.734 289.467 386.024 291.252 384.943 292.718C383.806 294.26 382.194 295.555 379.553 297.668C375.42 300.975 368.409 302.803 361.963 303.195C362.82 301.391 363.667 299.707 364.451 298.226C369.082 289.477 371.903 284.863 373.688 282.06C373.995 281.576 374.279 281.138 374.54 280.734C375.739 278.878 376.468 277.75 376.961 276.272L373.856 275.238C373.505 276.293 373.043 277.01 371.871 278.83C371.598 279.255 371.285 279.74 370.927 280.303C369.093 283.184 366.229 287.873 361.559 296.695C359.57 300.452 357.192 305.473 355.242 310.48C354.844 311.502 354.461 312.531 354.101 313.554C353.864 310.791 353.556 307.888 353.159 304.708C352.858 302.301 352.62 300.074 352.393 297.948C351.698 291.432 351.103 285.857 349.089 278.911C347.375 270.783 343.939 263.672 341.945 259.545Z" fill="#C8A255"/>
<path d="M378.805 240.375C378.805 251.218 370.015 260.008 359.172 260.008C348.329 260.008 339.539 251.218 339.539 240.375C339.539 229.532 348.329 220.742 359.172 220.742C370.015 220.742 378.805 229.532 378.805 240.375Z" fill="#CD6125"/>
<path d="M354.811 237.103C354.811 249.753 344.556 260.009 331.905 260.009C319.255 260.009 309 249.753 309 237.103C309 224.453 319.255 214.198 331.905 214.198C344.556 214.198 354.811 224.453 354.811 237.103Z" fill="#CD6125"/>
<path d="M330.816 240.375H361.357V260.009H330.816V240.375Z" fill="#CD6125"/>
<path d="M393.646 282.981C393.646 291.803 386.495 298.954 377.673 298.954C368.851 298.954 361.699 291.803 361.699 282.981C361.699 274.159 368.851 267.007 377.673 267.007C386.495 267.007 393.646 274.159 393.646 282.981Z" fill="#CD6125"/>
<path d="M418.07 278.282C418.07 289.699 408.815 298.954 397.398 298.954C385.982 298.954 376.727 289.699 376.727 278.282C376.727 266.865 385.982 257.61 397.398 257.61C408.815 257.61 418.07 266.865 418.07 278.282Z" fill="#CD6125"/>
<path d="M376.727 282.04H397.398V298.954H376.727V282.04Z" fill="#CD6125"/>
<path d="M37.5625 108.092H42.1382V144.698H37.5625V108.092Z" fill="#683911"/>
<path d="M64.6289 83.3118L66.9454 85.6282L42.1653 110.408L39.8488 108.092L64.6289 83.3118Z" fill="#683911"/>
<path d="M14.9297 83.1754L12.6418 85.4633L37.5582 110.38L39.8461 108.092L14.9297 83.1754Z" fill="#683911"/>
<path d="M65.0141 63.4783C65.0141 76.7456 54.2588 87.5009 40.9914 87.5009C27.7241 87.5009 16.9688 76.7456 16.9688 63.4783C16.9688 50.2109 27.7241 39.4556 40.9914 39.4556C54.2588 39.4556 65.0141 50.2109 65.0141 63.4783Z" fill="#CD6125"/>
<path d="M81.0263 85.2131C81.0263 94.058 73.8561 101.228 65.0112 101.228C56.1663 101.228 48.9961 94.058 48.9961 85.2131C48.9961 76.3682 56.1663 69.198 65.0112 69.198C73.8561 69.198 81.0263 76.3682 81.0263 85.2131Z" fill="#CD6125"/>
<path d="M32.9834 85.2131C32.9834 94.058 25.8132 101.228 16.9682 101.228C8.12334 101.228 0.953125 94.058 0.953125 85.2131C0.953125 76.3682 8.12334 69.198 16.9682 69.198C25.8132 69.198 32.9834 76.3682 32.9834 85.2131Z" fill="#CD6125"/>
<path d="M118.485 121.819C118.485 125.61 115.412 128.683 111.621 128.683C107.831 128.683 104.758 125.61 104.758 121.819C104.758 118.028 107.831 114.955 111.621 114.955C115.412 114.955 118.485 118.028 118.485 121.819Z" fill="#CD6125"/>
<path d="M118.485 140.122C118.485 143.913 115.412 146.986 111.621 146.986C107.831 146.986 104.758 143.913 104.758 140.122C104.758 136.331 107.831 133.258 111.621 133.258C115.412 133.258 118.485 136.331 118.485 140.122Z" fill="#CD6125"/>
<path d="M120.769 137.834C116.979 137.834 113.906 134.761 113.906 130.971C113.906 127.18 116.979 124.107 120.769 124.107C124.56 124.107 127.633 127.18 127.633 130.971C127.633 134.761 124.56 137.834 120.769 137.834Z" fill="#CD6125"/>
<path d="M102.468 137.834C98.6777 137.834 95.6048 134.761 95.6048 130.971C95.6048 127.18 98.6777 124.107 102.468 124.107C106.259 124.107 109.332 127.18 109.332 130.971C109.332 134.761 106.259 137.834 102.468 137.834Z" fill="#CD6125"/>
<path d="M116.198 130.971C116.198 133.498 114.15 135.546 111.623 135.546C109.096 135.546 107.047 133.498 107.047 130.971C107.047 128.443 109.096 126.395 111.623 126.395C114.15 126.395 116.198 128.443 116.198 130.971Z" fill="#FFDC96"/>
<path fill-rule="evenodd" clip-rule="evenodd" d="M159.522 66.9099C159.522 82.3885 172.07 94.9364 187.548 94.9364C203.027 94.9364 215.575 82.3885 215.575 66.9099H219.006C219.006 84.2838 204.922 98.3682 187.548 98.3682C170.174 98.3682 156.09 84.2838 156.09 66.9099H159.522Z" fill="#C8A255"/>
<path fill-rule="evenodd" clip-rule="evenodd" d="M141.217 66.9099C141.217 76.0972 150.391 84.082 162.436 84.082C174.482 84.082 183.656 76.0972 183.656 66.9099H187.088C187.088 78.5857 175.724 87.5138 162.436 87.5138C149.149 87.5138 137.785 78.5857 137.785 66.9099H141.217Z" fill="#C8A255"/>
<path fill-rule="evenodd" clip-rule="evenodd" d="M191.549 66.9099C191.549 76.0972 200.723 84.082 212.769 84.082C224.814 84.082 233.988 76.0972 233.988 66.9099H237.42C237.42 78.5857 226.056 87.5138 212.769 87.5138C199.481 87.5138 188.117 78.5857 188.117 66.9099H191.549Z" fill="#C8A255"/>
<path d="M155.518 46.3191C155.518 57.6912 146.299 66.91 134.927 66.91C123.555 66.91 114.336 57.6912 114.336 46.3191C114.336 34.9471 123.555 25.7283 134.927 25.7283C146.299 25.7283 155.518 34.9471 155.518 46.3191Z" fill="#747D5D"/>
<path fill-rule="evenodd" clip-rule="evenodd" d="M134.927 64.6221C145.035 64.6221 153.23 56.4276 153.23 46.3191C153.23 36.2107 145.035 28.0161 134.927 28.0161C124.818 28.0161 116.624 36.2107 116.624 46.3191C116.624 56.4276 124.818 64.6221 134.927 64.6221ZM134.927 66.91C146.299 66.91 155.518 57.6912 155.518 46.3191C155.518 34.9471 146.299 25.7283 134.927 25.7283C123.555 25.7283 114.336 34.9471 114.336 46.3191C114.336 57.6912 123.555 66.91 134.927 66.91Z" fill="#747D5D"/>
<path d="M233.304 37.1676C233.304 52.3303 221.012 64.6221 205.849 64.6221C190.686 64.6221 178.395 52.3303 178.395 37.1676C178.395 22.0049 190.686 9.71313 205.849 9.71313C221.012 9.71313 233.304 22.0049 233.304 37.1676Z" fill="#747D5D"/>
<path fill-rule="evenodd" clip-rule="evenodd" d="M205.849 62.3343C219.748 62.3343 231.016 51.0668 231.016 37.1676C231.016 23.2685 219.748 12.001 205.849 12.001C191.95 12.001 180.682 23.2685 180.682 37.1676C180.682 51.0668 191.95 62.3343 205.849 62.3343ZM205.849 64.6221C221.012 64.6221 233.304 52.3303 233.304 37.1676C233.304 22.0049 221.012 9.71313 205.849 9.71313C190.686 9.71313 178.395 22.0049 178.395 37.1676C178.395 52.3303 190.686 64.6221 205.849 64.6221Z" fill="#747D5D"/>
<path d="M258.47 45.1752C258.47 57.179 248.739 66.9101 236.735 66.9101C224.731 66.9101 215 57.179 215 45.1752C215 33.1714 224.731 23.4404 236.735 23.4404C248.739 23.4404 258.47 33.1714 258.47 45.1752Z" fill="#747D5D"/>
<path fill-rule="evenodd" clip-rule="evenodd" d="M236.735 64.6222C247.475 64.6222 256.182 55.9155 256.182 45.1752C256.182 34.435 247.475 25.7283 236.735 25.7283C225.995 25.7283 217.288 34.435 217.288 45.1752C217.288 55.9155 225.995 64.6222 236.735 64.6222ZM236.735 66.9101C248.739 66.9101 258.47 57.179 258.47 45.1752C258.47 33.1714 248.739 23.4404 236.735 23.4404C224.731 23.4404 215 33.1714 215 45.1752C215 57.179 224.731 66.9101 236.735 66.9101Z" fill="#747D5D"/>
<path d="M196.698 36.0238C196.698 53.0818 182.87 66.9101 165.812 66.9101C148.754 66.9101 134.926 53.0818 134.926 36.0238C134.926 18.9657 148.754 5.13745 165.812 5.13745C182.87 5.13745 196.698 18.9657 196.698 36.0238Z" fill="#747D5D"/>
<path fill-rule="evenodd" clip-rule="evenodd" d="M165.812 64.6222C181.607 64.6222 194.411 51.8182 194.411 36.0238C194.411 20.2293 181.607 7.42533 165.812 7.42533C150.018 7.42533 137.214 20.2293 137.214 36.0238C137.214 51.8182 150.018 64.6222 165.812 64.6222ZM165.812 66.9101C182.87 66.9101 196.698 53.0818 196.698 36.0238C196.698 18.9657 182.87 5.13745 165.812 5.13745C148.754 5.13745 134.926 18.9657 134.926 36.0238C134.926 53.0818 148.754 66.9101 165.812 66.9101Z" fill="#747D5D"/>
<path d="M134.926 41.7434H237.88V66.91H134.926V41.7434Z" fill="#747D5D"/>
<path d="M185.258 96.6523H189.834V137.834H185.258V96.6523Z" fill="#C8A255"/>
<path d="M200.031 181.304H291.546V272.819H200.031V181.304Z" fill="#1B3025"/>
<path d="M17 245.364H108.515V309.425H17V245.364Z" fill="#1B3025"/>
<path d="M46.7422 309.425H76.4846V259.092H46.7422V309.425Z" fill="#C8A255"/>
<path d="M108.516 181.304H200.031V245.364H108.516V181.304Z" fill="#747D5D"/>
<path d="M108.516 245.364H200.031V309.425H108.516V245.364Z" fill="#C8A255"/>
<path d="M200.031 272.819H291.546V309.425H200.031V272.819Z" fill="#747D5D"/>
<path d="M117.672 245.364L117.672 254.516L108.52 254.516L108.52 245.364L117.672 245.364Z" fill="#CD6125"/>
<path d="M117.672 263.667L117.672 272.819L108.52 272.819L108.52 263.667L117.672 263.667Z" fill="#CD6125"/>
<path d="M117.672 281.97L117.672 291.122L108.52 291.122L108.52 281.97L117.672 281.97Z" fill="#CD6125"/>
<path d="M117.672 300.273L117.672 309.425L108.52 309.425L108.52 300.273L117.672 300.273Z" fill="#CD6125"/>
<path d="M126.82 254.516L126.82 263.667L117.669 263.667L117.669 254.516L126.82 254.516Z" fill="#CD6125"/>
<path d="M126.82 272.819L126.82 281.97L117.669 281.97L117.669 272.819L126.82 272.819Z" fill="#CD6125"/>
<path d="M126.82 291.122L126.82 300.273L117.669 300.273L117.669 291.122L126.82 291.122Z" fill="#CD6125"/>
<path d="M145.129 254.516L145.129 263.667L135.977 263.667L135.977 254.516L145.129 254.516Z" fill="#CD6125"/>
<path d="M145.129 272.819L145.129 281.97L135.977 281.97L135.977 272.819L145.129 272.819Z" fill="#CD6125"/>
<path d="M145.129 291.122L145.129 300.273L135.977 300.273L135.977 291.122L145.129 291.122Z" fill="#CD6125"/>
<path d="M163.43 254.516L163.43 263.667L154.278 263.667L154.278 254.516L163.43 254.516Z" fill="#CD6125"/>
<path d="M163.43 272.819L163.43 281.97L154.278 281.97L154.278 272.819L163.43 272.819Z" fill="#CD6125"/>
<path d="M163.43 291.122L163.43 300.273L154.278 300.273L154.278 291.122L163.43 291.122Z" fill="#CD6125"/>
<path d="M181.73 254.516L181.73 263.667L172.579 263.667L172.579 254.516L181.73 254.516Z" fill="#CD6125"/>
<path d="M181.73 272.819L181.73 281.97L172.579 281.97L172.579 272.819L181.73 272.819Z" fill="#CD6125"/>
<path d="M181.73 291.122L181.73 300.273L172.579 300.273L172.579 291.122L181.73 291.122Z" fill="#CD6125"/>
<path d="M135.973 245.364L135.973 254.516L126.821 254.516L126.821 245.364L135.973 245.364Z" fill="#CD6125"/>
<path d="M135.973 263.667L135.973 272.819L126.821 272.819L126.821 263.667L135.973 263.667Z" fill="#CD6125"/>
<path d="M135.973 281.97L135.973 291.122L126.821 291.122L126.821 281.97L135.973 281.97Z" fill="#CD6125"/>
<path d="M135.973 300.273L135.973 309.425L126.821 309.425L126.821 300.273L135.973 300.273Z" fill="#CD6125"/>
<path d="M154.277 245.364L154.277 254.516L145.126 254.516L145.126 245.364L154.277 245.364Z" fill="#CD6125"/>
<path d="M154.277 263.667L154.277 272.819L145.126 272.819L145.126 263.667L154.277 263.667Z" fill="#CD6125"/>
<path d="M154.277 281.97L154.277 291.122L145.126 291.122L145.126 281.97L154.277 281.97Z" fill="#CD6125"/>
<path d="M154.277 300.273L154.277 309.425L145.126 309.425L145.126 300.273L154.277 300.273Z" fill="#CD6125"/>
<path d="M172.582 245.364L172.582 254.516L163.431 254.516L163.431 245.364L172.582 245.364Z" fill="#CD6125"/>
<path d="M172.582 263.667L172.582 272.819L163.431 272.819L163.431 263.667L172.582 263.667Z" fill="#CD6125"/>
<path d="M172.582 281.97L172.582 291.122L163.431 291.122L163.431 281.97L172.582 281.97Z" fill="#CD6125"/>
<path d="M172.582 300.273L172.582 309.425L163.431 309.425L163.431 300.273L172.582 300.273Z" fill="#CD6125"/>
<path d="M190.883 245.364L190.883 254.516L181.731 254.516L181.731 245.364L190.883 245.364Z" fill="#CD6125"/>
<path d="M190.883 263.667L190.883 272.819L181.731 272.819L181.731 263.667L190.883 263.667Z" fill="#CD6125"/>
<path d="M190.883 281.97L190.883 291.122L181.731 291.122L181.731 281.97L190.883 281.97Z" fill="#CD6125"/>
<path d="M190.883 300.273L190.883 309.425L181.731 309.425L181.731 300.273L190.883 300.273Z" fill="#CD6125"/>
<path d="M200.035 254.516L200.035 263.667L190.884 263.667L190.884 254.516L200.035 254.516Z" fill="#CD6125"/>
<path d="M200.035 272.819L200.035 281.97L190.884 281.97L190.884 272.819L200.035 272.819Z" fill="#CD6125"/>
<path d="M200.035 291.122L200.035 300.273L190.884 300.273L190.884 291.122L200.035 291.122Z" fill="#CD6125"/>
<path d="M270.954 272.819C270.954 286.718 259.687 297.986 245.788 297.986C231.889 297.986 220.621 286.718 220.621 272.819C220.621 258.92 231.889 247.652 245.788 247.652C259.687 247.652 270.954 258.92 270.954 272.819Z" fill="#FFDC96"/>
<path d="M238.926 229.349H252.653V265.955H238.926V229.349Z" fill="#FFDC96"/>
<path d="M257.23 224.773L257.23 231.637L234.352 231.637L234.352 224.773L257.23 224.773Z" fill="#FFDC96"/>
<path d="M245.788 297.985C259.687 297.985 270.954 286.718 270.954 272.819H220.621C220.621 286.718 231.889 297.985 245.788 297.985Z" fill="#CD6125"/>
<path d="M238.926 285.402C238.926 287.297 237.39 288.834 235.494 288.834C233.599 288.834 232.062 287.297 232.062 285.402C232.062 283.507 233.599 281.97 235.494 281.97C237.39 281.97 238.926 283.507 238.926 285.402Z" fill="#683911"/>
<path d="M248.078 278.539C248.078 280.434 246.542 281.97 244.647 281.97C242.751 281.97 241.215 280.434 241.215 278.539C241.215 276.643 242.751 275.107 244.647 275.107C246.542 275.107 248.078 276.643 248.078 278.539Z" fill="#683911"/>
<path d="M249.903 262.751C249.903 264.773 248.264 266.411 246.243 266.411C244.221 266.411 242.582 264.773 242.582 262.751C242.582 260.729 246.243 255.66 246.243 255.66C246.243 255.66 249.903 260.729 249.903 262.751Z" fill="#CD6125"/>
<path d="M252.653 289.978C252.653 291.873 251.116 293.41 249.221 293.41C247.326 293.41 245.789 291.873 245.789 289.978C245.789 288.083 247.326 286.546 249.221 286.546C251.116 286.546 252.653 288.083 252.653 289.978Z" fill="#683911"/>
<path d="M261.805 283.114C261.805 285.01 260.269 286.546 258.373 286.546C256.478 286.546 254.941 285.01 254.941 283.114C254.941 281.219 256.478 279.683 258.373 279.683C260.269 279.683 261.805 281.219 261.805 283.114Z" fill="#683911"/>
<path d="M67.332 281.97H74.1957V284.258H67.332V281.97Z" fill="#747D5D"/>
<path d="M74.1953 281.97L74.1953 288.834L71.9074 288.834L71.9074 281.97L74.1953 281.97Z" fill="#747D5D"/>
<path d="M17 181.304H108.515V245.364H17V181.304Z" fill="#747D5D"/>
<path d="M243.5 199.607H248.076V224.774H243.5V199.607Z" fill="#747D5D"/>
<path d="M216.047 199.607H220.623V240.789H216.047V199.607Z" fill="#747D5D"/>
<path d="M248.078 199.607L248.078 204.183L220.624 204.183L220.624 199.607L248.078 199.607Z" fill="#747D5D"/>
<path d="M220.621 240.789L220.621 245.364L200.03 245.364L200.03 240.789L220.621 240.789Z" fill="#747D5D"/>
<path d="M63.3123 198.781C62.1963 202.699 62.5738 209.789 62.7629 213.334L62.7681 213.335C66.3151 213.524 73.4014 213.902 77.3164 212.785C81.2333 211.668 82.3507 207.751 79.5499 204.95C76.7491 202.149 72.8315 203.266 72.8315 203.266C72.8315 203.266 73.949 199.349 71.1475 196.547C68.346 193.746 64.4284 194.863 63.3123 198.781Z" fill="#1B3025"/>
<path d="M62.7572 213.329C62.4734 208.011 67.7903 203.259 70.3087 205.778C72.8248 208.294 68.0749 213.612 62.7572 213.329Z" fill="#C8A255"/>
<path d="M62.2189 227.886C63.335 223.968 62.9574 216.878 62.7683 213.332L62.7632 213.332C59.2161 213.143 52.1298 212.765 48.2149 213.882C44.298 214.999 43.1806 218.916 45.9814 221.717C48.7822 224.518 52.6997 223.401 52.6997 223.401C52.6997 223.401 51.5823 227.318 54.3838 230.119C57.1853 232.921 61.1028 231.804 62.2189 227.886Z" fill="#1B3025"/>
<path d="M62.767 213.331C63.0509 218.649 57.7318 223.399 55.2155 220.883C52.6994 218.366 57.4493 213.048 62.767 213.331Z" fill="#C8A255"/>
<path d="M77.3183 213.88C73.4 212.764 66.3101 213.141 62.7648 213.331L62.7645 213.336C62.5753 216.883 62.1973 223.969 63.3142 227.884C64.4317 231.801 68.3485 232.918 71.1493 230.118C73.9501 227.317 72.8334 223.399 72.8334 223.399C72.8334 223.399 76.7503 224.517 79.5518 221.715C82.3532 218.914 81.2365 214.996 77.3183 213.88Z" fill="#1B3025"/>
<path d="M62.765 213.337C68.0831 213.053 72.8346 218.37 70.3164 220.888C67.7983 223.407 62.4816 218.655 62.765 213.337Z" fill="#C8A255"/>
<path d="M48.213 212.787C52.1312 213.903 59.2212 213.525 62.7665 213.336L62.7667 213.331C62.9559 209.784 63.3339 202.698 62.217 198.783C61.0996 194.866 57.1827 193.748 54.3819 196.549C51.5811 199.35 52.6979 203.267 52.6979 203.267C52.6979 203.267 48.781 202.15 45.9795 204.952C43.178 207.753 44.2948 211.671 48.213 212.787Z" fill="#1B3025"/>
<path d="M62.7656 213.331C57.4474 213.614 52.6979 208.295 55.2141 205.779C57.7302 203.263 63.049 208.013 62.7656 213.331Z" fill="#C8A255"/>
<path d="M108.516 181.304H110.803V245.364H108.516V181.304Z" fill="#C8A255"/>
<path d="M115.379 181.304H117.667V245.364H115.379V181.304Z" fill="#C8A255"/>
<path d="M122.242 181.304H124.53V245.364H122.242V181.304Z" fill="#C8A255"/>
<path d="M129.109 181.304H131.397V245.364H129.109V181.304Z" fill="#C8A255"/>
<path d="M135.969 181.304H138.257V245.364H135.969V181.304Z" fill="#C8A255"/>
<path d="M142.836 181.304H145.124V245.364H142.836V181.304Z" fill="#C8A255"/>
<path d="M149.695 181.304H151.983V245.364H149.695V181.304Z" fill="#C8A255"/>
<path d="M156.562 181.304H158.85V245.364H156.562V181.304Z" fill="#C8A255"/>
<path d="M163.426 181.304H165.714V245.364H163.426V181.304Z" fill="#C8A255"/>
<path d="M170.289 181.304H172.577V245.364H170.289V181.304Z" fill="#C8A255"/>
<path d="M177.152 181.304H179.44V245.364H177.152V181.304Z" fill="#C8A255"/>
<path d="M184.02 181.304H186.307V245.364H184.02V181.304Z" fill="#C8A255"/>
<path d="M190.879 181.304H193.167V245.364H190.879V181.304Z" fill="#C8A255"/>
<path d="M197.746 181.304H200.034V245.364H197.746V181.304Z" fill="#C8A255"/>
<path d="M253.754 105.38H262.905V114.531H253.754V105.38Z" fill="#1B3025"/>
<path d="M253.754 123.683H262.905V132.834H253.754V123.683Z" fill="#1B3025"/>
<path d="M244.602 114.531H253.753V123.683H244.602V114.531Z" fill="#1B3025"/>
<path d="M336.117 114.531H345.269V123.683H336.117V114.531Z" fill="#1B3025"/>
<path d="M290.359 105.38H299.511V114.531H290.359V105.38Z" fill="#1B3025"/>
<path d="M290.359 123.683H299.511V132.834H290.359V123.683Z" fill="#1B3025"/>
<path d="M281.211 114.531H290.362V123.683H281.211V114.531Z" fill="#1B3025"/>
<path d="M326.965 105.38H336.116V114.531H326.965V105.38Z" fill="#1B3025"/>
<path d="M326.965 123.683H336.116V132.834H326.965V123.683Z" fill="#1B3025"/>
<path d="M317.812 114.531H326.964V123.683H317.812V114.531Z" fill="#1B3025"/>
<path d="M272.059 105.38H281.21V114.531H272.059V105.38Z" fill="#1B3025"/>
<path d="M272.059 123.683H281.21V132.834H272.059V123.683Z" fill="#1B3025"/>
<path d="M262.902 114.531H272.054V123.683H262.902V114.531Z" fill="#1B3025"/>
<path d="M308.664 105.38H317.816V114.531H308.664V105.38Z" fill="#1B3025"/>
<path d="M308.664 123.683H317.816V132.834H308.664V123.683Z" fill="#1B3025"/>
<path d="M299.512 114.531H308.663V123.683H299.512V114.531Z" fill="#1B3025"/>
<path d="M244.602 105.38H253.753V114.531H244.602V105.38Z" fill="#747D5D"/>
<path d="M244.602 123.683H253.753V132.834H244.602V123.683Z" fill="#747D5D"/>
<path d="M281.211 105.38H290.362V114.531H281.211V105.38Z" fill="#747D5D"/>
<path d="M281.211 123.683H290.362V132.834H281.211V123.683Z" fill="#747D5D"/>
<path d="M272.059 114.531H281.21V123.683H272.059V114.531Z" fill="#747D5D"/>
<path d="M317.812 105.38H326.964V114.531H317.812V105.38Z" fill="#747D5D"/>
<path d="M317.812 123.683H326.964V132.834H317.812V123.683Z" fill="#747D5D"/>
<path d="M308.664 114.531H317.816V123.683H308.664V114.531Z" fill="#747D5D"/>
<path d="M262.902 105.38H272.054V114.531H262.902V105.38Z" fill="#747D5D"/>
<path d="M262.902 123.683H272.054V132.834H262.902V123.683Z" fill="#747D5D"/>
<path d="M253.754 114.531H262.905V123.683H253.754V114.531Z" fill="#747D5D"/>
<path d="M299.512 105.38H308.663V114.531H299.512V105.38Z" fill="#747D5D"/>
<path d="M299.512 123.683H308.663V132.834H299.512V123.683Z" fill="#747D5D"/>
<path d="M290.359 114.531H299.511V123.683H290.359V114.531Z" fill="#747D5D"/>
<path d="M336.117 105.38H345.269V114.531H336.117V105.38Z" fill="#747D5D"/>
<path d="M336.117 123.683H345.269V132.834H336.117V123.683Z" fill="#747D5D"/>
<path d="M326.965 114.531H336.116V123.683H326.965V114.531Z" fill="#747D5D"/>
<path d="M274.352 91.6523H306.382L300.662 105.38H280.071L274.352 91.6523Z" fill="#CD6125"/>
<path d="M288.078 84.7888H292.654V93.9403H288.078V84.7888Z" fill="#CD6125"/>
<path d="M292.654 84.7889C292.654 86.0524 291.63 87.0767 290.366 87.0767C289.102 87.0767 288.078 86.0524 288.078 84.7889C288.078 83.5253 289.102 82.501 290.366 82.501C291.63 82.501 292.654 83.5253 292.654 84.7889Z" fill="#CD6125"/>
<path d="M381.879 105.38H388.743V125.971H381.879V105.38Z" fill="#313131"/>
<path d="M381.879 125.97H388.743V185.455H381.879V125.97Z" fill="#1B3025"/>
<path d="M381.879 125.97H388.743V130.546H381.879V125.97Z" fill="#FFDC96"/>
<path d="M361.285 105.38H368.149V125.971H361.285V105.38Z" fill="#313131"/>
<path d="M361.285 125.97H368.149V185.455H361.285V125.97Z" fill="#C8A255"/>
<path d="M361.285 125.97H368.149V130.546H361.285V125.97Z" fill="#FFDC96"/>
<path d="M504.219 409.06H522.522L518.215 422.788H508.525L504.219 409.06Z" fill="#C8A255"/>
<path d="M504.219 422.788H522.522L518.215 436.515H508.525L504.219 422.788Z" fill="#C8A255"/>
<path d="M504.219 436.515H522.522L518.215 450.242H508.525L504.219 436.515Z" fill="#C8A255"/>
<path d="M504.219 450.242H522.522L518.215 463.97H508.525L504.219 450.242Z" fill="#C8A255"/>
<path d="M504.219 463.969H522.522L518.215 477.697H508.525L504.219 463.969Z" fill="#C8A255"/>
<path d="M513.535 399.928C517.181 399.928 520.113 394.795 520.113 377.065C520.113 359.334 513.535 345 513.535 345C513.535 345 506.957 359.374 506.957 377.065C506.957 394.795 509.929 399.928 513.535 399.928Z" fill="#747D5D"/>
<path d="M513.542 399.495C516.712 401.272 521.784 398.271 530.542 382.831C539.299 367.391 540.686 351.714 540.686 351.714C540.686 351.714 527.887 360.994 519.129 376.434C510.372 391.835 510.411 397.718 513.542 399.495Z" fill="#747D5D"/>
<path d="M513.539 399.495C510.369 401.272 505.297 398.271 496.539 382.831C487.781 367.391 486.395 351.714 486.395 351.714C486.395 351.714 499.194 360.994 507.952 376.434C516.749 391.835 516.709 397.718 513.539 399.495Z" fill="#747D5D"/>
<path d="M512.029 401.586C513.772 404.784 519.677 404.903 535.329 396.452C550.942 388.002 560.492 375.405 560.492 375.405C560.492 375.405 544.681 376.51 529.068 384.961C513.455 393.412 510.325 398.427 512.029 401.586Z" fill="#747D5D"/>
<path d="M515.053 401.586C513.31 404.784 507.405 404.903 491.753 396.452C476.14 388.002 466.59 375.405 466.59 375.405C466.59 375.405 482.401 376.51 498.014 384.961C513.627 393.412 516.797 398.427 515.053 401.586Z" fill="#747D5D"/>
<path d="M506.957 403.917C506.957 407.55 512.109 410.472 529.901 410.472C547.693 410.472 562.078 403.917 562.078 403.917C562.078 403.917 547.654 397.362 529.901 397.362C512.109 397.401 506.957 400.324 506.957 403.917Z" fill="#747D5D"/>
<path d="M520.121 403.917C520.121 407.55 514.969 410.472 497.177 410.472C479.424 410.472 465 403.917 465 403.917C465 403.917 479.424 397.362 497.177 397.362C514.969 397.401 520.121 400.324 520.121 403.917Z" fill="#747D5D"/>
<path d="M556.939 291.037C556.939 300.514 549.257 308.196 539.78 308.196C530.303 308.196 522.621 300.514 522.621 291.037C522.621 281.561 530.303 273.878 539.78 273.878C549.257 273.878 556.939 281.561 556.939 291.037Z" fill="#683911"/>
<path d="M665.318 131.727C665.318 139.308 659.172 145.454 651.591 145.454C644.009 145.454 637.863 139.308 637.863 131.727C637.863 124.146 644.009 118 651.591 118C659.172 118 665.318 124.146 665.318 131.727Z" fill="#C8A255"/>
<path d="M692.772 154.606C692.772 159.66 688.674 163.757 683.62 163.757C678.566 163.757 674.469 159.66 674.469 154.606C674.469 149.552 678.566 145.454 683.62 145.454C688.674 145.454 692.772 149.552 692.772 154.606Z" fill="#C8A255"/>
<path d="M604.989 58C603.204 65.4356 597.302 71.2468 589.82 72.8941C597.302 74.5185 603.204 80.3525 604.989 87.7653C606.773 80.3068 612.722 74.4727 620.249 72.8712C612.722 71.2468 606.773 65.4585 604.989 58Z" fill="#1B3025"/>
<path d="M681.34 75.6362H685.916V112.242H681.34V75.6362Z" fill="#1B3025"/>
<path d="M708.406 50.8562L710.723 53.1727L685.943 77.9528L683.626 75.6363L708.406 50.8562Z" fill="#1B3025"/>
<path d="M658.707 50.7198L656.419 53.0077L681.336 77.9241L683.623 75.6362L658.707 50.7198Z" fill="#1B3025"/>
<path d="M708.791 31.0227C708.791 44.2901 698.036 55.0454 684.769 55.0454C671.501 55.0454 660.746 44.2901 660.746 31.0227C660.746 17.7553 671.501 7 684.769 7C698.036 7 708.791 17.7553 708.791 31.0227Z" fill="#CD6125"/>
<path d="M724.804 52.7576C724.804 61.6025 717.633 68.7727 708.789 68.7727C699.944 68.7727 692.773 61.6025 692.773 52.7576C692.773 43.9126 699.944 36.7424 708.789 36.7424C717.633 36.7424 724.804 43.9126 724.804 52.7576Z" fill="#CD6125"/>
<path d="M676.761 52.7576C676.761 61.6025 669.59 68.7727 660.746 68.7727C651.901 68.7727 644.73 61.6025 644.73 52.7576C644.73 43.9126 651.901 36.7424 660.746 36.7424C669.59 36.7424 676.761 43.9126 676.761 52.7576Z" fill="#CD6125"/>
<path d="M582.609 220.636H587.185V257.242H582.609V220.636Z" fill="#1B3025"/>
<path d="M609.676 195.856L611.992 198.173L587.212 222.953L584.896 220.636L609.676 195.856Z" fill="#1B3025"/>
<path d="M559.977 195.72L557.689 198.008L582.605 222.924L584.893 220.636L559.977 195.72Z" fill="#1B3025"/>
<path d="M610.061 176.023C610.061 189.29 599.306 200.045 586.038 200.045C572.771 200.045 562.016 189.29 562.016 176.023C562.016 162.755 572.771 152 586.038 152C599.306 152 610.061 162.755 610.061 176.023Z" fill="#C8A255"/>
<path d="M626.073 197.758C626.073 206.602 618.903 213.773 610.058 213.773C601.213 213.773 594.043 206.602 594.043 197.758C594.043 188.913 601.213 181.742 610.058 181.742C618.903 181.742 626.073 188.913 626.073 197.758Z" fill="#C8A255"/>
<path d="M578.03 197.758C578.03 206.602 570.86 213.773 562.015 213.773C553.17 213.773 546 206.602 546 197.758C546 188.913 553.17 181.742 562.015 181.742C570.86 181.742 578.03 188.913 578.03 197.758Z" fill="#C8A255"/>
<path fill-rule="evenodd" clip-rule="evenodd" d="M842.818 50.9956C842.234 49.8409 841.773 48.9298 841.513 48.3092L838.441 49.5958C838.794 50.4405 839.35 51.5422 840.02 52.8695C841.823 56.4403 844.449 61.6432 846.174 67.8625C842.301 66.638 836.076 64.3944 832.488 62.3591C829.486 60.6563 826.463 58.2518 824.076 55.7042C821.65 53.1148 820.055 50.5636 819.625 48.597L816.371 49.308C816.993 52.1535 819.078 55.241 821.645 57.9816C824.253 60.7641 827.538 63.3811 830.844 65.2564C835.415 67.8486 843.62 70.6316 847.157 71.6382C848.917 77.6956 849.464 82.579 850.132 88.5541C850.367 90.6569 850.617 92.8949 850.941 95.3669C851.738 101.455 852.229 107.495 852.53 113.88C852.524 113.956 852.517 114.033 852.512 114.109L852.541 114.111C852.687 117.257 852.787 120.487 852.856 123.848C851.261 120.037 849.397 116.057 847.694 113.347C842.031 104.331 837.204 100.596 831.197 95.9499C830.323 95.2734 829.423 94.5775 828.493 93.8432L826.429 96.4582C827.384 97.2115 828.297 97.9184 829.176 98.5991C835.131 103.21 839.535 106.619 844.874 115.118C847.855 119.865 851.521 129.127 852.974 133.554C853.003 138.52 852.996 143.811 852.989 149.546C852.986 152.26 852.982 155.074 852.982 158L856.313 158C856.313 155.07 856.317 152.249 856.32 149.524C856.338 135.733 856.353 124.41 855.868 113.961C856.19 110.751 857.587 106.352 859.456 101.767C860.136 100.099 860.87 98.4262 861.622 96.804C868.94 96.6393 877.775 94.7809 883.144 90.6779C883.221 90.619 883.297 90.5605 883.374 90.5024C885.834 88.623 887.801 87.1204 889.234 85.2643C890.774 83.2687 891.635 80.9662 892.188 77.5703L888.9 77.0356C888.401 80.1047 887.685 81.8194 886.597 83.2291C885.445 84.7209 883.81 85.9765 881.121 88.0313C876.924 91.2387 869.809 93.0169 863.257 93.4042C864.103 91.7054 864.94 90.1183 865.716 88.7185C870.426 80.2195 873.294 75.739 875.108 73.0167C875.42 72.5491 875.707 72.1247 875.972 71.7331C877.192 69.9295 877.943 68.8203 878.449 67.3694L875.304 66.2719C874.951 67.2826 874.491 67.9661 873.3 69.7338C873.021 70.1472 872.702 70.6199 872.336 71.1698C870.469 73.9713 867.554 78.5295 862.802 87.1038C860.777 90.7574 858.357 95.64 856.372 100.51C855.957 101.528 855.558 102.553 855.183 103.572C854.93 100.678 854.62 97.8114 854.244 94.9344C853.938 92.6012 853.697 90.441 853.466 88.3764C852.759 82.0434 852.152 76.6112 850.101 69.8509C848.353 61.9357 844.844 55.0003 842.818 50.9956Z" fill="#CD6125"/>
<path d="M829.399 34.6191C829.399 43.771 821.632 51.1901 812.051 51.1901C802.47 51.1901 794.703 43.771 794.703 34.6191C794.703 25.4671 802.47 18.048 812.051 18.048C821.632 18.048 829.399 25.4671 829.399 34.6191Z" fill="#747D5D"/>
<path d="M883.365 31.8592C883.365 42.5365 874.304 51.1921 863.126 51.1921C851.948 51.1921 842.887 42.5365 842.887 31.8592C842.887 21.1819 851.948 12.5262 863.126 12.5262C874.304 12.5262 883.365 21.1819 883.365 31.8592Z" fill="#747D5D"/>
<path d="M858.312 29.0948C858.312 41.2974 847.956 51.1896 835.181 51.1896C822.407 51.1896 812.051 41.2974 812.051 29.0948C812.051 16.8922 822.407 7 835.181 7C847.956 7 858.312 16.8922 858.312 29.0948Z" fill="#747D5D"/>
<path d="M812.051 32.7766H864.094V51.1889H812.051V32.7766Z" fill="#747D5D"/>
<path d="M895.427 73.8377C895.427 82.4097 888.152 89.3588 879.178 89.3588C870.204 89.3588 862.93 82.4097 862.93 73.8377C862.93 65.2656 870.204 58.3165 879.178 58.3165C888.152 58.3165 895.427 65.2656 895.427 73.8377Z" fill="#747D5D"/>
<path d="M920.274 69.2712C920.274 80.3645 910.86 89.3574 899.246 89.3574C887.633 89.3574 878.219 80.3645 878.219 69.2712C878.219 58.1779 887.633 49.1851 899.246 49.1851C910.86 49.1851 920.274 58.1779 920.274 69.2712Z" fill="#747D5D"/>
<path d="M878.219 72.9269H899.246V89.361H878.219V72.9269Z" fill="#747D5D"/>
<path d="M809.405 88.6679C809.405 96.8114 816.316 103.413 824.841 103.413C833.366 103.413 840.277 96.8114 840.277 88.6679C840.277 80.5244 833.366 73.9229 824.841 73.9229C816.316 73.9229 809.405 80.5244 809.405 88.6679Z" fill="#747D5D"/>
<path d="M783.981 84.3287C783.981 94.8673 792.925 103.411 803.957 103.411C814.99 103.411 823.934 94.8673 823.934 84.3287C823.934 73.7901 814.99 65.2468 803.957 65.2468C792.925 65.2468 783.981 73.7901 783.981 84.3287Z" fill="#747D5D"/>
<path d="M823.934 87.8026H803.957V103.415H823.934V87.8026Z" fill="#747D5D"/>
<path d="M842.603 197.272C841.602 196.08 841 194.542 841 192.864C841 189.073 844.073 186 847.864 186C851.654 186 854.727 189.073 854.727 192.864C854.727 189.073 857.8 186 861.591 186C865.382 186 868.454 189.073 868.454 192.864C868.454 194.542 867.852 196.08 866.851 197.272L854.727 211.167L842.603 197.272Z" fill="#C8A255"/>
<path d="M605.832 286.878H669.893V369.242H605.832V286.878Z" fill="#1B3025"/>
<path d="M697.352 241.121H905.548V369.242H697.352V241.121Z" fill="#1B3025"/>
<path d="M720.227 286.878H820.893V369.242H720.227V286.878Z" fill="#FFDC96"/>
<path d="M669.895 177.06H697.349V369.242H669.895V177.06Z" fill="#747D5D"/>
<path d="M749.969 177.06H763.696V245.697H749.969V177.06Z" fill="#1B3025"/>
<path d="M777.426 177.06H791.153V245.697H777.426V177.06Z" fill="#1B3025"/>
<path d="M826.848 298.318L826.848 300.85L717.942 300.85L717.942 298.318L826.848 298.318Z" fill="#1B3025"/>
<path d="M825.473 302.893L825.473 305.181L717.943 305.181L717.943 302.893L825.473 302.893Z" fill="#1B3025"/>
<path d="M825.473 307.469L825.473 309.757L717.943 309.757L717.943 307.469L825.473 307.469Z" fill="#1B3025"/>
<path d="M825.473 314.333L825.473 312.045L717.943 312.045L717.943 314.333L825.473 314.333Z" fill="#1B3025"/>
<path d="M772.852 355.514H809.458V369.242H772.852V355.514Z" fill="#1B3025"/>
<path d="M720.227 254.848H738.53V273.151H720.227V254.848Z" fill="#683911"/>
<path d="M747.684 254.848H765.987V273.151H747.684V254.848Z" fill="#683911"/>
<path d="M775.137 254.848H793.44V273.151H775.137V254.848Z" fill="#683911"/>
<path d="M802.59 254.848H820.893V273.151H802.59V254.848Z" fill="#683911"/>
<path d="M839.195 257.136H843.771V296.03H839.195V257.136Z" fill="#CD6125"/>
<path d="M839.195 314.333H843.771V353.227H839.195V314.333Z" fill="#CD6125"/>
<path d="M848.348 257.136H852.923V296.03H848.348V257.136Z" fill="#CD6125"/>
<path d="M848.348 314.333H852.923V353.227H848.348V314.333Z" fill="#CD6125"/>
<path d="M857.5 257.136H862.076V296.03H857.5V257.136Z" fill="#CD6125"/>
<path d="M857.5 314.333H862.076V353.227H857.5V314.333Z" fill="#CD6125"/>
<path d="M866.648 257.136H871.224V296.03H866.648V257.136Z" fill="#CD6125"/>
<path d="M866.648 314.333H871.224V353.227H866.648V314.333Z" fill="#CD6125"/>
<path d="M875.805 257.136H880.38V296.03H875.805V257.136Z" fill="#CD6125"/>
<path d="M875.805 314.333H880.38V353.227H875.805V314.333Z" fill="#CD6125"/>
<path d="M884.957 257.136H889.533V296.03H884.957V257.136Z" fill="#CD6125"/>
<path d="M884.957 314.333H889.533V353.227H884.957V314.333Z" fill="#CD6125"/>
<path d="M749.969 167.909H763.696V177.06H749.969V167.909Z" fill="#FFDC96"/>
<path d="M777.426 167.909H791.153V177.06H777.426V167.909Z" fill="#FFDC96"/>
<path d="M749.969 140.454H763.696V167.909H749.969V140.454Z" fill="#313131"/>
<path d="M777.426 140.454H791.153V167.909H777.426V140.454Z" fill="#313131"/>
<path d="M669.895 177.06H679.046V186.212H669.895V177.06Z" fill="#CD6125"/>
<path d="M669.895 195.363H679.046V204.515H669.895V195.363Z" fill="#CD6125"/>
<path d="M669.895 213.666H679.046V222.818H669.895V213.666Z" fill="#CD6125"/>
<path d="M669.895 231.969H679.046V241.121H669.895V231.969Z" fill="#CD6125"/>
<path d="M669.895 250.272H679.046V259.424H669.895V250.272Z" fill="#CD6125"/>
<path d="M669.895 268.575H679.046V277.727H669.895V268.575Z" fill="#CD6125"/>
<path d="M669.895 305.181H679.046V314.333H669.895V305.181Z" fill="#CD6125"/>
<path d="M669.895 341.787H679.046V350.939H669.895V341.787Z" fill="#CD6125"/>
<path d="M669.895 286.878H679.046V296.03H669.895V286.878Z" fill="#CD6125"/>
<path d="M669.895 323.484H679.046V332.636H669.895V323.484Z" fill="#CD6125"/>
<path d="M669.895 360.09H679.046V369.242H669.895V360.09Z" fill="#CD6125"/>
<path d="M688.199 177.06H697.351V186.212H688.199V177.06Z" fill="#CD6125"/>
<path d="M688.199 195.363H697.351V204.515H688.199V195.363Z" fill="#CD6125"/>
<path d="M688.199 213.666H697.351V222.818H688.199V213.666Z" fill="#CD6125"/>
<path d="M688.199 231.969H697.351V241.121H688.199V231.969Z" fill="#CD6125"/>
<path d="M688.199 250.272H697.351V259.424H688.199V250.272Z" fill="#CD6125"/>
<path d="M688.199 268.575H697.351V277.727H688.199V268.575Z" fill="#CD6125"/>
<path d="M688.199 305.181H697.351V314.333H688.199V305.181Z" fill="#CD6125"/>
<path d="M688.199 341.787H697.351V350.939H688.199V341.787Z" fill="#CD6125"/>
<path d="M688.199 286.878H697.351V296.03H688.199V286.878Z" fill="#CD6125"/>
<path d="M688.199 323.484H697.351V332.636H688.199V323.484Z" fill="#CD6125"/>
<path d="M688.199 360.09H697.351V369.242H688.199V360.09Z" fill="#CD6125"/>
<path d="M679.047 186.212H688.198V195.363H679.047V186.212Z" fill="#CD6125"/>
<path d="M679.047 204.515H688.198V213.666H679.047V204.515Z" fill="#CD6125"/>
<path d="M679.047 222.818H688.198V231.969H679.047V222.818Z" fill="#CD6125"/>
<path d="M679.047 241.121H688.198V250.272H679.047V241.121Z" fill="#CD6125"/>
<path d="M679.047 259.424H688.198V268.575H679.047V259.424Z" fill="#CD6125"/>
<path d="M679.047 296.03H688.198V305.181H679.047V296.03Z" fill="#CD6125"/>
<path d="M679.047 332.636H688.198V341.787H679.047V332.636Z" fill="#CD6125"/>
<path d="M679.047 277.727H688.198V286.878H679.047V277.727Z" fill="#CD6125"/>
<path d="M679.047 314.333H688.198V323.484H679.047V314.333Z" fill="#CD6125"/>
<path d="M679.047 350.939H688.198V360.09H679.047V350.939Z" fill="#CD6125"/>
<path d="M624.137 325.772H651.591V369.242H624.137V325.772Z" fill="#747D5D"/>
<path d="M745.395 350.939H747.682V362.378H745.395V350.939Z" fill="#CD6125"/>
<path d="M740.82 362.378L752.26 362.378V369.242H740.82L740.82 362.378Z" fill="#747D5D"/>
<path d="M777.262 333.057L777.284 333.04L768.815 328.992L768.173 328.821L762.554 336.184L786.512 346.348C786.508 345.58 786.522 345.193 786.531 344.038C785.555 339.497 781.651 335.155 777.262 333.057Z" fill="#1B3025"/>
<path d="M786.525 344.066C785.71 339.732 781.826 335.074 777.522 333.017L777.543 333L768.328 328.06L767.164 330.383L765.98 335.018L786.525 344.066Z" fill="#CD6125"/>
<path d="M764.26 336.036C765.549 335.207 766.43 334.128 767.127 332.635C767.765 331.268 768.425 329.474 768.271 328.06C762.551 325.772 756.378 329.263 753.703 334.338C745.663 334.383 737.861 338.004 732.777 344.122L737.711 351.726C745.304 353.164 755.084 353.309 759.119 344.075C759.77 342.589 759.923 341.038 760.263 339.499C760.307 339.032 762.252 338.404 762.465 337.948C762.779 337.276 763.249 336.735 763.807 336.32C763.807 336.32 763.807 336.32 763.812 336.309C763.954 336.224 764.101 336.127 764.26 336.036Z" fill="#683911"/>
<path d="M754.494 349.83C752.172 346.181 752.665 341.354 754.598 337.254C755.954 334.378 758.046 331.504 760.326 330.339C762.606 329.174 766.019 329.141 767.142 330.273C767.13 331.406 766.482 333.766 765.968 334.857C764.823 336.011 763.692 336.023 762.538 338.32C761.383 340.618 761.374 341.761 760.22 344.059C759.066 346.356 756.773 348.665 754.494 349.83Z" fill="#747D5D"/>
<path d="M760.27 330.382L765.943 334.923C765.943 334.923 766.586 333.641 767.104 332.615C768.269 330.305 767.133 329.166 767.133 329.166C766.006 328.029 762.922 328.791 760.27 330.382Z" fill="white"/>
<path d="M764.419 332.154C764.814 332.343 765.289 332.169 765.478 331.765C765.668 331.361 765.502 330.88 765.106 330.691C764.711 330.502 764.237 330.676 764.047 331.08C763.857 331.484 764.024 331.965 764.419 332.154Z" fill="#313131"/>
<path d="M732.81 344.075L720.227 369.242L736.242 369.242L738.53 351.625L732.81 344.075Z" fill="#683911"/>
<path d="M651.591 325.772C651.591 333.353 645.445 339.499 637.864 339.499C630.283 339.499 624.137 333.353 624.137 325.772C624.137 318.191 630.283 312.045 637.864 312.045C645.445 312.045 651.591 318.191 651.591 325.772Z" fill="#747D5D"/>
<path d="M761.418 355.514L761.418 348.651L782.009 348.651L782.009 355.514L761.418 355.514Z" fill="#313131"/>
<path d="M782.008 355.514L782.008 348.651L820.902 348.651L820.902 355.514L782.008 355.514Z" fill="#683911"/>
<path d="M782.008 355.514L782.008 348.651L786.584 348.651L786.584 355.514L782.008 355.514Z" fill="#747D5D"/>
<path d="M579.887 480.097C578.72 484.193 579.115 491.604 579.312 495.309L579.318 495.31C583.025 495.507 590.432 495.902 594.525 494.735C598.619 493.567 599.787 489.473 596.859 486.545C593.932 483.618 589.837 484.785 589.837 484.785C589.837 484.785 591.005 480.691 588.076 477.762C585.148 474.834 581.053 476.001 579.887 480.097Z" fill="#1B3025"/>
<path d="M579.31 495.306C579.014 489.747 584.571 484.78 587.204 487.413C589.834 490.043 584.869 495.602 579.31 495.306Z" fill="#C8A255"/>
<path d="M578.734 510.519C579.901 506.423 579.506 499.012 579.309 495.307L579.303 495.306C575.596 495.108 568.189 494.713 564.096 495.881C560.002 497.049 558.834 501.143 561.762 504.071C564.689 506.998 568.784 505.831 568.784 505.831C568.784 505.831 567.616 509.925 570.545 512.853C573.473 515.782 577.568 514.614 578.734 510.519Z" fill="#1B3025"/>
<path d="M579.311 495.305C579.608 500.864 574.048 505.828 571.418 503.198C568.788 500.568 573.753 495.009 579.311 495.305Z" fill="#C8A255"/>
<path d="M594.519 495.88C590.423 494.714 583.012 495.108 579.306 495.306L579.306 495.312C579.108 499.019 578.713 506.426 579.881 510.518C581.049 514.613 585.143 515.781 588.07 512.853C590.998 509.925 589.831 505.831 589.831 505.831C589.831 505.831 593.925 506.999 596.853 504.07C599.782 501.142 598.614 497.047 594.519 495.88Z" fill="#1B3025"/>
<path d="M579.305 495.309C584.864 495.012 589.831 500.57 587.199 503.202C584.567 505.835 579.009 500.868 579.305 495.309Z" fill="#C8A255"/>
<path d="M564.103 494.736C568.198 495.902 575.609 495.507 579.315 495.31L579.315 495.304C579.513 491.597 579.908 484.19 578.741 480.098C577.572 476.003 573.478 474.835 570.551 477.763C567.623 480.691 568.79 484.785 568.79 484.785C568.79 484.785 564.696 483.617 561.768 486.546C558.84 489.474 560.007 493.569 564.103 494.736Z" fill="#1B3025"/>
<path d="M579.323 495.307C573.764 495.604 568.799 490.044 571.429 487.414C574.059 484.784 579.619 489.749 579.323 495.307Z" fill="#C8A255"/>
<path d="M595.411 382.554C593.626 389.989 587.724 395.801 580.242 397.448C587.724 399.072 593.626 404.906 595.411 412.319C597.195 404.86 603.144 399.026 610.671 397.425C603.144 395.801 597.195 390.012 595.411 382.554Z" fill="#1B3025"/>
<path d="M885.664 411.439C885.664 417.757 880.542 422.879 874.225 422.879C867.907 422.879 862.785 417.757 862.785 411.439C862.785 405.122 867.907 400 874.225 400C880.542 400 885.664 405.122 885.664 411.439Z" fill="#747D5D"/>
<path d="M764.131 448.463C764.131 453.934 759.696 458.368 754.226 458.368C748.755 458.368 744.32 453.934 744.32 448.463C744.32 442.992 748.755 438.557 754.226 438.557C759.696 438.557 764.131 442.992 764.131 448.463Z" fill="#C8A255"/>
<path d="M828.514 447.226C828.514 453.38 823.525 458.369 817.37 458.369C811.216 458.369 806.227 453.38 806.227 447.226C806.227 441.071 811.216 436.082 817.37 436.082C823.525 436.082 828.514 441.071 828.514 447.226Z" fill="#C8A255"/>
<path d="M768.69 414.568H773.266L765.367 431.13L772.796 442.522H801.274V450.941H771.558L759.176 431.13L768.69 414.568Z" fill="#1B3025"/>
<path d="M821.092 428.652L826.044 434.43L801.281 450.939L793.852 443.296V428.652H821.092Z" fill="#1B3025"/>
<path d="M793.852 423.698H821.092V428.65H793.852V423.698Z" fill="#CD6125"/>
<path d="M775.558 414.569C775.558 417.096 773.509 419.145 770.982 419.145C768.455 419.145 766.406 417.096 766.406 414.569C766.406 412.042 768.455 409.993 770.982 409.993C773.509 409.993 775.558 412.042 775.558 414.569Z" fill="#1B3025"/>
<path d="M651.237 470.766C651.237 476.237 646.802 480.671 641.331 480.671C635.861 480.671 631.426 476.237 631.426 470.766C631.426 465.295 635.861 460.86 641.331 460.86C646.802 460.86 651.237 465.295 651.237 470.766Z" fill="#C8A255"/>
<path d="M715.619 469.529C715.619 475.683 710.63 480.672 704.476 480.672C698.321 480.672 693.332 475.683 693.332 469.529C693.332 463.374 698.321 458.385 704.476 458.385C710.63 458.385 715.619 463.374 715.619 469.529Z" fill="#C8A255"/>
<path d="M655.796 436.871H660.372L652.472 453.433L659.901 464.825H688.379V473.244H658.663L646.281 453.433L655.796 436.871Z" fill="#CD6125"/>
<path d="M708.197 450.955L713.15 456.733L688.386 473.242L680.957 465.599V450.955H708.197Z" fill="#CD6125"/>
<path d="M680.957 446.001H708.197V450.953H680.957V446.001Z" fill="#747D5D"/>
<path d="M662.663 436.872C662.663 439.399 660.615 441.448 658.087 441.448C655.56 441.448 653.512 439.399 653.512 436.872C653.512 434.345 655.56 432.296 658.087 432.296C660.615 432.296 662.663 434.345 662.663 436.872Z" fill="#CD6125"/>
<path d="M776.922 650.569H861.573V732.932H776.922V650.569Z" fill="#747D5D"/>
<path d="M692.27 776.402H710.573V899.947H692.27V776.402Z" fill="#1B3025"/>
<path d="M692.27 732.932H861.572V776.402H692.27V732.932Z" fill="#1B3025"/>
<path d="M692.27 707.766H776.921V710.053H692.27V707.766Z" fill="#CD6125"/>
<path d="M719.723 710.054H722.011V732.932H719.723V710.054Z" fill="#CD6125"/>
<path d="M692.27 710.054H694.557V732.932H692.27V710.054Z" fill="#CD6125"/>
<path d="M710.57 710.054H712.858V732.932H710.57V710.054Z" fill="#CD6125"/>
<path d="M701.418 710.054H703.706V732.932H701.418V710.054Z" fill="#CD6125"/>
<path d="M738.023 710.054H740.311V732.932H738.023V710.054Z" fill="#CD6125"/>
<path d="M728.871 710.054H731.159V732.932H728.871V710.054Z" fill="#CD6125"/>
<path d="M747.18 710.054H749.468V732.932H747.18V710.054Z" fill="#CD6125"/>
<path d="M756.328 710.054H758.616V732.932H756.328V710.054Z" fill="#CD6125"/>
<path d="M765.48 710.054H767.768V732.932H765.48V710.054Z" fill="#CD6125"/>
<path d="M774.629 710.054H776.917V732.932H774.629V710.054Z" fill="#CD6125"/>
<path d="M772.344 810.72H921.056V899.947H772.344V810.72Z" fill="#1B3025"/>
<path d="M822.676 666.584H852.418V696.326H822.676V666.584Z" fill="#FFDC96"/>
<path d="M786.07 682.599H813.525V732.932H786.07V682.599Z" fill="#C8A255"/>
<path d="M788.355 835.887H843.264V879.356H788.355V835.887Z" fill="#747D5D"/>
<path d="M850.133 835.887H905.042V879.356H850.133V835.887Z" fill="#747D5D"/>
<path d="M788.355 872.493H843.264V881.644H788.355V872.493Z" fill="#C8A255"/>
<path d="M850.133 872.493H905.042V881.644H850.133V872.493Z" fill="#C8A255"/>
<path d="M881.965 752.721C881.965 751.044 883.324 749.685 885.001 749.685H909.291C910.968 749.685 912.327 751.044 912.327 752.721C912.327 754.398 910.968 755.758 909.291 755.758H885.001C883.324 755.758 881.965 754.398 881.965 752.721Z" fill="#683911"/>
<path d="M881.965 760.308C881.965 757.272 883.345 755.754 884.725 755.754L909.567 755.754C910.947 755.754 912.328 757.593 912.327 760.308C912.327 763.344 906.807 777.008 906.807 777.008H887.486C887.486 777.008 881.965 763.344 881.965 760.308Z" fill="#1B3025"/>
<path d="M897.609 721.398C896.657 724.74 896.979 730.787 897.14 733.811L897.144 733.811C900.17 733.972 906.214 734.295 909.553 733.342C912.894 732.389 913.847 729.048 911.458 726.659C909.069 724.27 905.728 725.223 905.728 725.223C905.728 725.223 906.681 721.882 904.291 719.493C901.902 717.103 898.561 718.056 897.609 721.398Z" fill="#CD6125"/>
<path d="M897.141 733.811C896.899 729.275 901.433 725.222 903.582 727.37C905.728 729.516 901.676 734.053 897.141 733.811Z" fill="#FFDC96"/>
<path d="M896.673 746.224C897.625 742.882 897.303 736.834 897.141 733.811L897.137 733.81C894.111 733.649 888.067 733.327 884.728 734.279C881.387 735.232 880.434 738.573 882.823 740.962C885.212 743.351 888.553 742.398 888.553 742.398C888.553 742.398 887.6 745.739 889.99 748.129C892.379 750.518 895.721 749.566 896.673 746.224Z" fill="#CD6125"/>
<path d="M897.141 733.81C897.383 738.346 892.847 742.397 890.7 740.251C888.554 738.105 892.606 733.568 897.141 733.81Z" fill="#FFDC96"/>
<path d="M909.557 734.278C906.216 733.326 900.168 733.648 897.144 733.81L897.144 733.814C896.983 736.839 896.66 742.884 897.613 746.223C898.566 749.564 901.907 750.517 904.296 748.128C906.685 745.739 905.732 742.397 905.732 742.397C905.732 742.397 909.073 743.351 911.463 740.961C913.852 738.572 912.899 735.23 909.557 734.278Z" fill="#CD6125"/>
<path d="M897.142 733.81C901.678 733.568 905.73 738.103 903.583 740.25C901.435 742.398 896.9 738.345 897.142 733.81Z" fill="#FFDC96"/>
<path d="M884.732 733.343C888.074 734.295 894.121 733.973 897.145 733.811L897.145 733.807C897.306 730.782 897.629 724.738 896.676 721.398C895.723 718.058 892.382 717.104 889.993 719.493C887.604 721.882 888.557 725.224 888.557 725.224C888.557 725.224 885.216 724.271 882.827 726.66C880.437 729.049 881.39 732.391 884.732 733.343Z" fill="#CD6125"/>
<path d="M897.147 733.811C892.611 734.053 888.56 729.516 890.706 727.37C892.852 725.224 897.388 729.276 897.147 733.811Z" fill="#FFDC96"/>
<path d="M696.344 669.707H700.381V708.061H696.344V669.707Z" fill="#C8A255"/>
<path fill-rule="evenodd" clip-rule="evenodd" d="M670.157 654.672C670.157 663.378 678.157 670.73 688.411 670.73C698.665 670.73 706.665 663.378 706.665 654.672H709.693C709.693 665.375 699.992 673.758 688.411 673.758C676.83 673.758 667.129 665.375 667.129 654.672H670.157Z" fill="#C8A255"/>
<path fill-rule="evenodd" clip-rule="evenodd" d="M691.84 654.807C691.84 663.513 699.84 670.865 710.094 670.865C720.348 670.865 728.348 663.513 728.348 654.807H731.376C731.376 665.51 721.676 673.893 710.094 673.893C698.513 673.893 688.812 665.51 688.812 654.807H691.84Z" fill="#C8A255"/>
<path d="M687.786 631.279C687.786 644.199 677.312 654.672 664.393 654.672C651.473 654.672 641 644.199 641 631.279C641 618.36 651.473 607.886 664.393 607.886C677.312 607.886 687.786 618.36 687.786 631.279Z" fill="#CD6125"/>
<path d="M753.715 631.279C753.715 644.199 743.242 654.672 730.323 654.672C717.403 654.672 706.93 644.199 706.93 631.279C706.93 618.36 717.403 607.886 730.323 607.886C743.242 607.886 753.715 618.36 753.715 631.279Z" fill="#CD6125"/>
<path d="M728.188 623.836C728.188 640.866 714.382 654.672 697.352 654.672C680.321 654.672 666.516 640.866 666.516 623.836C666.516 606.806 680.321 593 697.352 593C714.382 593 728.188 606.806 728.188 623.836Z" fill="#CD6125"/>
<path d="M662.266 624.899H732.444V654.672H662.266V624.899Z" fill="#CD6125"/>
<path d="M836.406 613.963H840.982V650.569H836.406V613.963Z" fill="#1B3025"/>
<path d="M863.473 589.183L865.789 591.499L841.009 616.279L838.693 613.963L863.473 589.183Z" fill="#1B3025"/>
<path d="M813.773 589.047L811.486 591.334L836.402 616.251L838.69 613.963L813.773 589.047Z" fill="#1B3025"/>
<path d="M863.858 569.349C863.858 582.617 853.103 593.372 839.835 593.372C826.568 593.372 815.812 582.617 815.812 569.349C815.812 556.082 826.568 545.327 839.835 545.327C853.103 545.327 863.858 556.082 863.858 569.349Z" fill="#747D5D"/>
<path d="M879.87 591.084C879.87 599.929 872.7 607.099 863.855 607.099C855.01 607.099 847.84 599.929 847.84 591.084C847.84 582.239 855.01 575.069 863.855 575.069C872.7 575.069 879.87 582.239 879.87 591.084Z" fill="#747D5D"/>
<path d="M831.827 591.084C831.827 599.929 824.657 607.099 815.812 607.099C806.967 607.099 799.797 599.929 799.797 591.084C799.797 582.239 806.967 575.069 815.812 575.069C824.657 575.069 831.827 582.239 831.827 591.084Z" fill="#747D5D"/>
<path d="M744.887 844.614H751.75V865.205H744.887V844.614Z" fill="#313131"/>
<path d="M744.887 865.205H751.75V924.69H744.887V865.205Z" fill="#C8A255"/>
<path d="M744.887 865.205H751.75V869.781H744.887V865.205Z" fill="#FFDC96"/>
<path d="M739.348 845.09L745.977 846.866L740.648 866.756L734.018 864.979L739.348 845.09Z" fill="#313131"/>
<path d="M734.02 864.979L740.649 866.756L725.253 924.213L718.624 922.437L734.02 864.979Z" fill="#747D5D"/>
<path d="M734.02 864.979L740.649 866.756L739.465 871.175L732.835 869.399L734.02 864.979Z" fill="#FFDC96"/>
<path d="M701.417 813.008C701.417 815.535 699.368 817.584 696.841 817.584C694.314 817.584 692.266 815.535 692.266 813.008C692.266 810.481 694.314 808.432 696.841 808.432C699.368 808.432 701.417 810.481 701.417 813.008Z" fill="#C8A255"/>
<path d="M774.628 813.008C774.628 815.535 772.579 817.584 770.052 817.584C767.525 817.584 765.477 815.535 765.477 813.008C765.477 810.481 767.525 808.432 770.052 808.432C772.579 808.432 774.628 810.481 774.628 813.008Z" fill="#C8A255"/>
<path d="M847.839 813.008C847.839 815.535 845.79 817.584 843.263 817.584C840.736 817.584 838.688 815.535 838.688 813.008C838.688 810.481 840.736 808.432 843.263 808.432C845.79 808.432 847.839 810.481 847.839 813.008Z" fill="#C8A255"/>
<path d="M738.026 813.008C738.026 815.535 735.978 817.584 733.451 817.584C730.924 817.584 728.875 815.535 728.875 813.008C728.875 810.481 730.924 808.432 733.451 808.432C735.978 808.432 738.026 810.481 738.026 813.008Z" fill="#C8A255"/>
<path d="M811.237 813.008C811.237 815.535 809.189 817.584 806.662 817.584C804.135 817.584 802.086 815.535 802.086 813.008C802.086 810.481 804.135 808.432 806.662 808.432C809.189 808.432 811.237 810.481 811.237 813.008Z" fill="#C8A255"/>
<path d="M884.448 813.008C884.448 815.535 882.4 817.584 879.873 817.584C877.346 817.584 875.297 815.535 875.297 813.008C875.297 810.481 877.346 808.432 879.873 808.432C882.4 808.432 884.448 810.481 884.448 813.008Z" fill="#C8A255"/>
<path d="M719.722 813.008C719.722 815.535 717.673 817.584 715.146 817.584C712.619 817.584 710.57 815.535 710.57 813.008C710.57 810.481 712.619 808.432 715.146 808.432C717.673 808.432 719.722 810.481 719.722 813.008Z" fill="#C8A255"/>
<path d="M792.933 813.008C792.933 815.535 790.884 817.584 788.357 817.584C785.83 817.584 783.781 815.535 783.781 813.008C783.781 810.481 785.83 808.432 788.357 808.432C790.884 808.432 792.933 810.481 792.933 813.008Z" fill="#C8A255"/>
<path d="M866.148 813.008C866.148 815.535 864.099 817.584 861.572 817.584C859.045 817.584 856.996 815.535 856.996 813.008C856.996 810.481 859.045 808.432 861.572 808.432C864.099 808.432 866.148 810.481 866.148 813.008Z" fill="#C8A255"/>
<path d="M756.327 813.008C756.327 815.535 754.279 817.584 751.752 817.584C749.224 817.584 747.176 815.535 747.176 813.008C747.176 810.481 749.224 808.432 751.752 808.432C754.279 808.432 756.327 810.481 756.327 813.008Z" fill="#C8A255"/>
<path d="M829.538 813.008C829.538 815.535 827.49 817.584 824.962 817.584C822.435 817.584 820.387 815.535 820.387 813.008C820.387 810.481 822.435 808.432 824.962 808.432C827.49 808.432 829.538 810.481 829.538 813.008Z" fill="#C8A255"/>
<path d="M902.749 813.008C902.749 815.535 900.701 817.584 898.173 817.584C895.646 817.584 893.598 815.535 893.598 813.008C893.598 810.481 895.646 808.432 898.173 808.432C900.701 808.432 902.749 810.481 902.749 813.008Z" fill="#C8A255"/>
<path d="M921.054 813.008C921.054 815.535 919.005 817.584 916.478 817.584C913.951 817.584 911.902 815.535 911.902 813.008C911.902 810.481 913.951 808.432 916.478 808.432C919.005 808.432 921.054 810.481 921.054 813.008Z" fill="#C8A255"/>
<path d="M710.569 813.008C710.569 815.535 708.521 817.584 705.994 817.584C703.467 817.584 701.418 815.535 701.418 813.008C701.418 810.481 703.467 808.432 705.994 808.432C708.521 808.432 710.569 810.481 710.569 813.008Z" fill="#CD6125"/>
<path d="M783.78 813.008C783.78 815.535 781.732 817.584 779.205 817.584C776.678 817.584 774.629 815.535 774.629 813.008C774.629 810.481 776.678 808.432 779.205 808.432C781.732 808.432 783.78 810.481 783.78 813.008Z" fill="#CD6125"/>
<path d="M856.995 813.008C856.995 815.535 854.947 817.584 852.419 817.584C849.892 817.584 847.844 815.535 847.844 813.008C847.844 810.481 849.892 808.432 852.419 808.432C854.947 808.432 856.995 810.481 856.995 813.008Z" fill="#CD6125"/>
<path d="M747.175 813.008C747.175 815.535 745.126 817.584 742.599 817.584C740.072 817.584 738.023 815.535 738.023 813.008C738.023 810.481 740.072 808.432 742.599 808.432C745.126 808.432 747.175 810.481 747.175 813.008Z" fill="#CD6125"/>
<path d="M820.386 813.008C820.386 815.535 818.337 817.584 815.81 817.584C813.283 817.584 811.234 815.535 811.234 813.008C811.234 810.481 813.283 808.432 815.81 808.432C818.337 808.432 820.386 810.481 820.386 813.008Z" fill="#CD6125"/>
<path d="M893.597 813.008C893.597 815.535 891.548 817.584 889.021 817.584C886.494 817.584 884.445 815.535 884.445 813.008C884.445 810.481 886.494 808.432 889.021 808.432C891.548 808.432 893.597 810.481 893.597 813.008Z" fill="#CD6125"/>
<path d="M728.874 813.008C728.874 815.535 726.826 817.584 724.298 817.584C721.771 817.584 719.723 815.535 719.723 813.008C719.723 810.481 721.771 808.432 724.298 808.432C726.826 808.432 728.874 810.481 728.874 813.008Z" fill="#CD6125"/>
<path d="M802.085 813.008C802.085 815.535 800.036 817.584 797.509 817.584C794.982 817.584 792.934 815.535 792.934 813.008C792.934 810.481 794.982 808.432 797.509 808.432C800.036 808.432 802.085 810.481 802.085 813.008Z" fill="#CD6125"/>
<path d="M875.296 813.008C875.296 815.535 873.247 817.584 870.72 817.584C868.193 817.584 866.145 815.535 866.145 813.008C866.145 810.481 868.193 808.432 870.72 808.432C873.247 808.432 875.296 810.481 875.296 813.008Z" fill="#CD6125"/>
<path d="M765.48 813.008C765.48 815.535 763.431 817.584 760.904 817.584C758.377 817.584 756.328 815.535 756.328 813.008C756.328 810.481 758.377 808.432 760.904 808.432C763.431 808.432 765.48 810.481 765.48 813.008Z" fill="#CD6125"/>
<path d="M838.691 813.008C838.691 815.535 836.642 817.584 834.115 817.584C831.588 817.584 829.539 815.535 829.539 813.008C829.539 810.481 831.588 808.432 834.115 808.432C836.642 808.432 838.691 810.481 838.691 813.008Z" fill="#CD6125"/>
<path d="M911.901 813.008C911.901 815.535 909.853 817.584 907.326 817.584C904.799 817.584 902.75 815.535 902.75 813.008C902.75 810.481 904.799 808.432 907.326 808.432C909.853 808.432 911.901 810.481 911.901 813.008Z" fill="#CD6125"/>
<path d="M692.266 776.402H701.417V813.008H692.266V776.402Z" fill="#C8A255"/>
<path d="M728.875 776.402H738.026V813.008H728.875V776.402Z" fill="#C8A255"/>
<path d="M765.477 776.402H774.628V813.008H765.477V776.402Z" fill="#C8A255"/>
<path d="M802.086 776.402H811.237V813.008H802.086V776.402Z" fill="#C8A255"/>
<path d="M838.688 776.402H847.839V813.008H838.688V776.402Z" fill="#C8A255"/>
<path d="M875.297 776.402H884.448V813.008H875.297V776.402Z" fill="#C8A255"/>
<path d="M710.57 776.402H719.722V813.008H710.57V776.402Z" fill="#C8A255"/>
<path d="M747.176 776.402H756.327V813.008H747.176V776.402Z" fill="#C8A255"/>
<path d="M783.781 776.402H792.933V813.008H783.781V776.402Z" fill="#C8A255"/>
<path d="M820.387 776.402H829.538V813.008H820.387V776.402Z" fill="#C8A255"/>
<path d="M856.996 776.402H866.148V813.008H856.996V776.402Z" fill="#C8A255"/>
<path d="M893.598 776.402H902.749V813.008H893.598V776.402Z" fill="#C8A255"/>
<path d="M911.902 776.402H921.054V813.008H911.902V776.402Z" fill="#C8A255"/>
<path d="M701.418 776.402H710.569V813.008H701.418V776.402Z" fill="#CD6125"/>
<path d="M738.023 776.402H747.175V813.008H738.023V776.402Z" fill="#CD6125"/>
<path d="M774.629 776.402H783.78V813.008H774.629V776.402Z" fill="#CD6125"/>
<path d="M811.234 776.402H820.386V813.008H811.234V776.402Z" fill="#CD6125"/>
<path d="M847.844 776.402H856.995V813.008H847.844V776.402Z" fill="#CD6125"/>
<path d="M884.445 776.402H893.597V813.008H884.445V776.402Z" fill="#CD6125"/>
<path d="M719.723 776.402H728.874V813.008H719.723V776.402Z" fill="#CD6125"/>
<path d="M756.328 776.402H765.48V813.008H756.328V776.402Z" fill="#CD6125"/>
<path d="M792.934 776.402H802.085V813.008H792.934V776.402Z" fill="#CD6125"/>
<path d="M829.539 776.402H838.691V813.008H829.539V776.402Z" fill="#CD6125"/>
<path d="M866.145 776.402H875.296V813.008H866.145V776.402Z" fill="#CD6125"/>
<path d="M902.75 776.402H911.901V813.008H902.75V776.402Z" fill="#CD6125"/>
<path d="M836.402 666.584H838.69V696.326H836.402V666.584Z" fill="#747D5D"/>
<path d="M852.418 680.311L852.418 682.599L822.676 682.599L822.676 680.311L852.418 680.311Z" fill="#747D5D"/>
<path d="M673.961 838.932L673.961 822.917L582.446 822.917L582.446 838.932L673.961 838.932Z" fill="#683911"/>
<path d="M598.465 854.947L598.465 834.356L591.601 834.356L591.601 854.947L598.465 854.947Z" fill="#683911"/>
<path d="M662.527 854.947L662.527 834.356L655.664 834.356L655.664 854.947L662.527 854.947Z" fill="#683911"/>
<path d="M587.376 774.824C587.376 782.378 582.176 788.503 575.762 788.503C569.348 788.503 564.148 782.378 564.148 774.824C564.148 767.269 569.348 761.145 575.762 761.145C582.176 761.145 587.376 767.269 587.376 774.824Z" fill="#1B3025"/>
<path fill-rule="evenodd" clip-rule="evenodd" d="M597.323 764.576V823.793L576.883 788.022L578.869 786.887L595.035 815.178V764.576H597.323Z" fill="#747D5D"/>
<path d="M614.477 774.872H621.34V795.462H614.477V774.872Z" fill="#313131"/>
<path d="M614.477 795.462H621.34V854.947H614.477V795.462Z" fill="#747D5D"/>
<path d="M614.477 795.462H621.34V800.038H614.477V795.462Z" fill="#FFDC96"/>
<path d="M632.781 774.872H639.645V795.462H632.781V774.872Z" fill="#313131"/>
<path d="M632.781 795.462H639.645V854.947H632.781V795.462Z" fill="#C8A255"/>
<path d="M632.781 795.462H639.645V800.038H632.781V795.462Z" fill="#FFDC96"/>
<path d="M607.962 751.945C607.962 759.499 602.762 765.624 596.348 765.624C589.934 765.624 584.734 759.499 584.734 751.945C584.734 744.39 589.934 738.266 596.348 738.266C602.762 738.266 607.962 744.39 607.962 751.945Z" fill="#1B3025"/>
<path d="M598.601 690.21C598.601 699.534 606.159 707.092 615.482 707.092C624.805 707.092 632.363 699.534 632.363 690.21C632.363 680.887 624.805 673.329 615.482 673.329C606.159 673.329 598.601 680.887 598.601 690.21Z" fill="#747D5D"/>
<path fill-rule="evenodd" clip-rule="evenodd" d="M615.482 704.804C607.422 704.804 600.889 698.27 600.889 690.21C600.889 682.151 607.422 675.617 615.482 675.617C623.542 675.617 630.075 682.151 630.075 690.21C630.075 698.27 623.542 704.804 615.482 704.804ZM615.482 707.092C606.159 707.092 598.601 699.534 598.601 690.21C598.601 680.887 606.159 673.329 615.482 673.329C624.805 673.329 632.363 680.887 632.363 690.21C632.363 699.534 624.805 707.092 615.482 707.092Z" fill="#747D5D"/>
<path d="M550 691.901C550 700.292 556.803 707.094 565.194 707.094C573.585 707.094 580.387 700.292 580.387 691.901C580.387 683.51 573.585 676.708 565.194 676.708C556.803 676.708 550 683.51 550 691.901Z" fill="#747D5D"/>
<path fill-rule="evenodd" clip-rule="evenodd" d="M565.194 704.806C558.066 704.806 552.288 699.028 552.288 691.901C552.288 684.773 558.066 678.996 565.194 678.996C572.321 678.996 578.099 684.773 578.099 691.901C578.099 699.028 572.321 704.806 565.194 704.806ZM565.194 707.094C556.803 707.094 550 700.292 550 691.901C550 683.51 556.803 676.708 565.194 676.708C573.585 676.708 580.387 683.51 580.387 691.901C580.387 700.292 573.585 707.094 565.194 707.094Z" fill="#747D5D"/>
<path d="M568.586 684.232C568.586 697.063 578.988 707.464 591.819 707.464C604.649 707.464 615.051 697.063 615.051 684.232C615.051 671.401 604.649 661 591.819 661C578.988 661 568.586 671.401 568.586 684.232Z" fill="#747D5D"/>
<path fill-rule="evenodd" clip-rule="evenodd" d="M591.819 705.177C580.251 705.177 570.874 695.799 570.874 684.232C570.874 672.665 580.251 663.288 591.819 663.288C603.386 663.288 612.763 672.665 612.763 684.232C612.763 695.799 603.386 705.177 591.819 705.177ZM591.819 707.464C578.988 707.464 568.586 697.063 568.586 684.232C568.586 671.401 578.988 661 591.819 661C604.649 661 615.051 671.401 615.051 684.232C615.051 697.063 604.649 707.464 591.819 707.464Z" fill="#747D5D"/>
<path d="M615.625 690.738H565.443V707.465H615.625V690.738Z" fill="#747D5D"/>
<path fill-rule="evenodd" clip-rule="evenodd" d="M322.484 497.731C323.199 496.252 323.766 495.078 324.09 494.268L327.276 495.543C326.863 496.577 326.205 497.942 325.408 499.594C323.179 504.216 319.864 511.09 317.777 519.282C322.397 517.778 330.311 514.829 334.814 512.155C338.453 509.994 342.117 506.943 345.014 503.707C347.946 500.431 349.926 497.15 350.467 494.555L353.827 495.256C353.102 498.727 350.652 502.553 347.571 505.996C344.454 509.478 340.522 512.757 336.566 515.106C331.019 518.4 320.977 521.949 316.822 523.173C314.646 530.943 313.979 537.189 313.166 544.799C312.883 547.444 312.583 550.255 312.196 553.352C309.982 571.05 310.075 584.643 310.221 606.097C310.261 612.096 310.306 618.71 310.306 626.2L306.874 626.2C306.875 618.787 306.83 612.217 306.789 606.239C306.712 595.083 306.65 585.986 306.921 577.31L306.879 577.313C306.583 573.155 304.833 567.334 302.487 561.309C301.64 559.134 300.724 556.953 299.786 554.843C290.959 554.661 280.291 552.323 273.853 547.173C273.768 547.105 273.683 547.037 273.6 546.97C270.616 544.584 268.278 542.714 266.581 540.412C264.777 537.966 263.759 535.138 263.102 530.905L266.493 530.378C267.101 534.294 267.982 536.53 269.343 538.376C270.763 540.302 272.772 541.913 275.997 544.493C281.229 548.678 290.131 550.934 298.188 551.351C297.067 548.973 295.954 546.753 294.929 544.816C289.253 534.094 285.794 528.437 283.604 524.996C283.223 524.397 282.873 523.856 282.553 523.36C281.085 521.089 280.216 519.744 279.625 517.971L282.881 516.886C283.324 518.215 283.913 519.129 285.352 521.363C285.685 521.882 286.065 522.471 286.499 523.153C288.741 526.675 292.245 532.412 297.962 543.21C300.394 547.804 303.301 553.943 305.685 560.064C306.352 561.778 306.984 563.505 307.555 565.205C307.855 561.238 308.256 557.197 308.791 552.926C309.161 549.966 309.452 547.233 309.731 544.625C310.582 536.649 311.307 529.85 313.769 521.363C315.858 511.447 320.037 502.797 322.484 497.731Z" fill="#CD6125"/>
<path d="M342.592 476.344C342.592 487.716 351.811 496.935 363.183 496.935C374.555 496.935 383.773 487.716 383.773 476.344C383.773 464.972 374.555 455.753 363.183 455.753C351.811 455.753 342.592 464.972 342.592 476.344Z" fill="#747D5D"/>
<path d="M278.529 472.912C278.529 486.179 289.284 496.935 302.552 496.935C315.819 496.935 326.574 486.179 326.574 472.912C326.574 459.645 315.819 448.889 302.552 448.889C289.284 448.889 278.529 459.645 278.529 472.912Z" fill="#747D5D"/>
<path d="M308.271 467.192C308.271 482.355 320.562 494.647 335.725 494.647C350.888 494.647 363.18 482.355 363.18 467.192C363.18 452.03 350.888 439.738 335.725 439.738C320.562 439.738 308.271 452.03 308.271 467.192Z" fill="#747D5D"/>
<path d="M363.18 474.056H301.407V496.935H363.18V474.056Z" fill="#747D5D"/>
<path d="M260.227 525.533C260.227 536.273 268.934 544.98 279.674 544.98C290.414 544.98 299.121 536.273 299.121 525.533C299.121 514.793 290.414 506.086 279.674 506.086C268.934 506.086 260.227 514.793 260.227 525.533Z" fill="#747D5D"/>
<path d="M230.482 520.957C230.482 534.225 241.237 544.98 254.505 544.98C267.772 544.98 278.527 534.225 278.527 520.957C278.527 507.69 267.772 496.935 254.505 496.935C241.237 496.935 230.482 507.69 230.482 520.957Z" fill="#747D5D"/>
<path d="M279.656 524.389H254.337V545.105H279.656V524.389Z" fill="#747D5D"/>
<path d="M437.219 855.061H455.522L451.215 868.788H441.525L437.219 855.061Z" fill="#C8A255"/>
<path d="M437.219 868.788H455.522L451.215 882.515H441.525L437.219 868.788Z" fill="#C8A255"/>
<path d="M437.219 882.515H455.522L451.215 896.242H441.525L437.219 882.515Z" fill="#C8A255"/>
<path d="M437.219 896.242H455.522L451.215 909.969H441.525L437.219 896.242Z" fill="#C8A255"/>
<path d="M437.219 909.969H455.522L451.215 923.697H441.525L437.219 909.969Z" fill="#C8A255"/>
<path d="M446.535 845.928C450.181 845.928 453.113 840.795 453.113 823.065C453.113 805.334 446.535 791 446.535 791C446.535 791 439.957 805.374 439.957 823.065C439.957 840.795 442.929 845.928 446.535 845.928Z" fill="#1B3025"/>
<path d="M446.542 845.496C449.712 847.273 454.784 844.271 463.542 828.831C472.299 813.392 473.686 797.715 473.686 797.715C473.686 797.715 460.887 806.994 452.129 822.434C443.372 837.835 443.411 843.719 446.542 845.496Z" fill="#1B3025"/>
<path d="M446.539 845.496C443.369 847.273 438.297 844.271 429.539 828.831C420.781 813.392 419.395 797.715 419.395 797.715C419.395 797.715 432.194 806.994 440.952 822.434C449.749 837.835 449.709 843.719 446.539 845.496Z" fill="#1B3025"/>
<path d="M445.029 847.586C446.772 850.784 452.677 850.903 468.329 842.452C483.942 834.002 493.492 821.405 493.492 821.405C493.492 821.405 477.681 822.511 462.068 830.961C446.455 839.412 443.325 844.427 445.029 847.586Z" fill="#1B3025"/>
<path d="M448.053 847.586C446.31 850.784 440.405 850.903 424.753 842.452C409.14 834.002 399.59 821.405 399.59 821.405C399.59 821.405 415.401 822.511 431.014 830.961C446.627 839.412 449.797 844.427 448.053 847.586Z" fill="#1B3025"/>
<path d="M439.957 849.917C439.957 853.55 445.109 856.472 462.901 856.472C480.693 856.472 495.078 849.917 495.078 849.917C495.078 849.917 480.654 843.362 462.901 843.362C445.109 843.401 439.957 846.324 439.957 849.917Z" fill="#1B3025"/>
<path d="M453.121 849.917C453.121 853.55 447.969 856.472 430.177 856.472C412.424 856.472 398 849.917 398 849.917C398 849.917 412.424 843.362 430.177 843.362C447.969 843.401 453.121 846.324 453.121 849.917Z" fill="#1B3025"/>
<path d="M193.622 448.738C191.837 456.173 185.934 461.985 178.453 463.632C185.934 465.256 191.837 471.09 193.622 478.503C195.406 471.045 201.355 465.21 208.882 463.609C201.355 461.985 195.406 456.196 193.622 448.738Z" fill="#FFDC96"/>
<path d="M349.033 630.323C351.713 633.004 351.713 637.35 349.033 640.03C346.352 642.71 342.006 642.71 339.326 640.03C336.646 637.35 336.646 633.004 339.326 630.323C342.006 627.643 346.352 627.643 349.033 630.323Z" fill="#1B3025"/>
<path d="M361.974 643.265C364.654 645.946 364.654 650.291 361.974 652.972C359.294 655.652 354.948 655.652 352.267 652.972C349.587 650.291 349.587 645.946 352.267 643.265C354.948 640.585 359.294 640.585 361.974 643.265Z" fill="#1B3025"/>
<path d="M361.971 640.03C359.29 642.71 354.944 642.71 352.264 640.03C349.583 637.35 349.583 633.004 352.264 630.323C354.944 627.643 359.29 627.643 361.971 630.323C364.651 633.004 364.651 637.35 361.971 640.03Z" fill="#1B3025"/>
<path d="M349.029 652.972C346.349 655.653 342.003 655.653 339.322 652.972C336.642 650.292 336.642 645.946 339.322 643.266C342.003 640.585 346.349 640.585 349.029 643.266C351.71 645.946 351.71 650.292 349.029 652.972Z" fill="#1B3025"/>
<path d="M353.882 638.412C355.669 640.199 355.669 643.096 353.882 644.883C352.095 646.67 349.198 646.67 347.411 644.883C345.624 643.096 345.624 640.199 347.411 638.412C349.198 636.625 352.095 636.625 353.882 638.412Z" fill="#FFDC96"/>
<path d="M332.746 744.243H339.61V764.834H332.746V744.243Z" fill="#313131"/>
<path d="M332.746 764.833H339.61V824.318H332.746V764.833Z" fill="#C8A255"/>
<path d="M332.746 764.833H339.61V769.409H332.746V764.833Z" fill="#FFDC96"/>
<path d="M133.109 719.076L137.963 723.929L123.403 738.489L118.549 733.636L133.109 719.076Z" fill="#313131"/>
<path d="M118.551 733.636L123.404 738.489L81.342 780.551L76.4887 775.698L118.551 733.636Z" fill="#1B3025"/>
<path d="M118.551 733.636L123.404 738.489L120.169 741.725L115.315 736.872L118.551 733.636Z" fill="#FFDC96"/>
<path d="M234.371 677.598L241.046 676L245.84 696.025L239.164 697.623L234.371 677.598Z" fill="#313131"/>
<path d="M239.16 697.623L245.835 696.026L259.683 753.876L253.008 755.474L239.16 697.623Z" fill="#CD6125"/>
<path d="M239.16 697.623L245.835 696.026L246.9 700.476L240.225 702.073L239.16 697.623Z" fill="#FFDC96"/>
<path d="M351.031 744.242H357.895V764.833H351.031V744.242Z" fill="#313131"/>
<path d="M351.031 764.833H357.895V824.318H351.031V764.833Z" fill="#C8A255"/>
<path d="M351.031 764.833H357.895V769.409H351.031V764.833Z" fill="#FFDC96"/>
<path d="M412.169 719.248C410.384 726.683 404.481 732.494 397 734.142C404.481 735.766 410.384 741.6 412.169 749.013C413.953 741.554 419.902 735.72 427.429 734.119C419.902 732.494 413.953 726.706 412.169 719.248Z" fill="#747D5D"/>
<path d="M1 757.97H3.53355V793.439H1V757.97Z" fill="#1B3025"/>
<path d="M1 792.288H103.954V922.696H1V792.288Z" fill="#1B3025"/>
<path d="M24 847H81V923H24V847Z" fill="black"/>
<g clip-path="url(#clip0)">
<path d="M70.5703 891.546C70.5703 891.546 71.7569 895.087 72.2719 896.292C72.7868 897.498 73.6264 898.583 74.9436 899.964C76.3914 901.486 77.1451 902.251 79.0929 903.934C81.037 905.621 89.1417 912.431 91.6343 913.315C94.1269 914.199 93.4963 907.125 93.4963 907.125L93.3097 898.113L75.2272 891.244L70.5703 891.546Z" fill="#FFDC96"/>
<path d="M91.9614 905.515C91.9614 905.515 87.4053 902.649 85.5023 900.697C83.5955 898.742 81.2074 895.615 78.7185 894.41C73.1662 891.723 64.1174 891.309 64.1174 891.309C64.1174 891.309 62.5651 888.958 61.2815 887.775C59.9979 886.592 55.1172 885.469 55.1172 885.469L55.1993 882.133L63.039 877.682H91.6853L91.9614 905.515Z" fill="#CD6125"/>
<path d="M56.7973 889.624L56.7637 892.766H60.4579L64.152 891.307C64.152 891.307 63.3908 888.546 61.8907 887.206C59.7974 885.337 55.0995 885.463 55.0995 885.463C55.0995 885.463 55.01 886.852 55.3756 887.84C55.7413 888.829 56.7973 889.624 56.7973 889.624Z" fill="#FFDC96"/>
<path d="M56.7017 881.284C56.8361 881.527 56.9107 881.807 56.9107 882.106C56.9107 883.05 56.1007 883.812 55.1562 883.812L55.1973 882.136L56.7017 881.284Z" fill="#FFDC96"/>
<path d="M63.5214 883.418C64.5017 883.394 65.2875 883.016 65.2766 882.573C65.2657 882.13 64.4622 881.791 63.482 881.815C62.5017 881.839 61.7159 882.218 61.7268 882.66C61.7377 883.103 62.5412 883.443 63.5214 883.418Z" fill="black"/>
<path d="M69.9083 877.754C69.9083 876.06 68.5351 874.691 66.8448 874.691C65.1544 874.691 63.7812 876.064 63.7812 877.754H69.9083Z" fill="#CD6125"/>
<path d="M75.9004 877.74C75.9004 876.046 74.5273 874.676 72.8369 874.676C71.1429 874.676 69.7734 876.049 69.7734 877.74H75.9004Z" fill="#CD6125"/>
<path d="M74.187 877.74C74.187 876.994 73.5823 876.389 72.8357 876.389C72.0891 876.389 71.4844 876.994 71.4844 877.74H74.187Z" fill="black"/>
<path d="M68.1988 877.74C68.1988 876.994 67.594 876.389 66.8474 876.389C66.1008 876.389 65.4961 876.994 65.4961 877.74H68.1988Z" fill="black"/>
</g>
<path d="M51.332 716.788H53.6199V757.97H51.332V716.788Z" fill="#1B3025"/>
<path d="M55.9102 755.682H58.4437V791.151H55.9102V755.682Z" fill="#1B3025"/>
<path d="M46.7539 755.682H49.2875V791.151H46.7539V755.682Z" fill="#1B3025"/>
<path d="M65.0625 755.682H67.5961V791.151H65.0625V755.682Z" fill="#1B3025"/>
<path d="M74.2109 755.682H76.4988V785.424H74.2109V755.682Z" fill="#1B3025"/>
<path d="M92.5117 755.682H94.7996V785.424H92.5117V755.682Z" fill="#1B3025"/>
<path d="M83.3633 755.682H85.6512V785.424H83.3633V755.682Z" fill="#1B3025"/>
<path d="M101.664 757.97H103.952V783.136H101.664V757.97Z" fill="#1B3025"/>
<path d="M10.1523 757.97H12.6859V793.439H10.1523V757.97Z" fill="#1B3025"/>
<path d="M19.3008 757.97H21.8343V793.439H19.3008V757.97Z" fill="#1B3025"/>
<path d="M28.4531 757.97H30.741V790H28.4531V757.97Z" fill="#1B3025"/>
<path d="M103.953 755.682L103.953 757.97L0.998756 757.97L0.998756 755.682L103.953 755.682Z" fill="#1B3025"/>
<path d="M103.953 709.924L103.953 716.788L0.998756 716.788L0.998756 709.924L103.953 709.924Z" fill="#CD6125"/>
<path d="M37.6055 755.682H40.139V791.151H37.6055V755.682Z" fill="#1B3025"/>
<path d="M103.953 833.47H378.498V922.697H103.953V833.47Z" fill="#747D5D"/>
<path d="M103.953 755.682H314.438V833.469H103.953V755.682Z" fill="#747D5D"/>
<path d="M138.273 691.621H236.652V755.682H138.273V691.621Z" fill="#1B3025"/>
<path d="M138.273 682.47H236.652V691.621H138.273V682.47Z" fill="#CD6125"/>
<path d="M378.5 824.318L378.5 833.469L119.97 833.469L119.97 824.318L378.5 824.318Z" fill="#1B3025"/>
<path d="M103.953 783.136L103.953 792.288L0.998756 792.288L0.998756 783.136L103.953 783.136Z" fill="#CD6125"/>
<path d="M81.0758 846.053C81.0758 861.848 68.2718 874.651 52.4773 874.651C36.6829 874.651 23.8789 861.848 23.8789 846.053C23.8789 830.259 36.6829 817.455 52.4773 817.455C68.2718 817.455 81.0758 830.259 81.0758 846.053Z" fill="black"/>
<path d="M149.707 771.697H174.874V824.318H149.707V771.697Z" fill="#FFDC96"/>
<path d="M204.617 771.697H229.784V824.318H204.617V771.697Z" fill="#FFDC96"/>
<path d="M259.527 771.697H284.694V824.318H259.527V771.697Z" fill="#FFDC96"/>
<path d="M174.969 873.797C174.969 885.691 165.327 895.332 153.434 895.332C141.54 895.332 131.898 885.691 131.898 873.797C131.898 861.903 141.54 852.262 153.434 852.262C165.327 852.262 174.969 861.903 174.969 873.797Z" fill="#FFDC96"/>
<path d="M131.406 876.939H174.876V922.697H131.406V876.939Z" fill="black"/>
<path d="M151.996 847.197H154.284V922.697H151.996V847.197Z" fill="#747D5D"/>
<path d="M174.875 851.772L176.666 853.564L154.342 875.888L152.551 874.097L174.875 851.772Z" fill="#747D5D"/>
<path d="M131.406 851.772L129.615 853.564L151.749 875.698L153.54 873.906L131.406 851.772Z" fill="#747D5D"/>
<path d="M177.164 876.939L177.164 874.651L129.119 874.651L129.119 876.939L177.164 876.939Z" fill="#747D5D"/>
<path d="M236.742 873.797C236.742 885.691 227.101 895.332 215.207 895.332C203.314 895.332 193.672 885.691 193.672 873.797C193.672 861.903 203.314 852.262 215.207 852.262C227.101 852.262 236.742 861.903 236.742 873.797Z" fill="#FFDC96"/>
<path d="M193.18 876.939H236.649V922.697H193.18V876.939Z" fill="black"/>
<path d="M213.77 847.197H216.057V922.697H213.77V847.197Z" fill="#747D5D"/>
<path d="M236.648 851.772L238.44 853.564L216.116 875.888L214.324 874.097L236.648 851.772Z" fill="#747D5D"/>
<path d="M193.18 851.772L191.388 853.564L213.522 875.698L215.314 873.906L193.18 851.772Z" fill="#747D5D"/>
<path d="M238.938 876.939L238.938 874.651L190.892 874.651L190.892 876.939L238.938 876.939Z" fill="#747D5D"/>
<path d="M298.512 873.797C298.512 885.691 288.87 895.332 276.977 895.332C265.083 895.332 255.441 885.691 255.441 873.797C255.441 861.903 265.083 852.262 276.977 852.262C288.87 852.262 298.512 861.903 298.512 873.797Z" fill="#FFDC96"/>
<path d="M254.949 876.939H298.419V922.697H254.949V876.939Z" fill="black"/>
<path d="M275.539 847.197H277.827V922.697H275.539V847.197Z" fill="#747D5D"/>
<path d="M298.418 851.772L300.209 853.564L277.885 875.888L276.094 874.097L298.418 851.772Z" fill="#747D5D"/>
<path d="M254.949 851.772L253.158 853.564L275.292 875.698L277.083 873.906L254.949 851.772Z" fill="#747D5D"/>
<path d="M300.707 876.939L300.707 874.651L252.662 874.651L252.662 876.939L300.707 876.939Z" fill="#747D5D"/>
<path d="M360.289 873.797C360.289 885.691 350.647 895.332 338.754 895.332C326.86 895.332 317.219 885.691 317.219 873.797C317.219 861.903 326.86 852.262 338.754 852.262C350.647 852.262 360.289 861.903 360.289 873.797Z" fill="#FFDC96"/>
<path d="M316.727 876.939H360.196V922.697H316.727V876.939Z" fill="black"/>
<path d="M337.316 847.197H339.604V922.697H337.316V847.197Z" fill="#747D5D"/>
<path d="M360.195 851.772L361.987 853.564L339.663 875.888L337.871 874.097L360.195 851.772Z" fill="#747D5D"/>
<path d="M316.727 851.772L314.935 853.564L337.069 875.698L338.86 873.906L316.727 851.772Z" fill="#747D5D"/>
<path d="M362.484 876.939L362.484 874.651L314.439 874.651L314.439 876.939L362.484 876.939Z" fill="#747D5D"/>
<path d="M357.906 794.576H360.194V826.606H357.906V794.576Z" fill="#1B3025"/>
<path d="M348.754 794.576H351.042V826.606H348.754V794.576Z" fill="#1B3025"/>
<path d="M348.754 794.576H351.042V826.606H348.754V794.576Z" fill="#1B3025"/>
<path d="M339.605 794.576H341.893V826.606H339.605V794.576Z" fill="#1B3025"/>
<path d="M330.453 794.576H332.741V826.606H330.453V794.576Z" fill="#1B3025"/>
<path d="M321.305 794.576H323.593V826.606H321.305V794.576Z" fill="#1B3025"/>
<path d="M293.848 796.864H296.136V828.894H293.848V796.864Z" fill="#1B3025"/>
<path d="M266.395 796.864H268.682V828.894H266.395V796.864Z" fill="#1B3025"/>
<path d="M238.938 796.864H241.225V828.894H238.938V796.864Z" fill="#1B3025"/>
<path d="M211.484 794.576H213.772V826.606H211.484V794.576Z" fill="#1B3025"/>
<path d="M184.031 794.576H186.319V826.606H184.031V794.576Z" fill="#1B3025"/>
<path d="M156.574 794.576H158.862V826.606H156.574V794.576Z" fill="#1B3025"/>
<path d="M129.121 794.576H131.409V826.606H129.121V794.576Z" fill="#1B3025"/>
<path d="M312.148 794.576H314.436V826.606H312.148V794.576Z" fill="#1B3025"/>
<path d="M284.695 796.864H286.983V828.894H284.695V796.864Z" fill="#1B3025"/>
<path d="M257.242 796.864H259.53V828.894H257.242V796.864Z" fill="#1B3025"/>
<path d="M229.785 796.864H232.073V828.894H229.785V796.864Z" fill="#1B3025"/>
<path d="M202.332 794.576H204.62V826.606H202.332V794.576Z" fill="#1B3025"/>
<path d="M174.875 794.576H177.163V826.606H174.875V794.576Z" fill="#1B3025"/>
<path d="M147.422 794.576H149.71V826.606H147.422V794.576Z" fill="#1B3025"/>
<path d="M119.969 794.576H122.257V826.606H119.969V794.576Z" fill="#1B3025"/>
<path d="M367.059 794.576H369.346V826.606H367.059V794.576Z" fill="#1B3025"/>
<path d="M376.207 794.576H378.495V826.606H376.207V794.576Z" fill="#1B3025"/>
<path d="M302.996 794.576H305.284V831.182H302.996V794.576Z" fill="#1B3025"/>
<path d="M275.543 796.864H277.831V833.47H275.543V796.864Z" fill="#1B3025"/>
<path d="M248.09 796.864H250.378V833.47H248.09V796.864Z" fill="#1B3025"/>
<path d="M220.633 796.864H222.921V833.47H220.633V796.864Z" fill="#1B3025"/>
<path d="M193.18 794.576H195.468V831.182H193.18V794.576Z" fill="#1B3025"/>
<path d="M165.727 794.576H168.014V831.182H165.727V794.576Z" fill="#1B3025"/>
<path d="M138.273 794.576H140.561V831.182H138.273V794.576Z" fill="#1B3025"/>
<path d="M378.5 794.576L378.5 796.864L119.97 796.864L119.97 794.576L378.5 794.576Z" fill="#1B3025"/>
<path d="M52.4771 687.046L103.954 709.924H1L52.4771 687.046Z" fill="#1B3025"/>
<path d="M81.0742 865.5H103.953V922.697H81.0742V865.5Z" fill="#1B3025"/>
<path d="M154.289 703.061H179.456V744.243H154.289V703.061Z" fill="#747D5D"/>
<path d="M195.469 703.061H220.635V744.243H195.469V703.061Z" fill="#747D5D"/>
<path d="M323 710.248C323 720.189 314.941 728.248 305 728.248C295.059 728.248 287 720.189 287 710.248C287 700.306 295.059 692.248 305 692.248C314.941 692.248 323 700.306 323 710.248Z" fill="#CD6125"/>
<path d="M289.57 731.329C289.57 729.652 290.93 728.293 292.607 728.293H316.896C318.573 728.293 319.933 729.652 319.933 731.329C319.933 733.006 318.573 734.365 316.896 734.365H292.607C290.93 734.365 289.57 733.006 289.57 731.329Z" fill="#683911"/>
<path d="M289.57 738.917C289.57 735.881 290.95 734.362 292.331 734.363L317.173 734.363C318.553 734.362 319.933 736.201 319.933 738.917C319.932 741.953 314.413 755.616 314.413 755.616H295.091C295.091 755.616 289.57 741.953 289.57 738.917Z" fill="#1B3025"/>
<path d="M90.8984 637.705L117.603 611L144.308 637.705H90.8984Z" fill="#683911"/>
<path d="M121.801 637.705L148.505 611L175.21 637.705H121.801Z" fill="#683911"/>
<path d="M152.691 637.705L179.396 611L206.101 637.705H152.691Z" fill="#683911"/>
<path d="M183.602 637.705L210.306 611L237.011 637.705H183.602Z" fill="#683911"/>
<path d="M60 637.705L86.7047 611L113.409 637.705H60Z" fill="#683911"/>
<path d="M32.0273 486.503L37.9714 483.071L48.2669 500.903L42.3228 504.335L32.0273 486.503Z" fill="#313131"/>
<path d="M42.3242 504.335L48.2683 500.903L78.0107 552.419L72.0666 555.85L42.3242 504.335Z" fill="#CD6125"/>
<path d="M42.3242 504.335L48.2683 500.903L50.5562 504.866L44.6121 508.298L42.3242 504.335Z" fill="#FFDC96"/>
<path d="M149.852 483.071L155.796 486.503L145.5 504.335L139.556 500.903L149.852 483.071Z" fill="#313131"/>
<path d="M139.559 500.903L145.503 504.335L115.76 555.85L109.816 552.419L139.559 500.903Z" fill="#683911"/>
<path d="M139.559 500.903L145.503 504.335L143.215 508.298L137.271 504.866L139.559 500.903Z" fill="#FFDC96"/>
<path d="M11.4375 563.147L11.4375 572.298L2.286 572.298L2.286 563.147L11.4375 563.147Z" fill="#CD6125"/>
<path d="M11.4375 544.844L11.4375 553.995L2.286 553.995L2.286 544.844L11.4375 544.844Z" fill="#CD6125"/>
<path d="M185.316 535.692L185.316 544.844L176.165 544.844L176.165 535.692L185.316 535.692Z" fill="#CD6125"/>
<path d="M84.6523 563.147L84.6523 572.298L75.5008 572.298L75.5008 563.147L84.6523 563.147Z" fill="#CD6125"/>
<path d="M48.043 563.147L48.043 572.298L38.8915 572.298L38.8915 563.147L48.043 563.147Z" fill="#CD6125"/>
<path d="M121.258 563.147L121.258 572.298L112.106 572.298L112.106 563.147L121.258 563.147Z" fill="#CD6125"/>
<path d="M157.863 563.147L157.863 572.298L148.712 572.298L148.712 563.147L157.863 563.147Z" fill="#CD6125"/>
<path d="M29.7422 563.147L29.7422 572.298L20.5907 572.298L20.5907 563.147L29.7422 563.147Z" fill="#CD6125"/>
<path d="M102.953 563.147L102.953 572.298L93.8016 572.298L93.8016 563.147L102.953 563.147Z" fill="#CD6125"/>
<path d="M66.3477 563.147L66.3477 572.298L57.1962 572.298L57.1962 563.147L66.3477 563.147Z" fill="#CD6125"/>
<path d="M139.559 563.147L139.559 572.298L130.407 572.298L130.407 563.147L139.559 563.147Z" fill="#CD6125"/>
<path d="M176.164 563.147L176.164 572.298L167.013 572.298L167.013 563.147L176.164 563.147Z" fill="#CD6125"/>
<path d="M20.5898 563.147L20.5898 572.298L11.4383 572.298L11.4383 563.147L20.5898 563.147Z" fill="#683911"/>
<path d="M11.4375 553.995L11.4375 563.147L2.286 563.147L2.286 553.995L11.4375 553.995Z" fill="#683911"/>
<path d="M185.316 553.995L185.316 563.147L176.165 563.147L176.165 553.995L185.316 553.995Z" fill="#CD6125"/>
<path d="M11.4375 535.692L11.4375 544.844L2.286 544.844L2.286 535.692L11.4375 535.692Z" fill="#683911"/>
<path d="M185.316 544.844L185.316 553.995L176.165 553.995L176.165 544.844L185.316 544.844Z" fill="#683911"/>
<path d="M93.8047 563.147L93.8047 572.298L84.6532 572.298L84.6532 563.147L93.8047 563.147Z" fill="#683911"/>
<path d="M57.1953 563.147L57.1953 572.298L48.0438 572.298L48.0438 563.147L57.1953 563.147Z" fill="#683911"/>
<path d="M130.406 563.147L130.406 572.298L121.255 572.298L121.255 563.147L130.406 563.147Z" fill="#683911"/>
<path d="M167.016 563.147L167.016 572.298L157.864 572.298L157.864 563.147L167.016 563.147Z" fill="#683911"/>
<path d="M38.8945 563.147L38.8945 572.298L29.743 572.298L29.743 563.147L38.8945 563.147Z" fill="#683911"/>
<path d="M112.105 563.147L112.105 572.298L102.954 572.298L102.954 563.147L112.105 563.147Z" fill="#683911"/>
<path d="M75.4961 563.147L75.4961 572.298L66.3446 572.298L66.3446 563.147L75.4961 563.147Z" fill="#683911"/>
<path d="M148.707 563.147L148.707 572.298L139.556 572.298L139.556 563.147L148.707 563.147Z" fill="#683911"/>
<path d="M185.316 563.147L185.316 572.298L176.165 572.298L176.165 563.147L185.316 563.147Z" fill="#683911"/>
<path d="M96.0927 467.056C96.0927 475.901 88.9225 483.071 80.0776 483.071C71.2327 483.071 64.0625 475.901 64.0625 467.056C64.0625 458.211 71.2327 451.041 80.0776 451.041C88.9225 451.041 96.0927 458.211 96.0927 467.056Z" fill="#CD6125"/>
<path d="M29.7405 544.844C29.7405 549.898 25.6432 553.995 20.589 553.995C15.5348 553.995 11.4375 549.898 11.4375 544.844C11.4375 539.789 15.5348 535.692 20.589 535.692C25.6432 535.692 29.7405 539.789 29.7405 544.844Z" fill="#C8A255"/>
<path d="M48.0452 544.844C48.0452 549.898 43.9479 553.995 38.8937 553.995C33.8395 553.995 29.7422 549.898 29.7422 544.844C29.7422 539.789 33.8395 535.692 38.8937 535.692C43.9479 535.692 48.0452 539.789 48.0452 544.844Z" fill="#C8A255"/>
<path d="M66.346 544.844C66.346 549.898 62.2487 553.995 57.1945 553.995C52.1402 553.995 48.043 549.898 48.043 544.844C48.043 539.789 52.1402 535.692 57.1945 535.692C62.2487 535.692 66.346 539.789 66.346 544.844Z" fill="#C8A255"/>
<path d="M84.6507 544.844C84.6507 549.898 80.5534 553.995 75.4992 553.995C70.4449 553.995 66.3477 549.898 66.3477 544.844C66.3477 539.789 70.4449 535.692 75.4992 535.692C80.5534 535.692 84.6507 539.789 84.6507 544.844Z" fill="#C8A255"/>
<path d="M102.955 544.844C102.955 549.898 98.8581 553.995 93.8038 553.995C88.7496 553.995 84.6523 549.898 84.6523 544.844C84.6523 539.789 88.7496 535.692 93.8038 535.692C98.8581 535.692 102.955 539.789 102.955 544.844Z" fill="#C8A255"/>
<path d="M176.164 544.844L176.164 563.147L11.4371 563.147L11.4371 544.844L176.164 544.844Z" fill="#C8A255"/>
<path d="M121.256 544.844C121.256 549.898 117.159 553.995 112.105 553.995C107.05 553.995 102.953 549.898 102.953 544.844C102.953 539.789 107.05 535.692 112.105 535.692C117.159 535.692 121.256 539.789 121.256 544.844Z" fill="#C8A255"/>
<path d="M139.561 544.844C139.561 549.898 135.464 553.995 130.409 553.995C125.355 553.995 121.258 549.898 121.258 544.844C121.258 539.789 125.355 535.692 130.409 535.692C135.464 535.692 139.561 539.789 139.561 544.844Z" fill="#C8A255"/>
<path d="M157.862 544.844C157.862 549.898 153.764 553.995 148.71 553.995C143.656 553.995 139.559 549.898 139.559 544.844C139.559 539.789 143.656 535.692 148.71 535.692C153.764 535.692 157.862 539.789 157.862 544.844Z" fill="#C8A255"/>
<path d="M176.166 544.844C176.166 549.898 172.069 553.995 167.015 553.995C161.961 553.995 157.863 549.898 157.863 544.844C157.863 539.789 161.961 535.692 167.015 535.692C172.069 535.692 176.166 539.789 176.166 544.844Z" fill="#C8A255"/>
<path d="M62 363C62 371.837 54.8366 379 46 379C37.1634 379 30 371.837 30 363C30 354.163 37.1634 347 46 347C54.8366 347 62 354.163 62 363Z" fill="#C8A255"/>
<path d="M97 361.5C97 366.194 93.1944 370 88.5 370C83.8056 370 80 366.194 80 361.5C80 356.806 83.8056 353 88.5 353C93.1944 353 97 356.806 97 361.5Z" fill="#C8A255"/>
<defs>
<clipPath id="clip0">
<rect width="42.5272" height="50.7214" fill="white" transform="translate(51.043 873.284)"/>
</clipPath>
</defs>
</svg>
