<svg width="921" height="925" fill="none" xmlns="http://www.w3.org/2000/svg"><path fill-rule="evenodd" clip-rule="evenodd" d="M920.047 502l-398.75 88.644-6.5-29.288L920.047 471v31zm-368 422L391.648 374.203l28.799-8.406L583.547 924h-31.5z" fill="#1B3025"/><path fill-rule="evenodd" clip-rule="evenodd" d="M395.09 381.505l150-381h31.957l-154.043 391.99-27.914-10.99z" fill="#1B3025"/><path fill-rule="evenodd" clip-rule="evenodd" d="M424.997 383.76c.685 8.256-5.453 15.504-13.709 16.189L.047 434v-30l408.762-33.949c8.256-.684 15.503 5.454 16.188 13.709z" fill="#1B3025"/><path d="M458.165 507.598c44.958-5.459 85.828 26.561 91.286 71.518 5.459 44.957-26.56 85.827-71.518 91.286-44.957 5.459-85.827-26.561-91.286-71.518-5.459-44.957 26.561-85.827 71.518-91.286z" fill="#1B3025"/><path d="M446.047 523.833l2.902-5.252 5.252 2.903-2.903 5.251-5.251-2.902zm-11.606 21.005l2.903-5.251 5.251 2.902-2.902 5.251-5.252-2.902zm-11.609 21.005l2.902-5.251 5.252 2.902-2.903 5.251-5.251-2.902zm-11.605 21.005l2.902-5.251 5.251 2.902-2.902 5.252-5.251-2.903zm17.406-31.507l2.902-5.251 5.251 2.902-2.902 5.251-5.251-2.902zm11.613-21.006l2.902-5.252 5.252 2.903-2.903 5.251-5.251-2.902z" fill="#747D5D"/><path d="M430.984 563.494l2.903-5.251 5.251 2.902-2.902 5.252-5.252-2.903zm-13.961 12.852l2.903-5.251 5.251 2.902-2.902 5.252-5.252-2.903zm-11.605 21.005l2.902-5.251 5.252 2.902-2.903 5.252-5.251-2.903zm-5.809 10.503l2.903-5.251 5.251 2.902-2.902 5.252-5.252-2.903zm21.008 11.61l2.902-5.252 5.252 2.902-2.902 5.252-5.252-2.902zm21.004 11.609l2.902-5.252 5.252 2.903-2.903 5.251-5.251-2.902zm-31.508-17.414l2.903-5.251 5.251 2.902-2.902 5.251-5.252-2.902zm21.004 11.609l2.902-5.251 5.252 2.902-2.902 5.251-5.252-2.902zm21.008 11.609l2.902-5.251 5.252 2.902-2.903 5.251-5.251-2.902zm10.504 5.805l2.902-5.251 5.252 2.902-2.903 5.251-5.251-2.902zm10.5 5.805l2.902-5.252 5.252 2.903-2.903 5.251-5.251-2.902zm10.504 5.804l2.902-5.251 5.251 2.902-2.902 5.251-5.251-2.902zM442.59 542.489l2.902-5.251 5.251 2.902-2.902 5.252-5.251-2.903zM419.375 584.5l2.902-5.252 5.252 2.902-2.903 5.252-5.251-2.902zm-11.605 21.005l2.902-5.252 5.251 2.903-2.902 5.251-5.251-2.902zm21.003 11.609l2.903-5.251 5.251 2.902-2.902 5.251-5.252-2.902zm21.008 11.609l2.903-5.251 5.251 2.902-2.902 5.251-5.252-2.902zm-31.508-17.414l2.903-5.251 5.251 2.902-2.902 5.252-5.252-2.903zm21.004 11.609l2.903-5.251 5.251 2.902-2.902 5.252-5.252-2.903zm21.008 11.61l2.902-5.252 5.252 2.903-2.902 5.251-5.252-2.902z" fill="#747D5D"/><path d="M470.777 640.333l2.903-5.251 5.251 2.902-2.902 5.251-5.252-2.902zm-3.722-104.891l2.902-5.251 5.251 2.902-2.902 5.251-5.251-2.902zm21.004 11.609l2.902-5.251 5.251 2.902-2.902 5.251-5.251-2.902zm21.003 11.609l2.903-5.251 5.251 2.902-2.902 5.252-5.252-2.903zm-52.511-29.023l2.902-5.251 5.251 2.902-2.902 5.252-5.251-2.903zm21.004 11.61l2.902-5.252 5.251 2.903-2.902 5.251-5.251-2.902zm-40.762 11.744l2.902-5.251 5.252 2.902-2.903 5.252-5.251-2.903zm61.769-.135l2.903-5.252 5.251 2.903-2.902 5.251-5.252-2.902zm21.004 11.609l2.903-5.252 5.251 2.903-2.902 5.251-5.252-2.902zm10.504 5.804l2.903-5.251 5.251 2.902-2.902 5.252-5.252-2.903zm-11.609 21.006l2.902-5.252 5.252 2.902-2.903 5.252-5.251-2.902zm-11.606 21.005l2.903-5.252 5.251 2.903-2.902 5.251-5.252-2.902zm-11.617 21.006l2.903-5.251 5.251 2.902-2.902 5.251-5.252-2.902zm29.024-52.513l2.902-5.252 5.251 2.903-2.902 5.251-5.251-2.902zm-11.606 21.005l2.903-5.252 5.251 2.903-2.902 5.251-5.252-2.902zm-11.609 21.005l2.902-5.251 5.252 2.902-2.903 5.251-5.251-2.902zm-11.606 21.005l2.903-5.251 5.251 2.902-2.902 5.251-5.252-2.902z" fill="#747D5D"/><path d="M448.398 531.986l2.903-5.251 5.251 2.902-2.902 5.251-5.252-2.902zm-23.222 42.012l2.902-5.252 5.251 2.903-2.902 5.251-5.251-2.902zm-11.606 21.005l2.903-5.252 5.251 2.903-2.902 5.251-5.252-2.902zm55.836-51.408l2.903-5.251 5.251 2.902-2.902 5.252-5.252-2.903zm21.004 11.609l2.902-5.251 5.252 2.902-2.902 5.252-5.252-2.903zm21.004 11.61l2.902-5.252 5.252 2.903-2.903 5.251-5.251-2.902zm-52.512-29.023l2.903-5.252 5.251 2.903-2.902 5.251-5.252-2.902zm21.004 11.609l2.903-5.252 5.251 2.903-2.902 5.251-5.252-2.902zm21.008 11.609l2.902-5.251 5.252 2.902-2.903 5.251-5.251-2.902zm21.004 11.609l2.902-5.251 5.252 2.902-2.903 5.251-5.251-2.902zm-11.606 21.005l2.903-5.251 5.251 2.902-2.902 5.252-5.252-2.903zm-11.617 21.007l2.903-5.252 5.251 2.902-2.902 5.252-5.252-2.902zm-11.605 21.005l2.902-5.252 5.251 2.903-2.902 5.251-5.251-2.902zm29.019-52.514l2.903-5.251 5.251 2.902-2.902 5.252-5.252-2.903zm-11.605 21.006l2.902-5.252 5.252 2.903-2.903 5.251-5.251-2.902zm-11.609 21.005l2.902-5.252 5.251 2.903-2.902 5.251-5.251-2.902zm-11.614 21.006l2.903-5.252 5.251 2.903-2.902 5.251-5.252-2.902z" fill="#747D5D"/><path fill-rule="evenodd" clip-rule="evenodd" d="M467.87 580.374a8 8 0 10-4.55-15.339 8 8 0 004.55 15.339zm.569 1.918c5.295-1.571 8.314-7.136 6.743-12.431-1.57-5.295-7.136-8.314-12.431-6.743-5.295 1.57-8.314 7.136-6.743 12.431 1.57 5.294 7.136 8.313 12.431 6.743z" fill="#747D5D"/><path d="M465.953 580.943l3.835-1.137 9.669 32.596-3.835 1.137-9.669-32.596zm-.848 25.285l7.67-2.275 1.138 3.835-7.67 2.275-1.138-3.835zm-2.843-9.588l7.669-2.275 1.138 3.835-7.67 2.275-1.137-3.835z" fill="#747D5D"/><path d="M432.414 80.637h18.303l-4.307 13.728h-9.689l-4.307-13.728z" fill="#C8A255"/><path d="M432.414 94.364h18.303l-4.307 13.728h-9.689l-4.307-13.728zm0 13.728h18.303l-4.307 13.727h-9.689l-4.307-13.727z" fill="#C8A255"/><path d="M432.414 121.819h18.303l-4.307 13.727h-9.689l-4.307-13.727zm0 13.727h18.303l-4.307 13.727h-9.689l-4.307-13.727z" fill="#C8A255"/><path d="M441.73 71.505c3.646 0 6.578-5.133 6.578-22.864 0-17.73-6.578-32.064-6.578-32.064s-6.578 14.373-6.578 32.064c0 17.73 2.972 22.864 6.578 22.864z" fill="#747D5D"/><path d="M441.737 71.072c3.17 1.777 8.243-1.224 17-16.664 8.758-15.44 10.145-31.117 10.145-31.117s-12.8 9.28-21.557 24.72c-8.758 15.4-8.718 21.284-5.588 23.061z" fill="#747D5D"/><path d="M441.734 71.072c-3.17 1.777-8.242-1.224-17-16.664-8.757-15.44-10.144-31.117-10.144-31.117s12.799 9.28 21.557 24.72c8.797 15.4 8.757 21.284 5.587 23.061z" fill="#747D5D"/><path d="M440.224 73.162c1.744 3.199 7.648 3.317 23.301-5.133 15.613-8.45 25.163-21.047 25.163-21.047s-15.811 1.105-31.424 9.556c-15.613 8.45-18.744 13.465-17.04 16.624z" fill="#747D5D"/><path d="M443.249 73.162c-1.744 3.199-7.648 3.317-23.301-5.133-15.613-8.45-25.163-21.047-25.163-21.047s15.811 1.105 31.424 9.556c15.613 8.45 18.783 13.465 17.04 16.624z" fill="#747D5D"/><path d="M435.152 75.494c0 3.633 5.152 6.555 22.944 6.555 17.793 0 32.177-6.555 32.177-6.555s-14.424-6.555-32.177-6.555c-17.792.04-22.944 2.961-22.944 6.555z" fill="#747D5D"/><path d="M448.316 75.494c0 3.633-5.151 6.555-22.944 6.555-17.753 0-32.177-6.555-32.177-6.555s14.424-6.555 32.177-6.555c17.793.04 22.944 2.961 22.944 6.555z" fill="#747D5D"/><path fill-rule="evenodd" clip-rule="evenodd" d="M340.992 259.545c-.577-1.195-1.034-2.14-1.293-2.787l-3.038 1.215c.344.861.888 1.988 1.543 3.348 2.029 4.206 5.132 10.643 6.742 18.322.009.041.019.082.031.122 1.94 6.673 2.499 11.9 3.188 18.348.231 2.163.476 4.463.794 7.001 1.792 14.333 1.731 22.829 1.613 38.994-.034 4.668-.072 1.885-.072 8.157h3.272c0-6.198.038-3.376.072-8.029.057-7.792.102-13.856-.069-19.667.258-3.352 1.667-8.033 3.563-12.902a123.528 123.528 0 012.14-5.133c7.203-.173 15.889-2.089 21.166-6.311l.222-.177c2.423-1.937 4.354-3.481 5.758-5.386 1.503-2.039 2.344-4.388 2.884-7.866l-3.234-.502c-.493 3.175-1.203 4.96-2.284 6.426-1.137 1.542-2.749 2.837-5.39 4.95-4.134 3.307-11.145 5.135-17.59 5.527a128.135 128.135 0 012.487-4.969c4.632-8.749 7.453-13.363 9.237-16.166.308-.484.592-.922.852-1.326 1.2-1.856 1.929-2.984 2.422-4.462l-3.105-1.034c-.352 1.055-.813 1.772-1.985 3.592-.274.425-.586.91-.944 1.473-1.834 2.881-4.698 7.57-9.369 16.392-1.989 3.757-4.366 8.778-6.316 13.785a99.63 99.63 0 00-1.141 3.074 229.218 229.218 0 00-.942-8.846 367.932 367.932 0 01-.766-6.76c-.695-6.516-1.29-12.091-3.304-19.037-1.714-8.128-5.15-15.239-7.144-19.366z" fill="#C8A255"/><path d="M377.852 240.375c0 10.843-8.79 19.633-19.633 19.633s-19.633-8.79-19.633-19.633 8.79-19.633 19.633-19.633 19.633 8.79 19.633 19.633z" fill="#CD6125"/><path d="M353.858 237.103c0 12.65-10.255 22.906-22.906 22.906-12.65 0-22.905-10.256-22.905-22.906 0-12.65 10.255-22.905 22.905-22.905 12.651 0 22.906 10.255 22.906 22.905z" fill="#CD6125"/><path d="M329.863 240.375h30.541v19.634h-30.541v-19.634zm62.83 42.606c0 8.822-7.151 15.973-15.973 15.973-8.822 0-15.974-7.151-15.974-15.973 0-8.822 7.152-15.974 15.974-15.974s15.973 7.152 15.973 15.974z" fill="#CD6125"/><path d="M417.117 278.282c0 11.417-9.255 20.672-20.672 20.672s-20.672-9.255-20.672-20.672 9.255-20.672 20.672-20.672 20.672 9.255 20.672 20.672z" fill="#CD6125"/><path d="M375.773 282.04h20.672v16.914h-20.672V282.04z" fill="#CD6125"/><path d="M36.61 108.092h4.575v36.606H36.61v-36.606z" fill="#683911"/><path d="M63.676 83.312l2.316 2.316-24.78 24.78-2.316-2.316 24.78-24.78zm-49.699-.137l-2.288 2.288 24.916 24.917 2.288-2.288-24.916-24.917z" fill="#683911"/><path d="M64.061 63.478c0 13.268-10.755 24.023-24.023 24.023-13.267 0-24.022-10.755-24.022-24.023 0-13.267 10.755-24.022 24.022-24.022 13.268 0 24.023 10.755 24.023 24.022z" fill="#CD6125"/><path d="M80.073 85.213c0 8.845-7.17 16.015-16.015 16.015s-16.015-7.17-16.015-16.015 7.17-16.015 16.015-16.015 16.015 7.17 16.015 16.015zm-48.043 0c0 8.845-7.17 16.015-16.015 16.015S0 94.058 0 85.213s7.17-16.015 16.015-16.015 16.015 7.17 16.015 16.015zm85.502 36.606a6.864 6.864 0 11-13.728 0 6.864 6.864 0 0113.728 0zm0 18.303a6.864 6.864 0 11-13.728 0 6.864 6.864 0 0113.728 0z" fill="#CD6125"/><path d="M119.816 137.834a6.864 6.864 0 116.864-6.863 6.864 6.864 0 01-6.864 6.863zm-18.301 0a6.863 6.863 0 110-13.727 6.863 6.863 0 010 13.727z" fill="#CD6125"/><path d="M115.245 130.971a4.575 4.575 0 11-9.151 0 4.575 4.575 0 119.151 0z" fill="#FFDC96"/><path fill-rule="evenodd" clip-rule="evenodd" d="M158.569 66.91c0 15.478 12.547 28.026 28.026 28.026s28.026-12.548 28.026-28.026h3.432c0 17.374-14.084 31.458-31.458 31.458s-31.458-14.084-31.458-31.458h3.432z" fill="#C8A255"/><path fill-rule="evenodd" clip-rule="evenodd" d="M140.264 66.91c0 9.187 9.173 17.172 21.219 17.172 12.046 0 21.22-7.985 21.22-17.172h3.432c0 11.676-11.364 20.604-24.652 20.604-13.287 0-24.651-8.928-24.651-20.604h3.432zm50.332 0c0 9.187 9.173 17.172 21.219 17.172 12.046 0 21.22-7.985 21.22-17.172h3.432c0 11.676-11.364 20.604-24.652 20.604-13.287 0-24.651-8.928-24.651-20.604h3.432z" fill="#C8A255"/><path d="M154.565 46.32c0 11.371-9.219 20.59-20.591 20.59-11.372 0-20.591-9.219-20.591-20.59 0-11.373 9.219-20.592 20.591-20.592 11.372 0 20.591 9.22 20.591 20.591z" fill="#747D5D"/><path fill-rule="evenodd" clip-rule="evenodd" d="M133.974 64.622c10.108 0 18.303-8.194 18.303-18.303 0-10.108-8.195-18.303-18.303-18.303-10.109 0-18.303 8.195-18.303 18.303 0 10.109 8.194 18.303 18.303 18.303zm0 2.288c11.372 0 20.591-9.219 20.591-20.59 0-11.373-9.219-20.592-20.591-20.592-11.372 0-20.591 9.22-20.591 20.591 0 11.372 9.219 20.591 20.591 20.591z" fill="#747D5D"/><path d="M232.35 37.168c0 15.162-12.291 27.454-27.454 27.454s-27.455-12.292-27.455-27.454c0-15.163 12.292-27.455 27.455-27.455 15.163 0 27.454 12.292 27.454 27.455z" fill="#747D5D"/><path fill-rule="evenodd" clip-rule="evenodd" d="M204.896 62.334c13.899 0 25.167-11.267 25.167-25.166 0-13.9-11.268-25.167-25.167-25.167-13.899 0-25.167 11.268-25.167 25.167 0 13.899 11.268 25.166 25.167 25.166zm0 2.288c15.163 0 27.454-12.292 27.454-27.454 0-15.163-12.291-27.455-27.454-27.455s-27.455 12.292-27.455 27.455c0 15.162 12.292 27.454 27.455 27.454z" fill="#747D5D"/><path d="M257.516 45.175c0 12.004-9.731 21.735-21.734 21.735-12.004 0-21.735-9.731-21.735-21.735s9.731-21.735 21.735-21.735c12.003 0 21.734 9.731 21.734 21.735z" fill="#747D5D"/><path fill-rule="evenodd" clip-rule="evenodd" d="M235.782 64.622c10.74 0 19.447-8.706 19.447-19.447 0-10.74-8.707-19.447-19.447-19.447-10.741 0-19.447 8.707-19.447 19.447 0 10.74 8.706 19.447 19.447 19.447zm0 2.288c12.003 0 21.734-9.731 21.734-21.735s-9.731-21.735-21.734-21.735c-12.004 0-21.735 9.731-21.735 21.735s9.731 21.735 21.735 21.735z" fill="#747D5D"/><path d="M195.745 36.024c0 17.058-13.828 30.886-30.886 30.886s-30.886-13.828-30.886-30.886 13.828-30.887 30.886-30.887 30.886 13.829 30.886 30.887z" fill="#747D5D"/><path fill-rule="evenodd" clip-rule="evenodd" d="M164.859 64.622c15.794 0 28.598-12.804 28.598-28.598 0-15.795-12.804-28.599-28.598-28.599-15.795 0-28.598 12.804-28.598 28.599 0 15.794 12.803 28.598 28.598 28.598zm0 2.288c17.058 0 30.886-13.828 30.886-30.886S181.917 5.137 164.859 5.137s-30.886 13.829-30.886 30.887 13.828 30.886 30.886 30.886z" fill="#747D5D"/><path d="M133.973 41.743h102.954V66.91H133.973V41.743z" fill="#747D5D"/><path d="M184.305 96.652h4.575v41.182h-4.575V96.652z" fill="#C8A255"/><path d="M199.078 181.304h91.515v91.515h-91.515v-91.515zm-183.031 64.06h91.515v64.061H16.047v-64.061z" fill="#1B3025"/><path d="M45.79 309.425h29.74v-50.333H45.79v50.333z" fill="#C8A255"/><path d="M107.562 181.304h91.515v64.06h-91.515v-64.06z" fill="#747D5D"/><path d="M107.562 245.364h91.515v64.061h-91.515v-64.061z" fill="#C8A255"/><path d="M199.078 272.819h91.515v36.606h-91.515v-36.606z" fill="#747D5D"/><path d="M116.719 245.364v9.152h-9.152v-9.152h9.152zm0 18.303v9.152h-9.152v-9.152h9.152zm0 18.303v9.152h-9.152v-9.152h9.152zm0 18.303v9.152h-9.152v-9.152h9.152z" fill="#CD6125"/><path d="M125.867 254.516v9.151h-9.151v-9.151h9.151zm0 18.303v9.151h-9.151v-9.151h9.151zm0 18.303v9.151h-9.151v-9.151h9.151zm18.309-36.606v9.151h-9.152v-9.151h9.152zm0 18.303v9.151h-9.152v-9.151h9.152zm0 18.303v9.151h-9.152v-9.151h9.152zm18.301-36.606v9.151h-9.152v-9.151h9.152zm0 18.303v9.151h-9.152v-9.151h9.152zm0 18.303v9.151h-9.152v-9.151h9.152zm18.3-36.606v9.151h-9.151v-9.151h9.151zm0 18.303v9.151h-9.151v-9.151h9.151zm0 18.303v9.151h-9.151v-9.151h9.151zm-45.757-45.758v9.152h-9.152v-9.152h9.152zm0 18.303v9.152h-9.152v-9.152h9.152zm0 18.303v9.152h-9.152v-9.152h9.152zm0 18.303v9.152h-9.152v-9.152h9.152zm18.304-54.909v9.152h-9.151v-9.152h9.151zm0 18.303v9.152h-9.151v-9.152h9.151zm0 18.303v9.152h-9.151v-9.152h9.151zm0 18.303v9.152h-9.151v-9.152h9.151zm18.305-54.909v9.152h-9.152v-9.152h9.152zm0 18.303v9.152h-9.152v-9.152h9.152zm0 18.303v9.152h-9.152v-9.152h9.152zm0 18.303v9.152h-9.152v-9.152h9.152zm18.301-54.909v9.152h-9.152v-9.152h9.152zm0 18.303v9.152h-9.152v-9.152h9.152zm0 18.303v9.152h-9.152v-9.152h9.152zm0 18.303v9.152h-9.152v-9.152h9.152zm9.152-45.757v9.151h-9.151v-9.151h9.151zm0 18.303v9.151h-9.151v-9.151h9.151zm0 18.303v9.151h-9.151v-9.151h9.151z" fill="#CD6125"/><path d="M270.001 272.819c0 13.899-11.267 25.167-25.166 25.167-13.9 0-25.167-11.268-25.167-25.167 0-13.899 11.267-25.167 25.167-25.167 13.899 0 25.166 11.268 25.166 25.167z" fill="#FFDC96"/><path d="M237.973 229.349H251.7v36.606h-13.727v-36.606z" fill="#FFDC96"/><path d="M256.277 224.773v6.864h-22.878v-6.864h22.878z" fill="#FFDC96"/><path d="M244.835 297.985c13.899 0 25.166-11.267 25.166-25.166h-50.333c0 13.899 11.267 25.166 25.167 25.166z" fill="#CD6125"/><path d="M237.973 285.402a3.432 3.432 0 11-6.864 0 3.432 3.432 0 016.864 0zm9.152-6.863a3.43 3.43 0 11-6.862 0 3.43 3.43 0 016.862 0z" fill="#683911"/><path d="M248.95 262.751a3.66 3.66 0 01-7.321 0c0-2.022 3.66-7.091 3.66-7.091s3.661 5.069 3.661 7.091z" fill="#CD6125"/><path d="M251.7 289.978a3.433 3.433 0 11-6.865-.001 3.433 3.433 0 016.865.001zm9.152-6.864a3.432 3.432 0 11-6.864 0 3.432 3.432 0 016.864 0z" fill="#683911"/><path d="M66.379 281.97h6.864v2.288h-6.864v-2.288z" fill="#747D5D"/><path d="M73.242 281.97v6.864h-2.288v-6.864h2.288zM16.047 181.304h91.515v64.06H16.047v-64.06zm226.5 18.303h4.576v25.167h-4.576v-25.167zm-27.453 0h4.575v41.182h-4.575v-41.182z" fill="#747D5D"/><path d="M247.125 199.607v4.576h-27.454v-4.576h27.454zm-27.457 41.182v4.575h-20.591v-4.575h20.591z" fill="#747D5D"/><path d="M62.36 198.781c-1.117 3.918-.74 11.008-.55 14.553l.005.001c3.547.189 10.633.567 14.548-.55 3.917-1.117 5.035-5.034 2.234-7.835s-6.719-1.684-6.719-1.684 1.118-3.917-1.684-6.719c-2.801-2.801-6.719-1.684-7.835 2.234z" fill="#1B3025"/><path d="M61.804 213.329c-.284-5.318 5.033-10.07 7.552-7.551 2.516 2.516-2.234 7.834-7.552 7.551z" fill="#C8A255"/><path d="M61.266 227.886c1.116-3.918.738-11.008.55-14.554h-.006c-3.547-.189-10.633-.567-14.548.55-3.917 1.117-5.035 5.034-2.234 7.835s6.719 1.684 6.719 1.684-1.118 3.917 1.684 6.718c2.801 2.802 6.719 1.685 7.835-2.233z" fill="#1B3025"/><path d="M61.814 213.331c.284 5.318-5.035 10.068-7.552 7.552-2.516-2.517 2.234-7.835 7.552-7.552z" fill="#C8A255"/><path d="M76.365 213.88c-3.918-1.116-11.008-.739-14.553-.549v.005c-.19 3.547-.568 10.633.55 14.548 1.116 3.917 5.033 5.034 7.834 2.234 2.801-2.801 1.684-6.719 1.684-6.719s3.917 1.118 6.719-1.684c2.801-2.801 1.684-6.719-2.234-7.835z" fill="#1B3025"/><path d="M61.812 213.337c5.318-.284 10.07 5.033 7.551 7.551-2.518 2.519-7.835-2.233-7.551-7.551z" fill="#C8A255"/><path d="M47.26 212.787c3.918 1.116 11.008.738 14.553.549v-.005c.19-3.547.568-10.633-.55-14.548-1.116-3.917-5.033-5.035-7.834-2.234-2.801 2.801-1.684 6.718-1.684 6.718s-3.917-1.117-6.719 1.685c-2.801 2.801-1.684 6.719 2.234 7.835z" fill="#1B3025"/><path d="M61.813 213.331c-5.319.283-10.068-5.036-7.552-7.552s7.835 2.234 7.551 7.552zm45.749-32.027h2.288v64.06h-2.288v-64.06zm6.864 0h2.288v64.06h-2.288v-64.06zm6.863 0h2.288v64.06h-2.288v-64.06zm6.867 0h2.288v64.06h-2.288v-64.06zm6.86 0h2.287v64.06h-2.287v-64.06zm6.867 0h2.288v64.06h-2.288v-64.06zm6.859 0h2.288v64.06h-2.288v-64.06zm6.867 0h2.288v64.06h-2.288v-64.06zm6.864 0h2.288v64.06h-2.288v-64.06zm6.863 0h2.288v64.06h-2.288v-64.06zm6.863 0h2.288v64.06h-2.288v-64.06zm6.867 0h2.288v64.06h-2.288v-64.06zm6.86 0h2.288v64.06h-2.288v-64.06zm6.867 0h2.288v64.06h-2.288v-64.06z" fill="#C8A255"/><path d="M252.801 105.38h9.151v9.151h-9.151v-9.151zm0 18.303h9.151v9.151h-9.151v-9.151zm-9.153-9.152h9.152v9.152h-9.152v-9.152zm91.516 0h9.152v9.152h-9.152v-9.152zm-45.758-9.151h9.152v9.151h-9.152v-9.151zm0 18.303h9.152v9.151h-9.152v-9.151zm-9.148-9.152h9.151v9.152h-9.151v-9.152zm45.754-9.151h9.151v9.151h-9.151v-9.151zm0 18.303h9.151v9.151h-9.151v-9.151zm-9.153-9.152h9.152v9.152h-9.152v-9.152zm-45.754-9.151h9.152v9.151h-9.152v-9.151zm0 18.303h9.152v9.151h-9.152v-9.151zm-9.156-9.152h9.152v9.152h-9.152v-9.152zm45.762-9.151h9.151v9.151h-9.151v-9.151zm0 18.303h9.151v9.151h-9.151v-9.151zm-9.152-9.152h9.151v9.152h-9.151v-9.152z" fill="#1B3025"/><path d="M243.648 105.38h9.152v9.151h-9.152v-9.151zm0 18.303h9.152v9.151h-9.152v-9.151zm36.61-18.303h9.151v9.151h-9.151v-9.151zm0 18.303h9.151v9.151h-9.151v-9.151zm-9.153-9.152h9.152v9.152h-9.152v-9.152zm45.754-9.151h9.152v9.151h-9.152v-9.151zm0 18.303h9.152v9.151h-9.152v-9.151zm-9.148-9.152h9.151v9.152h-9.151v-9.152zm-45.762-9.151h9.152v9.151h-9.152v-9.151zm0 18.303h9.152v9.151h-9.152v-9.151zm-9.148-9.152h9.151v9.152h-9.151v-9.152zm45.758-9.151h9.151v9.151h-9.151v-9.151zm0 18.303h9.151v9.151h-9.151v-9.151zm-9.153-9.152h9.152v9.152h-9.152v-9.152zm45.758-9.151h9.152v9.151h-9.152v-9.151zm0 18.303h9.152v9.151h-9.152v-9.151zm-9.152-9.152h9.151v9.152h-9.151v-9.152z" fill="#747D5D"/><path d="M273.398 91.652h32.031l-5.72 13.728h-20.591l-5.72-13.728z" fill="#CD6125"/><path d="M287.125 84.789h4.576v9.151h-4.576v-9.15z" fill="#CD6125"/><path d="M291.701 84.789a2.288 2.288 0 11-4.577-.001 2.288 2.288 0 014.577 0z" fill="#CD6125"/><path d="M380.926 105.38h6.863v20.591h-6.863V105.38z" fill="#313131"/><path d="M380.926 125.97h6.863v59.485h-6.863V125.97z" fill="#1B3025"/><path d="M380.926 125.97h6.863v4.576h-6.863v-4.576z" fill="#FFDC96"/><path d="M360.332 105.38h6.864v20.591h-6.864V105.38z" fill="#313131"/><path d="M360.332 125.97h6.864v59.485h-6.864V125.97z" fill="#C8A255"/><path d="M360.332 125.97h6.864v4.576h-6.864v-4.576z" fill="#FFDC96"/><path d="M503.266 409.06h18.303l-4.307 13.728h-9.69l-4.306-13.728zm0 13.728h18.303l-4.307 13.727h-9.69l-4.306-13.727zm0 13.727h18.303l-4.307 13.727h-9.69l-4.306-13.727zm0 13.727h18.303l-4.307 13.728h-9.69l-4.306-13.728z" fill="#C8A255"/><path d="M503.266 463.969h18.303l-4.307 13.728h-9.69l-4.306-13.728z" fill="#C8A255"/><path d="M512.582 399.928c3.646 0 6.578-5.133 6.578-22.863 0-17.731-6.578-32.065-6.578-32.065s-6.578 14.374-6.578 32.065c0 17.73 2.972 22.863 6.578 22.863z" fill="#747D5D"/><path d="M512.589 399.495c3.17 1.777 8.242-1.224 17-16.664 8.757-15.44 10.144-31.117 10.144-31.117s-12.799 9.28-21.557 24.72c-8.757 15.401-8.718 21.284-5.587 23.061z" fill="#747D5D"/><path d="M512.586 399.495c-3.17 1.777-8.243-1.224-17-16.664-8.758-15.44-10.145-31.117-10.145-31.117s12.8 9.28 21.557 24.72c8.798 15.401 8.758 21.284 5.588 23.061z" fill="#747D5D"/><path d="M511.076 401.586c1.743 3.198 7.648 3.317 23.3-5.134 15.613-8.45 25.163-21.047 25.163-21.047s-15.811 1.105-31.424 9.556c-15.613 8.451-18.743 13.466-17.039 16.625z" fill="#747D5D"/><path d="M514.1 401.586c-1.743 3.198-7.648 3.317-23.3-5.134-15.613-8.45-25.163-21.047-25.163-21.047s15.811 1.105 31.424 9.556c15.613 8.451 18.783 13.466 17.039 16.625z" fill="#747D5D"/><path d="M506.004 403.917c0 3.633 5.151 6.555 22.944 6.555 17.792 0 32.177-6.555 32.177-6.555s-14.424-6.555-32.177-6.555c-17.793.039-22.944 2.962-22.944 6.555z" fill="#747D5D"/><path d="M519.168 403.917c0 3.633-5.152 6.555-22.944 6.555-17.753 0-32.177-6.555-32.177-6.555s14.424-6.555 32.177-6.555c17.792.039 22.944 2.962 22.944 6.555z" fill="#747D5D"/><path d="M555.986 291.037c0 9.477-7.682 17.159-17.159 17.159-9.477 0-17.159-7.682-17.159-17.159 0-9.476 7.682-17.159 17.159-17.159 9.477 0 17.159 7.683 17.159 17.159z" fill="#683911"/><path d="M664.365 131.727c0 7.581-6.146 13.727-13.728 13.727-7.581 0-13.727-6.146-13.727-13.727S643.056 118 650.637 118c7.582 0 13.728 6.146 13.728 13.727zm27.454 22.879a9.152 9.152 0 11-18.304-.002 9.152 9.152 0 0118.304.002z" fill="#C8A255"/><path d="M604.036 58c-1.785 7.436-7.687 13.247-15.169 14.894 7.482 1.624 13.384 7.459 15.169 14.871 1.784-7.458 7.733-13.292 15.26-14.894-7.527-1.624-13.476-7.412-15.26-14.871zm76.351 17.636h4.575v36.606h-4.575V75.636z" fill="#1B3025"/><path d="M707.453 50.856l2.317 2.317-24.781 24.78-2.316-2.317 24.78-24.78zm-49.699-.136l-2.288 2.288 24.916 24.916 2.288-2.288-24.916-24.916z" fill="#1B3025"/><path d="M707.838 31.023c0 13.267-10.755 24.022-24.022 24.022-13.268 0-24.023-10.755-24.023-24.022C659.793 17.755 670.548 7 683.816 7c13.267 0 24.022 10.755 24.022 24.023z" fill="#CD6125"/><path d="M723.851 52.758c0 8.844-7.171 16.015-16.016 16.015-8.844 0-16.015-7.17-16.015-16.015s7.171-16.016 16.015-16.016c8.845 0 16.016 7.17 16.016 16.016zm-48.043 0c0 8.844-7.171 16.015-16.016 16.015-8.844 0-16.015-7.17-16.015-16.015s7.171-16.016 16.015-16.016c8.845 0 16.016 7.17 16.016 16.016z" fill="#CD6125"/><path d="M581.656 220.636h4.576v36.606h-4.576v-36.606z" fill="#1B3025"/><path d="M608.723 195.856l2.316 2.317-24.78 24.78-2.316-2.317 24.78-24.78zm-49.7-.136l-2.287 2.288 24.916 24.916 2.288-2.288-24.917-24.916z" fill="#1B3025"/><path d="M609.108 176.023c0 13.267-10.755 24.022-24.023 24.022-13.267 0-24.023-10.755-24.023-24.022 0-13.268 10.756-24.023 24.023-24.023 13.268 0 24.023 10.755 24.023 24.023z" fill="#C8A255"/><path d="M625.12 197.758c0 8.844-7.17 16.015-16.015 16.015s-16.015-7.171-16.015-16.015c0-8.845 7.17-16.016 16.015-16.016s16.015 7.171 16.015 16.016zm-48.043 0c0 8.844-7.17 16.015-16.015 16.015s-16.015-7.171-16.015-16.015c0-8.845 7.17-16.016 16.015-16.016s16.015 7.171 16.015 16.016z" fill="#C8A255"/><path fill-rule="evenodd" clip-rule="evenodd" d="M841.865 50.996c-.584-1.155-1.045-2.066-1.305-2.687l-3.073 1.287c.354.845.91 1.946 1.58 3.274 1.803 3.57 4.429 8.773 6.153 14.992-3.872-1.224-10.097-3.468-13.685-5.503-3.002-1.703-6.025-4.107-8.412-6.655-2.426-2.59-4.021-5.14-4.451-7.107l-3.254.711c.622 2.846 2.706 5.933 5.274 8.674 2.607 2.782 5.893 5.4 9.199 7.274 4.57 2.593 12.775 5.376 16.313 6.382 1.76 6.058 2.306 10.941 2.975 16.916.235 2.103.485 4.34.809 6.813.797 6.088 1.288 12.128 1.589 18.513l-.018.229.029.002c.146 3.146.246 6.376.314 9.737-1.594-3.811-3.458-7.791-5.161-10.501-5.663-9.016-10.491-12.751-16.497-17.397-.874-.677-1.774-1.373-2.705-2.107l-2.063 2.615c.955.754 1.868 1.46 2.747 2.141 5.955 4.611 10.359 8.02 15.698 16.519 2.981 4.747 6.647 14.009 8.1 18.436.029 4.966.022 10.257.015 15.992-.003 2.714-.007 5.528-.007 8.454h3.331c0-2.93.004-5.751.007-8.476.018-13.791.033-25.114-.452-35.563.322-3.21 1.719-7.609 3.588-12.194a115.95 115.95 0 012.166-4.963c7.318-.165 16.153-2.023 21.522-6.126l.229-.176c2.461-1.879 4.428-3.382 5.86-5.238 1.541-1.995 2.402-4.298 2.954-7.694l-3.287-.534c-.499 3.069-1.215 4.783-2.303 6.193-1.152 1.492-2.787 2.748-5.476 4.802-4.197 3.208-11.312 4.986-17.864 5.373a121.088 121.088 0 012.459-4.685c4.71-8.5 7.578-12.98 9.392-15.702.311-.468.599-.892.864-1.284 1.22-1.803 1.971-2.913 2.477-4.364l-3.145-1.097c-.353 1.01-.813 1.694-2.005 3.462-.278.413-.597.886-.963 1.436-1.867 2.801-4.782 7.36-9.534 15.934-2.025 3.653-4.445 8.536-6.431 13.406a95.502 95.502 0 00-1.188 3.062c-.254-2.894-.563-5.76-.94-8.638-.305-2.333-.546-4.493-.777-6.558-.707-6.333-1.314-11.765-3.365-18.525-1.748-7.915-5.257-14.85-7.283-18.855z" fill="#CD6125"/><path d="M828.446 34.62c0 9.151-7.767 16.57-17.348 16.57s-17.348-7.419-17.348-16.57c0-9.153 7.767-16.572 17.348-16.572s17.348 7.42 17.348 16.571zm53.966-2.76c0 10.676-9.061 19.332-20.239 19.332s-20.239-8.656-20.239-19.333c0-10.677 9.061-19.333 20.239-19.333s20.239 8.656 20.239 19.333z" fill="#747D5D"/><path d="M857.359 29.095c0 12.202-10.356 22.095-23.131 22.095-12.774 0-23.13-9.893-23.13-22.095C811.098 16.892 821.454 7 834.228 7c12.775 0 23.131 9.892 23.131 22.095z" fill="#747D5D"/><path d="M811.098 32.777h52.043v18.412h-52.043V32.777zm83.376 41.061c0 8.572-7.275 15.52-16.249 15.52-8.974 0-16.248-6.948-16.248-15.52s7.274-15.521 16.248-15.521 16.249 6.949 16.249 15.52z" fill="#747D5D"/><path d="M919.321 69.271c0 11.094-9.414 20.086-21.028 20.086-11.613 0-21.027-8.992-21.027-20.086 0-11.093 9.414-20.086 21.027-20.086 11.614 0 21.028 8.993 21.028 20.086z" fill="#747D5D"/><path d="M877.266 72.927h21.027V89.36h-21.027V72.927zm-68.814 15.741c0 8.143 6.911 14.745 15.436 14.745s15.436-6.602 15.436-14.745c0-8.144-6.911-14.745-15.436-14.745s-15.436 6.601-15.436 14.745z" fill="#747D5D"/><path d="M783.028 84.329c0 10.538 8.944 19.082 19.976 19.082 11.033 0 19.976-8.544 19.976-19.082 0-10.539-8.943-19.082-19.976-19.082-11.032 0-19.976 8.543-19.976 19.082z" fill="#747D5D"/><path d="M822.98 87.803h-19.976v15.612h19.976V87.803z" fill="#747D5D"/><path d="M841.65 197.272a6.864 6.864 0 1124.248 0l-12.124 13.895-12.124-13.895z" fill="#C8A255"/><path d="M604.879 286.878h64.06v82.364h-64.06v-82.364zm91.519-45.757h208.197v128.121H696.398V241.121z" fill="#1B3025"/><path d="M719.273 286.878H819.94v82.364H719.273v-82.364z" fill="#FFDC96"/><path d="M668.941 177.06h27.455v192.182h-27.455V177.06z" fill="#747D5D"/><path d="M749.016 177.06h13.727v68.637h-13.727V177.06zm27.457 0H790.2v68.637h-13.727V177.06zm49.422 121.258v2.532H716.989v-2.532h108.906zm-1.375 4.575v2.288H716.989v-2.288H824.52zm0 4.576v2.288H716.989v-2.288H824.52zm0 6.864v-2.288H716.989v2.288H824.52zm-52.622 41.181h36.606v13.728h-36.606v-13.728z" fill="#1B3025"/><path d="M719.273 254.848h18.303v18.303h-18.303v-18.303zm27.457 0h18.303v18.303H746.73v-18.303zm27.454 0h18.303v18.303h-18.303v-18.303zm27.453 0h18.303v18.303h-18.303v-18.303z" fill="#683911"/><path d="M838.242 257.136h4.576v38.894h-4.576v-38.894zm0 57.197h4.576v38.894h-4.576v-38.894zm9.153-57.197h4.575v38.894h-4.575v-38.894zm0 57.197h4.575v38.894h-4.575v-38.894zm9.152-57.197h4.576v38.894h-4.576v-38.894zm0 57.197h4.576v38.894h-4.576v-38.894zm9.148-57.197h4.576v38.894h-4.576v-38.894zm0 57.197h4.576v38.894h-4.576v-38.894zm9.157-57.197h4.575v38.894h-4.575v-38.894zm0 57.197h4.575v38.894h-4.575v-38.894zm9.152-57.197h4.576v38.894h-4.576v-38.894zm0 57.197h4.576v38.894h-4.576v-38.894z" fill="#CD6125"/><path d="M749.016 167.909h13.727v9.151h-13.727v-9.151zm27.457 0H790.2v9.151h-13.727v-9.151z" fill="#FFDC96"/><path d="M749.016 140.454h13.727v27.455h-13.727v-27.455zm27.457 0H790.2v27.455h-13.727v-27.455z" fill="#313131"/><path d="M668.941 177.06h9.152v9.152h-9.152v-9.152zm0 18.303h9.152v9.152h-9.152v-9.152zm0 18.303h9.152v9.152h-9.152v-9.152zm0 18.303h9.152v9.152h-9.152v-9.152zm0 18.303h9.152v9.152h-9.152v-9.152zm0 18.303h9.152v9.152h-9.152v-9.152zm0 36.606h9.152v9.152h-9.152v-9.152zm0 36.606h9.152v9.152h-9.152v-9.152zm0-54.909h9.152v9.152h-9.152v-9.152zm0 36.606h9.152v9.152h-9.152v-9.152zm0 36.606h9.152v9.152h-9.152v-9.152zm18.305-183.03h9.152v9.152h-9.152v-9.152zm0 18.303h9.152v9.152h-9.152v-9.152zm0 18.303h9.152v9.152h-9.152v-9.152zm0 18.303h9.152v9.152h-9.152v-9.152zm0 18.303h9.152v9.152h-9.152v-9.152zm0 18.303h9.152v9.152h-9.152v-9.152zm0 36.606h9.152v9.152h-9.152v-9.152zm0 36.606h9.152v9.152h-9.152v-9.152zm0-54.909h9.152v9.152h-9.152v-9.152zm0 36.606h9.152v9.152h-9.152v-9.152zm0 36.606h9.152v9.152h-9.152v-9.152zm-9.152-173.878h9.151v9.151h-9.151v-9.151zm0 18.303h9.151v9.151h-9.151v-9.151zm0 18.303h9.151v9.151h-9.151v-9.151zm0 18.303h9.151v9.151h-9.151v-9.151zm0 18.303h9.151v9.151h-9.151v-9.151zm0 36.606h9.151v9.151h-9.151v-9.151zm0 36.606h9.151v9.151h-9.151v-9.151zm0-54.909h9.151v9.151h-9.151v-9.151zm0 36.606h9.151v9.151h-9.151v-9.151zm0 36.606h9.151v9.151h-9.151v-9.151z" fill="#CD6125"/><path d="M623.184 325.772h27.454v43.47h-27.454v-43.47z" fill="#747D5D"/><path d="M744.441 350.939h2.288v11.439h-2.288v-11.439z" fill="#CD6125"/><path d="M739.867 362.378h11.44v6.864h-11.44v-6.864z" fill="#747D5D"/><path d="M776.309 333.057l.022-.017-8.469-4.048-.642-.171-5.619 7.363 23.958 10.164c-.005-.768.009-1.155.019-2.31-.976-4.541-4.88-8.883-9.269-10.981z" fill="#1B3025"/><path d="M785.572 344.066c-.815-4.334-4.699-8.992-9.003-11.049l.021-.017-9.215-4.94-1.164 2.323-1.184 4.635 20.545 9.048z" fill="#CD6125"/><path d="M763.307 336.036c1.289-.829 2.17-1.908 2.867-3.401.638-1.367 1.298-3.161 1.144-4.575-5.72-2.288-11.893 1.203-14.568 6.278-8.04.045-15.842 3.666-20.926 9.784l4.934 7.604c7.593 1.438 17.373 1.583 21.408-7.651.651-1.486.804-3.037 1.144-4.576.044-.467 1.989-1.095 2.202-1.551a4.274 4.274 0 011.342-1.628l.005-.011c.142-.085.289-.182.448-.273z" fill="#683911"/><path d="M753.54 349.83c-2.321-3.649-1.828-8.476.105-12.576 1.356-2.876 3.448-5.75 5.728-6.915s5.693-1.198 6.816-.066c-.012 1.133-.66 3.493-1.174 4.584-1.145 1.154-2.276 1.166-3.431 3.463-1.154 2.298-1.163 3.441-2.317 5.739-1.154 2.297-3.447 4.606-5.727 5.771z" fill="#747D5D"/><path d="M759.317 330.382l5.673 4.541s.643-1.282 1.161-2.308c1.165-2.31.029-3.449.029-3.449-1.127-1.137-4.211-.375-6.863 1.216z" fill="#fff"/><path d="M763.466 332.154a.794.794 0 001.059-.389.807.807 0 00-.372-1.074.794.794 0 00-1.059.389.808.808 0 00.372 1.074z" fill="#313131"/><path d="M731.857 344.075l-12.584 25.167h16.016l2.287-17.617-5.719-7.55z" fill="#683911"/><path d="M650.638 325.772c0 7.581-6.146 13.727-13.727 13.727-7.582 0-13.727-6.146-13.727-13.727s6.145-13.727 13.727-13.727c7.581 0 13.727 6.146 13.727 13.727z" fill="#747D5D"/><path d="M760.465 355.514v-6.863h20.591v6.863h-20.591z" fill="#313131"/><path d="M781.055 355.514v-6.863h38.894v6.863h-38.894z" fill="#683911"/><path d="M781.055 355.514v-6.863h4.575v6.863h-4.575z" fill="#747D5D"/><path d="M578.934 480.097c-1.167 4.096-.772 11.507-.575 15.212l.006.001c3.707.197 11.114.592 15.207-.575 4.094-1.168 5.262-5.262 2.334-8.19-2.927-2.927-7.022-1.76-7.022-1.76s1.168-4.094-1.761-7.023c-2.928-2.928-7.023-1.761-8.189 2.335z" fill="#1B3025"/><path d="M578.357 495.306c-.296-5.559 5.261-10.526 7.894-7.893 2.63 2.63-2.335 8.189-7.894 7.893z" fill="#C8A255"/><path d="M577.781 510.519c1.167-4.096.772-11.507.575-15.212l-.006-.001c-3.707-.198-11.115-.593-15.207.575-4.094 1.168-5.262 5.262-2.334 8.19 2.927 2.927 7.022 1.76 7.022 1.76s-1.168 4.094 1.76 7.022c2.929 2.929 7.024 1.761 8.19-2.334z" fill="#1B3025"/><path d="M578.358 495.305c.297 5.559-5.263 10.523-7.893 7.893s2.335-8.189 7.893-7.893z" fill="#C8A255"/><path d="M593.565 495.88c-4.095-1.166-11.506-.772-15.212-.574v.006c-.198 3.707-.593 11.114.574 15.206 1.168 4.095 5.263 5.263 8.19 2.335 2.928-2.928 1.761-7.022 1.761-7.022s4.094 1.168 7.022-1.761c2.928-2.928 1.761-7.023-2.335-8.19z" fill="#1B3025"/><path d="M578.352 495.309c5.559-.297 10.526 5.261 7.894 7.893-2.633 2.633-8.19-2.334-7.894-7.893z" fill="#C8A255"/><path d="M563.149 494.736c4.096 1.166 11.507.771 15.213.574v-.006c.198-3.707.593-11.114-.575-15.206-1.168-4.095-5.262-5.263-8.189-2.335-2.928 2.928-1.761 7.022-1.761 7.022s-4.094-1.168-7.022 1.761c-2.929 2.928-1.761 7.023 2.334 8.19z" fill="#1B3025"/><path d="M578.37 495.307c-5.559.297-10.524-5.263-7.894-7.893 2.63-2.63 8.19 2.335 7.894 7.893z" fill="#C8A255"/><path d="M594.458 382.554c-1.785 7.435-7.688 13.247-15.169 14.894 7.481 1.624 13.384 7.458 15.169 14.871 1.784-7.459 7.733-13.293 15.26-14.894-7.527-1.624-13.476-7.413-15.26-14.871z" fill="#1B3025"/><path d="M884.711 411.439c0 6.318-5.122 11.44-11.44 11.44-6.317 0-11.439-5.122-11.439-11.44 0-6.317 5.122-11.439 11.439-11.439 6.318 0 11.44 5.122 11.44 11.439z" fill="#747D5D"/><path d="M763.178 448.463c0 5.471-4.435 9.905-9.905 9.905-5.471 0-9.906-4.434-9.906-9.905 0-5.471 4.435-9.906 9.906-9.906 5.47 0 9.905 4.435 9.905 9.906zm64.383-1.237c0 6.154-4.989 11.143-11.144 11.143-6.154 0-11.144-4.989-11.144-11.143 0-6.155 4.99-11.144 11.144-11.144 6.155 0 11.144 4.989 11.144 11.144z" fill="#C8A255"/><path d="M767.737 414.568h4.576l-7.899 16.562 7.429 11.392h28.478v8.419h-29.717l-12.381-19.811 9.514-16.562z" fill="#1B3025"/><path d="M820.138 428.652l4.953 5.778-24.763 16.509-7.43-7.643v-14.644h27.24z" fill="#1B3025"/><path d="M792.898 423.698h27.24v4.952h-27.24v-4.952z" fill="#CD6125"/><path d="M774.605 414.569a4.576 4.576 0 11-9.153 0 4.576 4.576 0 019.153 0z" fill="#1B3025"/><path d="M650.284 470.766c0 5.471-4.435 9.905-9.906 9.905a9.904 9.904 0 01-9.905-9.905c0-5.471 4.434-9.906 9.905-9.906 5.471 0 9.906 4.435 9.906 9.906zm64.382-1.237c0 6.154-4.989 11.143-11.143 11.143-6.155 0-11.144-4.989-11.144-11.143 0-6.155 4.989-11.144 11.144-11.144 6.154 0 11.143 4.989 11.143 11.144z" fill="#C8A255"/><path d="M654.843 436.871h4.575l-7.899 16.562 7.429 11.392h28.478v8.419H657.71l-12.382-19.811 9.515-16.562z" fill="#CD6125"/><path d="M707.244 450.955l4.953 5.778-24.764 16.509-7.429-7.643v-14.644h27.24z" fill="#CD6125"/><path d="M680.004 446.001h27.24v4.952h-27.24v-4.952z" fill="#747D5D"/><path d="M661.71 436.872a4.576 4.576 0 11-9.153 0 4.576 4.576 0 019.153 0z" fill="#CD6125"/><path d="M775.969 650.569h84.651v82.363h-84.651v-82.363z" fill="#747D5D"/><path d="M691.316 776.402h18.303v123.545h-18.303V776.402zm0-43.47h169.303v43.47H691.316v-43.47z" fill="#1B3025"/><path d="M691.316 707.766h84.652v2.287h-84.652v-2.287zm27.454 2.288h2.287v22.878h-2.287v-22.878zm-27.454 0h2.288v22.878h-2.288v-22.878zm18.301 0h2.288v22.878h-2.288v-22.878zm-9.152 0h2.288v22.878h-2.288v-22.878zm36.605 0h2.288v22.878h-2.288v-22.878zm-9.152 0h2.288v22.878h-2.288v-22.878zm18.309 0h2.287v22.878h-2.287v-22.878zm9.148 0h2.288v22.878h-2.288v-22.878zm9.152 0h2.288v22.878h-2.288v-22.878zm9.149 0h2.288v22.878h-2.288v-22.878z" fill="#CD6125"/><path d="M771.391 810.72h148.711v89.227H771.391V810.72z" fill="#1B3025"/><path d="M821.723 666.584h29.742v29.742h-29.742v-29.742z" fill="#FFDC96"/><path d="M785.117 682.599h27.455v50.333h-27.455v-50.333z" fill="#C8A255"/><path d="M787.402 835.887h54.909v43.469h-54.909v-43.469zm61.778 0h54.909v43.469H849.18v-43.469z" fill="#747D5D"/><path d="M787.402 872.493h54.909v9.151h-54.909v-9.151zm61.778 0h54.909v9.151H849.18v-9.151z" fill="#C8A255"/><path d="M881.012 752.721a3.036 3.036 0 013.036-3.036h24.29a3.036 3.036 0 110 6.073h-24.29a3.037 3.037 0 01-3.036-3.037z" fill="#683911"/><path d="M881.012 760.308c0-3.036 1.38-4.554 2.76-4.554h24.842c1.38 0 2.76 1.839 2.76 4.554 0 3.036-5.52 16.7-5.52 16.7h-19.322s-5.52-13.664-5.52-16.7z" fill="#1B3025"/><path d="M896.655 721.398c-.951 3.342-.629 9.389-.468 12.413h.004c3.026.161 9.07.484 12.409-.469 3.341-.953 4.294-4.294 1.905-6.683-2.389-2.389-5.73-1.436-5.73-1.436s.953-3.341-1.437-5.73c-2.389-2.39-5.731-1.437-6.683 1.905z" fill="#CD6125"/><path d="M896.188 733.811c-.243-4.536 4.292-8.589 6.44-6.441 2.146 2.146-1.905 6.683-6.44 6.441z" fill="#FFDC96"/><path d="M895.72 746.224c.951-3.342.629-9.39.468-12.413l-.004-.001c-3.026-.161-9.07-.483-12.409.469-3.341.953-4.294 4.294-1.905 6.683 2.389 2.389 5.73 1.436 5.73 1.436s-.953 3.341 1.437 5.731c2.389 2.389 5.731 1.437 6.683-1.905z" fill="#CD6125"/><path d="M896.188 733.81c.242 4.536-4.295 8.587-6.441 6.441s1.906-6.683 6.441-6.441z" fill="#FFDC96"/><path d="M908.604 734.278c-3.342-.952-9.389-.63-12.413-.468v.004c-.161 3.025-.484 9.07.469 12.409.953 3.341 4.294 4.294 6.683 1.905 2.389-2.389 1.436-5.731 1.436-5.731s3.341.954 5.73-1.436c2.39-2.389 1.437-5.731-1.905-6.683z" fill="#CD6125"/><path d="M896.189 733.81c4.536-.242 8.588 4.293 6.441 6.44-2.148 2.148-6.683-1.905-6.441-6.44z" fill="#FFDC96"/><path d="M883.778 733.343c3.342.952 9.39.63 12.413.468l.001-.004c.161-3.025.483-9.069-.469-12.409-.953-3.34-4.294-4.294-6.683-1.905-2.389 2.389-1.436 5.731-1.436 5.731s-3.341-.953-5.731 1.436c-2.389 2.389-1.437 5.731 1.905 6.683z" fill="#CD6125"/><path d="M896.194 733.811c-4.536.242-8.587-4.295-6.441-6.441s6.682 1.906 6.441 6.441z" fill="#FFDC96"/><path d="M695.391 669.707h4.037v38.354h-4.037v-38.354z" fill="#C8A255"/><path fill-rule="evenodd" clip-rule="evenodd" d="M669.204 654.672c0 8.706 8 16.058 18.254 16.058 10.254 0 18.254-7.352 18.254-16.058h3.028c0 10.703-9.701 19.086-21.282 19.086s-21.282-8.383-21.282-19.086h3.028z" fill="#C8A255"/><path fill-rule="evenodd" clip-rule="evenodd" d="M690.887 654.807c0 8.706 8 16.058 18.254 16.058 10.254 0 18.254-7.352 18.254-16.058h3.028c0 10.703-9.701 19.086-21.282 19.086s-21.282-8.383-21.282-19.086h3.028z" fill="#C8A255"/><path d="M686.833 631.279c0 12.92-10.474 23.393-23.393 23.393-12.92 0-23.393-10.473-23.393-23.393 0-12.919 10.473-23.393 23.393-23.393 12.919 0 23.393 10.474 23.393 23.393zm65.929 0c0 12.92-10.473 23.393-23.393 23.393-12.919 0-23.392-10.473-23.392-23.393 0-12.919 10.473-23.393 23.392-23.393 12.92 0 23.393 10.474 23.393 23.393z" fill="#CD6125"/><path d="M727.235 623.836c0 17.03-13.806 30.836-30.836 30.836-17.031 0-30.837-13.806-30.837-30.836S679.368 593 696.399 593c17.03 0 30.836 13.806 30.836 30.836z" fill="#CD6125"/><path d="M661.312 624.899h70.179v29.773h-70.179v-29.773z" fill="#CD6125"/><path d="M835.453 613.963h4.576v36.606h-4.576v-36.606z" fill="#1B3025"/><path d="M862.52 589.183l2.316 2.316-24.78 24.78-2.317-2.316 24.781-24.78zm-49.7-.136l-2.288 2.287 24.917 24.917 2.288-2.288-24.917-24.916z" fill="#1B3025"/><path d="M862.905 569.349c0 13.268-10.756 24.023-24.023 24.023s-24.023-10.755-24.023-24.023c0-13.267 10.756-24.022 24.023-24.022s24.023 10.755 24.023 24.022z" fill="#747D5D"/><path d="M878.917 591.084c0 8.845-7.17 16.015-16.015 16.015s-16.015-7.17-16.015-16.015 7.17-16.015 16.015-16.015 16.015 7.17 16.015 16.015zm-48.043 0c0 8.845-7.17 16.015-16.015 16.015s-16.015-7.17-16.015-16.015 7.17-16.015 16.015-16.015 16.015 7.17 16.015 16.015z" fill="#747D5D"/><path d="M743.934 844.614h6.863v20.591h-6.863v-20.591z" fill="#313131"/><path d="M743.934 865.205h6.863v59.485h-6.863v-59.485z" fill="#C8A255"/><path d="M743.934 865.205h6.863v4.576h-6.863v-4.576z" fill="#FFDC96"/><path d="M738.395 845.09l6.629 1.776-5.329 19.89-6.63-1.777 5.33-19.889z" fill="#313131"/><path d="M733.066 864.979l6.63 1.777-15.396 57.457-6.629-1.776 15.395-57.458z" fill="#747D5D"/><path d="M733.066 864.979l6.63 1.777-1.184 4.419-6.63-1.776 1.184-4.42z" fill="#FFDC96"/><path d="M700.464 813.008a4.576 4.576 0 11-9.153 0 4.576 4.576 0 019.153 0zm73.211 0a4.576 4.576 0 11-9.153 0 4.576 4.576 0 019.153 0zm73.211 0a4.576 4.576 0 11-9.153 0 4.576 4.576 0 019.153 0zm-109.813 0a4.575 4.575 0 11-9.15.001 4.575 4.575 0 019.15-.001zm73.211 0a4.575 4.575 0 11-9.15.001 4.575 4.575 0 019.15-.001zm73.211 0a4.576 4.576 0 11-9.151 0 4.576 4.576 0 019.151 0zm-164.726 0a4.576 4.576 0 11-9.153 0 4.576 4.576 0 019.153 0zm73.211 0a4.576 4.576 0 11-9.153 0 4.576 4.576 0 019.153 0zm73.214 0a4.575 4.575 0 11-9.15.001 4.575 4.575 0 019.15-.001zm-109.82 0a4.576 4.576 0 11-9.151 0 4.576 4.576 0 019.151 0zm73.211 0a4.576 4.576 0 11-9.153 0 4.576 4.576 0 019.153 0zm73.211 0a4.576 4.576 0 11-9.153 0 4.576 4.576 0 019.153 0zm18.305 0a4.576 4.576 0 11-9.153 0 4.576 4.576 0 019.153 0z" fill="#C8A255"/><path d="M709.616 813.008a4.575 4.575 0 11-9.15.001 4.575 4.575 0 019.15-.001zm73.211 0a4.575 4.575 0 11-9.15.001 4.575 4.575 0 019.15-.001zm73.215 0a4.576 4.576 0 11-9.153 0 4.576 4.576 0 019.153 0zm-109.82 0a4.576 4.576 0 11-9.153 0 4.576 4.576 0 019.153 0zm73.211 0a4.576 4.576 0 11-9.153 0 4.576 4.576 0 019.153 0zm73.211 0a4.576 4.576 0 11-9.153 0 4.576 4.576 0 019.153 0zm-164.723 0a4.576 4.576 0 11-9.153 0 4.576 4.576 0 019.153 0zm73.211 0a4.576 4.576 0 11-9.153 0 4.576 4.576 0 019.153 0zm73.211 0a4.576 4.576 0 11-9.153 0 4.576 4.576 0 019.153 0zm-109.817 0a4.575 4.575 0 11-9.15.001 4.575 4.575 0 019.15-.001zm73.211 0a4.575 4.575 0 11-9.15.001 4.575 4.575 0 019.15-.001zm73.211 0a4.575 4.575 0 11-9.15.001 4.575 4.575 0 019.15-.001z" fill="#CD6125"/><path d="M691.312 776.402h9.152v36.606h-9.152v-36.606zm36.61 0h9.151v36.606h-9.151v-36.606zm36.601 0h9.152v36.606h-9.152v-36.606zm36.61 0h9.151v36.606h-9.151v-36.606zm36.601 0h9.152v36.606h-9.152v-36.606zm36.61 0h9.151v36.606h-9.151v-36.606zm-164.727 0h9.152v36.606h-9.152v-36.606zm36.606 0h9.151v36.606h-9.151v-36.606zm36.605 0h9.152v36.606h-9.152v-36.606zm36.606 0h9.151v36.606h-9.151v-36.606zm36.609 0h9.151v36.606h-9.151v-36.606zm36.602 0h9.151v36.606h-9.151v-36.606zm18.304 0h9.152v36.606h-9.152v-36.606z" fill="#C8A255"/><path d="M700.465 776.402h9.151v36.606h-9.151v-36.606zm36.605 0h9.152v36.606h-9.152v-36.606zm36.606 0h9.151v36.606h-9.151v-36.606zm36.605 0h9.152v36.606h-9.152v-36.606zm36.61 0h9.151v36.606h-9.151v-36.606zm36.601 0h9.152v36.606h-9.152v-36.606zm-164.722 0h9.151v36.606h-9.151v-36.606zm36.605 0h9.151v36.606h-9.151v-36.606zm36.605 0h9.152v36.606h-9.152v-36.606zm36.606 0h9.151v36.606h-9.151v-36.606zm36.605 0h9.152v36.606h-9.152v-36.606zm36.606 0h9.151v36.606h-9.151v-36.606z" fill="#CD6125"/><path d="M835.449 666.584h2.288v29.742h-2.288v-29.742z" fill="#747D5D"/><path d="M851.465 680.311v2.288h-29.743v-2.288h29.743z" fill="#747D5D"/><path d="M673.008 838.932v-16.015h-91.515v16.015h91.515z" fill="#683911"/><path d="M597.512 854.947v-20.591h-6.864v20.591h6.864zm64.062 0v-20.591h-6.863v20.591h6.863z" fill="#683911"/><path d="M586.423 774.824c0 7.554-5.2 13.679-11.614 13.679-6.414 0-11.614-6.125-11.614-13.679 0-7.555 5.2-13.679 11.614-13.679 6.414 0 11.614 6.124 11.614 13.679z" fill="#1B3025"/><path fill-rule="evenodd" clip-rule="evenodd" d="M596.37 764.576v59.217l-20.44-35.771 1.986-1.135 16.166 28.291v-50.602h2.288z" fill="#747D5D"/><path d="M613.523 774.872h6.864v20.59h-6.864v-20.59z" fill="#313131"/><path d="M613.523 795.462h6.864v59.485h-6.864v-59.485z" fill="#747D5D"/><path d="M613.523 795.462h6.864v4.576h-6.864v-4.576z" fill="#FFDC96"/><path d="M631.828 774.872h6.864v20.59h-6.864v-20.59z" fill="#313131"/><path d="M631.828 795.462h6.864v59.485h-6.864v-59.485z" fill="#C8A255"/><path d="M631.828 795.462h6.864v4.576h-6.864v-4.576z" fill="#FFDC96"/><path d="M607.009 751.945c0 7.554-5.2 13.679-11.614 13.679-6.414 0-11.614-6.125-11.614-13.679 0-7.555 5.2-13.679 11.614-13.679 6.414 0 11.614 6.124 11.614 13.679z" fill="#1B3025"/><path d="M597.648 690.21c0 9.324 7.558 16.882 16.881 16.882s16.881-7.558 16.881-16.882c0-9.323-7.558-16.881-16.881-16.881s-16.881 7.558-16.881 16.881z" fill="#747D5D"/><path fill-rule="evenodd" clip-rule="evenodd" d="M614.529 704.804c-8.06 0-14.593-6.534-14.593-14.594 0-8.059 6.533-14.593 14.593-14.593 8.06 0 14.593 6.534 14.593 14.593 0 8.06-6.533 14.594-14.593 14.594zm0 2.288c-9.323 0-16.881-7.558-16.881-16.882 0-9.323 7.558-16.881 16.881-16.881s16.881 7.558 16.881 16.881c0 9.324-7.558 16.882-16.881 16.882z" fill="#747D5D"/><path d="M549.047 691.901c0 8.391 6.803 15.193 15.193 15.193 8.391 0 15.194-6.802 15.194-15.193s-6.803-15.193-15.194-15.193c-8.39 0-15.193 6.802-15.193 15.193z" fill="#747D5D"/><path fill-rule="evenodd" clip-rule="evenodd" d="M564.24 704.806c-7.127 0-12.905-5.778-12.905-12.905 0-7.128 5.778-12.905 12.905-12.905 7.128 0 12.906 5.777 12.906 12.905 0 7.127-5.778 12.905-12.906 12.905zm0 2.288c-8.39 0-15.193-6.802-15.193-15.193s6.803-15.193 15.193-15.193c8.391 0 15.194 6.802 15.194 15.193s-6.803 15.193-15.194 15.193z" fill="#747D5D"/><path d="M567.633 684.232c0 12.831 10.402 23.232 23.232 23.232 12.831 0 23.233-10.401 23.233-23.232S603.696 661 590.865 661c-12.83 0-23.232 10.401-23.232 23.232z" fill="#747D5D"/><path fill-rule="evenodd" clip-rule="evenodd" d="M590.865 705.177c-11.567 0-20.944-9.378-20.944-20.945s9.377-20.944 20.944-20.944c11.568 0 20.945 9.377 20.945 20.944 0 11.567-9.377 20.945-20.945 20.945zm0 2.287c-12.83 0-23.232-10.401-23.232-23.232S578.035 661 590.865 661c12.831 0 23.233 10.401 23.233 23.232s-10.402 23.232-23.233 23.232z" fill="#747D5D"/><path d="M614.672 690.738H564.49v16.727h50.182v-16.727z" fill="#747D5D"/><path fill-rule="evenodd" clip-rule="evenodd" d="M321.531 497.731c.715-1.479 1.282-2.653 1.606-3.463l3.186 1.275c-.414 1.034-1.072 2.399-1.868 4.051-2.229 4.622-5.544 11.496-7.632 19.688 4.621-1.504 12.534-4.453 17.038-7.127 3.639-2.161 7.303-5.212 10.199-8.448 2.933-3.276 4.913-6.557 5.454-9.152l3.36.701c-.725 3.471-3.175 7.297-6.256 10.74-3.117 3.482-7.049 6.761-11.005 9.11-5.547 3.294-15.589 6.843-19.745 8.067-2.175 7.77-2.842 14.016-3.655 21.626-.283 2.645-.583 5.456-.97 8.553-2.214 17.698-2.121 31.291-1.976 52.745.041 5.999.086 12.613.086 20.103h-3.432c0-7.413-.044-13.983-.085-19.961-.077-11.156-.139-20.253.132-28.929l-.042.003c-.296-4.158-2.046-9.979-4.392-16.004a150.155 150.155 0 00-2.701-6.466c-8.827-.182-19.495-2.52-25.933-7.67l-.254-.203c-2.983-2.386-5.321-4.256-7.018-6.558-1.804-2.446-2.822-5.274-3.48-9.507l3.392-.527c.608 3.916 1.489 6.152 2.85 7.998 1.42 1.926 3.429 3.537 6.653 6.117 5.232 4.185 14.135 6.441 22.192 6.858a159.983 159.983 0 00-3.259-6.535c-5.676-10.722-9.135-16.379-11.325-19.82-.381-.599-.731-1.14-1.051-1.636-1.468-2.271-2.337-3.616-2.928-5.389l3.256-1.085c.443 1.329 1.032 2.243 2.47 4.477.334.519.714 1.108 1.148 1.79 2.242 3.522 5.746 9.259 11.463 20.057 2.432 4.594 5.339 10.733 7.723 16.854a116.779 116.779 0 011.87 5.141c.3-3.967.701-8.008 1.236-12.279.37-2.96.661-5.693.94-8.301.851-7.976 1.576-14.775 4.038-23.262 2.089-9.916 6.268-18.566 8.715-23.632z" fill="#CD6125"/><path d="M341.639 476.344c0 11.372 9.218 20.591 20.59 20.591s20.591-9.219 20.591-20.591c0-11.372-9.219-20.591-20.591-20.591-11.372 0-20.59 9.219-20.59 20.591zm-64.063-3.432c0 13.267 10.755 24.023 24.022 24.023 13.268 0 24.023-10.756 24.023-24.023s-10.755-24.023-24.023-24.023c-13.267 0-24.022 10.756-24.022 24.023z" fill="#747D5D"/><path d="M307.318 467.192c0 15.163 12.291 27.455 27.454 27.455s27.455-12.292 27.455-27.455c0-15.162-12.292-27.454-27.455-27.454-15.163 0-27.454 12.292-27.454 27.454z" fill="#747D5D"/><path d="M362.227 474.056h-61.773v22.879h61.773v-22.879zm-102.953 51.477c0 10.74 8.707 19.447 19.447 19.447 10.74 0 19.447-8.707 19.447-19.447 0-10.74-8.707-19.447-19.447-19.447-10.74 0-19.447 8.707-19.447 19.447z" fill="#747D5D"/><path d="M229.529 520.957c0 13.268 10.755 24.023 24.023 24.023 13.267 0 24.022-10.755 24.022-24.023 0-13.267-10.755-24.022-24.022-24.022-13.268 0-24.023 10.755-24.023 24.022z" fill="#747D5D"/><path d="M278.703 524.389h-25.319v20.716h25.319v-20.716z" fill="#747D5D"/><path d="M436.266 855.061h18.303l-4.307 13.727h-9.69l-4.306-13.727zm0 13.727h18.303l-4.307 13.727h-9.69l-4.306-13.727zm0 13.727h18.303l-4.307 13.727h-9.69l-4.306-13.727zm0 13.727h18.303l-4.307 13.727h-9.69l-4.306-13.727zm0 13.727h18.303l-4.307 13.728h-9.69l-4.306-13.728z" fill="#C8A255"/><path d="M445.582 845.928c3.646 0 6.578-5.133 6.578-22.863 0-17.731-6.578-32.065-6.578-32.065s-6.578 14.374-6.578 32.065c0 17.73 2.972 22.863 6.578 22.863z" fill="#1B3025"/><path d="M445.589 845.496c3.17 1.777 8.242-1.225 17-16.665 8.757-15.439 10.144-31.116 10.144-31.116s-12.799 9.279-21.557 24.719c-8.757 15.401-8.718 21.285-5.587 23.062z" fill="#1B3025"/><path d="M445.586 845.496c-3.17 1.777-8.243-1.225-17-16.665-8.758-15.439-10.145-31.116-10.145-31.116s12.8 9.279 21.557 24.719c8.798 15.401 8.758 21.285 5.588 23.062z" fill="#1B3025"/><path d="M444.076 847.586c1.743 3.198 7.648 3.317 23.3-5.134 15.613-8.45 25.163-21.047 25.163-21.047s-15.811 1.106-31.424 9.556c-15.613 8.451-18.743 13.466-17.039 16.625z" fill="#1B3025"/><path d="M447.1 847.586c-1.743 3.198-7.648 3.317-23.3-5.134-15.613-8.45-25.163-21.047-25.163-21.047s15.811 1.106 31.424 9.556c15.613 8.451 18.783 13.466 17.039 16.625z" fill="#1B3025"/><path d="M439.004 849.917c0 3.633 5.151 6.555 22.944 6.555 17.792 0 32.177-6.555 32.177-6.555s-14.424-6.555-32.177-6.555c-17.793.039-22.944 2.962-22.944 6.555z" fill="#1B3025"/><path d="M452.168 849.917c0 3.633-5.152 6.555-22.944 6.555-17.753 0-32.177-6.555-32.177-6.555s14.424-6.555 32.177-6.555c17.792.039 22.944 2.962 22.944 6.555z" fill="#1B3025"/><path d="M192.669 448.738c-1.785 7.435-7.688 13.247-15.169 14.894 7.481 1.624 13.384 7.458 15.169 14.871 1.784-7.458 7.733-13.293 15.26-14.894-7.527-1.624-13.476-7.413-15.26-14.871z" fill="#FFDC96"/><path d="M348.079 630.323a6.864 6.864 0 11-9.706 9.707 6.864 6.864 0 019.706-9.707zm12.942 12.942a6.865 6.865 0 01-9.707 9.707 6.865 6.865 0 019.707-9.707z" fill="#1B3025"/><path d="M361.017 640.03a6.864 6.864 0 11-9.706-9.707 6.864 6.864 0 019.706 9.707zm-12.941 12.942a6.864 6.864 0 11-9.707-9.706 6.864 6.864 0 019.707 9.706z" fill="#1B3025"/><path d="M352.929 638.412a4.576 4.576 0 11-6.47 6.471 4.576 4.576 0 016.47-6.471z" fill="#FFDC96"/><path d="M331.793 744.243h6.864v20.591h-6.864v-20.591z" fill="#313131"/><path d="M331.793 764.833h6.864v59.485h-6.864v-59.485z" fill="#C8A255"/><path d="M331.793 764.833h6.864v4.576h-6.864v-4.576z" fill="#FFDC96"/><path d="M132.156 719.076l4.854 4.853-14.56 14.56-4.854-4.853 14.56-14.56z" fill="#313131"/><path d="M117.598 733.636l4.853 4.853-42.062 42.062-4.853-4.853 42.062-42.062z" fill="#1B3025"/><path d="M117.598 733.636l4.853 4.853-3.236 3.236-4.853-4.853 3.236-3.236z" fill="#FFDC96"/><path d="M233.418 677.598l6.675-1.598 4.793 20.025-6.675 1.598-4.793-20.025z" fill="#313131"/><path d="M238.207 697.623l6.675-1.597 13.848 57.85-6.675 1.598-13.848-57.851z" fill="#CD6125"/><path d="M238.207 697.623l6.675-1.597 1.065 4.45-6.675 1.597-1.065-4.45z" fill="#FFDC96"/><path d="M350.078 744.242h6.864v20.591h-6.864v-20.591z" fill="#313131"/><path d="M350.078 764.833h6.864v59.485h-6.864v-59.485z" fill="#C8A255"/><path d="M350.078 764.833h6.864v4.576h-6.864v-4.576z" fill="#FFDC96"/><path d="M411.215 719.248c-1.784 7.435-7.687 13.246-15.168 14.894 7.481 1.624 13.384 7.458 15.168 14.871 1.785-7.459 7.734-13.293 15.261-14.894-7.527-1.625-13.476-7.413-15.261-14.871z" fill="#747D5D"/><path d="M.047 757.97H2.58v35.469H.047V757.97z" fill="#1B3025"/><path d="M.047 792.288H103v130.408H.047V792.288z" fill="#1B3025"/><path d="M23.047 847h57v76h-57v-76z" fill="#000"/><g clip-path="url(#clip0)"><path d="M69.617 891.546s1.187 3.541 1.702 4.746c.515 1.206 1.354 2.291 2.671 3.672 1.448 1.522 2.202 2.287 4.15 3.97 1.944 1.687 10.049 8.497 12.541 9.381 2.493.884 1.862-6.19 1.862-6.19l-.186-9.012-18.083-6.869-4.657.302z" fill="#FFDC96"/><path d="M91.008 905.515s-4.556-2.866-6.459-4.818c-1.907-1.955-4.295-5.082-6.784-6.287-5.552-2.687-14.6-3.101-14.6-3.101s-1.553-2.351-2.837-3.534c-1.283-1.183-6.164-2.306-6.164-2.306l.082-3.336 7.84-4.451h28.646l.276 27.833z" fill="#CD6125"/><path d="M55.844 889.624l-.033 3.142h3.694l3.694-1.459s-.761-2.761-2.261-4.101c-2.094-1.869-6.792-1.743-6.792-1.743s-.09 1.389.276 2.377c.366.989 1.422 1.784 1.422 1.784zm-.095-8.34c.134.243.209.523.209.822 0 .944-.81 1.706-1.755 1.706l.041-1.676 1.505-.852z" fill="#FFDC96"/><path d="M62.568 883.418c.98-.024 1.766-.402 1.755-.845-.01-.443-.814-.782-1.794-.758-.98.024-1.766.403-1.755.845.01.443.814.783 1.794.758z" fill="#000"/><path d="M68.955 877.754a3.063 3.063 0 10-6.127 0h6.127z" fill="#CD6125"/><path d="M74.947 877.74a3.064 3.064 0 10-6.127 0h6.127z" fill="#CD6125"/><path d="M73.234 877.74a1.351 1.351 0 00-2.703 0h2.703zm-5.988 0a1.351 1.351 0 00-2.703 0h2.703z" fill="#000"/></g><path d="M50.379 716.788h2.288v41.182h-2.288v-41.182zm4.578 38.894h2.534v35.469h-2.534v-35.469zm-9.157 0h2.534v35.469h-2.533v-35.469zm18.31 0h2.533v35.469h-2.534v-35.469zm9.148 0h2.288v29.742h-2.288v-29.742zm18.301 0h2.288v29.742h-2.288v-29.742zm-9.149 0h2.288v29.742H82.41v-29.742zm18.301 2.288h2.288v25.166h-2.288V757.97zm-91.511 0h2.533v35.469H9.199V757.97zm9.148 0h2.533v35.469h-2.533V757.97zm9.152 0h2.288V790H27.5v-32.03z" fill="#1B3025"/><path d="M103 755.682v2.288H.046v-2.288H103z" fill="#1B3025"/><path d="M103 709.924v6.864H.046v-6.864H103z" fill="#CD6125"/><path d="M36.652 755.682h2.534v35.469h-2.534v-35.469z" fill="#1B3025"/><path d="M103 833.47h274.545v89.227H103V833.47zm0-77.788h210.484v77.787H103v-77.787z" fill="#747D5D"/><path d="M137.32 691.621h98.379v64.061H137.32v-64.061z" fill="#1B3025"/><path d="M137.32 682.47h98.379v9.151H137.32v-9.151z" fill="#CD6125"/><path d="M377.547 824.318v9.151h-258.53v-9.151h258.53z" fill="#1B3025"/><path d="M103 783.136v9.152H.046v-9.152H103z" fill="#CD6125"/><path d="M80.123 846.053c0 15.795-12.804 28.598-28.599 28.598-15.794 0-28.598-12.803-28.598-28.598 0-15.794 12.804-28.598 28.598-28.598 15.795 0 28.599 12.804 28.599 28.598z" fill="#000"/><path d="M148.754 771.697h25.167v52.621h-25.167v-52.621zm54.91 0h25.167v52.621h-25.167v-52.621zm54.91 0h25.167v52.621h-25.167v-52.621zm-84.558 102.1c0 11.894-9.642 21.535-21.536 21.535-11.893 0-21.535-9.641-21.535-21.535s9.642-21.535 21.535-21.535c11.894 0 21.536 9.641 21.536 21.535z" fill="#FFDC96"/><path d="M130.453 876.939h43.47v45.758h-43.47v-45.758z" fill="#000"/><path d="M151.043 847.197h2.288v75.5h-2.288v-75.5z" fill="#747D5D"/><path d="M173.922 851.772l1.791 1.792-22.324 22.324-1.791-1.791 22.324-22.325z" fill="#747D5D"/><path d="M130.453 851.772l-1.791 1.792 22.134 22.134 1.791-1.792-22.134-22.134z" fill="#747D5D"/><path d="M176.211 876.939v-2.288h-48.045v2.288h48.045z" fill="#747D5D"/><path d="M235.789 873.797c0 11.894-9.642 21.535-21.535 21.535-11.894 0-21.535-9.641-21.535-21.535s9.641-21.535 21.535-21.535c11.893 0 21.535 9.641 21.535 21.535z" fill="#FFDC96"/><path d="M192.227 876.939h43.469v45.758h-43.469v-45.758z" fill="#000"/><path d="M212.816 847.197h2.288v75.5h-2.288v-75.5z" fill="#747D5D"/><path d="M235.695 851.772l1.792 1.792-22.324 22.324-1.792-1.791 22.324-22.325z" fill="#747D5D"/><path d="M192.227 851.772l-1.792 1.792 22.134 22.134 1.791-1.792-22.133-22.134z" fill="#747D5D"/><path d="M237.984 876.939v-2.288h-48.045v2.288h48.045z" fill="#747D5D"/><path d="M297.559 873.797c0 11.894-9.642 21.535-21.536 21.535-11.893 0-21.535-9.641-21.535-21.535s9.642-21.535 21.535-21.535c11.894 0 21.536 9.641 21.536 21.535z" fill="#FFDC96"/><path d="M253.996 876.939h43.47v45.758h-43.47v-45.758z" fill="#000"/><path d="M274.586 847.197h2.288v75.5h-2.288v-75.5z" fill="#747D5D"/><path d="M297.465 851.772l1.791 1.792-22.324 22.324-1.791-1.791 22.324-22.325z" fill="#747D5D"/><path d="M253.996 851.772l-1.791 1.792 22.134 22.134 1.791-1.792-22.134-22.134z" fill="#747D5D"/><path d="M299.754 876.939v-2.288h-48.045v2.288h48.045z" fill="#747D5D"/><path d="M359.336 873.797c0 11.894-9.642 21.535-21.535 21.535-11.894 0-21.535-9.641-21.535-21.535s9.641-21.535 21.535-21.535c11.893 0 21.535 9.641 21.535 21.535z" fill="#FFDC96"/><path d="M315.773 876.939h43.47v45.758h-43.47v-45.758z" fill="#000"/><path d="M336.363 847.197h2.288v75.5h-2.288v-75.5z" fill="#747D5D"/><path d="M359.242 851.772l1.792 1.792-22.324 22.324-1.792-1.791 22.324-22.325z" fill="#747D5D"/><path d="M315.773 851.772l-1.791 1.792 22.134 22.134 1.791-1.792-22.134-22.134z" fill="#747D5D"/><path d="M361.531 876.939v-2.288h-48.045v2.288h48.045z" fill="#747D5D"/><path d="M356.953 794.576h2.288v32.03h-2.288v-32.03zm-9.152 0h2.288v32.03h-2.288v-32.03z" fill="#1B3025"/><path d="M347.801 794.576h2.288v32.03h-2.288v-32.03zm-9.149 0h2.288v32.03h-2.288v-32.03zm-9.152 0h2.288v32.03H329.5v-32.03zm-9.148 0h2.287v32.03h-2.287v-32.03zm-27.457 2.288h2.287v32.03h-2.287v-32.03zm-27.454 0h2.288v32.03h-2.288v-32.03zm-27.457 0h2.288v32.03h-2.288v-32.03zm-27.453-2.288h2.288v32.03h-2.288v-32.03zm-27.453 0h2.288v32.03h-2.288v-32.03zm-27.457 0h2.288v32.03h-2.288v-32.03zm-27.453 0h2.288v32.03h-2.288v-32.03zm183.027 0h2.288v32.03h-2.288v-32.03zm-27.453 2.288h2.288v32.03h-2.288v-32.03zm-27.453 0h2.288v32.03h-2.288v-32.03zm-27.457 0h2.288v32.03h-2.288v-32.03zm-27.453-2.288h2.288v32.03h-2.288v-32.03zm-27.457 0h2.288v32.03h-2.288v-32.03zm-27.453 0h2.288v32.03h-2.288v-32.03zm-27.453 0h2.287v32.03h-2.287v-32.03zm247.089 0h2.288v32.03h-2.288v-32.03zm9.149 0h2.288v32.03h-2.288v-32.03zm-73.211 0h2.288v36.606h-2.288v-36.606zm-27.453 2.288h2.288v36.606h-2.288v-36.606zm-27.453 0h2.288v36.606h-2.288v-36.606zm-27.457 0h2.288v36.606h-2.288v-36.606zm-27.453-2.288h2.287v36.606h-2.287v-36.606zm-27.454 0h2.288v36.606h-2.288v-36.606zm-27.453 0h2.288v36.606h-2.288v-36.606z" fill="#1B3025"/><path d="M377.547 794.576v2.288h-258.53v-2.288h258.53zM51.524 687.046l51.477 22.878H.047l51.477-22.878zM80.121 865.5H103v57.197H80.121V865.5z" fill="#1B3025"/><path d="M153.336 703.061h25.167v41.182h-25.167v-41.182zm41.18 0h25.166v41.182h-25.166v-41.182z" fill="#747D5D"/><path d="M322.047 710.248c0 9.941-8.059 18-18 18s-18-8.059-18-18c0-9.942 8.059-18 18-18s18 8.058 18 18z" fill="#CD6125"/><path d="M288.617 731.329a3.036 3.036 0 013.036-3.036h24.29a3.037 3.037 0 110 6.072h-24.29a3.036 3.036 0 01-3.036-3.036z" fill="#683911"/><path d="M288.617 738.917c0-3.036 1.38-4.555 2.76-4.554h24.843c1.379-.001 2.76 1.838 2.76 4.554-.001 3.036-5.521 16.699-5.521 16.699h-19.321s-5.521-13.663-5.521-16.699z" fill="#1B3025"/><path d="M89.945 637.705L116.65 611l26.705 26.705h-53.41z" fill="#683911"/><path d="M120.848 637.705L147.552 611l26.705 26.705h-53.409z" fill="#683911"/><path d="M151.738 637.705L178.443 611l26.705 26.705h-53.41z" fill="#683911"/><path d="M182.648 637.705L209.353 611l26.705 26.705h-53.41zm-123.601 0L85.752 611l26.704 26.705h-53.41z" fill="#683911"/><path d="M31.074 486.503l5.944-3.432 10.296 17.832-5.944 3.432-10.296-17.832z" fill="#313131"/><path d="M41.371 504.335l5.944-3.432 29.743 51.516-5.945 3.431-29.742-51.515z" fill="#CD6125"/><path d="M41.371 504.335l5.944-3.432 2.288 3.963-5.944 3.432-2.288-3.963z" fill="#FFDC96"/><path d="M148.898 483.071l5.945 3.432-10.296 17.832-5.944-3.432 10.295-17.832z" fill="#313131"/><path d="M138.605 500.903l5.945 3.432-29.743 51.515-5.944-3.431 29.742-51.516z" fill="#683911"/><path d="M138.605 500.903l5.945 3.432-2.288 3.963-5.944-3.432 2.287-3.963z" fill="#FFDC96"/><path d="M10.484 563.147v9.151H1.333v-9.151h9.151zm0-18.303v9.151H1.333v-9.151h9.151zm173.879-9.152v9.152h-9.151v-9.152h9.151zM83.7 563.147v9.151h-9.152v-9.151h9.151zm-36.61 0v9.151h-9.152v-9.151h9.152zm73.215 0v9.151h-9.152v-9.151h9.152zm36.605 0v9.151h-9.151v-9.151h9.151zm-128.12 0v9.151h-9.152v-9.151h9.151zm73.21 0v9.151h-9.151v-9.151H102zm-36.606 0v9.151h-9.151v-9.151h9.151zm73.211 0v9.151h-9.151v-9.151h9.151zm36.606 0v9.151h-9.152v-9.151h9.152z" fill="#CD6125"/><path d="M19.637 563.147v9.151h-9.152v-9.151h9.152zm-9.153-9.152v9.152H1.333v-9.152h9.151z" fill="#683911"/><path d="M184.363 553.995v9.152h-9.151v-9.152h9.151z" fill="#CD6125"/><path d="M10.484 535.692v9.152H1.333v-9.152h9.151zm173.879 9.152v9.151h-9.151v-9.151h9.151zm-91.511 18.303v9.151H83.7v-9.151h9.152zm-36.61 0v9.151h-9.151v-9.151h9.151zm73.211 0v9.151h-9.151v-9.151h9.151zm36.609 0v9.151h-9.151v-9.151h9.151zm-128.121 0v9.151H28.79v-9.151h9.151zm73.211 0v9.151h-9.151v-9.151h9.151zm-36.609 0v9.151h-9.152v-9.151h9.152zm73.211 0v9.151h-9.152v-9.151h9.152zm36.609 0v9.151h-9.151v-9.151h9.151z" fill="#683911"/><path d="M95.14 467.056c0 8.845-7.17 16.015-16.016 16.015-8.844 0-16.015-7.17-16.015-16.015s7.17-16.015 16.015-16.015 16.016 7.17 16.016 16.015z" fill="#CD6125"/><path d="M28.787 544.844a9.151 9.151 0 01-9.151 9.151 9.151 9.151 0 01-9.152-9.151 9.151 9.151 0 1118.303 0zm18.305 0a9.151 9.151 0 01-9.151 9.151 9.151 9.151 0 01-9.152-9.151 9.151 9.151 0 1118.303 0z" fill="#C8A255"/><path d="M65.393 544.844a9.151 9.151 0 01-9.152 9.151 9.151 9.151 0 01-9.151-9.151 9.151 9.151 0 1118.303 0zm18.305 0a9.151 9.151 0 01-9.152 9.151 9.151 9.151 0 01-9.152-9.151 9.151 9.151 0 1118.303 0zm18.304 0a9.151 9.151 0 01-9.151 9.151 9.151 9.151 0 01-9.152-9.151 9.151 9.151 0 1118.303 0z" fill="#C8A255"/><path d="M175.211 544.844v18.303H10.484v-18.303H175.21z" fill="#C8A255"/><path d="M120.303 544.844a9.151 9.151 0 01-9.152 9.151 9.15 9.15 0 01-9.151-9.151 9.151 9.151 0 019.151-9.152 9.151 9.151 0 019.152 9.152zm18.305 0a9.152 9.152 0 11-18.304-.002 9.152 9.152 0 0118.304.002z" fill="#C8A255"/><path d="M156.908 544.844a9.152 9.152 0 11-18.302-.002 9.152 9.152 0 0118.302.002z" fill="#C8A255"/><path d="M175.213 544.844a9.15 9.15 0 01-9.151 9.151 9.151 9.151 0 01-9.152-9.151 9.151 9.151 0 019.152-9.152 9.151 9.151 0 019.151 9.152zM61.047 363c0 8.837-7.164 16-16 16-8.837 0-16-7.163-16-16s7.163-16 16-16c8.836 0 16 7.163 16 16zm35-1.5a8.5 8.5 0 11-17 0 8.5 8.5 0 0117 0z" fill="#C8A255"/><defs><clipPath id="clip0"><path fill="#fff" transform="translate(50.09 873.284)" d="M0 0h42.527v50.721H0z"/></clipPath></defs></svg>