<svg width="388" height="555" fill="none" xmlns="http://www.w3.org/2000/svg"><path d="M15 275.5l2.598-1.5 4.5 7.794-2.598 1.5L15 275.5z" fill="#313131"/><path fill="#CD6125" d="M19.5 283.294l2.598-1.5 13 22.517-2.598 1.5z"/><path fill="#FFDC96" d="M19.5 283.294l2.598-1.5 1 1.732-2.598 1.5z"/><path d="M66.5 274l2.598 1.5-4.5 7.794-2.598-1.5L66.5 274z" fill="#313131"/><path fill="#683911" d="M62 281.794l2.598 1.5-13 22.517-2.598-1.5z"/><path fill="#FFDC96" d="M62 281.794l2.598 1.5-1 1.732-2.598-1.5z"/><path d="M146 371h3v9h-3v-9z" fill="#313131"/><path fill="#C8A255" d="M146 380h3v26h-3z"/><path fill="#FFDC96" d="M146 380h3v2h-3z"/><path d="M58.748 360l2.121 2.121-6.364 6.364-2.12-2.121L58.747 360z" fill="#313131"/><path fill="#1B3025" d="M52.385 366.364l2.121 2.121-18.385 18.385-2.12-2.121z"/><path fill="#FFDC96" d="M52.385 366.364l2.121 2.121-1.414 1.415-2.121-2.122z"/><path d="M103 341.871l2.918-.699 2.095 8.753-2.918.699-2.095-8.753z" fill="#313131"/><path fill="#CD6125" d="M105.096 350.624l2.918-.698 6.052 25.285-2.917.699z"/><path fill="#FFDC96" d="M105.096 350.624l2.918-.698.465 1.945-2.917.698z"/><path d="M154 371h3v9h-3v-9z" fill="#313131"/><path fill="#C8A255" d="M154 380h3v26h-3z"/><path fill="#FFDC96" d="M154 380h3v2h-3z"/><path d="M225 320l161-30m-214-73l54 332" stroke="#1B3025" stroke-width="14" stroke-linejoin="round"/><path fill="#747D5D" d="M324 372h37v36h-37z"/><path fill="#1B3025" d="M287 427h8v54h-8z"/><path fill="#683911" d="M279 474v-7h-40v7z"/><path fill="#683911" d="M246 481v-9h-3v9zm28 0v-9h-3v9z"/><path fill="#1B3025" d="M287 408h74v19h-74z"/><path fill="#CD6125" d="M287 397h37v1h-37zm12 1h1v10h-1zm-12 0h1v10h-1zm8 0h1v10h-1zm-4 0h1v10h-1zm16 0h1v10h-1zm-4 0h1v10h-1zm8 0h1v10h-1zm4 0h1v10h-1zm4 0h1v10h-1zm4 0h1v10h-1z"/><path fill="#1B3025" d="M322 442h65v39h-65z"/><path fill="#FFDC96" d="M344 379h13v13h-13z"/><path fill="#C8A255" d="M328 386h12v22h-12z"/><path fill="#747D5D" d="M329 453h24v19h-24zm27 0h24v19h-24z"/><path fill="#C8A255" d="M329 469h24v4h-24zm27 0h24v4h-24z"/><rect x="369.914" y="415.322" width="13.271" height="2.654" rx="1.327" fill="#683911"/><path d="M369.914 419.966c0-1.327.603-1.991 1.207-1.991h10.858c.603 0 1.206.804 1.206 1.991 0 1.327-2.413 7.299-2.413 7.299h-8.445s-2.413-5.972-2.413-7.299z" fill="#1B3025"/><path d="M376.756 402.958c-.416 1.461-.275 4.104-.205 5.426h.002c1.322.071 3.964.212 5.424-.205 1.46-.416 1.876-1.877.832-2.921-1.044-1.044-2.504-.628-2.504-.628s.416-1.46-.628-2.504c-1.045-1.045-2.505-.628-2.921.832z" fill="#CD6125"/><path d="M376.552 408.384c-.106-1.982 1.876-3.754 2.815-2.815.938.938-.833 2.921-2.815 2.815z" fill="#FFDC96"/><path d="M376.346 413.81c.416-1.461.275-4.104.205-5.426h-.002c-1.323-.071-3.965-.212-5.424.205-1.46.416-1.877 1.877-.833 2.921 1.044 1.044 2.505.628 2.505.628s-.417 1.46.628 2.504c1.044 1.045 2.505.628 2.921-.832z" fill="#CD6125"/><path d="M376.55 408.384c.106 1.982-1.877 3.753-2.815 2.815-.938-.938.832-2.921 2.815-2.815z" fill="#FFDC96"/><path d="M381.975 408.588c-1.461-.416-4.104-.275-5.426-.204v.002c-.07 1.322-.211 3.964.205 5.423.417 1.46 1.877 1.877 2.921.833 1.044-1.044.628-2.505.628-2.505s1.46.417 2.505-.628c1.044-1.044.628-2.505-.833-2.921z" fill="#CD6125"/><path d="M376.548 408.384c1.983-.106 3.754 1.876 2.815 2.815-.938.939-2.921-.833-2.815-2.815z" fill="#FFDC96"/><path d="M371.125 408.179c1.46.416 4.104.276 5.425.205v-.002c.071-1.322.212-3.964-.205-5.423-.416-1.461-1.876-1.877-2.92-.833-1.045 1.044-.628 2.505-.628 2.505s-1.461-.417-2.505.627c-1.044 1.045-.628 2.505.833 2.921z" fill="#CD6125"/><path d="M376.551 408.384c-1.982.106-3.753-1.877-2.815-2.815.938-.938 2.921.833 2.815 2.815z" fill="#FFDC96"/><path d="M230.752 273.851c-.51 1.79-.338 5.029-.251 6.649h.002c1.621.087 4.858.259 6.647-.251 1.79-.51 2.3-2.3 1.02-3.58-1.279-1.279-3.069-.769-3.069-.769s.511-1.789-.769-3.069-3.07-.77-3.58 1.02z" fill="#1B3025"/><path d="M230.501 280.499c-.13-2.43 2.299-4.601 3.45-3.45 1.15 1.149-1.021 3.579-3.45 3.45z" fill="#C8A255"/><path d="M230.248 287.148c.51-1.79.338-5.029.251-6.649h-.002c-1.621-.087-4.858-.259-6.647.251-1.79.51-2.3 2.3-1.02 3.58 1.279 1.279 3.069.769 3.069.769s-.511 1.789.769 3.069 3.07.77 3.58-1.02z" fill="#1B3025"/><path d="M230.499 280.498c.13 2.43-2.3 4.6-3.45 3.45-1.149-1.149 1.021-3.579 3.45-3.45z" fill="#C8A255"/><path d="M237.148 280.75c-1.79-.51-5.029-.338-6.649-.251v.002c-.087 1.621-.259 4.858.251 6.647.51 1.789 2.3 2.3 3.58 1.02 1.279-1.279.769-3.069.769-3.069s1.789.51 3.069-.77.77-3.069-1.02-3.579z" fill="#1B3025"/><path d="M230.499 280.5c2.43-.13 4.601 2.3 3.45 3.45-1.15 1.151-3.579-1.02-3.45-3.45z" fill="#C8A255"/><path d="M223.85 280.25c1.79.509 5.029.337 6.649.251v-.003c.087-1.62.259-4.858-.251-6.647-.51-1.789-2.3-2.3-3.58-1.02-1.279 1.28-.769 3.069-.769 3.069s-1.789-.51-3.069.77-.77 3.07 1.02 3.58z" fill="#1B3025"/><path d="M230.498 280.499c-2.429.13-4.599-2.3-3.45-3.45 1.15-1.149 3.58 1.021 3.45 3.45z" fill="#C8A255"/><path fill="#CD6125" d="M6 309v4H2v-4zm0-8v4H2v-4zm76-4v4h-4v-4zm-44 12v4h-4v-4zm-16 0v4h-4v-4zm32 0v4h-4v-4zm16 0v4h-4v-4zm-56 0v4h-4v-4zm32 0v4h-4v-4zm-16 0v4h-4v-4zm32 0v4h-4v-4zm16 0v4h-4v-4z"/><path fill="#683911" d="M10 309v4H6v-4zm-4-4v4H2v-4z"/><path fill="#CD6125" d="M82 305v4h-4v-4z"/><path fill="#683911" d="M6 297v4H2v-4zm76 4v4h-4v-4zm-40 8v4h-4v-4zm-16 0v4h-4v-4zm32 0v4h-4v-4zm16 0v4h-4v-4zm-56 0v4h-4v-4zm32 0v4h-4v-4zm-16 0v4h-4v-4zm32 0v4h-4v-4zm16 0v4h-4v-4z"/><circle cx="36" cy="267" r="7" fill="#CD6125"/><circle cx="10" cy="301" r="4" fill="#C8A255"/><circle cx="18" cy="301" r="4" fill="#C8A255"/><circle cx="26" cy="301" r="4" fill="#C8A255"/><circle cx="34" cy="301" r="4" fill="#C8A255"/><circle cx="42" cy="301" r="4" fill="#C8A255"/><path fill="#C8A255" d="M78 301v8H6v-8z"/><path d="M134.614 276.113c-.686 1.715-3.319 6.213-4.479 11.747m-2.992 45.64c.001-14.94-.414-21.974.832-31.934.667-5.329.747-8.847 2.16-13.706m16.046-11.747c-.553 2.651-3.873 6.213-7.193 8.185-2.553 1.516-7.441 3.193-8.853 3.562m-22.133 3.873c.553 3.562 1.66 4.426 4.427 6.64 2.74 2.192 7.481 3.193 11.354 3.193m-8.588-15.608c.553 1.66 1.66 2.213 6.64 11.619 2.103 3.972 5.033 10.629 5.308 14.502" stroke="#CD6125" stroke-width="1.5" stroke-linejoin="round"/><circle r="9" transform="matrix(-1 0 0 1 151 268)" fill="#747D5D"/><circle r="10.5" transform="matrix(-1 0 0 1 124.5 266.5)" fill="#747D5D"/><circle r="12" transform="matrix(-1 0 0 1 139 264)" fill="#747D5D"/><path fill="#747D5D" d="M151 267h-27v10h27z"/><circle r="8.5" transform="matrix(-1 0 0 1 114.5 289.5)" fill="#747D5D"/><circle r="10.5" transform="matrix(-1 0 0 1 103.5 287.5)" fill="#747D5D"/><path fill="#747D5D" d="M114.492 289h-11.066v9.054h11.066z"/><path d="M190 33h8l-1.882 6h-4.236L190 33zm0 6h8l-1.882 6h-4.236L190 39zm0 6h8l-1.882 6h-4.236L190 45zm0 6h8l-1.882 6h-4.236L190 51zm0 6h8l-1.882 6h-4.236L190 57z" fill="#C8A255"/><path d="M194.076 29.009c1.594 0 2.876-2.244 2.876-9.994S194.076 5 194.076 5s-2.875 6.283-2.875 14.015c0 7.75 1.299 9.994 2.875 9.994z" fill="#747D5D"/><path d="M194.078 28.82c1.386.776 3.603-.536 7.431-7.284 3.827-6.749 4.434-13.601 4.434-13.601s-5.595 4.056-9.423 10.805c-3.828 6.73-3.81 9.303-2.442 10.08z" fill="#747D5D"/><path d="M194.077 28.82c-1.385.776-3.602-.536-7.43-7.284-3.828-6.749-4.434-13.601-4.434-13.601s5.594 4.056 9.422 10.805c3.845 6.73 3.828 9.303 2.442 10.08z" fill="#747D5D"/><path d="M193.42 29.733c.762 1.398 3.343 1.45 10.184-2.244 6.824-3.694 10.999-9.2 10.999-9.2s-6.911.484-13.735 4.177c-6.825 3.694-8.193 5.886-7.448 7.267z" fill="#747D5D"/><path d="M194.738 29.733c-.763 1.398-3.343 1.45-10.185-2.244-6.824-3.694-10.998-9.2-10.998-9.2s6.911.484 13.735 4.177c6.824 3.694 8.21 5.886 7.448 7.267z" fill="#747D5D"/><path d="M191.201 30.752c0 1.588 2.252 2.865 10.029 2.865s14.064-2.865 14.064-2.865-6.305-2.865-14.064-2.865c-7.777.017-10.029 1.294-10.029 2.865z" fill="#747D5D"/><path d="M196.954 30.752c0 1.588-2.252 2.865-10.029 2.865-7.759 0-14.064-2.865-14.064-2.865s6.305-2.865 14.064-2.865c7.777.017 10.029 1.294 10.029 2.865z" fill="#747D5D"/><path d="M173.139 518h8l-1.883 6h-4.235l-1.882-6zm0 6h8l-1.883 6h-4.235l-1.882-6zm0 6h8l-1.883 6h-4.235l-1.882-6zm0 6h8l-1.883 6h-4.235l-1.882-6zm0 6h8l-1.883 6h-4.235l-1.882-6z" fill="#C8A255"/><path d="M177.215 514.008c1.593 0 2.875-2.243 2.875-9.993S177.215 490 177.215 490s-2.875 6.283-2.875 14.015c0 7.75 1.299 9.993 2.875 9.993z" fill="#1B3025"/><path d="M177.217 513.819c1.385.777 3.602-.535 7.43-7.283 3.828-6.749 4.434-13.601 4.434-13.601s-5.594 4.056-9.422 10.804c-3.828 6.732-3.811 9.304-2.442 10.08z" fill="#1B3025"/><path d="M177.216 513.819c-1.386.777-3.603-.535-7.43-7.283-3.828-6.749-4.434-13.601-4.434-13.601s5.594 4.056 9.422 10.804c3.845 6.732 3.828 9.304 2.442 10.08z" fill="#1B3025"/><path d="M176.559 514.733c.762 1.398 3.342 1.45 10.184-2.244 6.824-3.694 10.998-9.199 10.998-9.199s-6.91.483-13.735 4.176c-6.824 3.694-8.192 5.886-7.447 7.267z" fill="#1B3025"/><path d="M177.876 514.733c-.762 1.398-3.343 1.45-10.184-2.244-6.824-3.694-10.999-9.199-10.999-9.199s6.911.483 13.735 4.176c6.825 3.694 8.21 5.886 7.448 7.267z" fill="#1B3025"/><path d="M174.34 515.752c0 1.588 2.251 2.865 10.028 2.865 7.777 0 14.064-2.865 14.064-2.865s-6.304-2.865-14.064-2.865c-7.777.017-10.028 1.294-10.028 2.865z" fill="#1B3025"/><path d="M180.093 515.752c0 1.588-2.252 2.865-10.029 2.865-7.759 0-14.064-2.865-14.064-2.865s6.305-2.865 14.064-2.865c7.777.017 10.029 1.294 10.029 2.865z" fill="#1B3025"/><path d="M211.139 212h8l-1.883 6h-4.235l-1.882-6zm0 6h8l-1.883 6h-4.235l-1.882-6zm0 6h8l-1.883 6h-4.235l-1.882-6zm0 6h8l-1.883 6h-4.235l-1.882-6zm0 6h8l-1.883 6h-4.235l-1.882-6z" fill="#C8A255"/><path d="M215.215 208.008c1.593 0 2.875-2.243 2.875-9.993S215.215 184 215.215 184s-2.875 6.283-2.875 14.015c0 7.75 1.299 9.993 2.875 9.993z" fill="#747D5D"/><path d="M215.217 207.819c1.385.777 3.602-.535 7.43-7.283 3.828-6.749 4.434-13.601 4.434-13.601s-5.594 4.056-9.422 10.804c-3.828 6.732-3.811 9.304-2.442 10.08z" fill="#747D5D"/><path d="M215.216 207.819c-1.386.777-3.603-.535-7.43-7.283-3.828-6.749-4.434-13.601-4.434-13.601s5.594 4.056 9.422 10.804c3.845 6.732 3.828 9.304 2.442 10.08z" fill="#747D5D"/><path d="M214.559 208.733c.762 1.398 3.342 1.45 10.184-2.244 6.824-3.694 10.998-9.199 10.998-9.199s-6.91.483-13.735 4.176c-6.824 3.694-8.192 5.886-7.447 7.267z" fill="#747D5D"/><path d="M215.876 208.733c-.762 1.398-3.343 1.45-10.184-2.244-6.824-3.694-10.999-9.199-10.999-9.199s6.911.483 13.735 4.176c6.825 3.694 8.21 5.886 7.448 7.267z" fill="#747D5D"/><path d="M212.34 209.752c0 1.588 2.251 2.865 10.028 2.865 7.777 0 14.064-2.865 14.064-2.865s-6.304-2.865-14.064-2.865c-7.777.017-10.028 1.294-10.028 2.865z" fill="#747D5D"/><path d="M218.093 209.752c0 1.588-2.252 2.865-10.029 2.865-7.759 0-14.064-2.865-14.064-2.865s6.305-2.865 14.064-2.865c7.777.017 10.029 1.294 10.029 2.865z" fill="#747D5D"/><circle cx="224.5" cy="156.5" r="7.5" fill="#683911"/><circle cx="269" cy="79" r="6" fill="#C8A255"/><circle cx="283" cy="89" r="4" fill="#C8A255"/><circle cx="17" cy="210" r="7" fill="#C8A255"/><path d="M248.63 110a8.773 8.773 0 01-6.63 6.51c3.27.71 5.85 3.26 6.63 6.5a8.749 8.749 0 016.67-6.51 8.752 8.752 0 01-6.67-6.5z" fill="#1B3025"/><path d="M85.63 252a8.773 8.773 0 01-6.63 6.51c3.27.71 5.85 3.26 6.63 6.5a8.749 8.749 0 016.67-6.51 8.752 8.752 0 01-6.67-6.5z" fill="#FFDC96"/><path d="M252.63 252a8.773 8.773 0 01-6.63 6.51c3.27.71 5.85 3.26 6.63 6.5a8.749 8.749 0 016.67-6.51 8.752 8.752 0 01-6.67-6.5zm-70 208a8.773 8.773 0 01-6.63 6.51c3.27.71 5.85 3.26 6.63 6.5a8.749 8.749 0 016.67-6.51 8.752 8.752 0 01-6.67-6.5z" fill="#1B3025"/><path d="M152.816 113.789c.587 1.468 2.842 5.32 3.835 10.058 1.21 4.161 1.279 7.173 1.85 11.737 1.066 8.528.712 12.623.712 25.416m16.391-33.836c-.474 3.05-1.422 3.79-3.791 5.685-2.347 1.878-6.406 2.735-9.723 2.735m7.354-13.366c-.473 1.422-1.421 1.895-5.686 9.95-1.8 3.401-4.309 9.101-4.545 12.418" stroke="#C8A255" stroke-width="1.5" stroke-linejoin="round"/><circle cx="162" cy="106" r="9" fill="#CD6125"/><circle cx="149.5" cy="104.5" r="10.5" fill="#CD6125"/><path fill="#CD6125" d="M149 106h14v9h-14z"/><circle cx="170.479" cy="125.531" r="7.322" fill="#CD6125"/><circle cx="179.523" cy="123.377" r="9.476" fill="#CD6125"/><path fill="#CD6125" d="M170.047 125.1h9.476v7.753h-9.476z"/><circle cx="190" cy="327" transform="rotate(-90 190 327)" fill="#1B3025" r="41"/><path fill="#747D5D" d="M183.008 293.328l1.757-2.432 2.432 1.757-1.757 2.432zm-7.028 9.726l1.757-2.432 2.432 1.757-1.757 2.432zm-7.029 9.727l1.757-2.432 2.432 1.757-1.757 2.432zm-7.027 9.726l1.757-2.432 2.432 1.757-1.757 2.432zm10.543-14.59l1.757-2.432 2.432 1.757-1.757 2.432zm7.027-9.726l1.757-2.432 2.432 1.757-1.757 2.432zm-6.353 13.915l1.757-2.432 2.432 1.757-1.757 2.432zm-7.703 5.538l1.757-2.432 2.432 1.757-1.757 2.432zm-7.028 9.726l1.757-2.432 2.432 1.757-1.757 2.432zm-3.514 4.864l1.757-2.432 2.432 1.757-1.757 2.432zm9.725 7.028l1.757-2.432 2.432 1.757-1.757 2.432zm9.727 7.028l1.757-2.432 2.432 1.757-1.757 2.432zm-14.588-10.542l1.757-2.432 2.432 1.757-1.757 2.432zm9.724 7.028l1.757-2.432 2.432 1.757-1.757 2.432zm9.727 7.028l1.757-2.432 2.432 1.757-1.757 2.432zm4.863 3.514l1.757-2.432 2.432 1.757-1.757 2.432zm4.864 3.515l1.757-2.432 2.432 1.757-1.757 2.432zm4.863 3.514l1.757-2.432 2.432 1.757-1.757 2.432zM180.17 302.38l1.757-2.432 2.432 1.757-1.757 2.432zm-14.057 19.453l1.757-2.432 2.432 1.757-1.757 2.432z"/><path fill="#747D5D" d="M159.084 331.559l1.757-2.432 2.432 1.757-1.757 2.432zm9.727 7.028l1.757-2.432 2.432 1.757-1.757 2.432zm9.726 7.028l1.757-2.432 2.432 1.757-1.757 2.432zm-14.59-10.542l1.757-2.432 2.432 1.757-1.757 2.432zm9.727 7.029l1.757-2.432 2.432 1.757-1.757 2.432zm9.726 7.028l1.757-2.432 2.432 1.757-1.757 2.432zm4.864 3.514l1.757-2.432 2.432 1.757-1.757 2.432zm4.47-52.288l1.757-2.432 2.432 1.757-1.757 2.432zm9.727 7.028l1.757-2.432 2.432 1.757-1.757 2.432zm9.727 7.029l1.757-2.432 2.432 1.757-1.757 2.432zm-24.317-17.571l1.757-2.432 2.432 1.757-1.757 2.432zm9.727 7.028l1.757-2.432 2.432 1.757-1.757 2.432zm-20.944 3.373l1.757-2.432 2.432 1.757-1.757 2.432zm30.67 3.655l1.757-2.432 2.432 1.757-1.757 2.432zm9.727 7.029l1.757-2.432 2.432 1.757-1.757 2.432zm4.863 3.514l1.757-2.432 2.432 1.757-1.757 2.432zm-7.027 9.726l1.757-2.432 2.432 1.757-1.757 2.432zm-7.03 9.727l1.757-2.432 2.432 1.757-1.757 2.432zm-7.027 9.726l1.757-2.432 2.432 1.757-1.757 2.432zm17.57-24.316l1.757-2.432 2.432 1.757-1.757 2.432zm-7.029 9.727l1.757-2.432 2.432 1.757-1.757 2.432zm-7.027 9.726l1.757-2.432 2.432 1.757-1.757 2.432zm-7.028 9.726l1.757-2.432 2.432 1.757-1.757 2.432z"/><path fill="#747D5D" d="M183.684 297.517l1.757-2.432 2.432 1.757-1.757 2.432zm-14.057 19.452l1.757-2.432 2.432 1.757-1.757 2.432zm-7.029 9.727l1.757-2.432 2.432 1.757-1.757 2.432zm30.812-22.151l1.757-2.432 2.432 1.757-1.757 2.432zm9.727 7.028l1.757-2.432 2.432 1.757-1.757 2.432zm9.726 7.028l1.757-2.432 2.432 1.757-1.757 2.432zm-24.316-17.57l1.757-2.432 2.432 1.757-1.757 2.432zm9.726 7.028l1.757-2.432 2.432 1.757-1.757 2.432zm9.727 7.028l1.757-2.432 2.432 1.757-1.757 2.432zm9.727 7.028l1.757-2.432 2.432 1.757-1.757 2.432zm-7.03 9.727l1.757-2.432 2.432 1.757-1.757 2.432zm-7.027 9.726l1.757-2.432 2.432 1.757-1.757 2.432zm-7.029 9.727l1.757-2.432 2.432 1.757-1.757 2.432zm17.57-24.316l1.757-2.432 2.432 1.757-1.757 2.432zm-7.027 9.726l1.757-2.432 2.432 1.757-1.757 2.432zm-7.03 9.726l1.757-2.432 2.432 1.757-1.757 2.432zm-7.027 9.727l1.757-2.432 2.432 1.757-1.757 2.432z"/><path d="M246 6l-75 215" stroke="#1B3025" stroke-width="14" stroke-linejoin="round"/><path d="M166.717 226.963a7 7 0 00-1.434-13.926l1.434 13.926zm-165 17l165-17-1.434-13.926-165 17 1.434 13.926z" fill="#1B3025"/><circle cx="41.5" cy="207.5" r="4.5" fill="#C8A255"/><path fill="#683911" d="M17 45h2v16h-2z"/><path fill="#683911" d="M28.832 34.169l1.013 1.013-10.831 10.83L18 45zM7.11 34.11l-1 1L17 46l1-1z"/><circle cx="18.5" cy="25.5" r="10.5" fill="#CD6125"/><circle cx="29" cy="35" r="7" fill="#CD6125"/><circle cx="8" cy="35" r="7" fill="#CD6125"/><path fill="#1B3025" d="M282 42h2v16h-2z"/><path fill="#1B3025" d="M293.832 31.169l1.013 1.013-10.831 10.83L283 42zm-21.723-.059l-1 1L282 43l1-1z"/><circle cx="283.5" cy="22.5" r="10.5" fill="#CD6125"/><circle cx="294" cy="32" r="7" fill="#CD6125"/><circle cx="273" cy="32" r="7" fill="#CD6125"/><path fill="#1B3025" d="M361 116h2v16h-2z"/><path fill="#1B3025" d="M372.832 105.169l1.013 1.013-10.831 10.83L362 116zm-21.723-.06l-1 1L361 116.999l1-1z"/><circle cx="362.5" cy="96.5" r="10.5" fill="#C8A255"/><circle cx="373" cy="106" r="7" fill="#C8A255"/><circle cx="352" cy="106" r="7" fill="#C8A255"/><path d="M249 149h28v36h-28v-36zm40-20h91v56h-91v-56z" fill="#1B3025"/><path fill="#FFDC96" d="M299 149h44v36h-44z"/><path d="M277 101h12v84h-12v-84z" fill="#747D5D"/><path d="M312 101h6v30h-6v-30zm12 0h6v30h-6v-30zm21.602 53v1.107h-47.601V154zm-.602 2v1h-47v-1zm0 2v1h-47v-1zm0 3v-1h-47v1zm-23 18h16v6h-16v-6z" fill="#1B3025"/><path fill="#683911" d="M299 135h8v8h-8zm12 0h8v8h-8zm12 0h8v8h-8zm12 0h8v8h-8z"/><path fill="#CD6125" d="M351 136h2v17h-2zm0 25h2v17h-2zm4-25h2v17h-2zm0 25h2v17h-2zm4-25h2v17h-2zm0 25h2v17h-2zm4-25h2v17h-2zm0 25h2v17h-2zm4-25h2v17h-2zm0 25h2v17h-2zm4-25h2v17h-2zm0 25h2v17h-2z"/><path fill="#FFDC96" d="M312 97h6v4h-6zm12 0h6v4h-6z"/><path fill="#313131" d="M312 85h6v12h-6zm12 0h6v12h-6z"/><path fill="#CD6125" d="M277 101h4v4h-4zm0 8h4v4h-4zm0 8h4v4h-4zm0 8h4v4h-4zm0 8h4v4h-4zm0 8h4v4h-4zm0 16h4v4h-4zm0 16h4v4h-4zm0-24h4v4h-4zm0 16h4v4h-4zm0 16h4v4h-4zm8-80h4v4h-4zm0 8h4v4h-4zm0 8h4v4h-4zm0 8h4v4h-4zm0 8h4v4h-4zm0 8h4v4h-4zm0 16h4v4h-4zm0 16h4v4h-4zm0-24h4v4h-4zm0 16h4v4h-4zm0 16h4v4h-4zm-4-76h4v4h-4zm0 8h4v4h-4zm0 8h4v4h-4zm0 8h4v4h-4zm0 8h4v4h-4zm0 16h4v4h-4zm0 16h4v4h-4zm0-24h4v4h-4zm0 16h4v4h-4zm0 16h4v4h-4z"/><path fill="#747D5D" d="M257 166h12v19h-12z"/><path fill="#1B3025" d="M1 377h1.107v15.503H1z"/><path fill="#1B3025" d="M1 392h45v57H1z"/><path fill="#000" d="M11 416h25v35H11z"/><g clip-path="url(#clip0)"><path d="M31.412 435.384s.519 1.548.744 2.075c.225.527.592 1.001 1.168 1.605.632.665.962 1 1.813 1.735.85.737 4.392 3.714 5.482 4.1 1.09.387.814-2.705.814-2.705l-.082-3.939-7.903-3.003-2.036.132z" fill="#FFDC96"/><path d="M40.76 441.49s-1.991-1.253-2.823-2.106c-.833-.854-1.877-2.221-2.965-2.748-2.427-1.174-6.382-1.355-6.382-1.355s-.678-1.028-1.24-1.545c-.56-.517-2.694-1.008-2.694-1.008l.036-1.458 3.427-1.946h12.52l.121 12.166z" fill="#CD6125"/><path d="M25.39 434.544l-.014 1.374h1.615l1.614-.638s-.332-1.207-.988-1.792c-.915-.818-2.968-.762-2.968-.762s-.04.607.12 1.039c.16.432.622.779.622.779zm-.043-3.645a.74.74 0 01.092.359c0 .413-.354.746-.767.746l.018-.733.657-.372z" fill="#FFDC96"/><path d="M28.328 431.832c.429-.011.772-.176.767-.37-.004-.193-.356-.341-.784-.331-.428.011-.772.176-.767.37.005.193.356.341.784.331z" fill="#000"/><path d="M31.121 429.356a1.34 1.34 0 00-2.678 0h2.678z" fill="#CD6125"/><path d="M33.739 429.35a1.338 1.338 0 10-2.678 0h2.678z" fill="#CD6125"/><path d="M32.99 429.35a.591.591 0 00-1.181 0h1.18zm-2.617 0a.591.591 0 10-1.182 0h1.182z" fill="#000"/></g><path fill="#1B3025" d="M23 359h1v18h-1zm2 17h1.107v15.503H25zm-4 0h1.107v15.503H21zm8 0h1.107v15.503H29zm4 0h1v13h-1zm8 0h1v13h-1zm-4 0h1v13h-1zm8 1h1v11h-1zm-40 0h1.107v15.503H5zm4 0h1.107v15.503H9zm4 0h1v14h-1z"/><path fill="#1B3025" d="M46 376v1H1v-1z"/><path fill="#CD6125" d="M46 356v3H1v-3z"/><path fill="#1B3025" d="M17 376h1.107v15.503H17z"/><path fill="#747D5D" d="M46 410h120v39H46zm0-34h92v34H46z"/><path fill="#1B3025" d="M61 348h43v28H61z"/><path fill="#CD6125" d="M61 344h43v4H61z"/><path fill="#1B3025" d="M166 406v4H53v-4z"/><path fill="#CD6125" d="M46 388v4H1v-4z"/><circle cx="23.5" cy="415.5" r="12.5" fill="#000"/><path fill="#FFDC96" d="M66 383h11v23H66zm24 0h11v23H90zm24 0h11v23h-11z"/><circle cx="67.628" cy="427.627" r="9.413" fill="#FFDC96"/><path fill="#000" d="M58 429h19v20H58z"/><path fill="#747D5D" d="M67 416h1v33h-1z"/><path fill="#747D5D" d="M77 418l.783.783-9.758 9.757-.782-.783z"/><path fill="#747D5D" d="M58 418l-.783.783 9.675 9.674.783-.782z"/><path fill="#747D5D" d="M78 429v-1H57v1z"/><circle cx="94.628" cy="427.627" r="9.413" fill="#FFDC96"/><path fill="#000" d="M85 429h19v20H85z"/><path fill="#747D5D" d="M94 416h1v33h-1z"/><path fill="#747D5D" d="M104 418l.783.783-9.758 9.757-.782-.783z"/><path fill="#747D5D" d="M85 418l-.783.783 9.675 9.674.783-.782z"/><path fill="#747D5D" d="M105 429v-1H84v1z"/><circle cx="121.628" cy="427.627" r="9.413" fill="#FFDC96"/><path fill="#000" d="M112 429h19v20h-19z"/><path fill="#747D5D" d="M121 416h1v33h-1z"/><path fill="#747D5D" d="M131 418l.783.783-9.758 9.757-.782-.783z"/><path fill="#747D5D" d="M112 418l-.783.783 9.675 9.674.783-.782z"/><path fill="#747D5D" d="M132 429v-1h-21v1z"/><circle cx="148.628" cy="427.627" r="9.413" fill="#FFDC96"/><path fill="#000" d="M139 429h19v20h-19z"/><path fill="#747D5D" d="M148 416h1v33h-1z"/><path fill="#747D5D" d="M158 418l.783.783-9.758 9.757-.782-.783z"/><path fill="#747D5D" d="M139 418l-.783.783 9.675 9.674.783-.782z"/><path fill="#747D5D" d="M159 429v-1h-21v1z"/><path d="M157 393h1v14h-1v-14zm-4 0h1v14h-1v-14z" fill="#1B3025"/><path d="M153 393h1v14h-1v-14zm-4 0h1v14h-1v-14zm-4 0h1v14h-1v-14zm-4 0h1v14h-1v-14zm-12 1h1v14h-1v-14zm-12 0h1v14h-1v-14zm-12 0h1v14h-1v-14zm-12-1h1v14h-1v-14zm-12 0h1v14h-1v-14zm-12 0h1v14h-1v-14zm-12 0h1v14h-1v-14zm80 0h1v14h-1v-14zm-12 1h1v14h-1v-14zm-12 0h1v14h-1v-14zm-12 0h1v14h-1v-14zm-12-1h1v14h-1v-14zm-12 0h1v14h-1v-14zm-12 0h1v14h-1v-14zm-12 0h1v14h-1v-14zm108 0h1v14h-1v-14zm4 0h1v14h-1v-14zm-32 0h1v16h-1zm-12 1h1v16h-1zm-12 0h1v16h-1zm-12 0h1v16h-1zm-12-1h1v16h-1zm-12 0h1v16h-1zm-12 0h1v16h-1z" fill="#1B3025"/><path fill="#1B3025" d="M166 393v1H53v-1zM23.5 346L46 356H1l22.5-10zM36 424h10v25H36z"/><path d="M68 353h11v18H68v-18zm18 0h11v18H86v-18z" fill="#747D5D"/><path fill="#C8A255" d="M285 370h2v19h-2z"/><path d="M290.863 362.552c0 4.807-4.384 8.705-9.793 8.705-5.408 0-9.793-3.898-9.793-8.705" stroke="#C8A255" stroke-width="1.5"/><path d="M301.605 362.619c0 4.807-4.384 8.704-9.793 8.704-5.408 0-9.792-3.897-9.792-8.704" stroke="#C8A255" stroke-width="1.5"/><circle cx="269.171" cy="350.963" r="11.589" fill="#CD6125"/><circle cx="301.829" cy="350.963" r="11.589" fill="#CD6125"/><circle cx="285.5" cy="347.276" r="15.276" fill="#CD6125"/><path fill="#CD6125" d="M268.117 347.803h34.766v14.749h-34.766z"/><path d="M18.264 520.608h2.376l2.79 7.272c.132.372.276.798.432 1.278.168.48.318.936.45 1.368.156.504.312 1.02.468 1.548h.036c.168-.528.33-1.044.486-1.548a81.3 81.3 0 01.432-1.368l.45-1.278 2.736-7.272h2.448V534h-1.764v-9.126c.012-.396.03-.774.054-1.134.012-.408.03-.834.054-1.278h-.036l-.324 1.134c-.096.312-.198.648-.306 1.008-.108.348-.21.654-.306.918L25.482 534h-1.44l-3.258-8.478a20.48 20.48 0 01-.306-.918c-.108-.36-.21-.696-.306-1.008l-.324-1.134h-.036c.012.444.03.87.054 1.278l.036 1.134c.012.384.018.726.018 1.026v8.1h-1.656v-13.392zm16.99 16.758c-.276 0-.552-.018-.828-.054a2.247 2.247 0 01-.594-.144v-1.44h.072c.096.06.234.102.414.126.192.036.39.054.594.054.336 0 .618-.084.846-.252.228-.156.426-.462.594-.918 0-.012.018-.078.054-.198l.126-.378c.048-.144.09-.282.126-.414.036-.132.048-.21.036-.234l-3.69-9.18h1.818l1.998 5.364c.096.276.192.564.288.864l.27.846c.084.312.168.612.252.9h.036c.084-.288.174-.588.27-.9l.27-.846c.096-.3.192-.588.288-.864l1.926-5.364h1.746l-4.104 10.548a7.986 7.986 0 01-.612 1.242 2.704 2.704 0 01-.63.756 1.61 1.61 0 01-.72.378 3.077 3.077 0 01-.846.108zm19.317-3.096c-.96 0-1.83-.174-2.61-.522a5.93 5.93 0 01-1.98-1.44 6.788 6.788 0 01-1.26-2.214c-.3-.852-.45-1.782-.45-2.79 0-.984.144-1.902.432-2.754a6.542 6.542 0 011.242-2.214 5.978 5.978 0 011.998-1.476c.792-.36 1.686-.54 2.682-.54.792 0 1.494.108 2.106.324a4.982 4.982 0 011.62.864c.48.384.858.846 1.134 1.386.288.528.48 1.116.576 1.764h-1.836c-.156-.828-.546-1.488-1.17-1.98-.612-.504-1.434-.756-2.466-.756-.708 0-1.338.138-1.89.414a3.97 3.97 0 00-1.404 1.116c-.372.48-.66 1.05-.864 1.71a7.64 7.64 0 00-.288 2.142c0 .804.102 1.536.306 2.196.216.66.516 1.224.9 1.692.396.468.87.834 1.422 1.098a4.37 4.37 0 001.836.378c.612 0 1.14-.096 1.584-.288.456-.192.834-.45 1.134-.774a3.43 3.43 0 00.72-1.116c.18-.432.288-.888.324-1.368h1.836c0 .336-.042.678-.126 1.026-.072.336-.18.666-.324.99a7.033 7.033 0 01-.504.936 4.523 4.523 0 01-.648.774c-.948.948-2.292 1.422-4.032 1.422zm10.636-.072a4.57 4.57 0 01-1.296-.18 3.017 3.017 0 01-1.044-.504 2.477 2.477 0 01-.684-.846c-.169-.348-.252-.756-.252-1.224 0-.564.096-1.026.288-1.386.203-.36.486-.648.846-.864.372-.216.81-.384 1.314-.504.515-.12 1.085-.216 1.71-.288.36-.036.683-.084.972-.144a3.35 3.35 0 00.737-.234c.204-.108.36-.24.468-.396.108-.156.162-.36.162-.612 0-.528-.18-.942-.54-1.242-.348-.3-.858-.45-1.53-.45-.767 0-1.344.168-1.728.504-.371.336-.57.792-.593 1.368h-1.62c.011-.408.102-.798.27-1.17.168-.372.413-.702.738-.99a3.562 3.562 0 011.206-.684c.492-.168 1.061-.252 1.71-.252.456 0 .882.042 1.278.126.395.084.75.216 1.061.396.408.24.726.576.954 1.008.228.432.343.972.343 1.62v4.518c0 .384.066.672.197.864.132.192.408.24.828.144h.073v1.17c-.12.036-.252.066-.397.09-.132.036-.3.054-.504.054-.516 0-.906-.12-1.17-.36-.264-.252-.444-.636-.54-1.152h-.017a4.29 4.29 0 01-.54.612 3.953 3.953 0 01-.703.522 3.794 3.794 0 01-.9.342c-.323.096-.69.144-1.097.144zm.414-1.224c.48 0 .894-.078 1.242-.234a2.89 2.89 0 00.882-.612c.24-.252.413-.528.521-.828.12-.3.18-.588.18-.864v-1.584c-.24.156-.558.294-.953.414a12.73 12.73 0 01-1.17.27c-.396.072-.756.15-1.08.234-.325.072-.6.18-.828.324a1.503 1.503 0 00-.54.522c-.12.204-.18.474-.18.81 0 .312.053.57.161.774.108.192.253.348.432.468.18.12.385.204.612.252.24.036.48.054.72.054zm8.649-6.894h.054a3.78 3.78 0 011.17-1.35c.48-.348 1.044-.522 1.692-.522.132 0 .24.012.324.036.096.012.192.036.288.072v1.584h-.054a2.01 2.01 0 00-.684-.09c-.372 0-.726.072-1.062.216-.336.132-.63.324-.882.576a2.927 2.927 0 00-.612.918c-.144.36-.216.768-.216 1.224V534h-1.674v-9.666h1.656v1.746zm7-.378h.054a4.028 4.028 0 011.26-1.17c.492-.288 1.092-.432 1.8-.432 1.02 0 1.818.27 2.394.81.576.54.864 1.32.864 2.34V534h-1.656v-6.552c0-.624-.192-1.104-.576-1.44-.372-.336-.888-.504-1.548-.504-.372 0-.72.066-1.044.198-.312.12-.582.294-.81.522a2.476 2.476 0 00-.54.828c-.12.324-.18.678-.18 1.062V534h-1.674v-9.666h1.656v1.368zm11.687 8.496a4.57 4.57 0 01-1.296-.18 3.017 3.017 0 01-1.044-.504 2.477 2.477 0 01-.684-.846c-.168-.348-.252-.756-.252-1.224 0-.564.096-1.026.288-1.386.204-.36.486-.648.846-.864.372-.216.81-.384 1.314-.504.516-.12 1.086-.216 1.71-.288.36-.036.684-.084.972-.144.288-.06.534-.138.738-.234.204-.108.36-.24.468-.396.108-.156.162-.36.162-.612 0-.528-.18-.942-.54-1.242-.348-.3-.858-.45-1.53-.45-.768 0-1.344.168-1.728.504-.372.336-.57.792-.594 1.368h-1.62c.012-.408.102-.798.27-1.17.168-.372.414-.702.738-.99a3.562 3.562 0 011.206-.684c.492-.168 1.062-.252 1.71-.252.456 0 .882.042 1.278.126.396.084.75.216 1.062.396.408.24.726.576.954 1.008.228.432.342.972.342 1.62v4.518c0 .384.066.672.198.864.132.192.408.24.828.144h.072v1.17c-.12.036-.252.066-.396.09-.132.036-.3.054-.504.054-.516 0-.906-.12-1.17-.36-.264-.252-.444-.636-.54-1.152h-.018a4.29 4.29 0 01-.54.612 3.953 3.953 0 01-.702.522 3.794 3.794 0 01-.9.342c-.324.096-.69.144-1.098.144zm.414-1.224c.48 0 .894-.078 1.242-.234.36-.168.654-.372.882-.612.24-.252.414-.528.522-.828.12-.3.18-.588.18-.864v-1.584c-.24.156-.558.294-.954.414a12.73 12.73 0 01-1.17.27c-.396.072-.756.15-1.08.234-.324.072-.6.18-.828.324a1.503 1.503 0 00-.54.522c-.12.204-.18.474-.18.81 0 .312.054.57.162.774.108.192.252.348.432.468.18.12.384.204.612.252.24.036.48.054.72.054zM106.54 534v-1.35h-.036c-.348.48-.75.864-1.206 1.152-.444.276-1.014.414-1.71.414-1.008 0-1.806-.282-2.394-.846-.588-.564-.882-1.356-.882-2.376v-6.66h1.674v6.57c0 .612.18 1.092.54 1.44.372.336.894.504 1.566.504.372 0 .708-.066 1.008-.198.3-.132.552-.312.756-.54.216-.24.378-.522.486-.846.12-.324.18-.672.18-1.044v-5.886h1.674V534h-1.656zm4.22-13.392h1.674V534h-1.674v-13.392zm3.61 3.726h1.512v-3.042h1.656v3.042h1.998v1.296h-1.998v6.102c0 .348.084.588.252.72.18.12.426.18.738.18.144 0 .294-.012.45-.036.168-.036.3-.066.396-.09h.054v1.404a5.843 5.843 0 01-1.35.162c-.648-.012-1.176-.162-1.584-.45-.408-.3-.612-.804-.612-1.512v-6.48h-1.512v-1.296zM27.75 162.608h1.836v11.718h6.93V176H27.75v-13.392zm13.53 13.59a4.57 4.57 0 01-1.295-.18 3.017 3.017 0 01-1.044-.504 2.477 2.477 0 01-.684-.846c-.168-.348-.252-.756-.252-1.224 0-.564.096-1.026.288-1.386.204-.36.486-.648.846-.864.372-.216.81-.384 1.314-.504.516-.12 1.086-.216 1.71-.288.36-.036.684-.084.972-.144.288-.06.534-.138.738-.234.204-.108.36-.24.468-.396.108-.156.162-.36.162-.612 0-.528-.18-.942-.54-1.242-.348-.3-.858-.45-1.53-.45-.768 0-1.344.168-1.728.504-.372.336-.57.792-.594 1.368h-1.62c.012-.408.102-.798.27-1.17.168-.372.414-.702.738-.99a3.562 3.562 0 011.206-.684c.492-.168 1.062-.252 1.71-.252.456 0 .882.042 1.278.126.396.084.75.216 1.062.396.408.24.726.576.954 1.008.228.432.342.972.342 1.62v4.518c0 .384.066.672.198.864.132.192.408.24.828.144h.072v1.17c-.12.036-.252.066-.396.09-.132.036-.3.054-.504.054-.516 0-.906-.12-1.17-.36-.264-.252-.444-.636-.54-1.152h-.018a4.29 4.29 0 01-.54.612 3.953 3.953 0 01-.702.522 3.794 3.794 0 01-.9.342c-.324.096-.69.144-1.098.144zm.415-1.224c.48 0 .894-.078 1.242-.234.36-.168.654-.372.882-.612.24-.252.414-.528.522-.828.12-.3.18-.588.18-.864v-1.584c-.24.156-.558.294-.954.414a12.73 12.73 0 01-1.17.27c-.396.072-.756.15-1.08.234-.324.072-.6.18-.828.324a1.503 1.503 0 00-.54.522c-.12.204-.18.474-.18.81 0 .312.054.57.162.774.108.192.252.348.432.468.18.12.384.204.612.252.24.036.48.054.72.054zm11.727 1.314a3.75 3.75 0 01-1.764-.414 3.213 3.213 0 01-1.26-1.242h-.054V176h-1.656v-13.392h1.674v3.42c0 .372-.006.72-.018 1.044-.012.324-.024.588-.036.792h.054a3.723 3.723 0 011.26-1.26c.528-.336 1.146-.504 1.854-.504.612 0 1.17.12 1.674.36.504.228.936.564 1.296 1.008.372.432.654.966.846 1.602.204.624.306 1.332.306 2.124 0 .78-.096 1.488-.288 2.124a4.713 4.713 0 01-.828 1.602c-.36.432-.798.768-1.314 1.008s-1.098.36-1.746.36zm-.18-1.386c.444 0 .828-.09 1.152-.27.336-.192.612-.45.828-.774.228-.336.396-.726.504-1.17.108-.456.162-.948.162-1.476s-.054-1.02-.162-1.476a3.578 3.578 0 00-.486-1.17 2.222 2.222 0 00-.828-.774c-.324-.192-.708-.288-1.152-.288-.516 0-.96.096-1.332.288a2.709 2.709 0 00-.936.792c-.24.336-.42.732-.54 1.188-.12.444-.18.924-.18 1.44 0 .528.06 1.02.18 1.476.132.444.318.834.558 1.17.252.324.564.582.936.774.372.18.804.27 1.296.27zm10.526 1.368c-.732 0-1.392-.132-1.98-.396a4.434 4.434 0 01-1.476-1.08 5.205 5.205 0 01-.954-1.62 6.066 6.066 0 01-.324-1.998c0-.696.108-1.35.324-1.962a4.945 4.945 0 01.954-1.62c.408-.468.9-.834 1.476-1.098.588-.264 1.248-.396 1.98-.396s1.386.132 1.962.396c.576.264 1.068.63 1.476 1.098.408.456.72.996.936 1.62.216.612.324 1.266.324 1.962 0 .708-.108 1.374-.324 1.998a4.94 4.94 0 01-.936 1.62c-.408.456-.9.816-1.476 1.08-.576.264-1.23.396-1.962.396zm-.018-1.368c.492 0 .924-.096 1.296-.288.384-.192.702-.456.954-.792a3.41 3.41 0 00.558-1.17c.132-.456.198-.948.198-1.476a5.22 5.22 0 00-.198-1.458A3.397 3.397 0 0066 168.53a2.593 2.593 0 00-.954-.81c-.372-.192-.804-.288-1.296-.288a2.9 2.9 0 00-1.314.288 2.636 2.636 0 00-.936.81 3.65 3.65 0 00-.576 1.188 5.71 5.71 0 00-.18 1.458c0 .528.06 1.02.18 1.476.132.444.324.834.576 1.17.252.336.564.6.936.792a2.9 2.9 0 001.314.288zm8.33-6.822h.053a3.78 3.78 0 011.17-1.35c.48-.348 1.044-.522 1.692-.522.132 0 .24.012.324.036.096.012.192.036.288.072v1.584h-.054a2.01 2.01 0 00-.684-.09c-.372 0-.726.072-1.062.216-.336.132-.63.324-.882.576a2.927 2.927 0 00-.612.918c-.144.36-.216.768-.216 1.224V176h-1.674v-9.666h1.656v1.746zm7.872 8.118a4.57 4.57 0 01-1.296-.18 3.017 3.017 0 01-1.044-.504 2.477 2.477 0 01-.684-.846c-.168-.348-.252-.756-.252-1.224 0-.564.096-1.026.288-1.386.204-.36.486-.648.846-.864.372-.216.81-.384 1.314-.504.516-.12 1.086-.216 1.71-.288.36-.036.684-.084.972-.144.288-.06.534-.138.738-.234.204-.108.36-.24.468-.396.108-.156.162-.36.162-.612 0-.528-.18-.942-.54-1.242-.348-.3-.858-.45-1.53-.45-.768 0-1.344.168-1.728.504-.372.336-.57.792-.594 1.368h-1.62c.012-.408.102-.798.27-1.17.168-.372.414-.702.738-.99a3.562 3.562 0 011.206-.684c.492-.168 1.062-.252 1.71-.252.456 0 .882.042 1.278.126.396.084.75.216 1.062.396.408.24.726.576.954 1.008.228.432.342.972.342 1.62v4.518c0 .384.066.672.198.864.132.192.408.24.828.144h.072v1.17c-.12.036-.252.066-.396.09-.132.036-.3.054-.504.054-.516 0-.906-.12-1.17-.36-.264-.252-.444-.636-.54-1.152h-.018a4.29 4.29 0 01-.54.612 3.953 3.953 0 01-.702.522 3.794 3.794 0 01-.9.342c-.324.096-.69.144-1.098.144zm.414-1.224c.48 0 .894-.078 1.242-.234.36-.168.654-.372.882-.612.24-.252.414-.528.522-.828.12-.3.18-.588.18-.864v-1.584c-.24.156-.558.294-.954.414a12.73 12.73 0 01-1.17.27c-.396.072-.756.15-1.08.234-.324.072-.6.18-.828.324a1.503 1.503 0 00-.54.522c-.12.204-.18.474-.18.81 0 .312.054.57.162.774.108.192.252.348.432.468.18.12.384.204.612.252.24.036.48.054.72.054zm6.224-8.64h1.512v-3.042h1.656v3.042h1.998v1.296h-1.998v6.102c0 .348.084.588.252.72.18.12.426.18.738.18.144 0 .294-.012.45-.036.168-.036.3-.066.396-.09h.054v1.404a5.843 5.843 0 01-1.35.162c-.648-.012-1.176-.162-1.584-.45-.408-.3-.612-.804-.612-1.512v-6.48H86.59v-1.296zm11.208 9.936c-.732 0-1.392-.132-1.98-.396a4.434 4.434 0 01-1.476-1.08 5.205 5.205 0 01-.954-1.62 6.066 6.066 0 01-.324-1.998c0-.696.108-1.35.324-1.962a4.945 4.945 0 01.954-1.62c.408-.468.9-.834 1.476-1.098.588-.264 1.248-.396 1.98-.396s1.386.132 1.962.396c.576.264 1.068.63 1.476 1.098.408.456.72.996.936 1.62.216.612.324 1.266.324 1.962 0 .708-.108 1.374-.324 1.998a4.94 4.94 0 01-.936 1.62c-.408.456-.9.816-1.476 1.08-.576.264-1.23.396-1.962.396zm-.018-1.368c.492 0 .924-.096 1.296-.288.384-.192.702-.456.954-.792a3.41 3.41 0 00.558-1.17c.132-.456.198-.948.198-1.476a5.22 5.22 0 00-.198-1.458 3.397 3.397 0 00-.558-1.188 2.589 2.589 0 00-.954-.81c-.372-.192-.804-.288-1.296-.288a2.9 2.9 0 00-1.314.288 2.636 2.636 0 00-.936.81 3.65 3.65 0 00-.576 1.188 5.71 5.71 0 00-.18 1.458c0 .528.06 1.02.18 1.476.132.444.324.834.576 1.17.252.336.564.6.936.792a2.9 2.9 0 001.314.288zm8.33-6.822h.054a3.78 3.78 0 011.17-1.35c.48-.348 1.044-.522 1.692-.522.132 0 .24.012.324.036.096.012.192.036.288.072v1.584h-.054a2.01 2.01 0 00-.684-.09c-.372 0-.726.072-1.062.216-.336.132-.63.324-.882.576a2.927 2.927 0 00-.612.918c-.144.36-.216.768-.216 1.224V176h-1.674v-9.666h1.656v1.746zm6.532 11.286c-.276 0-.552-.018-.828-.054a2.247 2.247 0 01-.594-.144v-1.44h.072c.096.06.234.102.414.126.192.036.39.054.594.054.336 0 .618-.084.846-.252.228-.156.426-.462.594-.918 0-.012.018-.078.054-.198l.126-.378c.048-.144.09-.282.126-.414.036-.132.048-.21.036-.234l-3.69-9.18h1.818l1.998 5.364c.096.276.192.564.288.864l.27.846c.084.312.168.612.252.9h.036c.084-.288.174-.588.27-.9l.27-.846c.096-.3.192-.588.288-.864l1.926-5.364h1.746l-4.104 10.548a7.986 7.986 0 01-.612 1.242 2.704 2.704 0 01-.63.756 1.61 1.61 0 01-.72.378 3.077 3.077 0 01-.846.108zm161.82 341.242h1.926l1.926 7.884c.084.336.162.708.234 1.116.072.408.138.792.198 1.152.06.42.126.846.198 1.278h.036c.072-.444.144-.876.216-1.296.06-.36.132-.744.216-1.152.084-.408.174-.78.27-1.116l2.16-7.866h1.944l2.088 7.866c.084.336.168.708.252 1.116.096.408.174.792.234 1.152.072.42.144.852.216 1.296h.036a280.004 280.004 0 01.414-2.43c.084-.408.168-.78.252-1.116l1.998-7.884h1.89L287.44 534h-1.782l-2.196-8.568c-.084-.3-.162-.642-.234-1.026-.072-.384-.138-.75-.198-1.098a32.683 32.683 0 01-.198-1.224h-.036c-.072.42-.144.828-.216 1.224-.06.348-.132.714-.216 1.098-.072.384-.144.72-.216 1.008L279.79 534h-1.836l-3.492-13.392zm21.672 13.662c-.744 0-1.41-.132-1.998-.396a4.434 4.434 0 01-1.476-1.08 4.94 4.94 0 01-.936-1.62 6.39 6.39 0 01-.306-1.998c0-.696.108-1.35.324-1.962.228-.624.54-1.164.936-1.62a4.372 4.372 0 011.458-1.098 4.525 4.525 0 011.908-.396c.72 0 1.356.132 1.908.396.552.264 1.02.63 1.404 1.098.396.48.69 1.056.882 1.728.204.672.306 1.422.306 2.25h-7.416c.036.468.126.906.27 1.314.144.408.342.762.594 1.062.252.3.558.534.918.702.36.168.774.252 1.242.252.672 0 1.224-.144 1.656-.432.444-.3.744-.708.9-1.224h1.638a3.79 3.79 0 01-1.44 2.196c-.732.552-1.656.828-2.772.828zm-.09-8.874c-.432 0-.816.078-1.152.234a2.464 2.464 0 00-.864.612c-.24.264-.432.576-.576.936-.144.36-.24.756-.288 1.188h5.598c-.048-.936-.306-1.662-.774-2.178-.456-.528-1.104-.792-1.944-.792zm11.199 8.892a3.75 3.75 0 01-1.764-.414 3.213 3.213 0 01-1.26-1.242h-.054V534h-1.656v-13.392h1.674v3.42c0 .372-.006.72-.018 1.044-.012.324-.024.588-.036.792h.054a3.723 3.723 0 011.26-1.26c.528-.336 1.146-.504 1.854-.504.612 0 1.17.12 1.674.36.504.228.936.564 1.296 1.008.372.432.654.966.846 1.602.204.624.306 1.332.306 2.124 0 .78-.096 1.488-.288 2.124a4.713 4.713 0 01-.828 1.602c-.36.432-.798.768-1.314 1.008s-1.098.36-1.746.36zm-.18-1.386c.444 0 .828-.09 1.152-.27.336-.192.612-.45.828-.774.228-.336.396-.726.504-1.17.108-.456.162-.948.162-1.476s-.054-1.02-.162-1.476a3.578 3.578 0 00-.486-1.17 2.222 2.222 0 00-.828-.774c-.324-.192-.708-.288-1.152-.288-.516 0-.96.096-1.332.288a2.709 2.709 0 00-.936.792c-.24.336-.42.732-.54 1.188-.12.444-.18.924-.18 1.44 0 .528.06 1.02.18 1.476.132.444.318.834.558 1.17.252.324.564.582.936.774.372.18.804.27 1.296.27zm10.022 1.386c-1.344 0-2.382-.288-3.114-.864-.732-.588-1.134-1.374-1.206-2.358h1.692c.048.348.15.642.306.882s.348.432.576.576c.24.144.51.252.81.324.3.06.624.09.972.09.768 0 1.32-.144 1.656-.432.348-.3.522-.666.522-1.098 0-.528-.21-.894-.63-1.098-.408-.216-1.038-.408-1.89-.576a22.81 22.81 0 01-1.368-.324 4.56 4.56 0 01-1.152-.486 2.435 2.435 0 01-.792-.81c-.192-.336-.288-.768-.288-1.296 0-.828.306-1.482.918-1.962.624-.492 1.5-.738 2.628-.738 1.212 0 2.13.258 2.754.774.624.516.99 1.194 1.098 2.034h-1.674c-.072-.504-.288-.888-.648-1.152-.348-.264-.87-.396-1.566-.396-.66 0-1.14.132-1.44.396a1.248 1.248 0 00-.432.954c0 .252.054.462.162.63.12.156.288.288.504.396a4 4 0 00.81.27c.324.072.69.15 1.098.234.48.096.936.204 1.368.324.432.12.81.288 1.134.504.336.216.6.504.792.864.192.348.288.804.288 1.368 0 .492-.096.924-.288 1.296a2.636 2.636 0 01-.81.936c-.336.24-.744.42-1.224.54a5.89 5.89 0 01-1.566.198zm7.55-10.17c0 .24-.006.51-.018.81-.012.3-.024.57-.036.81h.054a4.06 4.06 0 011.278-1.206c.504-.288 1.11-.432 1.818-.432 1.02 0 1.818.27 2.394.81.576.54.864 1.32.864 2.34V534h-1.656v-6.552c0-.624-.192-1.104-.576-1.44-.372-.336-.888-.504-1.548-.504-.372 0-.72.066-1.044.198-.312.12-.582.294-.81.522a2.476 2.476 0 00-.54.828c-.12.324-.18.678-.18 1.062V534h-1.674v-13.392h1.674v3.51zm13.001 10.152c-.732 0-1.392-.132-1.98-.396a4.434 4.434 0 01-1.476-1.08 5.205 5.205 0 01-.954-1.62 6.066 6.066 0 01-.324-1.998c0-.696.108-1.35.324-1.962a4.945 4.945 0 01.954-1.62c.408-.468.9-.834 1.476-1.098.588-.264 1.248-.396 1.98-.396s1.386.132 1.962.396c.576.264 1.068.63 1.476 1.098.408.456.72.996.936 1.62.216.612.324 1.266.324 1.962 0 .708-.108 1.374-.324 1.998a4.94 4.94 0 01-.936 1.62c-.408.456-.9.816-1.476 1.08-.576.264-1.23.396-1.962.396zm-.018-1.368c.492 0 .924-.096 1.296-.288.384-.192.702-.456.954-.792a3.41 3.41 0 00.558-1.17c.132-.456.198-.948.198-1.476a5.22 5.22 0 00-.198-1.458 3.397 3.397 0 00-.558-1.188 2.593 2.593 0 00-.954-.81c-.372-.192-.804-.288-1.296-.288a2.9 2.9 0 00-1.314.288 2.636 2.636 0 00-.936.81 3.65 3.65 0 00-.576 1.188 5.71 5.71 0 00-.18 1.458c0 .528.06 1.02.18 1.476.132.444.324.834.576 1.17.252.336.564.6.936.792a2.9 2.9 0 001.314.288zm6.674-8.568h1.656v1.512h.054c.36-.552.786-.978 1.278-1.278.504-.312 1.104-.468 1.8-.468.612 0 1.17.12 1.674.36.516.228.954.564 1.314 1.008.372.432.66.966.864 1.602.204.624.306 1.332.306 2.124 0 .78-.096 1.482-.288 2.106a4.54 4.54 0 01-.846 1.602c-.36.444-.804.786-1.332 1.026-.516.24-1.098.36-1.746.36-.66 0-1.248-.132-1.764-.396a3.312 3.312 0 01-1.278-1.17h-.054c.012.168.018.39.018.666.012.264.018.582.018.954v2.934h-1.674v-12.942zm4.554 8.568c.444 0 .834-.09 1.17-.27.336-.192.612-.45.828-.774a3.36 3.36 0 00.504-1.152c.12-.456.18-.948.18-1.476s-.054-1.02-.162-1.476a3.355 3.355 0 00-.504-1.17 2.222 2.222 0 00-.828-.774 2.317 2.317 0 00-1.17-.288c-.516 0-.96.096-1.332.288a2.709 2.709 0 00-.936.792c-.24.336-.42.732-.54 1.188-.12.444-.18.924-.18 1.44 0 .504.054.984.162 1.44.108.444.282.834.522 1.17.24.324.546.582.918.774.372.192.828.288 1.368.288zM283.03 212.608h9.162v1.62h-7.326v4.014h6.102v1.566h-6.102V226h-1.836v-13.392zm13.214 13.59a4.57 4.57 0 01-1.296-.18 3.017 3.017 0 01-1.044-.504 2.477 2.477 0 01-.684-.846c-.168-.348-.252-.756-.252-1.224 0-.564.096-1.026.288-1.386.204-.36.486-.648.846-.864.372-.216.81-.384 1.314-.504.516-.12 1.086-.216 1.71-.288.36-.036.684-.084.972-.144.288-.06.534-.138.738-.234.204-.108.36-.24.468-.396.108-.156.162-.36.162-.612 0-.528-.18-.942-.54-1.242-.348-.3-.858-.45-1.53-.45-.768 0-1.344.168-1.728.504-.372.336-.57.792-.594 1.368h-1.62c.012-.408.102-.798.27-1.17.168-.372.414-.702.738-.99a3.562 3.562 0 011.206-.684c.492-.168 1.062-.252 1.71-.252.456 0 .882.042 1.278.126.396.084.75.216 1.062.396.408.24.726.576.954 1.008.228.432.342.972.342 1.62v4.518c0 .384.066.672.198.864.132.192.408.24.828.144h.072v1.17c-.12.036-.252.066-.396.09-.132.036-.3.054-.504.054-.516 0-.906-.12-1.17-.36-.264-.252-.444-.636-.54-1.152h-.018a4.29 4.29 0 01-.54.612 3.953 3.953 0 01-.702.522 3.794 3.794 0 01-.9.342c-.324.096-.69.144-1.098.144zm.414-1.224c.48 0 .894-.078 1.242-.234.36-.168.654-.372.882-.612.24-.252.414-.528.522-.828.12-.3.18-.588.18-.864v-1.584c-.24.156-.558.294-.954.414a12.73 12.73 0 01-1.17.27c-.396.072-.756.15-1.08.234-.324.072-.6.18-.828.324a1.503 1.503 0 00-.54.522c-.12.204-.18.474-.18.81 0 .312.054.57.162.774.108.192.252.348.432.468.18.12.384.204.612.252.24.036.48.054.72.054zm11.188 1.296c-.72 0-1.374-.132-1.962-.396a4.434 4.434 0 01-1.476-1.08 5.205 5.205 0 01-.954-1.62 6.066 6.066 0 01-.324-1.998c0-.696.108-1.35.324-1.962a4.945 4.945 0 01.954-1.62c.408-.468.9-.834 1.476-1.098.588-.264 1.242-.396 1.962-.396 1.164 0 2.106.306 2.826.918.732.6 1.182 1.422 1.35 2.466h-1.674c-.12-.636-.39-1.134-.81-1.494-.42-.36-.984-.54-1.692-.54a2.9 2.9 0 00-1.314.288 2.709 2.709 0 00-.936.792 3.65 3.65 0 00-.576 1.188 5.71 5.71 0 00-.18 1.458c0 .528.06 1.02.18 1.476.132.444.324.834.576 1.17.252.336.564.6.936.792a2.9 2.9 0 001.314.288c.756 0 1.35-.204 1.782-.612.444-.42.696-.99.756-1.71h1.656c-.108 1.164-.528 2.07-1.26 2.718-.72.648-1.698.972-2.934.972zm5.464-9.936h1.512v-3.042h1.656v3.042h1.998v1.296h-1.998v6.102c0 .348.084.588.252.72.18.12.426.18.738.18.144 0 .294-.012.45-.036.168-.036.3-.066.396-.09h.054v1.404a5.843 5.843 0 01-1.35.162c-.648-.012-1.176-.162-1.584-.45-.408-.3-.612-.804-.612-1.512v-6.48h-1.512v-1.296zm11.209 9.936c-.732 0-1.392-.132-1.98-.396a4.434 4.434 0 01-1.476-1.08 5.205 5.205 0 01-.954-1.62 6.066 6.066 0 01-.324-1.998c0-.696.108-1.35.324-1.962a4.945 4.945 0 01.954-1.62c.408-.468.9-.834 1.476-1.098.588-.264 1.248-.396 1.98-.396s1.386.132 1.962.396c.576.264 1.068.63 1.476 1.098.408.456.72.996.936 1.62.216.612.324 1.266.324 1.962 0 .708-.108 1.374-.324 1.998a4.94 4.94 0 01-.936 1.62c-.408.456-.9.816-1.476 1.08-.576.264-1.23.396-1.962.396zm-.018-1.368c.492 0 .924-.096 1.296-.288.384-.192.702-.456.954-.792a3.41 3.41 0 00.558-1.17c.132-.456.198-.948.198-1.476a5.22 5.22 0 00-.198-1.458 3.397 3.397 0 00-.558-1.188 2.593 2.593 0 00-.954-.81c-.372-.192-.804-.288-1.296-.288a2.9 2.9 0 00-1.314.288 2.636 2.636 0 00-.936.81 3.65 3.65 0 00-.576 1.188 5.71 5.71 0 00-.18 1.458c0 .528.06 1.02.18 1.476.132.444.324.834.576 1.17.252.336.564.6.936.792a2.9 2.9 0 001.314.288zm8.329-6.822h.054a3.78 3.78 0 011.17-1.35c.48-.348 1.044-.522 1.692-.522.132 0 .24.012.324.036.096.012.192.036.288.072v1.584h-.054a2.01 2.01 0 00-.684-.09c-.372 0-.726.072-1.062.216-.336.132-.63.324-.882.576a2.927 2.927 0 00-.612.918c-.144.36-.216.768-.216 1.224V226h-1.674v-9.666h1.656v1.746zm6.532 11.286c-.276 0-.552-.018-.828-.054a2.247 2.247 0 01-.594-.144v-1.44h.072c.096.06.234.102.414.126.192.036.39.054.594.054.336 0 .618-.084.846-.252.228-.156.426-.462.594-.918 0-.012.018-.078.054-.198l.126-.378c.048-.144.09-.282.126-.414.036-.132.048-.21.036-.234l-3.69-9.18h1.818l1.998 5.364c.096.276.192.564.288.864l.27.846c.084.312.168.612.252.9h.036c.084-.288.174-.588.27-.9l.27-.846c.096-.3.192-.588.288-.864l1.926-5.364h1.746l-4.104 10.548a7.986 7.986 0 01-.612 1.242 2.704 2.704 0 01-.63.756 1.61 1.61 0 01-.72.378 3.077 3.077 0 01-.846.108z" fill="#fff"/><path d="M1.5 528.5c0-11.046 8.954-20 20-20h94c11.046 0 20 8.954 20 20s-8.954 20-20 20h-94c-11.046 0-20-8.954-20-20zm0-358c0-11.046 8.954-20 20-20h104c11.046 0 20 8.954 20 20s-8.954 20-20 20h-104c-11.046 0-20-8.954-20-20zm241 358c0-11.046 8.954-20 20-20h104c11.046 0 20 8.954 20 20s-8.954 20-20 20h-104c-11.046 0-20-8.954-20-20zm0-308c0-11.046 8.954-20 20-20h104c11.046 0 20 8.954 20 20s-8.954 20-20 20h-104c-11.046 0-20-8.954-20-20z" stroke="#fff"/><circle cx="137.5" cy="477.5" r="10.5" fill="#CD6125"/><path d="M350.285 25.893c.587 1.401 2.84 5.078 3.833 9.6M356.892 75c-.001-12.211.14-20.162-.926-28.303-.57-4.356-.639-7.231-1.848-11.203m-9.469 11.203c3.32 2.62 5.636 4.071 8.476 8.593 1.421 2.261 3.135 6.633 3.767 8.593m-16.505-37.99c.474 2.167 3.314 5.078 6.155 6.69 2.185 1.239 6.368 2.61 7.576 2.91m18.939 3.167c-.474 2.911-1.421 3.618-3.788 5.427-2.345 1.792-6.402 2.61-9.716 2.61m7.349-12.758c-.474 1.357-1.421 1.81-5.682 9.498-1.799 3.246-4.307 8.687-4.542 11.853" stroke="#CD6125" stroke-width="1.5" stroke-linejoin="round"/><ellipse cx="337.705" cy="19.438" rx="7.812" ry="7.462" fill="#747D5D"/><ellipse cx="360.708" cy="18.195" rx="9.114" ry="8.706" fill="#747D5D"/><ellipse cx="348.121" cy="16.95" rx="10.416" ry="9.95" fill="#747D5D"/><path fill="#747D5D" d="M337.705 18.608h23.437V26.9h-23.437z"/><ellipse cx="367.934" cy="37.099" rx="7.317" ry="6.99" fill="#747D5D"/><ellipse cx="376.973" cy="35.042" rx="9.469" ry="9.045" fill="#747D5D"/><path fill="#747D5D" d="M367.504 36.689h9.469v7.401h-9.469z"/><ellipse rx="6.951" ry="6.64" transform="matrix(-1 0 0 1 343.467 43.777)" fill="#747D5D"/><ellipse rx="8.996" ry="8.593" transform="matrix(-1 0 0 1 334.063 41.823)" fill="#747D5D"/><path fill="#747D5D" d="M343.059 43.388h-8.996v7.03h8.996z"/><circle cx="189.764" cy="318.764" r="4" transform="rotate(-9.599 189.764 318.764)" stroke="#747D5D" stroke-width="2"/><path fill="#747D5D" d="M189.445 322.875l1.972-.333 2.835 16.762-1.972.333zm-1.943 12.499l3.944-.667.333 1.972-3.944.667zm-.834-4.931l3.944-.667.333 1.972-3.944.667z"/><circle cx="371" cy="258" r="5" fill="#747D5D"/><path d="M322.007 273.815a4.33 4.33 0 11-8.66-.001 4.33 4.33 0 018.66.001zm28.141-.541a4.871 4.871 0 11-9.742 0 4.871 4.871 0 019.742 0z" fill="#C8A255"/><path d="M324 259h2l-3.452 7.239 3.247 4.979h12.447v3.68h-12.988l-5.412-8.659L324 259z" fill="#1B3025"/><path d="M346.902 265.156l2.165 2.525-10.824 7.216-3.247-3.341v-6.4h11.906z" fill="#1B3025"/><path fill="#CD6125" d="M334.996 262.99h11.906v2.165h-11.906z"/><path d="M327 259a2 2 0 11-3.999.001A2 2 0 01327 259z" fill="#1B3025"/><path d="M272.659 281.815a4.329 4.329 0 11-8.659 0 4.33 4.33 0 118.659 0zm28.141-.541a4.871 4.871 0 11-9.742 0 4.871 4.871 0 019.742 0z" fill="#C8A255"/><path d="M274.653 267h2l-3.453 7.239 3.247 4.979h12.448v3.68h-12.989l-5.412-8.659 4.159-7.239z" fill="#CD6125"/><path d="M297.555 273.156l2.164 2.525-10.823 7.216-3.248-3.341v-6.4h11.907z" fill="#CD6125"/><path fill="#747D5D" d="M285.648 270.99h11.906v2.165h-11.906z"/><path d="M277.652 267a2 2 0 11-3.999.001 2 2 0 013.999-.001z" fill="#CD6125"/><circle cx="129.172" cy="354.172" r="3" transform="rotate(-45 129.172 354.172)" fill="#1B3025"/><circle cx="134.829" cy="359.828" r="3" transform="rotate(-45 134.829 359.828)" fill="#1B3025"/><circle cx="134.83" cy="354.172" transform="rotate(45 134.83 354.172)" fill="#1B3025" r="3"/><circle cx="129.172" cy="359.828" transform="rotate(45 129.172 359.828)" fill="#1B3025" r="3"/><circle cx="132" cy="357" r="2" transform="rotate(-45 132 357)" fill="#FFDC96"/><ellipse cx="236.076" cy="445.979" rx="5.076" ry="5.979" fill="#1B3025"/><rect x="130.748" y="488" width="13.271" height="2.654" rx="1.327" fill="#683911"/><path d="M130.748 492.644c0-1.327.603-1.991 1.207-1.991h10.858c.603 0 1.206.804 1.206 1.991 0 1.327-2.413 7.299-2.413 7.299h-8.445s-2.413-5.972-2.413-7.299zM88 77h40v40H88V77zM8 105h40v28H8v-28z" fill="#1B3025"/><path d="M21 133h13v-22H21v22z" fill="#C8A255"/><path d="M48 77h40v28H48V77z" fill="#747D5D"/><path d="M48 105h40v28H48v-28z" fill="#C8A255"/><path fill="#747D5D" d="M88 117h40v16H88z"/><path fill="#CD6125" d="M52 105v4h-4v-4zm0 8v4h-4v-4zm0 8v4h-4v-4zm0 8v4h-4v-4zm4-20v4h-4v-4zm0 8v4h-4v-4zm0 8v4h-4v-4zm8-16v4h-4v-4zm0 8v4h-4v-4zm0 8v4h-4v-4zm8-16v4h-4v-4zm0 8v4h-4v-4zm0 8v4h-4v-4zm8-16v4h-4v-4zm0 8v4h-4v-4zm0 8v4h-4v-4zm-20-20v4h-4v-4zm0 8v4h-4v-4zm0 8v4h-4v-4zm0 8v4h-4v-4zm8-24v4h-4v-4zm0 8v4h-4v-4zm0 8v4h-4v-4zm0 8v4h-4v-4zm8-24v4h-4v-4zm0 8v4h-4v-4zm0 8v4h-4v-4zm0 8v4h-4v-4zm8-24v4h-4v-4zm0 8v4h-4v-4zm0 8v4h-4v-4zm0 8v4h-4v-4zm4-20v4h-4v-4zm0 8v4h-4v-4zm0 8v4h-4v-4z"/><circle cx="108" cy="117" r="11" fill="#FFDC96"/><path fill="#FFDC96" d="M105 98h6v16h-6z"/><path d="M113 96v3h-10v-3h10z" fill="#FFDC96"/><path d="M108 128c6.075 0 11-4.925 11-11H97c0 6.075 4.925 11 11 11z" fill="#CD6125"/><circle cx="103.5" cy="122.5" r="1.5" fill="#683911"/><circle cx="107.5" cy="119.5" r="1.5" fill="#683911"/><path d="M109.8 112.599a1.6 1.6 0 01-3.2 0c0-.883 1.6-3.099 1.6-3.099s1.6 2.216 1.6 3.099z" fill="#CD6125"/><circle cx="109.5" cy="124.5" r="1.5" fill="#683911"/><circle cx="113.5" cy="121.5" r="1.5" fill="#683911"/><path fill="#747D5D" d="M30 121h3v1h-3z"/><path fill="#747D5D" d="M33 121v3h-1v-3zM8 77h40v28H8zm99 8h2v11h-2zm-12 0h2v18h-2z"/><path fill="#747D5D" d="M109 85v2H97v-2zm-12 18v2h-9v-2z"/><path fill="#1B3025" d="M108 46h4v4h-4zm0 8h4v4h-4zm-4-4h4v4h-4zm40 0h4v4h-4zm-20-4h4v4h-4zm0 8h4v4h-4zm-4-4h4v4h-4zm20-4h4v4h-4zm0 8h4v4h-4zm-4-4h4v4h-4zm-20-4h4v4h-4zm0 8h4v4h-4zm-4-4h4v4h-4zm20-4h4v4h-4zm0 8h4v4h-4zm-4-4h4v4h-4z"/><path fill="#747D5D" d="M104 46h4v4h-4zm0 8h4v4h-4zm16-8h4v4h-4zm0 8h4v4h-4zm-4-4h4v4h-4zm20-4h4v4h-4zm0 8h4v4h-4zm-4-4h4v4h-4zm-20-4h4v4h-4zm0 8h4v4h-4zm-4-4h4v4h-4zm20-4h4v4h-4zm0 8h4v4h-4zm-4-4h4v4h-4zm20-4h4v4h-4zm0 8h4v4h-4zm-4-4h4v4h-4z"/><path d="M117 40h14l-2.5 6h-9l-2.5-6z" fill="#CD6125"/><path fill="#CD6125" d="M123 37h2v4h-2z"/><circle cx="153" cy="191" r="3" fill="#747D5D"/><circle cx="153" cy="199" r="3" fill="#747D5D"/><circle cx="157" cy="195" transform="rotate(90 157 195)" fill="#747D5D" r="3"/><circle cx="149" cy="195" transform="rotate(90 149 195)" fill="#747D5D" r="3"/><circle cx="153" cy="195" r="2" fill="#FFDC96"/><circle cx="45" cy="51" r="3" fill="#CD6125"/><circle cx="45" cy="59" r="3" fill="#CD6125"/><circle cx="49" cy="55" transform="rotate(90 49 55)" fill="#CD6125" r="3"/><circle cx="41" cy="55" transform="rotate(90 41 55)" fill="#CD6125" r="3"/><circle cx="45" cy="55" r="2" fill="#FFDC96"/><path d="M89 27c0 7.18-5.82 13-13 13s-13-5.82-13-13" stroke="#C8A255" stroke-width="1.5"/><path d="M75.05 27c0 4.56-4.489 8.256-10.025 8.256C59.488 35.256 55 31.559 55 27m42.05 0c0 4.56-4.489 8.256-10.025 8.256C81.488 35.256 77 31.559 77 27" stroke="#C8A255" stroke-width="1.5"/><circle cx="53" cy="18" r="8.5" fill="#747D5D" stroke="#747D5D"/><circle cx="84" cy="14" r="11.5" fill="#747D5D" stroke="#747D5D"/><circle cx="97.5" cy="17.5" r="9" fill="#747D5D" stroke="#747D5D"/><circle cx="66.5" cy="13.5" r="13" fill="#747D5D" stroke="#747D5D"/><path fill="#747D5D" d="M53 16h45v11H53z"/><path fill="#C8A255" d="M75 40h2v18h-2z"/><path d="M28.241 84.639c-.488 1.713-.323 4.812-.24 6.361h.002c1.55.083 4.648.248 6.359-.24 1.712-.489 2.2-2.2.976-3.425-1.224-1.224-2.936-.736-2.936-.736s.488-1.712-.736-2.936c-1.225-1.225-2.937-.737-3.425.976z" fill="#1B3025"/><path d="M28.002 90.998c-.125-2.325 2.2-4.402 3.3-3.3 1.1 1.099-.976 3.424-3.3 3.3z" fill="#C8A255"/><path d="M27.76 97.36c.489-1.712.324-4.811.241-6.36L28 90.998c-1.55-.083-4.648-.248-6.36.24-1.711.489-2.2 2.2-.975 3.425 1.224 1.224 2.936.736 2.936.736s-.488 1.712.736 2.936c1.225 1.225 2.937.737 3.425-.976z" fill="#1B3025"/><path d="M28.003 90.999c.124 2.324-2.201 4.4-3.3 3.3-1.1-1.1.975-3.424 3.3-3.3z" fill="#C8A255"/><path d="M34.364 91.239c-1.713-.488-4.812-.323-6.361-.24V91c-.083 1.55-.248 4.647.24 6.359.488 1.712 2.2 2.2 3.425.976 1.224-1.224.736-2.937.736-2.937s1.712.489 2.936-.736c1.225-1.224.737-2.937-.976-3.424z" fill="#1B3025"/><path d="M28.003 91.001c2.324-.124 4.401 2.2 3.3 3.3-1.1 1.102-3.424-.975-3.3-3.3z" fill="#C8A255"/><path d="M21.64 90.76c1.713.489 4.811.323 6.361.24.083-1.55.248-4.648-.24-6.36-.488-1.711-2.2-2.2-3.425-.976-1.224 1.225-.736 2.937-.736 2.937s-1.712-.488-2.936.736c-1.225 1.225-.737 2.937.976 3.425z" fill="#1B3025"/><path d="M28 90.998c-2.324.124-4.4-2.2-3.3-3.3 1.1-1.1 3.425.976 3.3 3.3zM48 77h1v28h-1zm3 0h1v28h-1zm3 0h1v28h-1zm3 0h1v28h-1zm3 0h1v28h-1zm3 0h1v28h-1zm3 0h1v28h-1zm3 0h1v28h-1zm3 0h1v28h-1zm3 0h1v28h-1zm3 0h1v28h-1zm3 0h1v28h-1zm3 0h1v28h-1zm3 0h1v28h-1z" fill="#C8A255"/><circle cx="124" cy="37" r="1" fill="#CD6125"/><path d="M315.701 70.927a3 3 0 1110.598 0L321 77l-5.299-6.073z" fill="#C8A255"/><path fill="#CD6125" d="M310 177h1v5h-1z"/><path d="M308 182h5v3h-5v-3z" fill="#747D5D"/><path d="M323.929 169.184l.01-.007-3.702-1.77-.28-.074-2.457 3.218 10.472 4.443c-.002-.336.004-.505.009-1.01-.427-1.985-2.133-3.883-4.052-4.8z" fill="#1B3025"/><path d="M327.977 173.996c-.356-1.894-2.054-3.93-3.935-4.829l.009-.008-4.028-2.159-.509 1.015-.517 2.026 8.98 3.955z" fill="#CD6125"/><path d="M318.247 170.486c.564-.362.948-.834 1.253-1.486.279-.598.568-1.382.5-2-2.5-1-5.198.526-6.367 2.744-3.514.02-6.925 1.602-9.147 4.277l2.157 3.323c3.319.629 7.593.692 9.357-3.344.284-.65.351-1.327.5-2 .019-.204.869-.479.962-.678.137-.294.343-.53.587-.712l.002-.005c.062-.037.126-.079.196-.119z" fill="#683911"/><path d="M313.976 176.516c-1.014-1.596-.799-3.705.046-5.497.593-1.257 1.507-2.514 2.504-3.023.996-.509 2.488-.524 2.979-.029-.005.496-.288 1.527-.513 2.004-.501.505-.995.509-1.5 1.514-.504 1.004-.508 1.504-1.013 2.508-.504 1.004-1.506 2.013-2.503 2.523z" fill="#747D5D"/><path d="M316.505 168.015l2.48 1.985.507-1.009c.51-1.01.013-1.507.013-1.507-.493-.498-1.84-.165-3 .531z" fill="#fff"/><path d="M318.317 168.79c.173.082.38.006.463-.171a.353.353 0 00-.162-.469.355.355 0 00-.301.64z" fill="#313131"/><path d="M304.5 174l-5.5 11h7l1-7.7-2.5-3.3z" fill="#683911"/><circle cx="263" cy="166" r="6" fill="#747D5D"/><path d="M1 487.672L12.672 476l11.673 11.672H1zm41.137 0L53.809 476l11.672 11.672H42.137z" fill="#747D5D"/><path d="M14.922 487.672L26.594 476l11.672 11.672H14.922zm40.723 0L67.317 476l11.672 11.672H55.644z" fill="#747D5D"/><path d="M69.148 487.672L80.821 476l11.672 11.672H69.148z" fill="#747D5D"/><path d="M82.656 487.672L94.328 476l11.673 11.672H82.656zm-54.023 0L40.305 476l11.672 11.672H28.633z" fill="#747D5D"/><path fill="#1B3025" d="M350 356h2v16h-2z"/><path fill="#1B3025" d="M361.832 345.169l1.013 1.013-10.831 10.83L351 356zm-21.723-.06l-1 1L350 356.999l1-1z"/><circle cx="351.5" cy="336.5" r="10.5" fill="#747D5D"/><circle cx="362" cy="346" r="7" fill="#747D5D"/><circle cx="341" cy="346" r="7" fill="#747D5D"/><path d="M237 451.5l8 14v-24" stroke="#747D5D"/><path d="M253 446h3v9h-3v-9z" fill="#313131"/><path fill="#747D5D" d="M253 455h3v26h-3z"/><path fill="#FFDC96" d="M253 455h3v2h-3z"/><path d="M261 446h3v9h-3v-9z" fill="#313131"/><path fill="#C8A255" d="M261 455h3v26h-3z"/><path fill="#FFDC96" d="M261 455h3v2h-3z"/><path d="M310 459h3v9h-3v-9z" fill="#313131"/><path fill="#C8A255" d="M310 468h3v26h-3z"/><path fill="#FFDC96" d="M310 468h3v2h-3z"/><path d="M307.58 459.208l2.898.776-2.33 8.694-2.897-.777 2.329-8.693z" fill="#313131"/><path fill="#747D5D" d="M305.25 467.901l2.898.776-6.73 25.115-2.897-.777z"/><path fill="#FFDC96" d="M305.25 467.901l2.898.776-.518 1.932-2.898-.776z"/><path d="M317 179v-3h9v3h-9z" fill="#313131"/><path fill="#683911" d="M326 179v-3h17v3z"/><path fill="#747D5D" d="M326 179v-3h2v3z"/><circle cx="289" cy="443" r="2" fill="#C8A255"/><circle cx="321" cy="443" r="2" fill="#C8A255"/><circle cx="353" cy="443" r="2" fill="#C8A255"/><circle cx="305" cy="443" r="2" fill="#C8A255"/><circle cx="337" cy="443" r="2" fill="#C8A255"/><circle cx="369" cy="443" r="2" fill="#C8A255"/><circle cx="297" cy="443" r="2" fill="#C8A255"/><circle cx="329" cy="443" r="2" fill="#C8A255"/><circle cx="361" cy="443" r="2" fill="#C8A255"/><circle cx="313" cy="443" r="2" fill="#C8A255"/><circle cx="345" cy="443" r="2" fill="#C8A255"/><circle cx="377" cy="443" r="2" fill="#C8A255"/><circle cx="385" cy="443" r="2" fill="#C8A255"/><circle cx="293" cy="443" r="2" fill="#CD6125"/><circle cx="325" cy="443" r="2" fill="#CD6125"/><circle cx="357" cy="443" r="2" fill="#CD6125"/><circle cx="309" cy="443" r="2" fill="#CD6125"/><circle cx="341" cy="443" r="2" fill="#CD6125"/><circle cx="373" cy="443" r="2" fill="#CD6125"/><circle cx="301" cy="443" r="2" fill="#CD6125"/><circle cx="333" cy="443" r="2" fill="#CD6125"/><circle cx="365" cy="443" r="2" fill="#CD6125"/><circle cx="317" cy="443" r="2" fill="#CD6125"/><circle cx="349" cy="443" r="2" fill="#CD6125"/><circle cx="381" cy="443" r="2" fill="#CD6125"/><path fill="#C8A255" d="M287 427h4v16h-4zm16 0h4v16h-4zm16 0h4v16h-4zm16 0h4v16h-4zm16 0h4v16h-4zm16 0h4v16h-4zm-72 0h4v16h-4zm16 0h4v16h-4zm16 0h4v16h-4zm16 0h4v16h-4zm16 0h4v16h-4zm16 0h4v16h-4zm8 0h4v16h-4z"/><path fill="#CD6125" d="M291 427h4v16h-4zm16 0h4v16h-4zm16 0h4v16h-4zm16 0h4v16h-4zm16 0h4v16h-4zm16 0h4v16h-4zm-72 0h4v16h-4zm16 0h4v16h-4zm16 0h4v16h-4zm16 0h4v16h-4zm16 0h4v16h-4zm16 0h4v16h-4z"/><path fill="#747D5D" d="M350 379h1v13h-1z"/><path fill="#747D5D" d="M357 385v1h-13v-1z"/><path d="M164 46h3v9h-3v-9z" fill="#313131"/><path fill="#1B3025" d="M164 55h3v26h-3z"/><path fill="#FFDC96" d="M164 55h3v2h-3z"/><path d="M155 46h3v9h-3v-9z" fill="#313131"/><path fill="#C8A255" d="M155 55h3v26h-3z"/><path fill="#FFDC96" d="M155 55h3v2h-3z"/><circle cx="50" cy="301" r="4" fill="#C8A255"/><circle cx="58" cy="301" r="4" fill="#C8A255"/><circle cx="66" cy="301" r="4" fill="#C8A255"/><circle cx="74" cy="301" r="4" fill="#C8A255"/><ellipse cx="245.076" cy="435.979" rx="5.076" ry="5.979" fill="#1B3025"/><path d="M248.743 395.767a6.878 6.878 0 1013.757.001 6.878 6.878 0 00-13.757-.001z" fill="#747D5D" stroke="#747D5D"/><circle r="6.141" transform="matrix(-1 0 0 1 233.641 396.506)" fill="#747D5D" stroke="#747D5D"/><circle r="9.655" transform="matrix(-1 0 0 1 245.279 393.154)" fill="#747D5D" stroke="#747D5D"/><path fill="#747D5D" d="M255.684 395.998H233.75v7.311h21.934z"/><defs><clipPath id="clip0"><path fill="#fff" transform="translate(22.875 427.402)" d="M0 0h18.588v22.17H0z"/></clipPath></defs></svg>