<svg width="922" height="925" fill="none" xmlns="http://www.w3.org/2000/svg"><path fill-rule="evenodd" clip-rule="evenodd" d="M921 502l-398.75 88.644-6.5-29.288L921 471v31zM553 924L392.602 374.203l28.798-8.406L584.5 924H553z" fill="#1B3025"/><path fill-rule="evenodd" clip-rule="evenodd" d="M396.043 381.505l150-381H578l-154.043 391.99-27.914-10.99z" fill="#1B3025"/><path fill-rule="evenodd" clip-rule="evenodd" d="M425.95 383.76c.685 8.256-5.453 15.504-13.709 16.189L1 434v-30l408.762-33.949c8.256-.684 15.503 5.454 16.188 13.709z" fill="#1B3025"/><path d="M459.118 507.598c44.958-5.459 85.828 26.561 91.287 71.518 5.458 44.957-26.561 85.827-71.518 91.286-44.958 5.459-85.828-26.561-91.287-71.518-5.458-44.957 26.561-85.827 71.518-91.286z" fill="#1B3025"/><path d="M447 523.833l2.902-5.252 5.252 2.903-2.903 5.251-5.251-2.902zm-11.605 21.005l2.902-5.251 5.251 2.902-2.902 5.251-5.251-2.902zm-11.61 21.005l2.902-5.251 5.252 2.902-2.902 5.251-5.252-2.902zm-11.605 21.005l2.902-5.251 5.251 2.902-2.902 5.252-5.251-2.903zm17.406-31.507l2.902-5.251 5.252 2.902-2.903 5.251-5.251-2.902zm11.613-21.006l2.903-5.252 5.251 2.903-2.902 5.251-5.252-2.902z" fill="#747D5D"/><path d="M431.938 563.494l2.902-5.251 5.251 2.902-2.902 5.252-5.251-2.903zm-13.961 12.852l2.902-5.251 5.251 2.902-2.902 5.252-5.251-2.903zm-11.606 21.005l2.902-5.251 5.252 2.902-2.903 5.252-5.251-2.903zm-5.809 10.503l2.903-5.251 5.251 2.902-2.902 5.252-5.252-2.903zm21.008 11.61l2.903-5.252 5.251 2.902-2.902 5.252-5.252-2.902zm21.004 11.609l2.903-5.252 5.251 2.903-2.902 5.251-5.252-2.902zm-31.508-17.414l2.903-5.251 5.251 2.902-2.902 5.251-5.252-2.902zm21.004 11.609l2.903-5.251 5.251 2.902-2.902 5.251-5.252-2.902zm21.008 11.609l2.902-5.251 5.252 2.902-2.903 5.251-5.251-2.902zm10.504 5.805l2.902-5.251 5.252 2.902-2.903 5.251-5.251-2.902zm10.5 5.805l2.902-5.252 5.252 2.903-2.903 5.251-5.251-2.902zm10.504 5.804l2.902-5.251 5.252 2.902-2.903 5.251-5.251-2.902zm-41.043-111.802l2.902-5.251 5.252 2.902-2.903 5.252-5.251-2.903zM420.328 584.5l2.902-5.252 5.252 2.902-2.903 5.252-5.251-2.902zm-11.605 21.005l2.902-5.252 5.251 2.903-2.902 5.251-5.251-2.902zm21.004 11.609l2.902-5.251 5.251 2.902-2.902 5.251-5.251-2.902zm21.007 11.609l2.903-5.251 5.251 2.902-2.902 5.251-5.252-2.902zm-31.507-17.414l2.902-5.251 5.251 2.902-2.902 5.252-5.251-2.903zm21.003 11.609l2.903-5.251 5.251 2.902-2.902 5.252-5.252-2.903zm21.008 11.61l2.903-5.252 5.251 2.903-2.902 5.251-5.252-2.902z" fill="#747D5D"/><path d="M471.73 640.333l2.903-5.251 5.251 2.902-2.902 5.251-5.252-2.902zm-3.722-104.891l2.902-5.251 5.251 2.902-2.902 5.251-5.251-2.902zm21.004 11.609l2.902-5.251 5.251 2.902-2.902 5.251-5.251-2.902zm21.004 11.609l2.902-5.251 5.251 2.902-2.902 5.252-5.251-2.903zm-52.512-29.023l2.902-5.251 5.252 2.902-2.903 5.252-5.251-2.903zm21.004 11.61l2.902-5.252 5.251 2.903-2.902 5.251-5.251-2.902zm-40.762 11.744l2.902-5.251 5.252 2.902-2.903 5.252-5.251-2.903zm61.77-.135l2.902-5.252 5.251 2.903-2.902 5.251-5.251-2.902zm21.004 11.609l2.902-5.252 5.251 2.903-2.902 5.251-5.251-2.902zm10.503 5.804l2.903-5.251 5.251 2.902-2.902 5.252-5.252-2.903zm-11.609 21.006l2.902-5.252 5.252 2.902-2.903 5.252-5.251-2.902zm-11.605 21.005l2.902-5.252 5.251 2.903-2.902 5.251-5.251-2.902zm-11.618 21.006l2.903-5.251 5.251 2.902-2.902 5.251-5.252-2.902zm29.024-52.513l2.902-5.252 5.251 2.903-2.902 5.251-5.251-2.902zm-11.606 21.005l2.903-5.252 5.251 2.903-2.902 5.251-5.252-2.902zM502 622.783l2.902-5.251 5.252 2.902-2.903 5.251-5.251-2.902zm-11.605 21.005l2.902-5.251 5.251 2.902-2.902 5.251-5.251-2.902z" fill="#747D5D"/><path d="M449.352 531.986l2.902-5.251 5.251 2.902-2.902 5.251-5.251-2.902zm-23.223 42.012l2.902-5.252 5.252 2.903-2.903 5.251-5.251-2.902zm-11.606 21.005l2.903-5.252 5.251 2.903-2.902 5.251-5.252-2.902zm55.836-51.408l2.903-5.251 5.251 2.902-2.902 5.252-5.252-2.903zm21.004 11.609l2.903-5.251 5.251 2.902-2.902 5.252-5.252-2.903zm21.004 11.61l2.902-5.252 5.252 2.903-2.902 5.251-5.252-2.902zm-52.512-29.023l2.903-5.252 5.251 2.903-2.902 5.251-5.252-2.902zm21.004 11.609l2.903-5.252 5.251 2.903-2.902 5.251-5.252-2.902zm21.008 11.609l2.902-5.251 5.252 2.902-2.902 5.251-5.252-2.902zm21.004 11.609l2.902-5.251 5.252 2.902-2.903 5.251-5.251-2.902zm-11.605 21.005l2.902-5.251 5.251 2.902-2.902 5.252-5.251-2.903zm-11.618 21.007l2.903-5.252 5.251 2.902-2.902 5.252-5.252-2.902zm-11.605 21.005l2.902-5.252 5.252 2.903-2.903 5.251-5.251-2.902zm29.019-52.514l2.903-5.251 5.251 2.902-2.902 5.252-5.252-2.903zm-11.605 21.006l2.902-5.252 5.252 2.903-2.903 5.251-5.251-2.902zm-11.609 21.005l2.902-5.252 5.251 2.903-2.902 5.251-5.251-2.902zm-11.614 21.006l2.903-5.252 5.251 2.903-2.902 5.251-5.252-2.902z" fill="#747D5D"/><path fill-rule="evenodd" clip-rule="evenodd" d="M468.823 580.374a8 8 0 10-4.55-15.339 8 8 0 004.55 15.339zm.569 1.918c5.295-1.571 8.314-7.136 6.743-12.431-1.57-5.295-7.136-8.314-12.431-6.743-5.295 1.57-8.314 7.136-6.743 12.431 1.571 5.294 7.136 8.313 12.431 6.743z" fill="#747D5D"/><path d="M466.906 580.943l3.835-1.137 9.669 32.596-3.835 1.137-9.669-32.596zm-.847 25.285l7.669-2.275 1.138 3.835-7.67 2.275-1.137-3.835zm-2.844-9.588l7.67-2.275 1.137 3.835-7.67 2.275-1.137-3.835z" fill="#747D5D"/><path d="M433.367 80.637h18.303l-4.306 13.728h-9.69l-4.307-13.728z" fill="#C8A255"/><path d="M433.367 94.364h18.303l-4.306 13.728h-9.69l-4.307-13.728zm0 13.728h18.303l-4.306 13.727h-9.69l-4.307-13.727z" fill="#C8A255"/><path d="M433.367 121.819h18.303l-4.306 13.727h-9.69l-4.307-13.727zm0 13.727h18.303l-4.306 13.727h-9.69l-4.307-13.727z" fill="#C8A255"/><path d="M442.684 71.505c3.645 0 6.578-5.133 6.578-22.864 0-17.73-6.578-32.064-6.578-32.064s-6.579 14.373-6.579 32.064c0 17.73 2.972 22.864 6.579 22.864z" fill="#747D5D"/><path d="M442.69 71.072c3.171 1.777 8.243-1.224 17-16.664 8.758-15.44 10.145-31.117 10.145-31.117s-12.8 9.28-21.557 24.72c-8.758 15.4-8.718 21.284-5.588 23.061z" fill="#747D5D"/><path d="M442.687 71.072c-3.17 1.777-8.242-1.224-17-16.664-8.757-15.44-10.144-31.117-10.144-31.117s12.799 9.28 21.557 24.72c8.797 15.4 8.758 21.284 5.587 23.061z" fill="#747D5D"/><path d="M441.177 73.162c1.744 3.199 7.648 3.317 23.301-5.133 15.613-8.45 25.163-21.047 25.163-21.047s-15.811 1.105-31.424 9.556c-15.613 8.45-18.744 13.465-17.04 16.624z" fill="#747D5D"/><path d="M444.202 73.162c-1.744 3.199-7.648 3.317-23.301-5.133-15.613-8.45-25.163-21.047-25.163-21.047s15.811 1.105 31.424 9.556c15.613 8.45 18.783 13.465 17.04 16.624z" fill="#747D5D"/><path d="M436.105 75.494c0 3.633 5.152 6.555 22.944 6.555 17.793 0 32.177-6.555 32.177-6.555s-14.424-6.555-32.177-6.555c-17.792.04-22.944 2.961-22.944 6.555z" fill="#747D5D"/><path d="M449.269 75.494c0 3.633-5.151 6.555-22.944 6.555-17.752 0-32.177-6.555-32.177-6.555s14.425-6.555 32.177-6.555c17.793.04 22.944 2.961 22.944 6.555z" fill="#747D5D"/><path fill-rule="evenodd" clip-rule="evenodd" d="M341.945 259.545c-.577-1.195-1.034-2.14-1.293-2.787l-3.038 1.215c.344.861.888 1.988 1.544 3.348 2.028 4.206 5.131 10.643 6.741 18.322.009.041.019.082.031.122 1.94 6.673 2.499 11.9 3.188 18.348.231 2.163.476 4.463.794 7.001 1.793 14.333 1.731 22.829 1.613 38.994-.034 4.668-.072 1.885-.072 8.157h3.272c0-6.198.038-3.376.072-8.029.057-7.792.102-13.856-.069-19.667.259-3.352 1.667-8.033 3.563-12.902a123.528 123.528 0 012.14-5.133c7.203-.173 15.889-2.089 21.167-6.311l.221-.177c2.423-1.937 4.354-3.481 5.758-5.386 1.503-2.039 2.344-4.388 2.884-7.866l-3.233-.502c-.494 3.175-1.204 4.96-2.285 6.426-1.137 1.542-2.749 2.837-5.39 4.95-4.133 3.307-11.144 5.135-17.59 5.527a129.516 129.516 0 012.488-4.969c4.631-8.749 7.452-13.363 9.237-16.166.307-.484.591-.922.852-1.326 1.199-1.856 1.928-2.984 2.421-4.462l-3.105-1.034c-.351 1.055-.813 1.772-1.985 3.592-.273.425-.586.91-.944 1.473-1.834 2.881-4.698 7.57-9.368 16.392-1.989 3.757-4.367 8.778-6.317 13.785a99.63 99.63 0 00-1.141 3.074 229.218 229.218 0 00-.942-8.846 367.932 367.932 0 01-.766-6.76c-.695-6.516-1.29-12.091-3.304-19.037-1.714-8.128-5.15-15.239-7.144-19.366z" fill="#C8A255"/><path d="M378.805 240.375c0 10.843-8.79 19.633-19.633 19.633s-19.633-8.79-19.633-19.633 8.79-19.633 19.633-19.633 19.633 8.79 19.633 19.633z" fill="#CD6125"/><path d="M354.811 237.103c0 12.65-10.255 22.906-22.906 22.906-12.65 0-22.905-10.256-22.905-22.906 0-12.65 10.255-22.905 22.905-22.905 12.651 0 22.906 10.255 22.906 22.905z" fill="#CD6125"/><path d="M330.816 240.375h30.541v19.634h-30.541v-19.634zm62.83 42.606c0 8.822-7.151 15.973-15.973 15.973-8.822 0-15.974-7.151-15.974-15.973 0-8.822 7.152-15.974 15.974-15.974s15.973 7.152 15.973 15.974z" fill="#CD6125"/><path d="M418.07 278.282c0 11.417-9.255 20.672-20.672 20.672-11.416 0-20.671-9.255-20.671-20.672s9.255-20.672 20.671-20.672c11.417 0 20.672 9.255 20.672 20.672z" fill="#CD6125"/><path d="M376.727 282.04h20.671v16.914h-20.671V282.04z" fill="#CD6125"/><path d="M37.563 108.092h4.575v36.606h-4.575v-36.606z" fill="#683911"/><path d="M64.629 83.312l2.316 2.316-24.78 24.78-2.316-2.316 24.78-24.78zm-49.699-.137l-2.288 2.288 24.916 24.917 2.288-2.288L14.93 83.175z" fill="#683911"/><path d="M65.014 63.478c0 13.268-10.755 24.023-24.023 24.023-13.267 0-24.022-10.755-24.022-24.023 0-13.267 10.755-24.022 24.022-24.022 13.268 0 24.023 10.755 24.023 24.022z" fill="#CD6125"/><path d="M81.026 85.213c0 8.845-7.17 16.015-16.015 16.015s-16.015-7.17-16.015-16.015 7.17-16.015 16.015-16.015 16.015 7.17 16.015 16.015zm-48.043 0c0 8.845-7.17 16.015-16.015 16.015S.953 94.058.953 85.213s7.17-16.015 16.015-16.015 16.015 7.17 16.015 16.015zm85.502 36.606a6.864 6.864 0 11-13.728 0 6.864 6.864 0 0113.728 0zm0 18.303a6.864 6.864 0 11-13.728 0 6.864 6.864 0 0113.728 0z" fill="#CD6125"/><path d="M120.769 137.834a6.863 6.863 0 110-13.727 6.863 6.863 0 010 13.727zm-18.301 0a6.863 6.863 0 110-13.727 6.863 6.863 0 010 13.727z" fill="#CD6125"/><path d="M116.198 130.971a4.575 4.575 0 11-9.151 0 4.575 4.575 0 019.151 0z" fill="#FFDC96"/><path fill-rule="evenodd" clip-rule="evenodd" d="M159.522 66.91c0 15.478 12.548 28.026 28.026 28.026 15.479 0 28.027-12.548 28.027-28.026h3.431c0 17.374-14.084 31.458-31.458 31.458S156.09 84.284 156.09 66.91h3.432z" fill="#C8A255"/><path fill-rule="evenodd" clip-rule="evenodd" d="M141.217 66.91c0 9.187 9.174 17.172 21.219 17.172 12.046 0 21.22-7.985 21.22-17.172h3.432c0 11.676-11.364 20.604-24.652 20.604-13.287 0-24.651-8.928-24.651-20.604h3.432zm50.332 0c0 9.187 9.174 17.172 21.22 17.172 12.045 0 21.219-7.985 21.219-17.172h3.432c0 11.676-11.364 20.604-24.651 20.604-13.288 0-24.652-8.928-24.652-20.604h3.432z" fill="#C8A255"/><path d="M155.518 46.32c0 11.371-9.219 20.59-20.591 20.59-11.372 0-20.591-9.219-20.591-20.59 0-11.373 9.219-20.592 20.591-20.592 11.372 0 20.591 9.22 20.591 20.591z" fill="#747D5D"/><path fill-rule="evenodd" clip-rule="evenodd" d="M134.927 64.622c10.108 0 18.303-8.194 18.303-18.303 0-10.108-8.195-18.303-18.303-18.303-10.109 0-18.303 8.195-18.303 18.303 0 10.109 8.194 18.303 18.303 18.303zm0 2.288c11.372 0 20.591-9.219 20.591-20.59 0-11.373-9.219-20.592-20.591-20.592-11.372 0-20.591 9.22-20.591 20.591 0 11.372 9.219 20.591 20.591 20.591z" fill="#747D5D"/><path d="M233.304 37.168c0 15.162-12.292 27.454-27.455 27.454-15.163 0-27.454-12.292-27.454-27.454 0-15.163 12.291-27.455 27.454-27.455s27.455 12.292 27.455 27.455z" fill="#747D5D"/><path fill-rule="evenodd" clip-rule="evenodd" d="M205.849 62.334c13.899 0 25.167-11.267 25.167-25.166 0-13.9-11.268-25.167-25.167-25.167-13.899 0-25.167 11.268-25.167 25.167 0 13.899 11.268 25.166 25.167 25.166zm0 2.288c15.163 0 27.455-12.292 27.455-27.454 0-15.163-12.292-27.455-27.455-27.455-15.163 0-27.454 12.292-27.454 27.455 0 15.162 12.291 27.454 27.454 27.454z" fill="#747D5D"/><path d="M258.47 45.175c0 12.004-9.731 21.735-21.735 21.735S215 57.18 215 45.175s9.731-21.735 21.735-21.735 21.735 9.731 21.735 21.735z" fill="#747D5D"/><path fill-rule="evenodd" clip-rule="evenodd" d="M236.735 64.622c10.74 0 19.447-8.706 19.447-19.447 0-10.74-8.707-19.447-19.447-19.447-10.74 0-19.447 8.707-19.447 19.447 0 10.74 8.707 19.447 19.447 19.447zm0 2.288c12.004 0 21.735-9.731 21.735-21.735s-9.731-21.735-21.735-21.735S215 33.171 215 45.175s9.731 21.735 21.735 21.735z" fill="#747D5D"/><path d="M196.698 36.024c0 17.058-13.828 30.886-30.886 30.886s-30.886-13.828-30.886-30.886 13.828-30.887 30.886-30.887 30.886 13.829 30.886 30.887z" fill="#747D5D"/><path fill-rule="evenodd" clip-rule="evenodd" d="M165.812 64.622c15.795 0 28.599-12.804 28.599-28.598 0-15.795-12.804-28.599-28.599-28.599-15.794 0-28.598 12.804-28.598 28.599 0 15.794 12.804 28.598 28.598 28.598zm0 2.288c17.058 0 30.886-13.828 30.886-30.886S182.87 5.137 165.812 5.137s-30.886 13.829-30.886 30.887 13.828 30.886 30.886 30.886z" fill="#747D5D"/><path d="M134.926 41.743H237.88V66.91H134.926V41.743z" fill="#747D5D"/><path d="M185.258 96.652h4.576v41.182h-4.576V96.652z" fill="#C8A255"/><path d="M200.031 181.304h91.515v91.515h-91.515v-91.515zM17 245.364h91.515v64.061H17v-64.061z" fill="#1B3025"/><path d="M46.742 309.425h29.743v-50.333H46.742v50.333z" fill="#C8A255"/><path d="M108.516 181.304h91.515v64.06h-91.515v-64.06z" fill="#747D5D"/><path d="M108.516 245.364h91.515v64.061h-91.515v-64.061z" fill="#C8A255"/><path d="M200.031 272.819h91.515v36.606h-91.515v-36.606z" fill="#747D5D"/><path d="M117.672 245.364v9.152h-9.152v-9.152h9.152zm0 18.303v9.152h-9.152v-9.152h9.152zm0 18.303v9.152h-9.152v-9.152h9.152zm0 18.303v9.152h-9.152v-9.152h9.152z" fill="#CD6125"/><path d="M126.82 254.516v9.151h-9.151v-9.151h9.151zm0 18.303v9.151h-9.151v-9.151h9.151zm0 18.303v9.151h-9.151v-9.151h9.151zm18.309-36.606v9.151h-9.152v-9.151h9.152zm0 18.303v9.151h-9.152v-9.151h9.152zm0 18.303v9.151h-9.152v-9.151h9.152zm18.301-36.606v9.151h-9.152v-9.151h9.152zm0 18.303v9.151h-9.152v-9.151h9.152zm0 18.303v9.151h-9.152v-9.151h9.152zm18.3-36.606v9.151h-9.151v-9.151h9.151zm0 18.303v9.151h-9.151v-9.151h9.151zm0 18.303v9.151h-9.151v-9.151h9.151zm-45.757-45.758v9.152h-9.152v-9.152h9.152zm0 18.303v9.152h-9.152v-9.152h9.152zm0 18.303v9.152h-9.152v-9.152h9.152zm0 18.303v9.152h-9.152v-9.152h9.152zm18.304-54.909v9.152h-9.151v-9.152h9.151zm0 18.303v9.152h-9.151v-9.152h9.151zm0 18.303v9.152h-9.151v-9.152h9.151zm0 18.303v9.152h-9.151v-9.152h9.151zm18.305-54.909v9.152h-9.151v-9.152h9.151zm0 18.303v9.152h-9.151v-9.152h9.151zm0 18.303v9.152h-9.151v-9.152h9.151zm0 18.303v9.152h-9.151v-9.152h9.151zm18.301-54.909v9.152h-9.152v-9.152h9.152zm0 18.303v9.152h-9.152v-9.152h9.152zm0 18.303v9.152h-9.152v-9.152h9.152zm0 18.303v9.152h-9.152v-9.152h9.152zm9.152-45.757v9.151h-9.151v-9.151h9.151zm0 18.303v9.151h-9.151v-9.151h9.151zm0 18.303v9.151h-9.151v-9.151h9.151z" fill="#CD6125"/><path d="M270.954 272.819c0 13.899-11.267 25.167-25.166 25.167-13.899 0-25.167-11.268-25.167-25.167 0-13.899 11.268-25.167 25.167-25.167 13.899 0 25.166 11.268 25.166 25.167z" fill="#FFDC96"/><path d="M238.926 229.349h13.727v36.606h-13.727v-36.606z" fill="#FFDC96"/><path d="M257.23 224.773v6.864h-22.878v-6.864h22.878z" fill="#FFDC96"/><path d="M245.788 297.985c13.899 0 25.166-11.267 25.166-25.166h-50.333c0 13.899 11.268 25.166 25.167 25.166z" fill="#CD6125"/><path d="M238.926 285.402a3.432 3.432 0 11-6.864 0 3.432 3.432 0 016.864 0zm9.152-6.863a3.43 3.43 0 11-6.862 0 3.43 3.43 0 016.862 0z" fill="#683911"/><path d="M249.903 262.751a3.66 3.66 0 11-7.321 0c0-2.022 3.661-7.091 3.661-7.091s3.66 5.069 3.66 7.091z" fill="#CD6125"/><path d="M252.653 289.978a3.433 3.433 0 11-6.865-.001 3.433 3.433 0 016.865.001zm9.152-6.864a3.431 3.431 0 11-6.863.001 3.431 3.431 0 016.863-.001z" fill="#683911"/><path d="M67.332 281.97h6.864v2.288h-6.864v-2.288z" fill="#747D5D"/><path d="M74.195 281.97v6.864h-2.288v-6.864h2.288zM17 181.304h91.515v64.06H17v-64.06zm226.5 18.303h4.576v25.167H243.5v-25.167zm-27.453 0h4.576v41.182h-4.576v-41.182z" fill="#747D5D"/><path d="M248.078 199.607v4.576h-27.454v-4.576h27.454zm-27.457 41.182v4.575H200.03v-4.575h20.591z" fill="#747D5D"/><path d="M63.312 198.781c-1.116 3.918-.738 11.008-.55 14.553l.006.001c3.547.189 10.633.567 14.548-.55 3.917-1.117 5.035-5.034 2.234-7.835-2.8-2.801-6.718-1.684-6.718-1.684s1.117-3.917-1.684-6.719c-2.802-2.801-6.72-1.684-7.836 2.234z" fill="#1B3025"/><path d="M62.757 213.329c-.284-5.318 5.033-10.07 7.552-7.551 2.516 2.516-2.234 7.834-7.552 7.551z" fill="#C8A255"/><path d="M62.219 227.886c1.116-3.918.738-11.008.55-14.554h-.006c-3.547-.189-10.633-.567-14.548.55-3.917 1.117-5.034 5.034-2.234 7.835 2.801 2.801 6.719 1.684 6.719 1.684s-1.118 3.917 1.684 6.718c2.801 2.802 6.719 1.685 7.835-2.233z" fill="#1B3025"/><path d="M62.767 213.331c.284 5.318-5.035 10.068-7.552 7.552-2.516-2.517 2.234-7.835 7.552-7.552z" fill="#C8A255"/><path d="M77.318 213.88c-3.918-1.116-11.008-.739-14.553-.549v.005c-.19 3.547-.568 10.633.55 14.548 1.117 3.917 5.034 5.034 7.834 2.234 2.801-2.801 1.684-6.719 1.684-6.719s3.917 1.118 6.719-1.684c2.801-2.801 1.684-6.719-2.234-7.835z" fill="#1B3025"/><path d="M62.765 213.337c5.318-.284 10.07 5.033 7.551 7.551-2.518 2.519-7.834-2.233-7.551-7.551z" fill="#C8A255"/><path d="M48.213 212.787c3.918 1.116 11.008.738 14.553.549v-.005c.19-3.547.568-10.633-.549-14.548-1.117-3.917-5.034-5.035-7.835-2.234-2.8 2.801-1.684 6.718-1.684 6.718s-3.917-1.117-6.718 1.685c-2.802 2.801-1.685 6.719 2.233 7.835z" fill="#1B3025"/><path d="M62.766 213.331c-5.319.283-10.068-5.036-7.552-7.552s7.835 2.234 7.552 7.552zm45.75-32.027h2.287v64.06h-2.287v-64.06zm6.863 0h2.288v64.06h-2.288v-64.06zm6.863 0h2.288v64.06h-2.288v-64.06zm6.867 0h2.288v64.06h-2.288v-64.06zm6.86 0h2.288v64.06h-2.288v-64.06zm6.867 0h2.288v64.06h-2.288v-64.06zm6.859 0h2.288v64.06h-2.288v-64.06zm6.867 0h2.288v64.06h-2.288v-64.06zm6.864 0h2.288v64.06h-2.288v-64.06zm6.863 0h2.288v64.06h-2.288v-64.06zm6.863 0h2.288v64.06h-2.288v-64.06zm6.868 0h2.287v64.06h-2.287v-64.06zm6.859 0h2.288v64.06h-2.288v-64.06zm6.867 0h2.288v64.06h-2.288v-64.06z" fill="#C8A255"/><path d="M253.754 105.38h9.151v9.151h-9.151v-9.151zm0 18.303h9.151v9.151h-9.151v-9.151zm-9.152-9.152h9.151v9.152h-9.151v-9.152zm91.515 0h9.152v9.152h-9.152v-9.152zm-45.758-9.151h9.152v9.151h-9.152v-9.151zm0 18.303h9.152v9.151h-9.152v-9.151zm-9.148-9.152h9.151v9.152h-9.151v-9.152zm45.754-9.151h9.151v9.151h-9.151v-9.151zm0 18.303h9.151v9.151h-9.151v-9.151zm-9.153-9.152h9.152v9.152h-9.152v-9.152zm-45.753-9.151h9.151v9.151h-9.151v-9.151zm0 18.303h9.151v9.151h-9.151v-9.151zm-9.157-9.152h9.152v9.152h-9.152v-9.152zm45.762-9.151h9.152v9.151h-9.152v-9.151zm0 18.303h9.152v9.151h-9.152v-9.151zm-9.152-9.152h9.151v9.152h-9.151v-9.152z" fill="#1B3025"/><path d="M244.602 105.38h9.151v9.151h-9.151v-9.151zm0 18.303h9.151v9.151h-9.151v-9.151zm36.609-18.303h9.151v9.151h-9.151v-9.151zm0 18.303h9.151v9.151h-9.151v-9.151zm-9.152-9.152h9.151v9.152h-9.151v-9.152zm45.753-9.151h9.152v9.151h-9.152v-9.151zm0 18.303h9.152v9.151h-9.152v-9.151zm-9.148-9.152h9.152v9.152h-9.152v-9.152zm-45.762-9.151h9.152v9.151h-9.152v-9.151zm0 18.303h9.152v9.151h-9.152v-9.151zm-9.148-9.152h9.151v9.152h-9.151v-9.152zm45.758-9.151h9.151v9.151h-9.151v-9.151zm0 18.303h9.151v9.151h-9.151v-9.151zm-9.153-9.152h9.152v9.152h-9.152v-9.152zm45.758-9.151h9.152v9.151h-9.152v-9.151zm0 18.303h9.152v9.151h-9.152v-9.151zm-9.152-9.152h9.151v9.152h-9.151v-9.152z" fill="#747D5D"/><path d="M274.352 91.652h32.03l-5.72 13.728h-20.591l-5.719-13.728z" fill="#CD6125"/><path d="M288.078 84.789h4.576v9.151h-4.576v-9.15z" fill="#CD6125"/><path d="M292.654 84.789a2.288 2.288 0 11-4.575 0 2.288 2.288 0 014.575 0z" fill="#CD6125"/><path d="M381.879 105.38h6.864v20.591h-6.864V105.38z" fill="#313131"/><path d="M381.879 125.97h6.864v59.485h-6.864V125.97z" fill="#1B3025"/><path d="M381.879 125.97h6.864v4.576h-6.864v-4.576z" fill="#FFDC96"/><path d="M361.285 105.38h6.864v20.591h-6.864V105.38z" fill="#313131"/><path d="M361.285 125.97h6.864v59.485h-6.864V125.97z" fill="#C8A255"/><path d="M361.285 125.97h6.864v4.576h-6.864v-4.576z" fill="#FFDC96"/><path d="M504.219 409.06h18.303l-4.307 13.728h-9.69l-4.306-13.728zm0 13.728h18.303l-4.307 13.727h-9.69l-4.306-13.727zm0 13.727h18.303l-4.307 13.727h-9.69l-4.306-13.727zm0 13.727h18.303l-4.307 13.728h-9.69l-4.306-13.728z" fill="#C8A255"/><path d="M504.219 463.969h18.303l-4.307 13.728h-9.69l-4.306-13.728z" fill="#C8A255"/><path d="M513.535 399.928c3.646 0 6.578-5.133 6.578-22.863 0-17.731-6.578-32.065-6.578-32.065s-6.578 14.374-6.578 32.065c0 17.73 2.972 22.863 6.578 22.863z" fill="#747D5D"/><path d="M513.542 399.495c3.17 1.777 8.242-1.224 17-16.664 8.757-15.44 10.144-31.117 10.144-31.117s-12.799 9.28-21.557 24.72c-8.757 15.401-8.718 21.284-5.587 23.061z" fill="#747D5D"/><path d="M513.539 399.495c-3.17 1.777-8.242-1.224-17-16.664-8.758-15.44-10.144-31.117-10.144-31.117s12.799 9.28 21.557 24.72c8.797 15.401 8.757 21.284 5.587 23.061z" fill="#747D5D"/><path d="M512.029 401.586c1.743 3.198 7.648 3.317 23.3-5.134 15.613-8.45 25.163-21.047 25.163-21.047s-15.811 1.105-31.424 9.556c-15.613 8.451-18.743 13.466-17.039 16.625z" fill="#747D5D"/><path d="M515.053 401.586c-1.743 3.198-7.648 3.317-23.3-5.134-15.613-8.45-25.163-21.047-25.163-21.047s15.811 1.105 31.424 9.556c15.613 8.451 18.783 13.466 17.039 16.625z" fill="#747D5D"/><path d="M506.957 403.917c0 3.633 5.152 6.555 22.944 6.555 17.792 0 32.177-6.555 32.177-6.555s-14.424-6.555-32.177-6.555c-17.792.039-22.944 2.962-22.944 6.555z" fill="#747D5D"/><path d="M520.121 403.917c0 3.633-5.152 6.555-22.944 6.555-17.753 0-32.177-6.555-32.177-6.555s14.424-6.555 32.177-6.555c17.792.039 22.944 2.962 22.944 6.555z" fill="#747D5D"/><path d="M556.939 291.037c0 9.477-7.682 17.159-17.159 17.159-9.477 0-17.159-7.682-17.159-17.159 0-9.476 7.682-17.159 17.159-17.159 9.477 0 17.159 7.683 17.159 17.159z" fill="#683911"/><path d="M665.318 131.727c0 7.581-6.146 13.727-13.727 13.727-7.582 0-13.728-6.146-13.728-13.727S644.009 118 651.591 118c7.581 0 13.727 6.146 13.727 13.727zm27.454 22.879a9.152 9.152 0 11-18.304-.002 9.152 9.152 0 0118.304.002z" fill="#C8A255"/><path d="M604.989 58c-1.785 7.436-7.687 13.247-15.169 14.894 7.482 1.624 13.384 7.459 15.169 14.871 1.784-7.458 7.733-13.292 15.26-14.894-7.527-1.624-13.476-7.412-15.26-14.871zm76.351 17.636h4.576v36.606h-4.576V75.636z" fill="#1B3025"/><path d="M708.406 50.856l2.317 2.317-24.78 24.78-2.317-2.317 24.78-24.78zm-49.699-.136l-2.288 2.288 24.917 24.916 2.287-2.288-24.916-24.916z" fill="#1B3025"/><path d="M708.791 31.023c0 13.267-10.755 24.022-24.022 24.022-13.268 0-24.023-10.755-24.023-24.022C660.746 17.755 671.501 7 684.769 7c13.267 0 24.022 10.755 24.022 24.023z" fill="#CD6125"/><path d="M724.804 52.758c0 8.844-7.171 16.015-16.015 16.015-8.845 0-16.016-7.17-16.016-16.015s7.171-16.016 16.016-16.016c8.844 0 16.015 7.17 16.015 16.016zm-48.043 0c0 8.844-7.171 16.015-16.015 16.015-8.845 0-16.016-7.17-16.016-16.015s7.171-16.016 16.016-16.016c8.844 0 16.015 7.17 16.015 16.016z" fill="#CD6125"/><path d="M582.609 220.636h4.576v36.606h-4.576v-36.606z" fill="#1B3025"/><path d="M609.676 195.856l2.316 2.317-24.78 24.78-2.316-2.317 24.78-24.78zm-49.699-.136l-2.288 2.288 24.916 24.916 2.288-2.288-24.916-24.916z" fill="#1B3025"/><path d="M610.061 176.023c0 13.267-10.755 24.022-24.023 24.022-13.267 0-24.022-10.755-24.022-24.022 0-13.268 10.755-24.023 24.022-24.023 13.268 0 24.023 10.755 24.023 24.023z" fill="#C8A255"/><path d="M626.073 197.758c0 8.844-7.17 16.015-16.015 16.015s-16.015-7.171-16.015-16.015c0-8.845 7.17-16.016 16.015-16.016s16.015 7.171 16.015 16.016zm-48.043 0c0 8.844-7.17 16.015-16.015 16.015S546 206.602 546 197.758c0-8.845 7.17-16.016 16.015-16.016s16.015 7.171 16.015 16.016z" fill="#C8A255"/><path fill-rule="evenodd" clip-rule="evenodd" d="M842.818 50.996c-.584-1.155-1.045-2.066-1.305-2.687l-3.072 1.287c.353.845.909 1.946 1.579 3.274 1.803 3.57 4.429 8.773 6.154 14.992-3.873-1.224-10.098-3.468-13.686-5.503-3.002-1.703-6.025-4.107-8.412-6.655-2.426-2.59-4.021-5.14-4.451-7.107l-3.254.711c.622 2.846 2.707 5.933 5.274 8.674 2.608 2.782 5.893 5.4 9.199 7.274 4.571 2.593 12.776 5.376 16.313 6.382 1.76 6.058 2.307 10.941 2.975 16.916.235 2.103.485 4.34.809 6.813.797 6.088 1.288 12.128 1.589 18.513l-.018.229.029.002c.146 3.146.246 6.376.315 9.737-1.595-3.811-3.459-7.791-5.162-10.501-5.663-9.016-10.49-12.751-16.497-17.397-.874-.677-1.774-1.373-2.704-2.107l-2.064 2.615c.955.754 1.868 1.46 2.747 2.141 5.955 4.611 10.359 8.02 15.698 16.519 2.981 4.747 6.647 14.009 8.1 18.436.029 4.966.022 10.257.015 15.992-.003 2.714-.007 5.528-.007 8.454h3.331c0-2.93.004-5.751.007-8.476.018-13.791.033-25.114-.452-35.563.322-3.21 1.719-7.609 3.588-12.194a115.95 115.95 0 012.166-4.963c7.318-.165 16.153-2.023 21.522-6.126l.23-.176c2.46-1.879 4.427-3.382 5.86-5.238 1.54-1.995 2.401-4.298 2.954-7.694l-3.288-.534c-.499 3.069-1.215 4.783-2.303 6.193-1.152 1.492-2.787 2.748-5.476 4.802-4.197 3.208-11.312 4.986-17.864 5.373a121.088 121.088 0 012.459-4.685c4.71-8.5 7.578-12.98 9.392-15.702.312-.468.599-.892.864-1.284 1.22-1.803 1.971-2.913 2.477-4.364l-3.145-1.097c-.353 1.01-.813 1.694-2.004 3.462-.279.413-.598.886-.964 1.436-1.867 2.801-4.782 7.36-9.534 15.934-2.025 3.653-4.445 8.536-6.43 13.406a95.533 95.533 0 00-1.189 3.062c-.253-2.894-.563-5.76-.939-8.638-.306-2.333-.547-4.493-.778-6.558-.707-6.333-1.314-11.765-3.365-18.525-1.748-7.915-5.257-14.85-7.283-18.855z" fill="#CD6125"/><path d="M829.399 34.62c0 9.151-7.767 16.57-17.348 16.57s-17.348-7.419-17.348-16.57c0-9.153 7.767-16.572 17.348-16.572s17.348 7.42 17.348 16.571zm53.966-2.76c0 10.676-9.061 19.332-20.239 19.332s-20.239-8.656-20.239-19.333c0-10.677 9.061-19.333 20.239-19.333s20.239 8.656 20.239 19.333z" fill="#747D5D"/><path d="M858.312 29.095c0 12.202-10.356 22.095-23.131 22.095-12.774 0-23.13-9.893-23.13-22.095C812.051 16.892 822.407 7 835.181 7c12.775 0 23.131 9.892 23.131 22.095z" fill="#747D5D"/><path d="M812.051 32.777h52.043v18.412h-52.043V32.777zm83.376 41.061c0 8.572-7.275 15.52-16.249 15.52-8.974 0-16.248-6.948-16.248-15.52s7.274-15.521 16.248-15.521 16.249 6.949 16.249 15.52z" fill="#747D5D"/><path d="M920.274 69.271c0 11.094-9.414 20.086-21.028 20.086-11.613 0-21.027-8.992-21.027-20.086 0-11.093 9.414-20.086 21.027-20.086 11.614 0 21.028 8.993 21.028 20.086z" fill="#747D5D"/><path d="M878.219 72.927h21.027V89.36h-21.027V72.927zm-68.814 15.741c0 8.143 6.911 14.745 15.436 14.745s15.436-6.602 15.436-14.745c0-8.144-6.911-14.745-15.436-14.745s-15.436 6.601-15.436 14.745z" fill="#747D5D"/><path d="M783.981 84.329c0 10.538 8.944 19.082 19.976 19.082 11.033 0 19.977-8.544 19.977-19.082 0-10.539-8.944-19.082-19.977-19.082-11.032 0-19.976 8.543-19.976 19.082z" fill="#747D5D"/><path d="M823.934 87.803h-19.977v15.612h19.977V87.803z" fill="#747D5D"/><path d="M842.603 197.272a6.864 6.864 0 1124.248 0l-12.124 13.895-12.124-13.895z" fill="#C8A255"/><path d="M605.832 286.878h64.061v82.364h-64.061v-82.364zm91.52-45.757h208.196v128.121H697.352V241.121z" fill="#1B3025"/><path d="M720.227 286.878h100.666v82.364H720.227v-82.364z" fill="#FFDC96"/><path d="M669.895 177.06h27.454v192.182h-27.454V177.06z" fill="#747D5D"/><path d="M749.969 177.06h13.727v68.637h-13.727V177.06zm27.457 0h13.727v68.637h-13.727V177.06zm49.422 121.258v2.532H717.942v-2.532h108.906zm-1.375 4.575v2.288h-107.53v-2.288h107.53zm0 4.576v2.288h-107.53v-2.288h107.53zm0 6.864v-2.288h-107.53v2.288h107.53zm-52.621 41.181h36.606v13.728h-36.606v-13.728z" fill="#1B3025"/><path d="M720.227 254.848h18.303v18.303h-18.303v-18.303zm27.457 0h18.303v18.303h-18.303v-18.303zm27.453 0h18.303v18.303h-18.303v-18.303zm27.453 0h18.303v18.303H802.59v-18.303z" fill="#683911"/><path d="M839.195 257.136h4.576v38.894h-4.576v-38.894zm0 57.197h4.576v38.894h-4.576v-38.894zm9.153-57.197h4.575v38.894h-4.575v-38.894zm0 57.197h4.575v38.894h-4.575v-38.894zm9.152-57.197h4.576v38.894H857.5v-38.894zm0 57.197h4.576v38.894H857.5v-38.894zm9.148-57.197h4.576v38.894h-4.576v-38.894zm0 57.197h4.576v38.894h-4.576v-38.894zm9.157-57.197h4.575v38.894h-4.575v-38.894zm0 57.197h4.575v38.894h-4.575v-38.894zm9.152-57.197h4.576v38.894h-4.576v-38.894zm0 57.197h4.576v38.894h-4.576v-38.894z" fill="#CD6125"/><path d="M749.969 167.909h13.727v9.151h-13.727v-9.151zm27.457 0h13.727v9.151h-13.727v-9.151z" fill="#FFDC96"/><path d="M749.969 140.454h13.727v27.455h-13.727v-27.455zm27.457 0h13.727v27.455h-13.727v-27.455z" fill="#313131"/><path d="M669.895 177.06h9.151v9.152h-9.151v-9.152zm0 18.303h9.151v9.152h-9.151v-9.152zm0 18.303h9.151v9.152h-9.151v-9.152zm0 18.303h9.151v9.152h-9.151v-9.152zm0 18.303h9.151v9.152h-9.151v-9.152zm0 18.303h9.151v9.152h-9.151v-9.152zm0 36.606h9.151v9.152h-9.151v-9.152zm0 36.606h9.151v9.152h-9.151v-9.152zm0-54.909h9.151v9.152h-9.151v-9.152zm0 36.606h9.151v9.152h-9.151v-9.152zm0 36.606h9.151v9.152h-9.151v-9.152zm18.304-183.03h9.152v9.152h-9.152v-9.152zm0 18.303h9.152v9.152h-9.152v-9.152zm0 18.303h9.152v9.152h-9.152v-9.152zm0 18.303h9.152v9.152h-9.152v-9.152zm0 18.303h9.152v9.152h-9.152v-9.152zm0 18.303h9.152v9.152h-9.152v-9.152zm0 36.606h9.152v9.152h-9.152v-9.152zm0 36.606h9.152v9.152h-9.152v-9.152zm0-54.909h9.152v9.152h-9.152v-9.152zm0 36.606h9.152v9.152h-9.152v-9.152zm0 36.606h9.152v9.152h-9.152v-9.152zm-9.152-173.878h9.151v9.151h-9.151v-9.151zm0 18.303h9.151v9.151h-9.151v-9.151zm0 18.303h9.151v9.151h-9.151v-9.151zm0 18.303h9.151v9.151h-9.151v-9.151zm0 18.303h9.151v9.151h-9.151v-9.151zm0 36.606h9.151v9.151h-9.151v-9.151zm0 36.606h9.151v9.151h-9.151v-9.151zm0-54.909h9.151v9.151h-9.151v-9.151zm0 36.606h9.151v9.151h-9.151v-9.151zm0 36.606h9.151v9.151h-9.151v-9.151z" fill="#CD6125"/><path d="M624.137 325.772h27.454v43.47h-27.454v-43.47z" fill="#747D5D"/><path d="M745.395 350.939h2.287v11.439h-2.287v-11.439z" fill="#CD6125"/><path d="M740.82 362.378h11.44v6.864h-11.44v-6.864z" fill="#747D5D"/><path d="M777.262 333.057l.022-.017-8.469-4.048-.642-.171-5.619 7.363 23.958 10.164c-.004-.768.01-1.155.019-2.31-.976-4.541-4.88-8.883-9.269-10.981z" fill="#1B3025"/><path d="M786.525 344.066c-.815-4.334-4.699-8.992-9.003-11.049l.021-.017-9.215-4.94-1.164 2.323-1.184 4.635 20.545 9.048z" fill="#CD6125"/><path d="M764.26 336.036c1.289-.829 2.17-1.908 2.867-3.401.638-1.367 1.298-3.161 1.144-4.575-5.72-2.288-11.893 1.203-14.568 6.278-8.04.045-15.842 3.666-20.926 9.784l4.934 7.604c7.593 1.438 17.373 1.583 21.408-7.651.651-1.486.804-3.037 1.144-4.576.044-.467 1.989-1.095 2.202-1.551a4.283 4.283 0 011.342-1.628l.005-.011c.142-.085.289-.182.448-.273z" fill="#683911"/><path d="M754.494 349.83c-2.322-3.649-1.829-8.476.104-12.576 1.356-2.876 3.448-5.75 5.728-6.915s5.693-1.198 6.816-.066c-.012 1.133-.66 3.493-1.174 4.584-1.145 1.154-2.276 1.166-3.43 3.463-1.155 2.298-1.164 3.441-2.318 5.739-1.154 2.297-3.447 4.606-5.726 5.771z" fill="#747D5D"/><path d="M760.27 330.382l5.673 4.541s.643-1.282 1.161-2.308c1.165-2.31.029-3.449.029-3.449-1.127-1.137-4.211-.375-6.863 1.216z" fill="#fff"/><path d="M764.419 332.154a.794.794 0 001.059-.389.807.807 0 00-.372-1.074.794.794 0 00-1.059.389.808.808 0 00.372 1.074z" fill="#313131"/><path d="M732.81 344.075l-12.583 25.167h16.015l2.288-17.617-5.72-7.55z" fill="#683911"/><path d="M651.591 325.772c0 7.581-6.146 13.727-13.727 13.727s-13.727-6.146-13.727-13.727 6.146-13.727 13.727-13.727 13.727 6.146 13.727 13.727z" fill="#747D5D"/><path d="M761.418 355.514v-6.863h20.591v6.863h-20.591z" fill="#313131"/><path d="M782.008 355.514v-6.863h38.894v6.863h-38.894z" fill="#683911"/><path d="M782.008 355.514v-6.863h4.576v6.863h-4.576z" fill="#747D5D"/><path d="M579.887 480.097c-1.167 4.096-.772 11.507-.575 15.212l.006.001c3.707.197 11.114.592 15.207-.575 4.094-1.168 5.262-5.262 2.334-8.19-2.927-2.927-7.022-1.76-7.022-1.76s1.168-4.094-1.761-7.023c-2.928-2.928-7.023-1.761-8.189 2.335z" fill="#1B3025"/><path d="M579.31 495.306c-.296-5.559 5.261-10.526 7.894-7.893 2.63 2.63-2.335 8.189-7.894 7.893z" fill="#C8A255"/><path d="M578.734 510.519c1.167-4.096.772-11.507.575-15.212l-.006-.001c-3.707-.198-11.114-.593-15.207.575-4.094 1.168-5.262 5.262-2.334 8.19 2.927 2.927 7.022 1.76 7.022 1.76s-1.168 4.094 1.761 7.022c2.928 2.929 7.023 1.761 8.189-2.334z" fill="#1B3025"/><path d="M579.311 495.305c.297 5.559-5.263 10.523-7.893 7.893s2.335-8.189 7.893-7.893z" fill="#C8A255"/><path d="M594.519 495.88c-4.096-1.166-11.507-.772-15.213-.574v.006c-.198 3.707-.593 11.114.575 15.206 1.168 4.095 5.262 5.263 8.189 2.335 2.928-2.928 1.761-7.022 1.761-7.022s4.094 1.168 7.022-1.761c2.929-2.928 1.761-7.023-2.334-8.19z" fill="#1B3025"/><path d="M579.305 495.309c5.559-.297 10.526 5.261 7.894 7.893-2.632 2.633-8.19-2.334-7.894-7.893z" fill="#C8A255"/><path d="M564.103 494.736c4.095 1.166 11.506.771 15.212.574v-.006c.198-3.707.593-11.114-.574-15.206-1.169-4.095-5.263-5.263-8.19-2.335-2.928 2.928-1.761 7.022-1.761 7.022s-4.094-1.168-7.022 1.761c-2.928 2.928-1.761 7.023 2.335 8.19z" fill="#1B3025"/><path d="M579.323 495.307c-5.559.297-10.524-5.263-7.894-7.893 2.63-2.63 8.19 2.335 7.894 7.893z" fill="#C8A255"/><path d="M595.411 382.554c-1.785 7.435-7.687 13.247-15.169 14.894 7.482 1.624 13.384 7.458 15.169 14.871 1.784-7.459 7.733-13.293 15.26-14.894-7.527-1.624-13.476-7.413-15.26-14.871z" fill="#1B3025"/><path d="M885.664 411.439c0 6.318-5.122 11.44-11.439 11.44-6.318 0-11.44-5.122-11.44-11.44 0-6.317 5.122-11.439 11.44-11.439 6.317 0 11.439 5.122 11.439 11.439z" fill="#747D5D"/><path d="M764.131 448.463c0 5.471-4.435 9.905-9.905 9.905-5.471 0-9.906-4.434-9.906-9.905 0-5.471 4.435-9.906 9.906-9.906 5.47 0 9.905 4.435 9.905 9.906zm64.383-1.237c0 6.154-4.989 11.143-11.144 11.143-6.154 0-11.143-4.989-11.143-11.143 0-6.155 4.989-11.144 11.143-11.144 6.155 0 11.144 4.989 11.144 11.144z" fill="#C8A255"/><path d="M768.69 414.568h4.576l-7.899 16.562 7.429 11.392h28.478v8.419h-29.716l-12.382-19.811 9.514-16.562z" fill="#1B3025"/><path d="M821.092 428.652l4.952 5.778-24.763 16.509-7.429-7.643v-14.644h27.24z" fill="#1B3025"/><path d="M793.852 423.698h27.24v4.952h-27.24v-4.952z" fill="#CD6125"/><path d="M775.558 414.569a4.576 4.576 0 11-9.153 0 4.576 4.576 0 019.153 0z" fill="#1B3025"/><path d="M651.237 470.766c0 5.471-4.435 9.905-9.906 9.905-5.47 0-9.905-4.434-9.905-9.905 0-5.471 4.435-9.906 9.905-9.906 5.471 0 9.906 4.435 9.906 9.906zm64.382-1.237c0 6.154-4.989 11.143-11.143 11.143-6.155 0-11.144-4.989-11.144-11.143 0-6.155 4.989-11.144 11.144-11.144 6.154 0 11.143 4.989 11.143 11.144z" fill="#C8A255"/><path d="M655.796 436.871h4.576l-7.9 16.562 7.429 11.392h28.478v8.419h-29.716l-12.382-19.811 9.515-16.562z" fill="#CD6125"/><path d="M708.197 450.955l4.953 5.778-24.764 16.509-7.429-7.643v-14.644h27.24z" fill="#CD6125"/><path d="M680.957 446.001h27.24v4.952h-27.24v-4.952z" fill="#747D5D"/><path d="M662.663 436.872a4.576 4.576 0 11-9.151 0 4.576 4.576 0 019.151 0z" fill="#CD6125"/><path d="M776.922 650.569h84.651v82.363h-84.651v-82.363z" fill="#747D5D"/><path d="M692.27 776.402h18.303v123.545H692.27V776.402zm0-43.47h169.302v43.47H692.27v-43.47z" fill="#1B3025"/><path d="M692.27 707.766h84.651v2.287H692.27v-2.287zm27.453 2.288h2.288v22.878h-2.288v-22.878zm-27.453 0h2.287v22.878h-2.287v-22.878zm18.3 0h2.288v22.878h-2.288v-22.878zm-9.152 0h2.288v22.878h-2.288v-22.878zm36.605 0h2.288v22.878h-2.288v-22.878zm-9.152 0h2.288v22.878h-2.288v-22.878zm18.309 0h2.288v22.878h-2.288v-22.878zm9.148 0h2.288v22.878h-2.288v-22.878zm9.152 0h2.288v22.878h-2.288v-22.878zm9.149 0h2.288v22.878h-2.288v-22.878z" fill="#CD6125"/><path d="M772.344 810.72h148.712v89.227H772.344V810.72z" fill="#1B3025"/><path d="M822.676 666.584h29.742v29.742h-29.742v-29.742z" fill="#FFDC96"/><path d="M786.07 682.599h27.455v50.333H786.07v-50.333z" fill="#C8A255"/><path d="M788.355 835.887h54.909v43.469h-54.909v-43.469zm61.778 0h54.909v43.469h-54.909v-43.469z" fill="#747D5D"/><path d="M788.355 872.493h54.909v9.151h-54.909v-9.151zm61.778 0h54.909v9.151h-54.909v-9.151z" fill="#C8A255"/><path d="M881.965 752.721a3.036 3.036 0 013.036-3.036h24.29a3.036 3.036 0 110 6.073h-24.29a3.037 3.037 0 01-3.036-3.037z" fill="#683911"/><path d="M881.965 760.308c0-3.036 1.38-4.554 2.76-4.554h24.842c1.38 0 2.761 1.839 2.76 4.554 0 3.036-5.52 16.7-5.52 16.7h-19.321s-5.521-13.664-5.521-16.7z" fill="#1B3025"/><path d="M897.609 721.398c-.952 3.342-.63 9.389-.469 12.413h.004c3.026.161 9.07.484 12.409-.469 3.341-.953 4.294-4.294 1.905-6.683-2.389-2.389-5.73-1.436-5.73-1.436s.953-3.341-1.437-5.73c-2.389-2.39-5.73-1.437-6.682 1.905z" fill="#CD6125"/><path d="M897.141 733.811c-.242-4.536 4.292-8.589 6.441-6.441 2.146 2.146-1.906 6.683-6.441 6.441z" fill="#FFDC96"/><path d="M896.673 746.224c.952-3.342.63-9.39.468-12.413l-.004-.001c-3.026-.161-9.07-.483-12.409.469-3.341.953-4.294 4.294-1.905 6.683 2.389 2.389 5.73 1.436 5.73 1.436s-.953 3.341 1.437 5.731c2.389 2.389 5.731 1.437 6.683-1.905z" fill="#CD6125"/><path d="M897.141 733.81c.242 4.536-4.294 8.587-6.441 6.441-2.146-2.146 1.906-6.683 6.441-6.441z" fill="#FFDC96"/><path d="M909.557 734.278c-3.341-.952-9.389-.63-12.413-.468v.004c-.161 3.025-.484 9.07.469 12.409.953 3.341 4.294 4.294 6.683 1.905 2.389-2.389 1.436-5.731 1.436-5.731s3.341.954 5.731-1.436c2.389-2.389 1.436-5.731-1.906-6.683z" fill="#CD6125"/><path d="M897.142 733.81c4.536-.242 8.588 4.293 6.441 6.44-2.148 2.148-6.683-1.905-6.441-6.44z" fill="#FFDC96"/><path d="M884.732 733.343c3.342.952 9.389.63 12.413.468v-.004c.161-3.025.484-9.069-.469-12.409s-4.294-4.294-6.683-1.905c-2.389 2.389-1.436 5.731-1.436 5.731s-3.341-.953-5.73 1.436c-2.39 2.389-1.437 5.731 1.905 6.683z" fill="#CD6125"/><path d="M897.147 733.811c-4.536.242-8.587-4.295-6.441-6.441s6.682 1.906 6.441 6.441z" fill="#FFDC96"/><path d="M696.344 669.707h4.037v38.354h-4.037v-38.354z" fill="#C8A255"/><path fill-rule="evenodd" clip-rule="evenodd" d="M670.157 654.672c0 8.706 8 16.058 18.254 16.058 10.254 0 18.254-7.352 18.254-16.058h3.028c0 10.703-9.701 19.086-21.282 19.086s-21.282-8.383-21.282-19.086h3.028z" fill="#C8A255"/><path fill-rule="evenodd" clip-rule="evenodd" d="M691.84 654.807c0 8.706 8 16.058 18.254 16.058 10.254 0 18.254-7.352 18.254-16.058h3.028c0 10.703-9.7 19.086-21.282 19.086-11.581 0-21.282-8.383-21.282-19.086h3.028z" fill="#C8A255"/><path d="M687.786 631.279c0 12.92-10.474 23.393-23.393 23.393-12.92 0-23.393-10.473-23.393-23.393 0-12.919 10.473-23.393 23.393-23.393 12.919 0 23.393 10.474 23.393 23.393zm65.929 0c0 12.92-10.473 23.393-23.392 23.393-12.92 0-23.393-10.473-23.393-23.393 0-12.919 10.473-23.393 23.393-23.393 12.919 0 23.392 10.474 23.392 23.393z" fill="#CD6125"/><path d="M728.188 623.836c0 17.03-13.806 30.836-30.836 30.836-17.031 0-30.836-13.806-30.836-30.836S680.321 593 697.352 593c17.03 0 30.836 13.806 30.836 30.836z" fill="#CD6125"/><path d="M662.266 624.899h70.178v29.773h-70.178v-29.773z" fill="#CD6125"/><path d="M836.406 613.963h4.576v36.606h-4.576v-36.606z" fill="#1B3025"/><path d="M863.473 589.183l2.316 2.316-24.78 24.78-2.316-2.316 24.78-24.78zm-49.7-.136l-2.287 2.287 24.916 24.917 2.288-2.288-24.917-24.916z" fill="#1B3025"/><path d="M863.858 569.349c0 13.268-10.755 24.023-24.023 24.023-13.267 0-24.023-10.755-24.023-24.023 0-13.267 10.756-24.022 24.023-24.022 13.268 0 24.023 10.755 24.023 24.022z" fill="#747D5D"/><path d="M879.87 591.084c0 8.845-7.17 16.015-16.015 16.015s-16.015-7.17-16.015-16.015 7.17-16.015 16.015-16.015 16.015 7.17 16.015 16.015zm-48.043 0c0 8.845-7.17 16.015-16.015 16.015s-16.015-7.17-16.015-16.015 7.17-16.015 16.015-16.015 16.015 7.17 16.015 16.015z" fill="#747D5D"/><path d="M744.887 844.614h6.863v20.591h-6.863v-20.591z" fill="#313131"/><path d="M744.887 865.205h6.863v59.485h-6.863v-59.485z" fill="#C8A255"/><path d="M744.887 865.205h6.863v4.576h-6.863v-4.576z" fill="#FFDC96"/><path d="M739.348 845.09l6.629 1.776-5.329 19.89-6.63-1.777 5.33-19.889z" fill="#313131"/><path d="M734.02 864.979l6.629 1.777-15.396 57.457-6.629-1.776 15.396-57.458z" fill="#747D5D"/><path d="M734.02 864.979l6.629 1.777-1.184 4.419-6.63-1.776 1.185-4.42z" fill="#FFDC96"/><path d="M701.417 813.008a4.576 4.576 0 11-9.153 0 4.576 4.576 0 019.153 0zm73.211 0a4.576 4.576 0 11-9.153 0 4.576 4.576 0 019.153 0zm73.211 0a4.576 4.576 0 11-9.153 0 4.576 4.576 0 019.153 0zm-109.813 0a4.575 4.575 0 11-9.15.001 4.575 4.575 0 019.15-.001zm73.211 0a4.575 4.575 0 11-9.15.001 4.575 4.575 0 019.15-.001zm73.211 0a4.575 4.575 0 11-9.15.001 4.575 4.575 0 019.15-.001zm-164.726 0a4.576 4.576 0 11-9.153 0 4.576 4.576 0 019.153 0zm73.211 0a4.576 4.576 0 11-9.153 0 4.576 4.576 0 019.153 0zm73.215 0a4.576 4.576 0 11-9.153 0 4.576 4.576 0 019.153 0zm-109.821 0a4.575 4.575 0 11-9.15.001 4.575 4.575 0 019.15-.001zm73.211 0a4.576 4.576 0 11-9.151 0 4.576 4.576 0 019.151 0zm73.211 0a4.576 4.576 0 11-9.151 0 4.576 4.576 0 019.151 0zm18.305 0a4.576 4.576 0 11-9.153 0 4.576 4.576 0 019.153 0z" fill="#C8A255"/><path d="M710.569 813.008a4.575 4.575 0 11-9.15.001 4.575 4.575 0 019.15-.001zm73.211 0a4.575 4.575 0 11-9.15.001 4.575 4.575 0 019.15-.001zm73.215 0a4.576 4.576 0 11-9.151 0 4.576 4.576 0 019.151 0zm-109.82 0a4.576 4.576 0 11-9.153 0 4.576 4.576 0 019.153 0zm73.211 0a4.576 4.576 0 11-9.153 0 4.576 4.576 0 019.153 0zm73.211 0a4.576 4.576 0 11-9.153 0 4.576 4.576 0 019.153 0zm-164.723 0a4.576 4.576 0 11-9.151 0 4.576 4.576 0 019.151 0zm73.211 0a4.576 4.576 0 11-9.153 0 4.576 4.576 0 019.153 0zm73.211 0a4.576 4.576 0 11-9.153 0 4.576 4.576 0 019.153 0zm-109.816 0a4.576 4.576 0 11-9.153 0 4.576 4.576 0 019.153 0zm73.211 0a4.576 4.576 0 11-9.153 0 4.576 4.576 0 019.153 0zm73.21 0a4.575 4.575 0 11-9.15.001 4.575 4.575 0 019.15-.001z" fill="#CD6125"/><path d="M692.266 776.402h9.151v36.606h-9.151v-36.606zm36.609 0h9.151v36.606h-9.151v-36.606zm36.602 0h9.151v36.606h-9.151v-36.606zm36.609 0h9.151v36.606h-9.151v-36.606zm36.602 0h9.151v36.606h-9.151v-36.606zm36.609 0h9.151v36.606h-9.151v-36.606zm-164.727 0h9.152v36.606h-9.152v-36.606zm36.606 0h9.151v36.606h-9.151v-36.606zm36.605 0h9.152v36.606h-9.152v-36.606zm36.606 0h9.151v36.606h-9.151v-36.606zm36.609 0h9.152v36.606h-9.152v-36.606zm36.602 0h9.151v36.606h-9.151v-36.606zm18.304 0h9.152v36.606h-9.152v-36.606z" fill="#C8A255"/><path d="M701.418 776.402h9.151v36.606h-9.151v-36.606zm36.605 0h9.152v36.606h-9.152v-36.606zm36.606 0h9.151v36.606h-9.151v-36.606zm36.605 0h9.152v36.606h-9.152v-36.606zm36.61 0h9.151v36.606h-9.151v-36.606zm36.601 0h9.152v36.606h-9.152v-36.606zm-164.722 0h9.151v36.606h-9.151v-36.606zm36.605 0h9.152v36.606h-9.152v-36.606zm36.606 0h9.151v36.606h-9.151v-36.606zm36.605 0h9.152v36.606h-9.152v-36.606zm36.606 0h9.151v36.606h-9.151v-36.606zm36.605 0h9.151v36.606h-9.151v-36.606z" fill="#CD6125"/><path d="M836.402 666.584h2.288v29.742h-2.288v-29.742z" fill="#747D5D"/><path d="M852.418 680.311v2.288h-29.742v-2.288h29.742z" fill="#747D5D"/><path d="M673.961 838.932v-16.015h-91.515v16.015h91.515z" fill="#683911"/><path d="M598.465 854.947v-20.591h-6.864v20.591h6.864zm64.062 0v-20.591h-6.863v20.591h6.863z" fill="#683911"/><path d="M587.376 774.824c0 7.554-5.2 13.679-11.614 13.679-6.414 0-11.614-6.125-11.614-13.679 0-7.555 5.2-13.679 11.614-13.679 6.414 0 11.614 6.124 11.614 13.679z" fill="#1B3025"/><path fill-rule="evenodd" clip-rule="evenodd" d="M597.323 764.576v59.217l-20.44-35.771 1.986-1.135 16.166 28.291v-50.602h2.288z" fill="#747D5D"/><path d="M614.477 774.872h6.863v20.59h-6.863v-20.59z" fill="#313131"/><path d="M614.477 795.462h6.863v59.485h-6.863v-59.485z" fill="#747D5D"/><path d="M614.477 795.462h6.863v4.576h-6.863v-4.576z" fill="#FFDC96"/><path d="M632.781 774.872h6.864v20.59h-6.864v-20.59z" fill="#313131"/><path d="M632.781 795.462h6.864v59.485h-6.864v-59.485z" fill="#C8A255"/><path d="M632.781 795.462h6.864v4.576h-6.864v-4.576z" fill="#FFDC96"/><path d="M607.962 751.945c0 7.554-5.2 13.679-11.614 13.679-6.414 0-11.614-6.125-11.614-13.679 0-7.555 5.2-13.679 11.614-13.679 6.414 0 11.614 6.124 11.614 13.679z" fill="#1B3025"/><path d="M598.601 690.21c0 9.324 7.558 16.882 16.881 16.882s16.881-7.558 16.881-16.882c0-9.323-7.558-16.881-16.881-16.881s-16.881 7.558-16.881 16.881z" fill="#747D5D"/><path fill-rule="evenodd" clip-rule="evenodd" d="M615.482 704.804c-8.06 0-14.593-6.534-14.593-14.594 0-8.059 6.533-14.593 14.593-14.593 8.06 0 14.593 6.534 14.593 14.593 0 8.06-6.533 14.594-14.593 14.594zm0 2.288c-9.323 0-16.881-7.558-16.881-16.882 0-9.323 7.558-16.881 16.881-16.881s16.881 7.558 16.881 16.881c0 9.324-7.558 16.882-16.881 16.882z" fill="#747D5D"/><path d="M550 691.901c0 8.391 6.803 15.193 15.194 15.193 8.391 0 15.193-6.802 15.193-15.193s-6.802-15.193-15.193-15.193S550 683.51 550 691.901z" fill="#747D5D"/><path fill-rule="evenodd" clip-rule="evenodd" d="M565.194 704.806c-7.128 0-12.906-5.778-12.906-12.905 0-7.128 5.778-12.905 12.906-12.905 7.127 0 12.905 5.777 12.905 12.905 0 7.127-5.778 12.905-12.905 12.905zm0 2.288c-8.391 0-15.194-6.802-15.194-15.193s6.803-15.193 15.194-15.193c8.391 0 15.193 6.802 15.193 15.193s-6.802 15.193-15.193 15.193z" fill="#747D5D"/><path d="M568.586 684.232c0 12.831 10.402 23.232 23.233 23.232 12.83 0 23.232-10.401 23.232-23.232S604.649 661 591.819 661c-12.831 0-23.233 10.401-23.233 23.232z" fill="#747D5D"/><path fill-rule="evenodd" clip-rule="evenodd" d="M591.819 705.177c-11.568 0-20.945-9.378-20.945-20.945s9.377-20.944 20.945-20.944c11.567 0 20.944 9.377 20.944 20.944 0 11.567-9.377 20.945-20.944 20.945zm0 2.287c-12.831 0-23.233-10.401-23.233-23.232S578.988 661 591.819 661c12.83 0 23.232 10.401 23.232 23.232s-10.402 23.232-23.232 23.232z" fill="#747D5D"/><path d="M615.625 690.738h-50.182v16.727h50.182v-16.727z" fill="#747D5D"/><path fill-rule="evenodd" clip-rule="evenodd" d="M322.484 497.731c.715-1.479 1.282-2.653 1.606-3.463l3.186 1.275c-.413 1.034-1.071 2.399-1.868 4.051-2.229 4.622-5.544 11.496-7.631 19.688 4.62-1.504 12.534-4.453 17.037-7.127 3.639-2.161 7.303-5.212 10.2-8.448 2.932-3.276 4.912-6.557 5.453-9.152l3.36.701c-.725 3.471-3.175 7.297-6.256 10.74-3.117 3.482-7.049 6.761-11.005 9.11-5.547 3.294-15.589 6.843-19.744 8.067-2.176 7.77-2.843 14.016-3.656 21.626-.283 2.645-.583 5.456-.97 8.553-2.214 17.698-2.121 31.291-1.975 52.745.04 5.999.085 12.613.085 20.103h-3.432c.001-7.413-.044-13.983-.085-19.961-.077-11.156-.139-20.253.132-28.929l-.042.003c-.296-4.158-2.046-9.979-4.392-16.004a150.155 150.155 0 00-2.701-6.466c-8.827-.182-19.495-2.52-25.933-7.67l-.253-.203c-2.984-2.386-5.322-4.256-7.019-6.558-1.804-2.446-2.822-5.274-3.479-9.507l3.391-.527c.608 3.916 1.489 6.152 2.85 7.998 1.42 1.926 3.429 3.537 6.654 6.117 5.232 4.185 14.134 6.441 22.191 6.858a159.983 159.983 0 00-3.259-6.535c-5.676-10.722-9.135-16.379-11.325-19.82-.381-.599-.731-1.14-1.051-1.636-1.468-2.271-2.337-3.616-2.928-5.389l3.256-1.085c.443 1.329 1.032 2.243 2.471 4.477.333.519.713 1.108 1.147 1.79 2.242 3.522 5.746 9.259 11.463 20.057 2.432 4.594 5.339 10.733 7.723 16.854a116.779 116.779 0 011.87 5.141c.3-3.967.701-8.008 1.236-12.279.37-2.96.661-5.693.94-8.301.851-7.976 1.576-14.775 4.038-23.262 2.089-9.916 6.268-18.566 8.715-23.632z" fill="#CD6125"/><path d="M342.592 476.344c0 11.372 9.219 20.591 20.591 20.591 11.372 0 20.59-9.219 20.59-20.591 0-11.372-9.218-20.591-20.59-20.591s-20.591 9.219-20.591 20.591zm-64.063-3.432c0 13.267 10.755 24.023 24.023 24.023 13.267 0 24.022-10.756 24.022-24.023s-10.755-24.023-24.022-24.023c-13.268 0-24.023 10.756-24.023 24.023z" fill="#747D5D"/><path d="M308.271 467.192c0 15.163 12.291 27.455 27.454 27.455s27.455-12.292 27.455-27.455c0-15.162-12.292-27.454-27.455-27.454-15.163 0-27.454 12.292-27.454 27.454z" fill="#747D5D"/><path d="M363.18 474.056h-61.773v22.879h61.773v-22.879zm-102.953 51.477c0 10.74 8.707 19.447 19.447 19.447 10.74 0 19.447-8.707 19.447-19.447 0-10.74-8.707-19.447-19.447-19.447-10.74 0-19.447 8.707-19.447 19.447z" fill="#747D5D"/><path d="M230.482 520.957c0 13.268 10.755 24.023 24.023 24.023 13.267 0 24.022-10.755 24.022-24.023 0-13.267-10.755-24.022-24.022-24.022-13.268 0-24.023 10.755-24.023 24.022z" fill="#747D5D"/><path d="M279.656 524.389h-25.319v20.716h25.319v-20.716z" fill="#747D5D"/><path d="M437.219 855.061h18.303l-4.307 13.727h-9.69l-4.306-13.727zm0 13.727h18.303l-4.307 13.727h-9.69l-4.306-13.727zm0 13.727h18.303l-4.307 13.727h-9.69l-4.306-13.727zm0 13.727h18.303l-4.307 13.727h-9.69l-4.306-13.727zm0 13.727h18.303l-4.307 13.728h-9.69l-4.306-13.728z" fill="#C8A255"/><path d="M446.535 845.928c3.646 0 6.578-5.133 6.578-22.863 0-17.731-6.578-32.065-6.578-32.065s-6.578 14.374-6.578 32.065c0 17.73 2.972 22.863 6.578 22.863z" fill="#1B3025"/><path d="M446.542 845.496c3.17 1.777 8.242-1.225 17-16.665 8.757-15.439 10.144-31.116 10.144-31.116s-12.799 9.279-21.557 24.719c-8.757 15.401-8.718 21.285-5.587 23.062z" fill="#1B3025"/><path d="M446.539 845.496c-3.17 1.777-8.242-1.225-17-16.665-8.758-15.439-10.144-31.116-10.144-31.116s12.799 9.279 21.557 24.719c8.797 15.401 8.757 21.285 5.587 23.062z" fill="#1B3025"/><path d="M445.029 847.586c1.743 3.198 7.648 3.317 23.3-5.134 15.613-8.45 25.163-21.047 25.163-21.047s-15.811 1.106-31.424 9.556c-15.613 8.451-18.743 13.466-17.039 16.625z" fill="#1B3025"/><path d="M448.053 847.586c-1.743 3.198-7.648 3.317-23.3-5.134-15.613-8.45-25.163-21.047-25.163-21.047s15.811 1.106 31.424 9.556c15.613 8.451 18.783 13.466 17.039 16.625z" fill="#1B3025"/><path d="M439.957 849.917c0 3.633 5.152 6.555 22.944 6.555 17.792 0 32.177-6.555 32.177-6.555s-14.424-6.555-32.177-6.555c-17.792.039-22.944 2.962-22.944 6.555z" fill="#1B3025"/><path d="M453.121 849.917c0 3.633-5.152 6.555-22.944 6.555-17.753 0-32.177-6.555-32.177-6.555s14.424-6.555 32.177-6.555c17.792.039 22.944 2.962 22.944 6.555z" fill="#1B3025"/><path d="M193.622 448.738c-1.785 7.435-7.688 13.247-15.169 14.894 7.481 1.624 13.384 7.458 15.169 14.871 1.784-7.458 7.733-13.293 15.26-14.894-7.527-1.624-13.476-7.413-15.26-14.871z" fill="#FFDC96"/><path d="M349.033 630.323a6.865 6.865 0 01-9.707 9.707 6.865 6.865 0 019.707-9.707zm12.941 12.942a6.865 6.865 0 01-9.707 9.707 6.865 6.865 0 019.707-9.707z" fill="#1B3025"/><path d="M361.971 640.03a6.865 6.865 0 01-9.707-9.707 6.865 6.865 0 019.707 9.707zm-12.942 12.942a6.864 6.864 0 11-9.707-9.706 6.864 6.864 0 019.707 9.706z" fill="#1B3025"/><path d="M353.882 638.412a4.576 4.576 0 11-6.47 6.471 4.576 4.576 0 016.47-6.471z" fill="#FFDC96"/><path d="M332.746 744.243h6.864v20.591h-6.864v-20.591z" fill="#313131"/><path d="M332.746 764.833h6.864v59.485h-6.864v-59.485z" fill="#C8A255"/><path d="M332.746 764.833h6.864v4.576h-6.864v-4.576z" fill="#FFDC96"/><path d="M133.109 719.076l4.854 4.853-14.56 14.56-4.854-4.853 14.56-14.56z" fill="#313131"/><path d="M118.551 733.636l4.853 4.853-42.062 42.062-4.853-4.853 42.062-42.062z" fill="#1B3025"/><path d="M118.551 733.636l4.853 4.853-3.235 3.236-4.854-4.853 3.236-3.236z" fill="#FFDC96"/><path d="M234.371 677.598l6.675-1.598 4.794 20.025-6.676 1.598-4.793-20.025z" fill="#313131"/><path d="M239.16 697.623l6.675-1.597 13.848 57.85-6.675 1.598-13.848-57.851z" fill="#CD6125"/><path d="M239.16 697.623l6.675-1.597 1.065 4.45-6.675 1.597-1.065-4.45z" fill="#FFDC96"/><path d="M351.031 744.242h6.864v20.591h-6.864v-20.591z" fill="#313131"/><path d="M351.031 764.833h6.864v59.485h-6.864v-59.485z" fill="#C8A255"/><path d="M351.031 764.833h6.864v4.576h-6.864v-4.576z" fill="#FFDC96"/><path d="M412.169 719.248c-1.785 7.435-7.688 13.246-15.169 14.894 7.481 1.624 13.384 7.458 15.169 14.871 1.784-7.459 7.733-13.293 15.26-14.894-7.527-1.625-13.476-7.413-15.26-14.871z" fill="#747D5D"/><path d="M1 757.97h2.534v35.469H1V757.97z" fill="#1B3025"/><path d="M1 792.288h102.954v130.408H1V792.288z" fill="#1B3025"/><path d="M24 847h57v76H24v-76z" fill="#000"/><g clip-path="url(#clip0)"><path d="M70.57 891.546s1.187 3.541 1.702 4.746c.515 1.206 1.354 2.291 2.672 3.672 1.447 1.522 2.201 2.287 4.149 3.97 1.944 1.687 10.049 8.497 12.541 9.381 2.493.884 1.862-6.19 1.862-6.19l-.186-9.012-18.083-6.869-4.657.302z" fill="#FFDC96"/><path d="M91.961 905.515s-4.556-2.866-6.459-4.818c-1.906-1.955-4.295-5.082-6.783-6.287-5.553-2.687-14.602-3.101-14.602-3.101s-1.552-2.351-2.836-3.534c-1.283-1.183-6.164-2.306-6.164-2.306l.082-3.336 7.84-4.451h28.646l.276 27.833z" fill="#CD6125"/><path d="M56.797 889.624l-.033 3.142h3.694l3.694-1.459s-.761-2.761-2.261-4.101c-2.094-1.869-6.791-1.743-6.791-1.743s-.09 1.389.276 2.377c.365.989 1.421 1.784 1.421 1.784zm-.095-8.34c.134.243.209.523.209.822 0 .944-.81 1.706-1.755 1.706l.041-1.676 1.505-.852z" fill="#FFDC96"/><path d="M63.521 883.418c.98-.024 1.766-.402 1.756-.845-.011-.443-.815-.782-1.795-.758-.98.024-1.766.403-1.755.845.01.443.814.783 1.794.758z" fill="#000"/><path d="M69.908 877.754a3.063 3.063 0 10-6.127 0h6.127z" fill="#CD6125"/><path d="M75.9 877.74a3.064 3.064 0 10-6.127 0H75.9z" fill="#CD6125"/><path d="M74.187 877.74a1.351 1.351 0 00-2.703 0h2.703zm-5.988 0a1.351 1.351 0 00-2.703 0H68.2z" fill="#000"/></g><path d="M51.332 716.788h2.288v41.182h-2.288v-41.182zm4.578 38.894h2.534v35.469H55.91v-35.469zm-9.156 0h2.534v35.469h-2.534v-35.469zm18.309 0h2.533v35.469h-2.534v-35.469zm9.147 0h2.29v29.742h-2.29v-29.742zm18.302 0H94.8v29.742h-2.288v-29.742zm-9.149 0h2.288v29.742h-2.288v-29.742zm18.301 2.288h2.288v25.166h-2.288V757.97zm-91.512 0h2.534v35.469h-2.534V757.97zm9.148 0h2.534v35.469h-2.533V757.97zm9.153 0h2.288V790h-2.288v-32.03z" fill="#1B3025"/><path d="M103.953 755.682v2.288H.999v-2.288h102.954z" fill="#1B3025"/><path d="M103.953 709.924v6.864H.999v-6.864h102.954z" fill="#CD6125"/><path d="M37.605 755.682h2.534v35.469h-2.534v-35.469z" fill="#1B3025"/><path d="M103.953 833.47h274.545v89.227H103.953V833.47zm0-77.788h210.485v77.787H103.953v-77.787z" fill="#747D5D"/><path d="M138.273 691.621h98.379v64.061h-98.379v-64.061z" fill="#1B3025"/><path d="M138.273 682.47h98.379v9.151h-98.379v-9.151z" fill="#CD6125"/><path d="M378.5 824.318v9.151H119.97v-9.151H378.5z" fill="#1B3025"/><path d="M103.953 783.136v9.152H.999v-9.152h102.954z" fill="#CD6125"/><path d="M81.076 846.053c0 15.795-12.804 28.598-28.599 28.598-15.794 0-28.598-12.803-28.598-28.598 0-15.794 12.804-28.598 28.598-28.598 15.795 0 28.599 12.804 28.599 28.598z" fill="#000"/><path d="M149.707 771.697h25.167v52.621h-25.167v-52.621zm54.91 0h25.167v52.621h-25.167v-52.621zm54.91 0h25.167v52.621h-25.167v-52.621zm-84.558 102.1c0 11.894-9.642 21.535-21.535 21.535-11.894 0-21.536-9.641-21.536-21.535s9.642-21.535 21.536-21.535c11.893 0 21.535 9.641 21.535 21.535z" fill="#FFDC96"/><path d="M131.406 876.939h43.47v45.758h-43.47v-45.758z" fill="#000"/><path d="M151.996 847.197h2.288v75.5h-2.288v-75.5z" fill="#747D5D"/><path d="M174.875 851.772l1.791 1.792-22.324 22.324-1.791-1.791 22.324-22.325z" fill="#747D5D"/><path d="M131.406 851.772l-1.791 1.792 22.134 22.134 1.791-1.792-22.134-22.134z" fill="#747D5D"/><path d="M177.164 876.939v-2.288h-48.045v2.288h48.045z" fill="#747D5D"/><path d="M236.742 873.797c0 11.894-9.641 21.535-21.535 21.535-11.893 0-21.535-9.641-21.535-21.535s9.642-21.535 21.535-21.535c11.894 0 21.535 9.641 21.535 21.535z" fill="#FFDC96"/><path d="M193.18 876.939h43.469v45.758H193.18v-45.758z" fill="#000"/><path d="M213.77 847.197h2.287v75.5h-2.287v-75.5z" fill="#747D5D"/><path d="M236.648 851.772l1.792 1.792-22.324 22.324-1.792-1.791 22.324-22.325z" fill="#747D5D"/><path d="M193.18 851.772l-1.792 1.792 22.134 22.134 1.792-1.792-22.134-22.134z" fill="#747D5D"/><path d="M238.938 876.939v-2.288h-48.046v2.288h48.046z" fill="#747D5D"/><path d="M298.512 873.797c0 11.894-9.642 21.535-21.535 21.535-11.894 0-21.536-9.641-21.536-21.535s9.642-21.535 21.536-21.535c11.893 0 21.535 9.641 21.535 21.535z" fill="#FFDC96"/><path d="M254.949 876.939h43.47v45.758h-43.47v-45.758z" fill="#000"/><path d="M275.539 847.197h2.288v75.5h-2.288v-75.5z" fill="#747D5D"/><path d="M298.418 851.772l1.791 1.792-22.324 22.324-1.791-1.791 22.324-22.325z" fill="#747D5D"/><path d="M254.949 851.772l-1.791 1.792 22.134 22.134 1.791-1.792-22.134-22.134z" fill="#747D5D"/><path d="M300.707 876.939v-2.288h-48.045v2.288h48.045z" fill="#747D5D"/><path d="M360.289 873.797c0 11.894-9.642 21.535-21.535 21.535-11.894 0-21.535-9.641-21.535-21.535s9.641-21.535 21.535-21.535c11.893 0 21.535 9.641 21.535 21.535z" fill="#FFDC96"/><path d="M316.727 876.939h43.469v45.758h-43.469v-45.758z" fill="#000"/><path d="M337.316 847.197h2.288v75.5h-2.288v-75.5z" fill="#747D5D"/><path d="M360.195 851.772l1.792 1.792-22.324 22.324-1.792-1.791 22.324-22.325z" fill="#747D5D"/><path d="M316.727 851.772l-1.792 1.792 22.134 22.134 1.791-1.792-22.133-22.134z" fill="#747D5D"/><path d="M362.484 876.939v-2.288h-48.045v2.288h48.045z" fill="#747D5D"/><path d="M357.906 794.576h2.288v32.03h-2.288v-32.03zm-9.152 0h2.288v32.03h-2.288v-32.03z" fill="#1B3025"/><path d="M348.754 794.576h2.288v32.03h-2.288v-32.03zm-9.149 0h2.288v32.03h-2.288v-32.03zm-9.152 0h2.288v32.03h-2.288v-32.03zm-9.148 0h2.288v32.03h-2.288v-32.03zm-27.457 2.288h2.288v32.03h-2.288v-32.03zm-27.453 0h2.287v32.03h-2.287v-32.03zm-27.457 0h2.287v32.03h-2.287v-32.03zm-27.454-2.288h2.288v32.03h-2.288v-32.03zm-27.453 0h2.288v32.03h-2.288v-32.03zm-27.457 0h2.288v32.03h-2.288v-32.03zm-27.453 0h2.288v32.03h-2.288v-32.03zm183.027 0h2.288v32.03h-2.288v-32.03zm-27.453 2.288h2.288v32.03h-2.288v-32.03zm-27.453 0h2.288v32.03h-2.288v-32.03zm-27.457 0h2.288v32.03h-2.288v-32.03zm-27.453-2.288h2.288v32.03h-2.288v-32.03zm-27.457 0h2.288v32.03h-2.288v-32.03zm-27.453 0h2.288v32.03h-2.288v-32.03zm-27.453 0h2.288v32.03h-2.288v-32.03zm247.09 0h2.287v32.03h-2.287v-32.03zm9.148 0h2.288v32.03h-2.288v-32.03zm-73.211 0h2.288v36.606h-2.288v-36.606zm-27.453 2.288h2.288v36.606h-2.288v-36.606zm-27.453 0h2.288v36.606h-2.288v-36.606zm-27.457 0h2.288v36.606h-2.288v-36.606zm-27.453-2.288h2.288v36.606h-2.288v-36.606zm-27.453 0h2.287v36.606h-2.287v-36.606zm-27.454 0h2.288v36.606h-2.288v-36.606z" fill="#1B3025"/><path d="M378.5 794.576v2.288H119.97v-2.288H378.5zM52.477 687.046l51.477 22.878H1l51.477-22.878zM81.074 865.5h22.879v57.197H81.074V865.5z" fill="#1B3025"/><path d="M154.289 703.061h25.167v41.182h-25.167v-41.182zm41.18 0h25.166v41.182h-25.166v-41.182z" fill="#747D5D"/><path d="M323 710.248c0 9.941-8.059 18-18 18s-18-8.059-18-18c0-9.942 8.059-18 18-18s18 8.058 18 18z" fill="#CD6125"/><path d="M289.57 731.329a3.037 3.037 0 013.037-3.036h24.289a3.037 3.037 0 110 6.072h-24.289a3.037 3.037 0 01-3.037-3.036z" fill="#683911"/><path d="M289.57 738.917c0-3.036 1.38-4.555 2.761-4.554h24.842c1.38-.001 2.76 1.838 2.76 4.554-.001 3.036-5.52 16.699-5.52 16.699h-19.322s-5.521-13.663-5.521-16.699z" fill="#1B3025"/><path d="M90.898 637.705L117.603 611l26.705 26.705h-53.41z" fill="#683911"/><path d="M121.801 637.705L148.505 611l26.705 26.705h-53.409z" fill="#683911"/><path d="M152.691 637.705L179.396 611l26.705 26.705h-53.41z" fill="#683911"/><path d="M183.602 637.705L210.306 611l26.705 26.705h-53.409zm-123.602 0L86.705 611l26.704 26.705H60z" fill="#683911"/><path d="M32.027 486.503l5.944-3.432 10.296 17.832-5.944 3.432-10.296-17.832z" fill="#313131"/><path d="M42.324 504.335l5.944-3.432 29.743 51.516-5.944 3.431-29.743-51.515z" fill="#CD6125"/><path d="M42.324 504.335l5.944-3.432 2.288 3.963-5.944 3.432-2.288-3.963z" fill="#FFDC96"/><path d="M149.852 483.071l5.944 3.432-10.296 17.832-5.944-3.432 10.296-17.832z" fill="#313131"/><path d="M139.559 500.903l5.944 3.432-29.743 51.515-5.944-3.431 29.743-51.516z" fill="#683911"/><path d="M139.559 500.903l5.944 3.432-2.288 3.963-5.944-3.432 2.288-3.963z" fill="#FFDC96"/><path d="M11.438 563.147v9.151H2.286v-9.151h9.152zm0-18.303v9.151H2.286v-9.151h9.152zm173.878-9.152v9.152h-9.151v-9.152h9.151zM84.652 563.147v9.151h-9.151v-9.151h9.151zm-36.609 0v9.151h-9.151v-9.151h9.151zm73.215 0v9.151h-9.152v-9.151h9.152zm36.605 0v9.151h-9.151v-9.151h9.151zm-128.121 0v9.151h-9.151v-9.151h9.151zm73.211 0v9.151h-9.151v-9.151h9.151zm-36.605 0v9.151h-9.152v-9.151h9.152zm73.211 0v9.151h-9.152v-9.151h9.152zm36.605 0v9.151h-9.151v-9.151h9.151z" fill="#CD6125"/><path d="M20.59 563.147v9.151h-9.152v-9.151h9.152zm-9.152-9.152v9.152H2.286v-9.152h9.152z" fill="#683911"/><path d="M185.316 553.995v9.152h-9.151v-9.152h9.151z" fill="#CD6125"/><path d="M11.438 535.692v9.152H2.286v-9.152h9.152zm173.878 9.152v9.151h-9.151v-9.151h9.151zm-91.511 18.303v9.151h-9.152v-9.151h9.152zm-36.61 0v9.151h-9.151v-9.151h9.151zm73.211 0v9.151h-9.151v-9.151h9.151zm36.61 0v9.151h-9.152v-9.151h9.152zm-128.121 0v9.151h-9.152v-9.151h9.152zm73.21 0v9.151h-9.151v-9.151h9.151zm-36.609 0v9.151h-9.151v-9.151h9.151zm73.211 0v9.151h-9.151v-9.151h9.151zm36.609 0v9.151h-9.151v-9.151h9.151z" fill="#683911"/><path d="M96.093 467.056c0 8.845-7.17 16.015-16.015 16.015s-16.016-7.17-16.016-16.015 7.17-16.015 16.016-16.015c8.844 0 16.015 7.17 16.015 16.015z" fill="#CD6125"/><path d="M29.74 544.844a9.151 9.151 0 01-9.151 9.151 9.151 9.151 0 01-9.151-9.151 9.151 9.151 0 1118.303 0zm18.305 0a9.151 9.151 0 01-9.151 9.151 9.151 9.151 0 01-9.152-9.151 9.151 9.151 0 1118.303 0z" fill="#C8A255"/><path d="M66.346 544.844a9.151 9.151 0 01-9.152 9.151 9.151 9.151 0 01-9.151-9.151 9.151 9.151 0 1118.303 0zm18.304 0a9.151 9.151 0 01-9.15 9.151 9.151 9.151 0 01-9.152-9.151 9.151 9.151 0 1118.303 0zm18.305 0a9.15 9.15 0 01-9.151 9.151 9.151 9.151 0 01-9.152-9.151 9.151 9.151 0 1118.303 0z" fill="#C8A255"/><path d="M176.164 544.844v18.303H11.437v-18.303h164.727z" fill="#C8A255"/><path d="M121.256 544.844a9.15 9.15 0 01-9.151 9.151 9.151 9.151 0 01-9.152-9.151 9.151 9.151 0 019.152-9.152 9.151 9.151 0 019.151 9.152zm18.305 0a9.151 9.151 0 01-9.152 9.151 9.15 9.15 0 01-9.151-9.151 9.151 9.151 0 019.151-9.152 9.151 9.151 0 019.152 9.152z" fill="#C8A255"/><path d="M157.862 544.844a9.152 9.152 0 11-18.304-.002 9.152 9.152 0 0118.304.002z" fill="#C8A255"/><path d="M176.166 544.844a9.152 9.152 0 11-18.302-.002 9.152 9.152 0 0118.302.002zM62 363c0 8.837-7.163 16-16 16s-16-7.163-16-16 7.163-16 16-16 16 7.163 16 16zm35-1.5a8.5 8.5 0 11-17 0 8.5 8.5 0 0117 0z" fill="#C8A255"/><defs><clipPath id="clip0"><path fill="#fff" transform="translate(51.043 873.284)" d="M0 0h42.527v50.721H0z"/></clipPath></defs></svg>