<svg width="33" height="28" viewBox="0 0 33 28" fill="none" xmlns="http://www.w3.org/2000/svg">
<path d="M16.4954 5.49914C16.3002 5.49892 16.1231 5.3852 16.0416 5.20788C14.7687 2.43728 11.9296 0.5 8.63589 0.5C4.1402 0.5 0.5 4.10061 0.5 8.50415C0.5 9.43558 0.660519 10.3273 0.961576 11.1578L0.962017 11.159C1.302 12.1045 1.81816 12.9721 2.469 13.7197L16.4954 5.49914ZM16.4954 5.49914C16.6905 5.49936 16.8679 5.38604 16.9498 5.20891M16.4954 5.49914L16.9498 5.20891M16.9498 5.20891C18.2309 2.43718 21.0706 0.5 24.3641 0.5C28.8559 0.5 32.5 4.10076 32.5 8.50415C32.5 9.45611 32.3285 10.3675 32.0186 11.2247C31.6101 12.3346 30.9571 13.3333 30.1232 14.1559C30.1229 14.1561 30.1226 14.1564 30.1223 14.1567L16.5183 27.4684L3.40435 14.6361C3.39579 14.6277 3.38693 14.6196 3.37779 14.6119M16.9498 5.20891L3.37779 14.6119M3.37779 14.6119C3.05013 14.3344 2.74757 14.0395 2.46905 13.7197L3.37779 14.6119Z" stroke="white" stroke-linejoin="round"/>
</svg>
