<svg width="36" height="36" viewBox="0 0 36 36" fill="none" xmlns="http://www.w3.org/2000/svg">
<path d="M27.0602 6.31982C25.9102 6.31982 24.9902 7.24982 24.9902 8.38982C24.9902 9.53982 25.9202 10.4598 27.0602 10.4598C28.2102 10.4598 29.1302 9.52982 29.1302 8.38982C29.1302 7.24982 28.2002 6.31982 27.0602 6.31982Z" fill="white"/>
<path d="M17.8409 8.97998C13.0409 8.97998 9.13086 12.89 9.13086 17.69C9.13086 22.49 13.0409 26.4 17.8409 26.4C22.6409 26.4 26.5509 22.49 26.5509 17.69C26.5509 12.89 22.6409 8.97998 17.8409 8.97998ZM17.8409 23.27C14.7609 23.27 12.2609 20.77 12.2609 17.69C12.2609 14.61 14.7609 12.11 17.8409 12.11C20.9209 12.11 23.4209 14.61 23.4209 17.69C23.4209 20.77 20.9109 23.27 17.8409 23.27Z" fill="white"/>
<path d="M24.75 35.38H10.63C4.77 35.38 0 30.61 0 24.75V10.63C0 4.77 4.77 0 10.63 0H24.76C30.62 0 35.39 4.77 35.39 10.63V24.76C35.38 30.61 30.61 35.38 24.75 35.38ZM10.63 3.33C6.61 3.33 3.33 6.6 3.33 10.63V24.76C3.33 28.78 6.6 32.06 10.63 32.06H24.76C28.78 32.06 32.06 28.79 32.06 24.76V10.63C32.06 6.61 28.79 3.33 24.76 3.33H10.63Z" fill="white"/>
</svg>
