<svg width="39" height="33" viewBox="0 0 39 33" fill="none" xmlns="http://www.w3.org/2000/svg">
<path d="M38.8363 3.8461C37.5935 4.40855 36.2327 4.74421 34.8901 4.97101C35.5251 4.86215 36.4595 3.71909 36.8314 3.24735C37.403 2.53975 37.8747 1.73235 38.1378 0.861448C38.1741 0.797945 38.2013 0.707226 38.1287 0.652795C38.0471 0.616508 37.9836 0.634651 37.9201 0.670939C36.4323 1.46926 34.8901 2.04986 33.2481 2.4581C33.112 2.49439 33.0122 2.4581 32.9215 2.37645C32.7854 2.2313 32.6584 2.08615 32.5132 1.95915C31.8238 1.36947 31.0799 0.915879 30.2453 0.571148C29.1476 0.126626 27.9501 -0.0638833 26.7707 0.00869175C25.6186 0.0812668 24.4937 0.407854 23.4776 0.943095C22.4525 1.47834 21.5453 2.22223 20.8196 3.11127C20.0666 4.0366 19.5132 5.1343 19.232 6.2955C18.9599 7.41134 18.978 8.51811 19.1504 9.6521C19.1776 9.84261 19.1594 9.86075 18.9871 9.84261C12.5642 8.89006 7.24806 6.59487 2.92077 1.66885C2.73026 1.45112 2.63047 1.45112 2.47625 1.68699C0.589299 4.51741 1.50556 9.0715 3.86425 11.3123C4.18176 11.6116 4.49928 11.911 4.85308 12.1832C4.72608 12.2104 3.15664 12.038 1.7505 11.3123C1.55999 11.1943 1.46927 11.2578 1.45113 11.4755C1.43298 11.784 1.4602 12.0652 1.50556 12.3918C1.86843 15.2676 3.85518 17.9256 6.58581 18.9598C6.9124 19.0959 7.2662 19.2139 7.62 19.2774C7.00312 19.4134 6.35901 19.5132 4.58093 19.3681C4.35413 19.3227 4.27248 19.4407 4.35413 19.6493C5.68769 23.2962 8.58162 24.3848 10.7407 25.0017C11.031 25.0561 11.3213 25.0561 11.6116 25.1196C11.5935 25.1469 11.5753 25.1469 11.5572 25.1741C10.8405 26.2718 8.35483 27.0792 7.19363 27.4874C5.08895 28.2222 2.79377 28.5579 0.571155 28.3402C0.217352 28.2857 0.135705 28.2948 0.0449864 28.3402C-0.0548042 28.4037 0.0359146 28.4853 0.144777 28.576C0.598371 28.8754 1.05196 29.1385 1.5237 29.3925C2.93892 30.1455 4.40856 30.7351 5.95078 31.1615C13.9159 33.3569 22.8789 31.7421 28.8573 25.8091C33.5474 21.1462 35.1985 14.7142 35.1985 8.27317C35.1985 8.01916 35.4979 7.88308 35.6702 7.747C36.895 6.83074 37.8747 5.73305 38.791 4.50834C38.9996 4.23619 38.9996 3.99125 38.9996 3.89145C38.9996 3.87331 38.9996 3.85517 38.9996 3.85517C38.9996 3.7463 38.9906 3.77352 38.8363 3.8461Z" fill="white"/>
</svg>
