<svg width="33" height="28" fill="none" xmlns="http://www.w3.org/2000/svg"><path d="M16.495 5.5a.5.5 0 01-.453-.292C14.769 2.438 11.93.5 8.636.5 4.14.5.5 4.1.5 8.504c0 .932.16 1.823.462 2.654v.001a8.06 8.06 0 001.507 2.56L16.495 5.5zm0 0a.5.5 0 00.455-.291m-.455.29l.455-.29m0 0A8.161 8.161 0 0124.364.5C28.856.5 32.5 4.1 32.5 8.504a7.97 7.97 0 01-.481 2.72 8.01 8.01 0 01-1.897 2.933L16.518 27.468 3.404 14.636a.474.474 0 00-.026-.024M16.95 5.209L3.378 14.612m0 0a8.38 8.38 0 01-.909-.892l.909.892z" stroke="#fff" stroke-linejoin="round"/></svg>