<svg width="36" height="36" fill="none" xmlns="http://www.w3.org/2000/svg"><path d="M27.06 6.32c-1.15 0-2.07.93-2.07 2.07 0 1.15.93 2.07 2.07 2.07 1.15 0 2.07-.93 2.07-2.07 0-1.14-.93-2.07-2.07-2.07zm-9.22 2.66c-4.8 0-8.71 3.91-8.71 8.71 0 4.8 3.91 8.71 8.71 8.71 4.8 0 8.71-3.91 8.71-8.71 0-4.8-3.91-8.71-8.71-8.71zm0 14.29c-3.08 0-5.58-2.5-5.58-5.58s2.5-5.58 5.58-5.58 5.58 2.5 5.58 5.58-2.51 5.58-5.58 5.58z" fill="#fff"/><path d="M24.75 35.38H10.63C4.77 35.38 0 30.61 0 24.75V10.63C0 4.77 4.77 0 10.63 0h14.13c5.86 0 10.63 4.77 10.63 10.63v14.13c-.01 5.85-4.78 10.62-10.64 10.62zM10.63 3.33c-4.02 0-7.3 3.27-7.3 7.3v14.13c0 4.02 3.27 7.3 7.3 7.3h14.13c4.02 0 7.3-3.27 7.3-7.3V10.63c0-4.02-3.27-7.3-7.3-7.3H10.63z" fill="#fff"/></svg>