<svg width="39" height="33" fill="none" xmlns="http://www.w3.org/2000/svg"><path d="M38.836 3.846c-1.242.563-2.603.898-3.946 1.125.635-.109 1.57-1.252 1.941-1.724.572-.707 1.044-1.515 1.307-2.386.036-.063.063-.154-.01-.208-.08-.036-.144-.018-.208.018a19.964 19.964 0 01-4.672 1.787.324.324 0 01-.326-.082c-.137-.145-.264-.29-.409-.417A8.33 8.33 0 0030.245.571 7.987 7.987 0 0026.771.01a8.19 8.19 0 00-3.293.934 8.55 8.55 0 00-2.658 2.168 8.1 8.1 0 00-1.588 3.184c-.272 1.116-.254 2.223-.082 3.357.028.19.01.209-.163.19C12.564 8.89 7.248 6.596 2.921 1.67c-.19-.218-.29-.218-.445.018-1.887 2.83-.97 7.385 1.388 9.625.318.3.635.599.99.871-.128.027-1.697-.145-3.104-.87-.19-.119-.28-.055-.299.162-.018.309.01.59.055.917.362 2.876 2.35 5.534 5.08 6.568.326.136.68.254 1.034.317-.617.136-1.261.236-3.04.091-.226-.045-.308.073-.226.281 1.334 3.647 4.228 4.736 6.387 5.353.29.054.58.054.87.118-.018.027-.036.027-.054.054-.716 1.098-3.202 1.905-4.363 2.313-2.105.735-4.4 1.07-6.623.853-.354-.054-.435-.045-.526 0-.1.064-.01.145.1.236.453.3.907.563 1.379.816a21.687 21.687 0 004.427 1.77c7.965 2.195 16.928.58 22.906-5.353 4.69-4.663 6.342-11.095 6.342-17.536 0-.254.299-.39.471-.526 1.225-.916 2.205-2.014 3.121-3.239.209-.272.209-.517.209-.617v-.036c0-.109-.01-.081-.164-.009z" fill="#fff"/></svg>